M48
;Layer_Color=9474304
;FILE_FORMAT=2:5
INCH,TZ
;TYPE=PLATED
T7F00S00C0.24803
;TYPE=NON_PLATED
T8F00S00C0.15748
%
G90
G05
T07
G00X-161417Y-216535
M15
G01X-149606
M16
G00X59055Y-216535
M15
G01X47244
M16
G00X59055Y216535
M15
G01X47244
M16
G00X-161417Y216535
M15
G01X-149606
M16
T08
G00X127953Y-269685
M15
G01X141732
M16
G00X127953Y-246063
M15
G01X141732
M16
G00X127953Y-187008
M15
G01X141732
M16
G00X127953Y-163386
M15
G01X141732
M16
G00X127953Y163386
M15
G01X141732
M16
G00X127953Y187008
M15
G01X141732
M16
G00X127953Y246063
M15
G01X141732
M16
G00X127953Y269685
M15
G01X141732
M16
M17
M30
