G04*
G04 #@! TF.GenerationSoftware,Altium Limited,Altium Designer,18.1.9 (240)*
G04*
G04 Layer_Color=65535*
%FSLAX25Y25*%
%MOIN*%
G70*
G01*
G75*
%ADD10C,0.01968*%
%ADD11C,0.00984*%
%ADD12C,0.00787*%
%ADD13C,0.01000*%
D10*
X308268Y0D02*
X308264Y1000D01*
X308254Y2001D01*
X308238Y3001D01*
X308215Y4001D01*
X308185Y5001D01*
X308148Y6001D01*
X308105Y7001D01*
X308055Y8000D01*
X307999Y8999D01*
X307936Y9997D01*
X307866Y10995D01*
X307790Y11993D01*
X307707Y12990D01*
X307618Y13986D01*
X307522Y14982D01*
X307419Y15977D01*
X307310Y16972D01*
X307194Y17965D01*
X307071Y18958D01*
X306942Y19950D01*
X306806Y20942D01*
X306664Y21932D01*
X306515Y22921D01*
X306360Y23909D01*
X306198Y24897D01*
X306030Y25883D01*
X305855Y26868D01*
X305673Y27852D01*
X305485Y28834D01*
X305291Y29816D01*
X305089Y30796D01*
X304882Y31774D01*
X304668Y32752D01*
X304447Y33727D01*
X304220Y34702D01*
X303987Y35675D01*
X303747Y36646D01*
X303501Y37616D01*
X303248Y38584D01*
X302989Y39550D01*
X302723Y40514D01*
X302451Y41477D01*
X302173Y42438D01*
X301888Y43397D01*
X301597Y44354D01*
X301299Y45309D01*
X300995Y46263D01*
X300685Y47214D01*
X300369Y48163D01*
X300046Y49110D01*
X299717Y50055D01*
X299382Y50997D01*
X299041Y51938D01*
X298693Y52876D01*
X298339Y53812D01*
X297979Y54745D01*
X297613Y55676D01*
X297240Y56604D01*
X296861Y57530D01*
X296477Y58454D01*
X296086Y59375D01*
X295689Y60293D01*
X295286Y61209D01*
X294877Y62122D01*
X294461Y63032D01*
X294040Y63939D01*
X293613Y64844D01*
X293180Y65746D01*
X292741Y66645D01*
X292295Y67541D01*
X291844Y68434D01*
X291387Y69324D01*
X290924Y70211D01*
X290456Y71095D01*
X289981Y71975D01*
X289500Y72853D01*
X289014Y73727D01*
X288522Y74598D01*
X288024Y75466D01*
X287521Y76330D01*
X287012Y77192D01*
X286496Y78049D01*
X285976Y78904D01*
X285449Y79754D01*
X284917Y80602D01*
X284380Y81445D01*
X283837Y82285D01*
X283288Y83122D01*
X282734Y83955D01*
X282174Y84784D01*
X281609Y85610D01*
X281038Y86431D01*
X280462Y87249D01*
X279880Y88063D01*
X279293Y88873D01*
X278701Y89679D01*
X278103Y90482D01*
X277500Y91280D01*
X276892Y92074D01*
X276278Y92865D01*
X275660Y93651D01*
X275036Y94433D01*
X274407Y95211D01*
X273772Y95984D01*
X273133Y96754D01*
X272488Y97519D01*
X271839Y98280D01*
X271184Y99037D01*
X270525Y99789D01*
X269860Y100537D01*
X269191Y101280D01*
X268516Y102019D01*
X267837Y102753D01*
X267153Y103483D01*
X266464Y104209D01*
X265770Y104929D01*
X265072Y105646D01*
X264368Y106357D01*
X263660Y107064D01*
X262948Y107766D01*
X262230Y108463D01*
X261508Y109156D01*
X260782Y109844D01*
X260051Y110527D01*
X259315Y111205D01*
X258575Y111878D01*
X257831Y112546D01*
X257082Y113210D01*
X256328Y113868D01*
X255571Y114521D01*
X254809Y115170D01*
X254042Y115813D01*
X253272Y116451D01*
X252497Y117084D01*
X251718Y117712D01*
X250935Y118334D01*
X250148Y118952D01*
X249357Y119564D01*
X248561Y120171D01*
X247762Y120773D01*
X246959Y121369D01*
X246152Y121960D01*
X245340Y122546D01*
X244526Y123126D01*
X243707Y123701D01*
X242884Y124270D01*
X242058Y124834D01*
X241228Y125392D01*
X240394Y125945D01*
X239556Y126493D01*
X238715Y127034D01*
X237871Y127570D01*
X237022Y128101D01*
X236171Y128626D01*
X235316Y129145D01*
X234457Y129659D01*
X233595Y130167D01*
X232730Y130669D01*
X231861Y131165D01*
X230989Y131656D01*
X230114Y132141D01*
X229236Y132620D01*
X228354Y133093D01*
X227470Y133560D01*
X226582Y134022D01*
X225691Y134477D01*
X224798Y134927D01*
X223901Y135370D01*
X223001Y135808D01*
X222099Y136240D01*
X221194Y136665D01*
X220285Y137085D01*
X219374Y137499D01*
X218461Y137907D01*
X217545Y138308D01*
X216626Y138704D01*
X215704Y139093D01*
X214780Y139476D01*
X213853Y139853D01*
X212924Y140224D01*
X211993Y140589D01*
X211058Y140948D01*
X210122Y141300D01*
X209184Y141646D01*
X208243Y141986D01*
X207299Y142320D01*
X206354Y142647D01*
X205406Y142968D01*
X204457Y143283D01*
X203505Y143592D01*
X202552Y143894D01*
X201596Y144190D01*
X200638Y144479D01*
X199679Y144762D01*
X198717Y145039D01*
X197754Y145310D01*
X196789Y145574D01*
X195822Y145831D01*
X194854Y146082D01*
X193884Y146327D01*
X192912Y146565D01*
X191939Y146797D01*
X190964Y147023D01*
X189988Y147242D01*
X189010Y147454D01*
X188031Y147660D01*
X187051Y147859D01*
X186069Y148052D01*
X185086Y148239D01*
X184102Y148419D01*
X183117Y148592D01*
X182130Y148759D01*
X181143Y148919D01*
X180154Y149073D01*
X179165Y149220D01*
X178174Y149361D01*
X177183Y149495D01*
X176190Y149622D01*
X175197Y149743D01*
X174204Y149857D01*
X173209Y149965D01*
X172213Y150066D01*
X171218Y150160D01*
X170221Y150248D01*
X169224Y150329D01*
X168226Y150404D01*
X167228Y150472D01*
X166229Y150533D01*
X165230Y150588D01*
X164231Y150636D01*
X163232Y150678D01*
X162232Y150713D01*
X161232Y150741D01*
X160231Y150762D01*
X159231Y150777D01*
X158231Y150786D01*
X157230Y150787D01*
X156230Y150782D01*
X155229Y150771D01*
X154229Y150752D01*
X153229Y150727D01*
X152229Y150696D01*
X151229Y150658D01*
X150230Y150613D01*
X149231Y150562D01*
X148232Y150504D01*
X147234Y150439D01*
X146236Y150367D01*
X145238Y150290D01*
X144241Y150205D01*
X143245Y150114D01*
X142249Y150016D01*
X141254Y149912D01*
X140260Y149801D01*
X139267Y149683D01*
X138274Y149559D01*
X137282Y149428D01*
X136291Y149291D01*
X135301Y149147D01*
X134312Y148997D01*
X133324Y148840D01*
X132337Y148676D01*
X131351Y148506D01*
X130366Y148330D01*
X129383Y148146D01*
X128400Y147957D01*
X127419Y147760D01*
X126440Y147558D01*
X125461Y147349D01*
X124484Y147133D01*
X123509Y146911D01*
X122535Y146682D01*
X121563Y146447D01*
X120592Y146206D01*
X119622Y145958D01*
X118655Y145703D01*
X117689Y145442D01*
X116725Y145175D01*
X115763Y144902D01*
X114802Y144622D01*
X113844Y144335D01*
X112887Y144043D01*
X111932Y143744D01*
X110979Y143438D01*
X110029Y143126D01*
X109080Y142808D01*
X108134Y142484D01*
X107189Y142154D01*
X106247Y141817D01*
X105308Y141474D01*
X104370Y141125D01*
X103435Y140769D01*
X102502Y140407D01*
X101572Y140040D01*
X100644Y139665D01*
X99718Y139285D01*
X98796Y138899D01*
X97875Y138507D01*
X96958Y138108D01*
X96043Y137704D01*
X95130Y137293D01*
X94221Y136876D01*
X93314Y136453D01*
X92410Y136025D01*
X91509Y135590D01*
X90611Y135149D01*
X89716Y134703D01*
X88823Y134250D01*
X87934Y133792D01*
X87048Y133327D01*
X86165Y132857D01*
X85285Y132381D01*
X84408Y131899D01*
X83535Y131411D01*
X82665Y130918D01*
X81798Y130419D01*
X80934Y129913D01*
X80074Y129403D01*
X79217Y128886D01*
X78364Y128364D01*
X77513Y127836D01*
X76667Y127303D01*
X75824Y126764D01*
X74985Y126219D01*
X74149Y125669D01*
X73317Y125114D01*
X72489Y124553D01*
X71665Y123986D01*
X70844Y123414D01*
X70027Y122836D01*
X69214Y122253D01*
X68405Y121665D01*
X67599Y121071D01*
X66798Y120472D01*
X66001Y119868D01*
X65208Y119258D01*
X64418Y118644D01*
X63633Y118024D01*
X62852Y117398D01*
X62075Y116768D01*
X61303Y116132D01*
X60534Y115492D01*
X59770Y114846D01*
X59010Y114195D01*
X58255Y113539D01*
X57504Y112879D01*
X56757Y112213D01*
X56015Y111542D01*
X55277Y110866D01*
X54544Y110186D01*
X53815Y109500D01*
X53091Y108810D01*
X52371Y108115D01*
X51656Y107415D01*
X50946Y106711D01*
X50240Y106002D01*
X49539Y105288D01*
X48843Y104569D01*
X48152Y103847D01*
X47465Y103119D01*
X46783Y102387D01*
X46106Y101650D01*
X45434Y100909D01*
X44767Y100163D01*
X44105Y99413D01*
X43448Y98659D01*
X42796Y97900D01*
X42149Y97137D01*
X41507Y96370D01*
X40870Y95598D01*
X40239Y94822D01*
X39612Y94042D01*
X38991Y93258D01*
X38375Y92470D01*
X37764Y91678D01*
X37158Y90882D01*
X36558Y90081D01*
X35963Y89277D01*
X35373Y88469D01*
X34789Y87657D01*
X34210Y86841D01*
X33637Y86021D01*
X33069Y85197D01*
X32506Y84370D01*
X31949Y83539D01*
X31398Y82704D01*
X30852Y81866D01*
X30311Y81024D01*
X29777Y80179D01*
X29247Y79330D01*
X28724Y78477D01*
X28206Y77621D01*
X27694Y76762D01*
X27187Y75899D01*
X26687Y75033D01*
X26192Y74163D01*
X25703Y73291D01*
X25219Y72415D01*
X24742Y71536D01*
X24270Y70653D01*
X23804Y69768D01*
X23344Y68879D01*
X22890Y67988D01*
X22442Y67094D01*
X22000Y66196D01*
X21564Y65296D01*
X21134Y64393D01*
X20709Y63487D01*
X20291Y62578D01*
X19879Y61666D01*
X19473Y60752D01*
X19073Y59835D01*
X18679Y58915D01*
X18291Y57993D01*
X17909Y57068D01*
X17534Y56141D01*
X17164Y55211D01*
X16801Y54279D01*
X16444Y53345D01*
X16093Y52408D01*
X15749Y51468D01*
X15410Y50527D01*
X15078Y49583D01*
X14752Y48638D01*
X14433Y47690D01*
X14120Y46739D01*
X13813Y45787D01*
X13512Y44833D01*
X13218Y43877D01*
X12930Y42919D01*
X12648Y41959D01*
X12373Y40997D01*
X12104Y40033D01*
X11842Y39068D01*
X11586Y38101D01*
X11336Y37132D01*
X11093Y36161D01*
X10857Y35189D01*
X10626Y34216D01*
X10402Y33241D01*
X10185Y32264D01*
X9974Y31286D01*
X9770Y30307D01*
X9572Y29326D01*
X9381Y28344D01*
X9196Y27361D01*
X9018Y26377D01*
X8846Y25391D01*
X8681Y24404D01*
X8522Y23417D01*
X8370Y22428D01*
X8225Y21438D01*
X8086Y20447D01*
X7953Y19456D01*
X7828Y18463D01*
X7708Y17470D01*
X7596Y16476D01*
X7490Y15481D01*
X7390Y14485D01*
X7298Y13489D01*
X7211Y12493D01*
X7132Y11495D01*
X7059Y10498D01*
X6992Y9499D01*
X6933Y8501D01*
X6880Y7502D01*
X6833Y6502D01*
X6793Y5503D01*
X6760Y4503D01*
X6734Y3503D01*
X6714Y2503D01*
X6700Y1502D01*
X6694Y502D01*
X6694Y-499D01*
X6700Y-1499D01*
X6714Y-2499D01*
X6734Y-3500D01*
X6760Y-4500D01*
X6793Y-5500D01*
X6833Y-6499D01*
X6880Y-7499D01*
X6933Y-8498D01*
X6992Y-9496D01*
X7059Y-10495D01*
X7131Y-11492D01*
X7211Y-12490D01*
X7297Y-13486D01*
X7390Y-14482D01*
X7489Y-15478D01*
X7595Y-16473D01*
X7708Y-17467D01*
X7827Y-18460D01*
X7953Y-19453D01*
X8085Y-20444D01*
X8224Y-21435D01*
X8370Y-22425D01*
X8522Y-23414D01*
X8680Y-24401D01*
X8846Y-25388D01*
X9017Y-26374D01*
X9195Y-27358D01*
X9380Y-28341D01*
X9572Y-29323D01*
X9769Y-30304D01*
X9974Y-31283D01*
X10185Y-32261D01*
X10402Y-33238D01*
X10626Y-34213D01*
X10856Y-35186D01*
X11092Y-36158D01*
X11336Y-37129D01*
X11585Y-38098D01*
X11841Y-39065D01*
X12104Y-40030D01*
X12372Y-40994D01*
X12648Y-41956D01*
X12929Y-42916D01*
X13217Y-43874D01*
X13511Y-44830D01*
X13812Y-45784D01*
X14119Y-46736D01*
X14432Y-47687D01*
X14751Y-48635D01*
X15077Y-49580D01*
X15409Y-50524D01*
X15748Y-51466D01*
X16092Y-52405D01*
X16443Y-53342D01*
X16800Y-54276D01*
X17163Y-55209D01*
X17533Y-56138D01*
X17908Y-57066D01*
X18290Y-57990D01*
X18678Y-58913D01*
X19072Y-59832D01*
X19472Y-60749D01*
X19878Y-61664D01*
X20290Y-62575D01*
X20708Y-63484D01*
X21132Y-64390D01*
X21563Y-65293D01*
X21999Y-66193D01*
X22441Y-67091D01*
X22889Y-67985D01*
X23343Y-68877D01*
X23803Y-69765D01*
X24269Y-70651D01*
X24740Y-71533D01*
X25218Y-72412D01*
X25701Y-73288D01*
X26190Y-74161D01*
X26685Y-75030D01*
X27186Y-75896D01*
X27692Y-76759D01*
X28205Y-77618D01*
X28722Y-78474D01*
X29246Y-79327D01*
X29775Y-80176D01*
X30310Y-81021D01*
X30850Y-81863D01*
X31396Y-82702D01*
X31947Y-83536D01*
X32504Y-84368D01*
X33067Y-85195D01*
X33635Y-86019D01*
X34208Y-86838D01*
X34787Y-87654D01*
X35372Y-88466D01*
X35961Y-89275D01*
X36556Y-90079D01*
X37157Y-90879D01*
X37762Y-91675D01*
X38373Y-92468D01*
X38989Y-93256D01*
X39610Y-94040D01*
X40237Y-94820D01*
X40869Y-95596D01*
X41505Y-96367D01*
X42147Y-97135D01*
X42794Y-97898D01*
X43446Y-98656D01*
X44103Y-99411D01*
X44765Y-100161D01*
X45432Y-100907D01*
X46104Y-101648D01*
X46781Y-102384D01*
X47463Y-103117D01*
X48150Y-103844D01*
X48841Y-104567D01*
X49537Y-105286D01*
X50238Y-106000D01*
X50944Y-106709D01*
X51654Y-107413D01*
X52369Y-108113D01*
X53089Y-108808D01*
X53813Y-109498D01*
X54542Y-110184D01*
X55275Y-110864D01*
X56013Y-111540D01*
X56755Y-112211D01*
X57502Y-112876D01*
X58253Y-113537D01*
X59008Y-114193D01*
X59768Y-114844D01*
X60532Y-115490D01*
X61300Y-116130D01*
X62073Y-116766D01*
X62850Y-117396D01*
X63631Y-118022D01*
X64416Y-118642D01*
X65205Y-119257D01*
X65998Y-119866D01*
X66796Y-120470D01*
X67597Y-121070D01*
X68402Y-121663D01*
X69211Y-122251D01*
X70024Y-122835D01*
X70841Y-123412D01*
X71662Y-123984D01*
X72487Y-124551D01*
X73315Y-125112D01*
X74147Y-125668D01*
X74982Y-126218D01*
X75822Y-126762D01*
X76664Y-127301D01*
X77511Y-127835D01*
X78361Y-128362D01*
X79214Y-128884D01*
X80071Y-129401D01*
X80931Y-129912D01*
X81795Y-130417D01*
X82662Y-130916D01*
X83532Y-131410D01*
X84405Y-131897D01*
X85282Y-132379D01*
X86162Y-132855D01*
X87045Y-133326D01*
X87931Y-133790D01*
X88820Y-134248D01*
X89713Y-134701D01*
X90608Y-135148D01*
X91506Y-135588D01*
X92407Y-136023D01*
X93311Y-136452D01*
X94217Y-136875D01*
X95127Y-137291D01*
X96039Y-137702D01*
X96954Y-138107D01*
X97872Y-138505D01*
X98792Y-138898D01*
X99715Y-139284D01*
X100640Y-139664D01*
X101568Y-140038D01*
X102498Y-140406D01*
X103431Y-140768D01*
X104366Y-141123D01*
X105304Y-141472D01*
X106244Y-141815D01*
X107186Y-142152D01*
X108130Y-142483D01*
X109076Y-142807D01*
X110025Y-143125D01*
X110976Y-143437D01*
X111928Y-143742D01*
X112883Y-144041D01*
X113839Y-144334D01*
X114798Y-144620D01*
X115759Y-144900D01*
X116721Y-145174D01*
X117685Y-145441D01*
X118651Y-145702D01*
X119618Y-145957D01*
X120588Y-146204D01*
X121558Y-146446D01*
X122531Y-146681D01*
X123505Y-146910D01*
X124480Y-147132D01*
X125457Y-147348D01*
X126436Y-147557D01*
X127415Y-147760D01*
X128396Y-147956D01*
X129379Y-148146D01*
X130362Y-148329D01*
X131347Y-148505D01*
X132333Y-148676D01*
X133320Y-148839D01*
X134308Y-148996D01*
X135297Y-149147D01*
X136287Y-149291D01*
X137278Y-149428D01*
X138270Y-149559D01*
X139263Y-149683D01*
X140256Y-149800D01*
X141251Y-149911D01*
X142246Y-150016D01*
X143241Y-150114D01*
X144238Y-150205D01*
X145235Y-150289D01*
X146232Y-150367D01*
X147230Y-150439D01*
X148228Y-150503D01*
X149227Y-150561D01*
X150226Y-150613D01*
X151226Y-150658D01*
X152225Y-150696D01*
X153225Y-150727D01*
X154226Y-150752D01*
X155226Y-150771D01*
X156226Y-150782D01*
X157227Y-150787D01*
X158227Y-150786D01*
X159228Y-150777D01*
X160228Y-150762D01*
X161228Y-150741D01*
X162228Y-150713D01*
X163228Y-150678D01*
X164228Y-150636D01*
X165227Y-150588D01*
X166226Y-150534D01*
X167225Y-150472D01*
X168223Y-150404D01*
X169220Y-150330D01*
X170218Y-150249D01*
X171214Y-150161D01*
X172210Y-150066D01*
X173206Y-149965D01*
X174200Y-149857D01*
X175194Y-149743D01*
X176187Y-149622D01*
X177180Y-149495D01*
X178171Y-149361D01*
X179162Y-149221D01*
X180151Y-149073D01*
X181140Y-148920D01*
X182127Y-148759D01*
X183114Y-148593D01*
X184099Y-148419D01*
X185083Y-148239D01*
X186066Y-148053D01*
X187048Y-147860D01*
X188029Y-147661D01*
X189007Y-147455D01*
X189985Y-147242D01*
X190961Y-147023D01*
X191936Y-146798D01*
X192909Y-146566D01*
X193881Y-146328D01*
X194851Y-146083D01*
X195820Y-145832D01*
X196786Y-145574D01*
X197751Y-145310D01*
X198715Y-145040D01*
X199676Y-144763D01*
X200636Y-144480D01*
X201593Y-144191D01*
X202549Y-143895D01*
X203503Y-143592D01*
X204454Y-143284D01*
X205404Y-142969D01*
X206352Y-142648D01*
X207297Y-142321D01*
X208240Y-141987D01*
X209181Y-141647D01*
X210120Y-141301D01*
X211056Y-140948D01*
X211990Y-140590D01*
X212922Y-140225D01*
X213851Y-139854D01*
X214778Y-139477D01*
X215702Y-139094D01*
X216623Y-138705D01*
X217542Y-138309D01*
X218459Y-137908D01*
X219372Y-137500D01*
X220283Y-137086D01*
X221192Y-136667D01*
X222097Y-136241D01*
X223000Y-135809D01*
X223899Y-135371D01*
X224796Y-134928D01*
X225690Y-134478D01*
X226580Y-134022D01*
X227468Y-133561D01*
X228353Y-133094D01*
X229234Y-132621D01*
X230113Y-132142D01*
X230988Y-131657D01*
X231860Y-131166D01*
X232728Y-130670D01*
X233594Y-130168D01*
X234456Y-129660D01*
X235314Y-129146D01*
X236169Y-128627D01*
X237021Y-128102D01*
X237869Y-127571D01*
X238714Y-127035D01*
X239555Y-126493D01*
X240392Y-125946D01*
X241226Y-125393D01*
X242056Y-124835D01*
X242883Y-124271D01*
X243706Y-123702D01*
X244524Y-123127D01*
X245339Y-122547D01*
X246150Y-121961D01*
X246958Y-121370D01*
X247761Y-120773D01*
X248560Y-120172D01*
X249356Y-119565D01*
X250147Y-118953D01*
X250934Y-118335D01*
X251717Y-117712D01*
X252496Y-117085D01*
X253271Y-116452D01*
X254042Y-115814D01*
X254808Y-115170D01*
X255570Y-114522D01*
X256328Y-113869D01*
X257081Y-113210D01*
X257830Y-112547D01*
X258574Y-111879D01*
X259314Y-111205D01*
X260050Y-110527D01*
X260781Y-109844D01*
X261508Y-109157D01*
X262230Y-108464D01*
X262947Y-107766D01*
X263660Y-107064D01*
X264368Y-106358D01*
X265071Y-105646D01*
X265770Y-104930D01*
X266463Y-104209D01*
X267153Y-103484D01*
X267837Y-102754D01*
X268516Y-102019D01*
X269191Y-101280D01*
X269860Y-100537D01*
X270525Y-99789D01*
X271184Y-99037D01*
X271839Y-98280D01*
X272488Y-97519D01*
X273133Y-96754D01*
X273772Y-95985D01*
X274407Y-95211D01*
X275036Y-94433D01*
X275660Y-93651D01*
X276278Y-92865D01*
X276892Y-92074D01*
X277500Y-91280D01*
X278103Y-90482D01*
X278701Y-89679D01*
X279293Y-88873D01*
X279880Y-88063D01*
X280462Y-87249D01*
X281038Y-86431D01*
X281609Y-85609D01*
X282174Y-84784D01*
X282734Y-83955D01*
X283288Y-83122D01*
X283837Y-82285D01*
X284380Y-81445D01*
X284918Y-80601D01*
X285450Y-79754D01*
X285976Y-78903D01*
X286497Y-78049D01*
X287012Y-77191D01*
X287521Y-76330D01*
X288025Y-75466D01*
X288522Y-74598D01*
X289015Y-73726D01*
X289501Y-72852D01*
X289981Y-71975D01*
X290456Y-71094D01*
X290925Y-70210D01*
X291388Y-69323D01*
X291845Y-68433D01*
X292296Y-67540D01*
X292741Y-66644D01*
X293180Y-65745D01*
X293613Y-64843D01*
X294040Y-63939D01*
X294462Y-63031D01*
X294877Y-62121D01*
X295286Y-61208D01*
X295689Y-60292D01*
X296086Y-59374D01*
X296477Y-58453D01*
X296862Y-57530D01*
X297240Y-56603D01*
X297613Y-55675D01*
X297979Y-54744D01*
X298339Y-53811D01*
X298693Y-52875D01*
X299041Y-51937D01*
X299382Y-50996D01*
X299718Y-50054D01*
X300047Y-49109D01*
X300369Y-48162D01*
X300686Y-47213D01*
X300996Y-46262D01*
X301300Y-45308D01*
X301597Y-44353D01*
X301888Y-43396D01*
X302173Y-42437D01*
X302451Y-41476D01*
X302723Y-40513D01*
X302989Y-39548D01*
X303248Y-38582D01*
X303501Y-37614D01*
X303747Y-36644D01*
X303987Y-35673D01*
X304221Y-34700D01*
X304448Y-33726D01*
X304668Y-32750D01*
X304882Y-31773D01*
X305090Y-30794D01*
X305291Y-29814D01*
X305486Y-28833D01*
X305674Y-27850D01*
X305855Y-26866D01*
X306030Y-25881D01*
X306199Y-24895D01*
X306360Y-23908D01*
X306516Y-22919D01*
X306664Y-21930D01*
X306807Y-20940D01*
X306942Y-19948D01*
X307071Y-18956D01*
X307194Y-17963D01*
X307310Y-16970D01*
X307419Y-15975D01*
X307522Y-14980D01*
X307618Y-13984D01*
X307707Y-12988D01*
X307790Y-11991D01*
X307867Y-10993D01*
X307936Y-9995D01*
X307999Y-8996D01*
X308055Y-7998D01*
X308105Y-6998D01*
X308148Y-5999D01*
X308185Y-4999D01*
X308215Y-3999D01*
X308238Y-2999D01*
X308255Y-1998D01*
X308264Y-998D01*
X308268Y0D01*
X-6693D02*
X-6696Y1000D01*
X-6706Y2001D01*
X-6723Y3001D01*
X-6746Y4001D01*
X-6776Y5001D01*
X-6812Y6001D01*
X-6855Y7001D01*
X-6905Y8000D01*
X-6962Y8999D01*
X-7025Y9997D01*
X-7094Y10995D01*
X-7171Y11993D01*
X-7254Y12990D01*
X-7343Y13986D01*
X-7439Y14982D01*
X-7542Y15977D01*
X-7651Y16972D01*
X-7767Y17965D01*
X-7889Y18958D01*
X-8019Y19950D01*
X-8154Y20942D01*
X-8296Y21932D01*
X-8445Y22921D01*
X-8601Y23909D01*
X-8762Y24897D01*
X-8931Y25883D01*
X-9106Y26868D01*
X-9287Y27852D01*
X-9476Y28834D01*
X-9670Y29816D01*
X-9871Y30796D01*
X-10079Y31774D01*
X-10293Y32752D01*
X-10513Y33727D01*
X-10740Y34702D01*
X-10974Y35675D01*
X-11214Y36646D01*
X-11460Y37616D01*
X-11713Y38584D01*
X-11972Y39550D01*
X-12238Y40514D01*
X-12510Y41477D01*
X-12788Y42438D01*
X-13073Y43397D01*
X-13364Y44354D01*
X-13661Y45309D01*
X-13965Y46263D01*
X-14275Y47214D01*
X-14592Y48163D01*
X-14914Y49110D01*
X-15243Y50055D01*
X-15579Y50997D01*
X-15920Y51938D01*
X-16268Y52876D01*
X-16622Y53812D01*
X-16982Y54745D01*
X-17348Y55676D01*
X-17721Y56604D01*
X-18099Y57530D01*
X-18484Y58454D01*
X-18875Y59375D01*
X-19272Y60293D01*
X-19675Y61209D01*
X-20084Y62122D01*
X-20499Y63032D01*
X-20921Y63939D01*
X-21348Y64844D01*
X-21781Y65746D01*
X-22220Y66645D01*
X-22665Y67541D01*
X-23116Y68434D01*
X-23573Y69324D01*
X-24036Y70211D01*
X-24505Y71095D01*
X-24980Y71975D01*
X-25460Y72853D01*
X-25946Y73727D01*
X-26439Y74598D01*
X-26936Y75466D01*
X-27440Y76330D01*
X-27949Y77192D01*
X-28464Y78049D01*
X-28985Y78904D01*
X-29511Y79754D01*
X-30043Y80602D01*
X-30581Y81445D01*
X-31124Y82285D01*
X-31673Y83122D01*
X-32227Y83955D01*
X-32787Y84784D01*
X-33352Y85610D01*
X-33923Y86431D01*
X-34499Y87249D01*
X-35080Y88063D01*
X-35667Y88873D01*
X-36260Y89679D01*
X-36857Y90482D01*
X-37460Y91280D01*
X-38069Y92074D01*
X-38682Y92865D01*
X-39301Y93651D01*
X-39925Y94433D01*
X-40554Y95211D01*
X-41188Y95984D01*
X-41828Y96754D01*
X-42472Y97519D01*
X-43122Y98280D01*
X-43776Y99037D01*
X-44436Y99789D01*
X-45100Y100537D01*
X-45770Y101280D01*
X-46444Y102019D01*
X-47124Y102753D01*
X-47808Y103483D01*
X-48497Y104209D01*
X-49191Y104929D01*
X-49889Y105646D01*
X-50592Y106357D01*
X-51301Y107064D01*
X-52013Y107766D01*
X-52731Y108463D01*
X-53452Y109156D01*
X-54179Y109844D01*
X-54910Y110527D01*
X-55646Y111205D01*
X-56386Y111878D01*
X-57130Y112546D01*
X-57879Y113210D01*
X-58632Y113868D01*
X-59390Y114521D01*
X-60152Y115170D01*
X-60918Y115813D01*
X-61689Y116451D01*
X-62463Y117084D01*
X-63242Y117712D01*
X-64025Y118334D01*
X-64813Y118952D01*
X-65604Y119564D01*
X-66399Y120171D01*
X-67198Y120773D01*
X-68002Y121369D01*
X-68809Y121960D01*
X-69620Y122546D01*
X-70435Y123126D01*
X-71254Y123701D01*
X-72077Y124270D01*
X-72903Y124834D01*
X-73733Y125392D01*
X-74567Y125945D01*
X-75404Y126493D01*
X-76245Y127034D01*
X-77090Y127570D01*
X-77938Y128101D01*
X-78790Y128626D01*
X-79645Y129145D01*
X-80503Y129659D01*
X-81366Y130167D01*
X-82231Y130669D01*
X-83099Y131165D01*
X-83971Y131656D01*
X-84846Y132141D01*
X-85725Y132620D01*
X-86606Y133093D01*
X-87491Y133560D01*
X-88379Y134022D01*
X-89269Y134477D01*
X-90163Y134927D01*
X-91060Y135370D01*
X-91959Y135808D01*
X-92862Y136240D01*
X-93767Y136665D01*
X-94675Y137085D01*
X-95586Y137499D01*
X-96500Y137907D01*
X-97416Y138308D01*
X-98335Y138704D01*
X-99257Y139093D01*
X-100181Y139476D01*
X-101107Y139853D01*
X-102037Y140224D01*
X-102968Y140589D01*
X-103902Y140948D01*
X-104839Y141300D01*
X-105777Y141646D01*
X-106718Y141986D01*
X-107661Y142320D01*
X-108607Y142647D01*
X-109554Y142968D01*
X-110504Y143283D01*
X-111455Y143592D01*
X-112409Y143894D01*
X-113365Y144190D01*
X-114322Y144479D01*
X-115282Y144762D01*
X-116244Y145039D01*
X-117207Y145310D01*
X-118172Y145574D01*
X-119138Y145831D01*
X-120107Y146082D01*
X-121077Y146327D01*
X-122048Y146565D01*
X-123022Y146797D01*
X-123996Y147023D01*
X-124973Y147242D01*
X-125950Y147454D01*
X-126929Y147660D01*
X-127910Y147859D01*
X-128891Y148052D01*
X-129874Y148239D01*
X-130858Y148419D01*
X-131844Y148592D01*
X-132830Y148759D01*
X-133818Y148919D01*
X-134806Y149073D01*
X-135796Y149220D01*
X-136786Y149361D01*
X-137778Y149495D01*
X-138770Y149622D01*
X-139763Y149743D01*
X-140757Y149857D01*
X-141752Y149965D01*
X-142747Y150066D01*
X-143743Y150160D01*
X-144740Y150248D01*
X-145737Y150329D01*
X-146734Y150404D01*
X-147733Y150472D01*
X-148731Y150533D01*
X-149730Y150588D01*
X-150730Y150636D01*
X-151729Y150678D01*
X-152729Y150713D01*
X-153729Y150741D01*
X-154729Y150762D01*
X-155729Y150777D01*
X-156730Y150786D01*
X-157730Y150787D01*
X-158731Y150782D01*
X-159731Y150771D01*
X-160731Y150752D01*
X-161732Y150727D01*
X-162732Y150696D01*
X-163731Y150658D01*
X-164731Y150613D01*
X-165730Y150562D01*
X-166729Y150504D01*
X-167727Y150439D01*
X-168725Y150367D01*
X-169722Y150290D01*
X-170719Y150205D01*
X-171715Y150114D01*
X-172711Y150016D01*
X-173706Y149912D01*
X-174700Y149801D01*
X-175694Y149683D01*
X-176687Y149559D01*
X-177679Y149428D01*
X-178670Y149291D01*
X-179660Y149147D01*
X-180649Y148997D01*
X-181637Y148840D01*
X-182624Y148676D01*
X-183610Y148506D01*
X-184594Y148330D01*
X-185578Y148146D01*
X-186560Y147957D01*
X-187541Y147760D01*
X-188521Y147558D01*
X-189499Y147349D01*
X-190476Y147133D01*
X-191452Y146911D01*
X-192426Y146682D01*
X-193398Y146447D01*
X-194369Y146206D01*
X-195338Y145958D01*
X-196306Y145703D01*
X-197272Y145442D01*
X-198236Y145175D01*
X-199198Y144902D01*
X-200159Y144622D01*
X-201117Y144335D01*
X-202074Y144043D01*
X-203028Y143744D01*
X-203981Y143438D01*
X-204932Y143126D01*
X-205880Y142808D01*
X-206827Y142484D01*
X-207771Y142154D01*
X-208713Y141817D01*
X-209653Y141474D01*
X-210591Y141125D01*
X-211526Y140769D01*
X-212458Y140407D01*
X-213389Y140040D01*
X-214317Y139665D01*
X-215242Y139285D01*
X-216165Y138899D01*
X-217085Y138507D01*
X-218003Y138108D01*
X-218918Y137704D01*
X-219830Y137293D01*
X-220740Y136876D01*
X-221646Y136453D01*
X-222551Y136025D01*
X-223451Y135590D01*
X-224350Y135149D01*
X-225245Y134703D01*
X-226137Y134250D01*
X-227026Y133792D01*
X-227912Y133327D01*
X-228796Y132857D01*
X-229676Y132381D01*
X-230552Y131899D01*
X-231426Y131411D01*
X-232296Y130918D01*
X-233163Y130419D01*
X-234027Y129913D01*
X-234887Y129403D01*
X-235744Y128886D01*
X-236597Y128364D01*
X-237447Y127836D01*
X-238294Y127303D01*
X-239136Y126764D01*
X-239976Y126219D01*
X-240811Y125669D01*
X-241643Y125114D01*
X-242472Y124553D01*
X-243296Y123986D01*
X-244117Y123414D01*
X-244934Y122836D01*
X-245747Y122253D01*
X-246556Y121665D01*
X-247361Y121071D01*
X-248162Y120472D01*
X-248960Y119868D01*
X-249753Y119258D01*
X-250542Y118644D01*
X-251327Y118024D01*
X-252108Y117398D01*
X-252885Y116768D01*
X-253658Y116132D01*
X-254426Y115492D01*
X-255190Y114846D01*
X-255950Y114195D01*
X-256706Y113539D01*
X-257457Y112879D01*
X-258204Y112213D01*
X-258946Y111542D01*
X-259683Y110866D01*
X-260417Y110186D01*
X-261146Y109500D01*
X-261870Y108810D01*
X-262590Y108115D01*
X-263304Y107415D01*
X-264015Y106711D01*
X-264721Y106002D01*
X-265421Y105288D01*
X-266118Y104569D01*
X-266809Y103847D01*
X-267496Y103119D01*
X-268177Y102387D01*
X-268854Y101650D01*
X-269526Y100909D01*
X-270193Y100163D01*
X-270855Y99413D01*
X-271512Y98659D01*
X-272164Y97900D01*
X-272811Y97137D01*
X-273453Y96370D01*
X-274090Y95598D01*
X-274722Y94822D01*
X-275348Y94042D01*
X-275970Y93258D01*
X-276586Y92470D01*
X-277197Y91678D01*
X-277802Y90882D01*
X-278403Y90081D01*
X-278998Y89277D01*
X-279587Y88469D01*
X-280172Y87657D01*
X-280750Y86841D01*
X-281324Y86021D01*
X-281892Y85197D01*
X-282454Y84370D01*
X-283012Y83539D01*
X-283563Y82704D01*
X-284109Y81866D01*
X-284649Y81024D01*
X-285184Y80179D01*
X-285713Y79330D01*
X-286237Y78477D01*
X-286754Y77621D01*
X-287267Y76762D01*
X-287773Y75899D01*
X-288274Y75033D01*
X-288769Y74163D01*
X-289258Y73291D01*
X-289741Y72415D01*
X-290219Y71536D01*
X-290690Y70653D01*
X-291156Y69768D01*
X-291616Y68879D01*
X-292070Y67988D01*
X-292518Y67094D01*
X-292961Y66196D01*
X-293397Y65296D01*
X-293827Y64393D01*
X-294251Y63487D01*
X-294670Y62578D01*
X-295082Y61666D01*
X-295488Y60752D01*
X-295888Y59835D01*
X-296282Y58915D01*
X-296670Y57993D01*
X-297051Y57068D01*
X-297427Y56141D01*
X-297796Y55211D01*
X-298159Y54279D01*
X-298516Y53345D01*
X-298867Y52408D01*
X-299212Y51468D01*
X-299550Y50527D01*
X-299882Y49583D01*
X-300208Y48638D01*
X-300528Y47690D01*
X-300841Y46739D01*
X-301148Y45787D01*
X-301448Y44833D01*
X-301743Y43877D01*
X-302031Y42919D01*
X-302312Y41959D01*
X-302588Y40997D01*
X-302856Y40033D01*
X-303119Y39068D01*
X-303375Y38101D01*
X-303624Y37132D01*
X-303867Y36161D01*
X-304104Y35189D01*
X-304334Y34216D01*
X-304558Y33241D01*
X-304776Y32264D01*
X-304986Y31286D01*
X-305191Y30307D01*
X-305388Y29326D01*
X-305580Y28344D01*
X-305765Y27361D01*
X-305943Y26377D01*
X-306115Y25391D01*
X-306280Y24404D01*
X-306438Y23417D01*
X-306591Y22428D01*
X-306736Y21438D01*
X-306875Y20447D01*
X-307007Y19456D01*
X-307133Y18463D01*
X-307252Y17470D01*
X-307365Y16476D01*
X-307471Y15481D01*
X-307570Y14485D01*
X-307663Y13489D01*
X-307749Y12493D01*
X-307829Y11495D01*
X-307902Y10498D01*
X-307968Y9499D01*
X-308028Y8501D01*
X-308081Y7502D01*
X-308127Y6502D01*
X-308167Y5503D01*
X-308201Y4503D01*
X-308227Y3503D01*
X-308247Y2503D01*
X-308260Y1502D01*
X-308267Y502D01*
X-308267Y-499D01*
X-308260Y-1499D01*
X-308247Y-2499D01*
X-308227Y-3500D01*
X-308201Y-4500D01*
X-308167Y-5500D01*
X-308128Y-6499D01*
X-308081Y-7499D01*
X-308028Y-8498D01*
X-307968Y-9496D01*
X-307902Y-10495D01*
X-307829Y-11492D01*
X-307750Y-12490D01*
X-307663Y-13486D01*
X-307571Y-14482D01*
X-307471Y-15478D01*
X-307365Y-16473D01*
X-307253Y-17467D01*
X-307134Y-18460D01*
X-307008Y-19453D01*
X-306875Y-20444D01*
X-306736Y-21435D01*
X-306591Y-22425D01*
X-306439Y-23414D01*
X-306280Y-24401D01*
X-306115Y-25388D01*
X-305943Y-26374D01*
X-305765Y-27358D01*
X-305580Y-28341D01*
X-305389Y-29323D01*
X-305191Y-30304D01*
X-304987Y-31283D01*
X-304776Y-32261D01*
X-304559Y-33238D01*
X-304335Y-34213D01*
X-304105Y-35186D01*
X-303868Y-36158D01*
X-303625Y-37129D01*
X-303376Y-38098D01*
X-303119Y-39065D01*
X-302857Y-40030D01*
X-302588Y-40994D01*
X-302313Y-41956D01*
X-302032Y-42916D01*
X-301744Y-43874D01*
X-301449Y-44830D01*
X-301149Y-45784D01*
X-300842Y-46736D01*
X-300529Y-47687D01*
X-300209Y-48635D01*
X-299883Y-49580D01*
X-299551Y-50524D01*
X-299213Y-51466D01*
X-298868Y-52405D01*
X-298517Y-53342D01*
X-298161Y-54276D01*
X-297797Y-55209D01*
X-297428Y-56138D01*
X-297052Y-57066D01*
X-296671Y-57990D01*
X-296283Y-58913D01*
X-295889Y-59832D01*
X-295489Y-60749D01*
X-295083Y-61664D01*
X-294671Y-62575D01*
X-294252Y-63484D01*
X-293828Y-64390D01*
X-293398Y-65293D01*
X-292962Y-66193D01*
X-292520Y-67091D01*
X-292072Y-67985D01*
X-291618Y-68877D01*
X-291158Y-69765D01*
X-290692Y-70651D01*
X-290220Y-71533D01*
X-289743Y-72412D01*
X-289259Y-73288D01*
X-288770Y-74161D01*
X-288275Y-75030D01*
X-287775Y-75896D01*
X-287268Y-76759D01*
X-286756Y-77618D01*
X-286238Y-78474D01*
X-285715Y-79327D01*
X-285186Y-80176D01*
X-284651Y-81021D01*
X-284110Y-81863D01*
X-283565Y-82702D01*
X-283013Y-83536D01*
X-282456Y-84368D01*
X-281894Y-85195D01*
X-281326Y-86019D01*
X-280752Y-86838D01*
X-280173Y-87654D01*
X-279589Y-88466D01*
X-278999Y-89275D01*
X-278404Y-90079D01*
X-277804Y-90879D01*
X-277199Y-91675D01*
X-276588Y-92468D01*
X-275972Y-93256D01*
X-275350Y-94040D01*
X-274724Y-94820D01*
X-274092Y-95596D01*
X-273455Y-96367D01*
X-272813Y-97135D01*
X-272166Y-97898D01*
X-271514Y-98656D01*
X-270857Y-99411D01*
X-270195Y-100161D01*
X-269528Y-100907D01*
X-268856Y-101648D01*
X-268179Y-102384D01*
X-267498Y-103117D01*
X-266811Y-103844D01*
X-266120Y-104567D01*
X-265423Y-105286D01*
X-264723Y-106000D01*
X-264017Y-106709D01*
X-263307Y-107413D01*
X-262592Y-108113D01*
X-261872Y-108808D01*
X-261148Y-109498D01*
X-260419Y-110184D01*
X-259686Y-110864D01*
X-258948Y-111540D01*
X-258206Y-112211D01*
X-257459Y-112876D01*
X-256708Y-113537D01*
X-255952Y-114193D01*
X-255193Y-114844D01*
X-254429Y-115490D01*
X-253660Y-116130D01*
X-252888Y-116766D01*
X-252111Y-117396D01*
X-251330Y-118022D01*
X-250545Y-118642D01*
X-249756Y-119257D01*
X-248962Y-119866D01*
X-248165Y-120470D01*
X-247364Y-121070D01*
X-246558Y-121663D01*
X-245749Y-122251D01*
X-244936Y-122835D01*
X-244119Y-123412D01*
X-243299Y-123984D01*
X-242474Y-124551D01*
X-241646Y-125112D01*
X-240814Y-125668D01*
X-239978Y-126218D01*
X-239139Y-126762D01*
X-238296Y-127301D01*
X-237450Y-127835D01*
X-236600Y-128362D01*
X-235747Y-128884D01*
X-234890Y-129401D01*
X-234030Y-129912D01*
X-233166Y-130417D01*
X-232299Y-130916D01*
X-231429Y-131410D01*
X-230555Y-131897D01*
X-229679Y-132379D01*
X-228799Y-132855D01*
X-227916Y-133326D01*
X-227030Y-133790D01*
X-226140Y-134248D01*
X-225248Y-134701D01*
X-224353Y-135148D01*
X-223455Y-135588D01*
X-222554Y-136023D01*
X-221650Y-136452D01*
X-220743Y-136875D01*
X-219834Y-137291D01*
X-218921Y-137702D01*
X-218006Y-138107D01*
X-217089Y-138505D01*
X-216169Y-138898D01*
X-215246Y-139284D01*
X-214320Y-139664D01*
X-213392Y-140038D01*
X-212462Y-140406D01*
X-211529Y-140768D01*
X-210594Y-141123D01*
X-209657Y-141472D01*
X-208717Y-141815D01*
X-207775Y-142152D01*
X-206831Y-142483D01*
X-205884Y-142807D01*
X-204936Y-143125D01*
X-203985Y-143437D01*
X-203032Y-143742D01*
X-202078Y-144041D01*
X-201121Y-144334D01*
X-200163Y-144620D01*
X-199202Y-144900D01*
X-198240Y-145174D01*
X-197276Y-145441D01*
X-196310Y-145702D01*
X-195342Y-145957D01*
X-194373Y-146204D01*
X-193402Y-146446D01*
X-192430Y-146681D01*
X-191456Y-146910D01*
X-190480Y-147132D01*
X-189503Y-147348D01*
X-188525Y-147557D01*
X-187545Y-147760D01*
X-186564Y-147956D01*
X-185582Y-148146D01*
X-184598Y-148329D01*
X-183614Y-148505D01*
X-182628Y-148676D01*
X-181641Y-148839D01*
X-180653Y-148996D01*
X-179664Y-149147D01*
X-178674Y-149291D01*
X-177682Y-149428D01*
X-176691Y-149559D01*
X-175698Y-149683D01*
X-174704Y-149800D01*
X-173710Y-149911D01*
X-172715Y-150016D01*
X-171719Y-150114D01*
X-170723Y-150205D01*
X-169726Y-150289D01*
X-168729Y-150367D01*
X-167731Y-150439D01*
X-166732Y-150503D01*
X-165734Y-150561D01*
X-164734Y-150613D01*
X-163735Y-150658D01*
X-162735Y-150696D01*
X-161735Y-150727D01*
X-160735Y-150752D01*
X-159735Y-150771D01*
X-158734Y-150782D01*
X-157734Y-150787D01*
X-156734Y-150786D01*
X-155733Y-150777D01*
X-154733Y-150762D01*
X-153732Y-150741D01*
X-152732Y-150713D01*
X-151733Y-150678D01*
X-150733Y-150636D01*
X-149734Y-150588D01*
X-148735Y-150534D01*
X-147736Y-150472D01*
X-146738Y-150404D01*
X-145740Y-150330D01*
X-144743Y-150249D01*
X-143746Y-150161D01*
X-142750Y-150066D01*
X-141755Y-149965D01*
X-140760Y-149857D01*
X-139766Y-149743D01*
X-138773Y-149622D01*
X-137781Y-149495D01*
X-136790Y-149361D01*
X-135799Y-149221D01*
X-134809Y-149073D01*
X-133821Y-148920D01*
X-132833Y-148759D01*
X-131847Y-148593D01*
X-130861Y-148419D01*
X-129877Y-148239D01*
X-128894Y-148053D01*
X-127913Y-147860D01*
X-126932Y-147661D01*
X-125953Y-147455D01*
X-124976Y-147242D01*
X-123999Y-147023D01*
X-123024Y-146798D01*
X-122051Y-146566D01*
X-121080Y-146328D01*
X-120109Y-146083D01*
X-119141Y-145832D01*
X-118174Y-145574D01*
X-117209Y-145310D01*
X-116246Y-145040D01*
X-115285Y-144763D01*
X-114325Y-144480D01*
X-113367Y-144191D01*
X-112412Y-143895D01*
X-111458Y-143592D01*
X-110506Y-143284D01*
X-109556Y-142969D01*
X-108609Y-142648D01*
X-107664Y-142321D01*
X-106720Y-141987D01*
X-105780Y-141647D01*
X-104841Y-141301D01*
X-103904Y-140948D01*
X-102970Y-140590D01*
X-102039Y-140225D01*
X-101110Y-139854D01*
X-100183Y-139477D01*
X-99259Y-139094D01*
X-98337Y-138705D01*
X-97418Y-138309D01*
X-96502Y-137908D01*
X-95588Y-137500D01*
X-94677Y-137086D01*
X-93769Y-136667D01*
X-92864Y-136241D01*
X-91961Y-135809D01*
X-91062Y-135371D01*
X-90165Y-134928D01*
X-89271Y-134478D01*
X-88380Y-134022D01*
X-87493Y-133561D01*
X-86608Y-133094D01*
X-85726Y-132621D01*
X-84848Y-132142D01*
X-83973Y-131657D01*
X-83101Y-131166D01*
X-82232Y-130670D01*
X-81367Y-130168D01*
X-80505Y-129660D01*
X-79646Y-129146D01*
X-78791Y-128627D01*
X-77940Y-128102D01*
X-77091Y-127571D01*
X-76247Y-127035D01*
X-75406Y-126493D01*
X-74568Y-125946D01*
X-73734Y-125393D01*
X-72904Y-124835D01*
X-72078Y-124271D01*
X-71255Y-123702D01*
X-70436Y-123127D01*
X-69621Y-122547D01*
X-68810Y-121961D01*
X-68003Y-121370D01*
X-67200Y-120773D01*
X-66400Y-120172D01*
X-65605Y-119565D01*
X-64814Y-118953D01*
X-64026Y-118335D01*
X-63243Y-117712D01*
X-62464Y-117085D01*
X-61690Y-116452D01*
X-60919Y-115814D01*
X-60153Y-115170D01*
X-59391Y-114522D01*
X-58633Y-113869D01*
X-57880Y-113210D01*
X-57131Y-112547D01*
X-56386Y-111879D01*
X-55646Y-111205D01*
X-54911Y-110527D01*
X-54180Y-109844D01*
X-53453Y-109157D01*
X-52731Y-108464D01*
X-52014Y-107766D01*
X-51301Y-107064D01*
X-50593Y-106358D01*
X-49890Y-105646D01*
X-49191Y-104930D01*
X-48497Y-104209D01*
X-47808Y-103484D01*
X-47124Y-102754D01*
X-46445Y-102019D01*
X-45770Y-101280D01*
X-45101Y-100537D01*
X-44436Y-99789D01*
X-43777Y-99037D01*
X-43122Y-98280D01*
X-42472Y-97519D01*
X-41828Y-96754D01*
X-41188Y-95985D01*
X-40554Y-95211D01*
X-39925Y-94433D01*
X-39301Y-93651D01*
X-38682Y-92865D01*
X-38069Y-92074D01*
X-37460Y-91280D01*
X-36857Y-90482D01*
X-36260Y-89679D01*
X-35667Y-88873D01*
X-35080Y-88063D01*
X-34499Y-87249D01*
X-33923Y-86431D01*
X-33352Y-85609D01*
X-32787Y-84784D01*
X-32227Y-83955D01*
X-31672Y-83122D01*
X-31124Y-82285D01*
X-30581Y-81445D01*
X-30043Y-80601D01*
X-29511Y-79754D01*
X-28985Y-78903D01*
X-28464Y-78049D01*
X-27949Y-77191D01*
X-27440Y-76330D01*
X-26936Y-75466D01*
X-26438Y-74598D01*
X-25946Y-73726D01*
X-25460Y-72852D01*
X-24979Y-71975D01*
X-24505Y-71094D01*
X-24036Y-70210D01*
X-23573Y-69323D01*
X-23116Y-68433D01*
X-22665Y-67540D01*
X-22220Y-66644D01*
X-21781Y-65745D01*
X-21347Y-64843D01*
X-20920Y-63939D01*
X-20499Y-63031D01*
X-20084Y-62121D01*
X-19675Y-61208D01*
X-19272Y-60292D01*
X-18875Y-59374D01*
X-18484Y-58453D01*
X-18099Y-57530D01*
X-17720Y-56603D01*
X-17348Y-55675D01*
X-16981Y-54744D01*
X-16621Y-53811D01*
X-16267Y-52875D01*
X-15920Y-51937D01*
X-15578Y-50996D01*
X-15243Y-50054D01*
X-14914Y-49109D01*
X-14591Y-48162D01*
X-14275Y-47213D01*
X-13965Y-46262D01*
X-13661Y-45308D01*
X-13363Y-44353D01*
X-13072Y-43396D01*
X-12788Y-42437D01*
X-12509Y-41476D01*
X-12237Y-40513D01*
X-11972Y-39548D01*
X-11712Y-38582D01*
X-11460Y-37614D01*
X-11213Y-36644D01*
X-10973Y-35673D01*
X-10740Y-34700D01*
X-10513Y-33726D01*
X-10292Y-32750D01*
X-10078Y-31773D01*
X-9871Y-30794D01*
X-9670Y-29814D01*
X-9475Y-28833D01*
X-9287Y-27850D01*
X-9106Y-26866D01*
X-8931Y-25881D01*
X-8762Y-24895D01*
X-8600Y-23908D01*
X-8445Y-22919D01*
X-8296Y-21930D01*
X-8154Y-20940D01*
X-8018Y-19948D01*
X-7889Y-18956D01*
X-7767Y-17963D01*
X-7651Y-16970D01*
X-7542Y-15975D01*
X-7439Y-14980D01*
X-7343Y-13984D01*
X-7253Y-12988D01*
X-7170Y-11991D01*
X-7094Y-10993D01*
X-7024Y-9995D01*
X-6961Y-8996D01*
X-6905Y-7998D01*
X-6855Y-6998D01*
X-6812Y-5999D01*
X-6776Y-4999D01*
X-6746Y-3999D01*
X-6723Y-2999D01*
X-6706Y-1998D01*
X-6696Y-998D01*
X-6693Y0D01*
X210630Y-45276D02*
X230315D01*
X220472Y-55118D02*
Y-35433D01*
X-94488Y-55118D02*
Y-35433D01*
X-104331Y-45276D02*
X-84646D01*
D11*
X-116142Y-416339D02*
X116142D01*
Y-250984D01*
X98425D02*
X116142D01*
X-116142Y-416339D02*
Y-250984D01*
X-90551D01*
X-116142Y250984D02*
X-90551D01*
X-116142D02*
Y416339D01*
X98425Y250984D02*
X116142D01*
Y416339D01*
X-116142D02*
X116142D01*
X-108269Y-408466D02*
X-109253Y-407482D01*
X-111221D01*
X-112205Y-408466D01*
Y-412402D01*
X-111221Y-413386D01*
X-109253D01*
X-108269Y-412402D01*
X-106301Y-413386D02*
X-104333D01*
X-105317D01*
Y-407482D01*
X-106301Y-408466D01*
X-101381D02*
X-100398Y-407482D01*
X-98430D01*
X-97446Y-408466D01*
Y-412402D01*
X-98430Y-413386D01*
X-100398D01*
X-101381Y-412402D01*
Y-408466D01*
X-89574Y-413386D02*
Y-407482D01*
X-86623D01*
X-85638Y-408466D01*
Y-410434D01*
X-86623Y-411418D01*
X-89574D01*
X-87606D02*
X-85638Y-413386D01*
X-83671Y-407482D02*
Y-413386D01*
X-80719D01*
X-79735Y-412402D01*
Y-411418D01*
X-80719Y-410434D01*
X-83671D01*
X-80719D01*
X-79735Y-409450D01*
Y-408466D01*
X-80719Y-407482D01*
X-83671D01*
X-77767Y-413386D02*
Y-407482D01*
X-74815D01*
X-73831Y-408466D01*
Y-410434D01*
X-74815Y-411418D01*
X-77767D01*
X-67928Y-408466D02*
X-68912Y-407482D01*
X-70880D01*
X-71864Y-408466D01*
Y-409450D01*
X-70880Y-410434D01*
X-68912D01*
X-67928Y-411418D01*
Y-412402D01*
X-68912Y-413386D01*
X-70880D01*
X-71864Y-412402D01*
X-56121Y-408466D02*
X-57104Y-407482D01*
X-59072D01*
X-60056Y-408466D01*
Y-409450D01*
X-59072Y-410434D01*
X-57104D01*
X-56121Y-411418D01*
Y-412402D01*
X-57104Y-413386D01*
X-59072D01*
X-60056Y-412402D01*
X-54153Y-413386D02*
Y-409450D01*
X-51201D01*
X-50217Y-410434D01*
Y-413386D01*
X-48249Y-409450D02*
Y-412402D01*
X-47265Y-413386D01*
X-44313D01*
Y-409450D01*
X-42345Y-407482D02*
Y-413386D01*
X-39394D01*
X-38410Y-412402D01*
Y-411418D01*
Y-410434D01*
X-39394Y-409450D01*
X-42345D01*
X-36442Y-407482D02*
Y-413386D01*
X-33490D01*
X-32506Y-412402D01*
Y-411418D01*
Y-410434D01*
X-33490Y-409450D01*
X-36442D01*
X-27586Y-413386D02*
X-29554D01*
X-30538Y-412402D01*
Y-410434D01*
X-29554Y-409450D01*
X-27586D01*
X-26603Y-410434D01*
Y-411418D01*
X-30538D01*
X-24635Y-409450D02*
Y-413386D01*
Y-411418D01*
X-23651Y-410434D01*
X-22667Y-409450D01*
X-21683D01*
X-108269Y412400D02*
X-109253Y413384D01*
X-111221D01*
X-112205Y412400D01*
Y408464D01*
X-111221Y407480D01*
X-109253D01*
X-108269Y408464D01*
X-106301D02*
X-105317Y407480D01*
X-103349D01*
X-102365Y408464D01*
Y412400D01*
X-103349Y413384D01*
X-105317D01*
X-106301Y412400D01*
Y411416D01*
X-105317Y410432D01*
X-102365D01*
X-94494Y407480D02*
Y413384D01*
X-91542D01*
X-90558Y412400D01*
Y410432D01*
X-91542Y409448D01*
X-94494D01*
X-92526D02*
X-90558Y407480D01*
X-88590Y413384D02*
Y407480D01*
X-85638D01*
X-84655Y408464D01*
Y409448D01*
X-85638Y410432D01*
X-88590D01*
X-85638D01*
X-84655Y411416D01*
Y412400D01*
X-85638Y413384D01*
X-88590D01*
X-82687Y407480D02*
Y413384D01*
X-79735D01*
X-78751Y412400D01*
Y410432D01*
X-79735Y409448D01*
X-82687D01*
X-72847Y412400D02*
X-73831Y413384D01*
X-75799D01*
X-76783Y412400D01*
Y411416D01*
X-75799Y410432D01*
X-73831D01*
X-72847Y409448D01*
Y408464D01*
X-73831Y407480D01*
X-75799D01*
X-76783Y408464D01*
X-61040Y412400D02*
X-62024Y413384D01*
X-63992D01*
X-64976Y412400D01*
Y411416D01*
X-63992Y410432D01*
X-62024D01*
X-61040Y409448D01*
Y408464D01*
X-62024Y407480D01*
X-63992D01*
X-64976Y408464D01*
X-59072Y407480D02*
Y411416D01*
X-56121D01*
X-55137Y410432D01*
Y407480D01*
X-53169Y411416D02*
Y408464D01*
X-52185Y407480D01*
X-49233D01*
Y411416D01*
X-47265Y413384D02*
Y407480D01*
X-44313D01*
X-43329Y408464D01*
Y409448D01*
Y410432D01*
X-44313Y411416D01*
X-47265D01*
X-41361Y413384D02*
Y407480D01*
X-38410D01*
X-37426Y408464D01*
Y409448D01*
Y410432D01*
X-38410Y411416D01*
X-41361D01*
X-32506Y407480D02*
X-34474D01*
X-35458Y408464D01*
Y410432D01*
X-34474Y411416D01*
X-32506D01*
X-31522Y410432D01*
Y409448D01*
X-35458D01*
X-29554Y411416D02*
Y407480D01*
Y409448D01*
X-28570Y410432D01*
X-27586Y411416D01*
X-26603D01*
X-261677Y164409D02*
Y170312D01*
X-258725D01*
X-257741Y169328D01*
Y167360D01*
X-258725Y166376D01*
X-261677D01*
X-259709D02*
X-257741Y164409D01*
X-255774D02*
X-253806D01*
X-254790D01*
Y170312D01*
X-255774Y169328D01*
X-261677Y-142691D02*
Y-136788D01*
X-258725D01*
X-257741Y-137772D01*
Y-139740D01*
X-258725Y-140724D01*
X-261677D01*
X-259709D02*
X-257741Y-142691D01*
X-251838D02*
X-255774D01*
X-251838Y-138756D01*
Y-137772D01*
X-252822Y-136788D01*
X-254790D01*
X-255774Y-137772D01*
X-66930Y156494D02*
X-67914Y157478D01*
X-69882D01*
X-70866Y156494D01*
Y152559D01*
X-69882Y151575D01*
X-67914D01*
X-66930Y152559D01*
X-64963Y151575D02*
X-62995D01*
X-63979D01*
Y157478D01*
X-64963Y156494D01*
X-57091Y151575D02*
Y157478D01*
X-60043Y154527D01*
X-56107D01*
X-40356Y-108269D02*
X-41339Y-107285D01*
X-43307D01*
X-44291Y-108269D01*
Y-112205D01*
X-43307Y-113189D01*
X-41339D01*
X-40356Y-112205D01*
X-38388Y-113189D02*
X-36420D01*
X-37404D01*
Y-107285D01*
X-38388Y-108269D01*
X-29532Y-113189D02*
X-33468D01*
X-29532Y-109253D01*
Y-108269D01*
X-30516Y-107285D01*
X-32484D01*
X-33468Y-108269D01*
X252952Y283463D02*
X251968Y284447D01*
X250000D01*
X249016Y283463D01*
Y279527D01*
X250000Y278543D01*
X251968D01*
X252952Y279527D01*
X254919Y283463D02*
X255903Y284447D01*
X257871D01*
X258855Y283463D01*
Y282479D01*
X257871Y281495D01*
X258855Y280511D01*
Y279527D01*
X257871Y278543D01*
X255903D01*
X254919Y279527D01*
Y280511D01*
X255903Y281495D01*
X254919Y282479D01*
Y283463D01*
X255903Y281495D02*
X257871D01*
X-124017Y524605D02*
X-125001Y525589D01*
X-126969D01*
X-127953Y524605D01*
Y520669D01*
X-126969Y519685D01*
X-125001D01*
X-124017Y520669D01*
X-122049Y525589D02*
X-118113D01*
Y524605D01*
X-122049Y520669D01*
Y519685D01*
X-255907Y283463D02*
X-256891Y284447D01*
X-258859D01*
X-259842Y283463D01*
Y279527D01*
X-258859Y278543D01*
X-256891D01*
X-255907Y279527D01*
X-250003Y284447D02*
X-251971Y283463D01*
X-253939Y281495D01*
Y279527D01*
X-252955Y278543D01*
X-250987D01*
X-250003Y279527D01*
Y280511D01*
X-250987Y281495D01*
X-253939D01*
X252952Y-279529D02*
X251968Y-278545D01*
X250000D01*
X249016Y-279529D01*
Y-283465D01*
X250000Y-284449D01*
X251968D01*
X252952Y-283465D01*
X258855Y-278545D02*
X254919D01*
Y-281497D01*
X256887Y-280513D01*
X257871D01*
X258855Y-281497D01*
Y-283465D01*
X257871Y-284449D01*
X255903D01*
X254919Y-283465D01*
X-124017Y-521655D02*
X-125001Y-520671D01*
X-126969D01*
X-127953Y-521655D01*
Y-525591D01*
X-126969Y-526575D01*
X-125001D01*
X-124017Y-525591D01*
X-119097Y-526575D02*
Y-520671D01*
X-122049Y-523623D01*
X-118113D01*
X-255941Y-278872D02*
X-256925Y-277888D01*
X-258893D01*
X-259877Y-278872D01*
Y-282807D01*
X-258893Y-283791D01*
X-256925D01*
X-255941Y-282807D01*
X-253974Y-278872D02*
X-252990Y-277888D01*
X-251022D01*
X-250038Y-278872D01*
Y-279856D01*
X-251022Y-280839D01*
X-252006D01*
X-251022D01*
X-250038Y-281823D01*
Y-282807D01*
X-251022Y-283791D01*
X-252990D01*
X-253974Y-282807D01*
X-248893Y135038D02*
X-249876Y136022D01*
X-251844D01*
X-252828Y135038D01*
Y131102D01*
X-251844Y130118D01*
X-249876D01*
X-248893Y131102D01*
X-242989Y130118D02*
X-246925D01*
X-242989Y134054D01*
Y135038D01*
X-243973Y136022D01*
X-245941D01*
X-246925Y135038D01*
X67107D02*
X66123Y136022D01*
X64156D01*
X63172Y135038D01*
Y131102D01*
X64156Y130118D01*
X66123D01*
X67107Y131102D01*
X69075Y130118D02*
X71043D01*
X70059D01*
Y136022D01*
X69075Y135038D01*
D12*
X984Y248819D02*
X6890D01*
X984Y235433D02*
X6890D01*
X0Y202953D02*
X7874D01*
X0Y230118D02*
X7874D01*
X984Y197638D02*
X6890D01*
X984Y184252D02*
X6890D01*
X984Y-235433D02*
X6890D01*
X984Y-248819D02*
X6890D01*
X0Y-230118D02*
X7874D01*
X0Y-202953D02*
X7874D01*
X984Y-184252D02*
X6890D01*
X984Y-197638D02*
X6890D01*
X-259842Y287402D02*
X-122047D01*
X-259842Y515748D02*
X-122047D01*
X-259842Y287402D02*
Y515748D01*
X-122047Y287402D02*
Y515748D01*
X122047D02*
X259842D01*
X122047Y287402D02*
X259842D01*
Y515748D01*
X122047Y287402D02*
Y515748D01*
X-114173Y423228D02*
Y561024D01*
X114173Y423228D02*
Y561024D01*
X-114173D02*
X114173D01*
X-114173Y423228D02*
X114173D01*
X-52165Y116142D02*
Y159449D01*
X52165Y116142D02*
Y159449D01*
X-52165D02*
X52165D01*
X-52165Y116142D02*
X52165D01*
X122047Y-515748D02*
X259842D01*
X122047Y-287402D02*
X259842D01*
X122047Y-515748D02*
Y-287402D01*
X259842Y-515748D02*
Y-287402D01*
X-114173Y-561024D02*
Y-423228D01*
X114173Y-561024D02*
Y-423228D01*
X-114173D02*
X114173D01*
X-114173Y-561024D02*
X114173D01*
X-52165Y-159449D02*
Y-116142D01*
X52165Y-159449D02*
Y-116142D01*
X-52165D02*
X52165D01*
X-52165Y-159449D02*
X52165D01*
X-259842Y-515748D02*
Y-287402D01*
X-122047Y-515748D02*
Y-287402D01*
X-259842Y-515748D02*
X-122047D01*
X-259842Y-287402D02*
X-122047D01*
D13*
X-251969Y159055D02*
X-204724D01*
X-251969Y148031D02*
Y159055D01*
X-204724Y148031D02*
Y159055D01*
X-251969Y148031D02*
X-204724D01*
X-251969Y-159055D02*
X-204724Y-159055D01*
Y-148031D01*
X-251969Y-159055D02*
Y-148031D01*
X-204724Y-148031D01*
X-4778Y182164D02*
X-5778Y183163D01*
X-7778D01*
X-8777Y182164D01*
Y178165D01*
X-7778Y177165D01*
X-5778D01*
X-4778Y178165D01*
X-2779Y177165D02*
X-780D01*
X-1779D01*
Y183163D01*
X-2779Y182164D01*
X2219Y183163D02*
X6218D01*
Y182164D01*
X2219Y178165D01*
Y177165D01*
X-3875Y174290D02*
X-4875Y175289D01*
X-6874D01*
X-7874Y174290D01*
Y170291D01*
X-6874Y169291D01*
X-4875D01*
X-3875Y170291D01*
X-1876Y169291D02*
X123D01*
X-876D01*
Y175289D01*
X-1876Y174290D01*
X3122Y169291D02*
X5122D01*
X4122D01*
Y175289D01*
X3122Y174290D01*
X-4778Y166416D02*
X-5778Y167415D01*
X-7778D01*
X-8777Y166416D01*
Y162417D01*
X-7778Y161417D01*
X-5778D01*
X-4778Y162417D01*
X-2779Y161417D02*
X-780D01*
X-1779D01*
Y167415D01*
X-2779Y166416D01*
X6218Y167415D02*
X2219D01*
Y164416D01*
X4219Y165416D01*
X5218D01*
X6218Y164416D01*
Y162417D01*
X5218Y161417D01*
X3219D01*
X2219Y162417D01*
X-5844Y-178073D02*
X-6843Y-177073D01*
X-8843D01*
X-9843Y-178073D01*
Y-182071D01*
X-8843Y-183071D01*
X-6843D01*
X-5844Y-182071D01*
X-3844Y-183071D02*
X-1845D01*
X-2845D01*
Y-177073D01*
X-3844Y-178073D01*
X1154D02*
X2154Y-177073D01*
X4153D01*
X5153Y-178073D01*
Y-179072D01*
X4153Y-180072D01*
X5153Y-181071D01*
Y-182071D01*
X4153Y-183071D01*
X2154D01*
X1154Y-182071D01*
Y-181071D01*
X2154Y-180072D01*
X1154Y-179072D01*
Y-178073D01*
X2154Y-180072D02*
X4153D01*
X-5844Y-170199D02*
X-6843Y-169199D01*
X-8843D01*
X-9843Y-170199D01*
Y-174197D01*
X-8843Y-175197D01*
X-6843D01*
X-5844Y-174197D01*
X-3844Y-175197D02*
X-1845D01*
X-2845D01*
Y-169199D01*
X-3844Y-170199D01*
X1154D02*
X2154Y-169199D01*
X4153D01*
X5153Y-170199D01*
Y-171198D01*
X4153Y-172198D01*
X3153D01*
X4153D01*
X5153Y-173197D01*
Y-174197D01*
X4153Y-175197D01*
X2154D01*
X1154Y-174197D01*
X-5844Y-162325D02*
X-6843Y-161325D01*
X-8843D01*
X-9843Y-162325D01*
Y-166323D01*
X-8843Y-167323D01*
X-6843D01*
X-5844Y-166323D01*
X-3844Y-167323D02*
X-1845D01*
X-2845D01*
Y-161325D01*
X-3844Y-162325D01*
X5153Y-161325D02*
X3153Y-162325D01*
X1154Y-164324D01*
Y-166323D01*
X2154Y-167323D01*
X4153D01*
X5153Y-166323D01*
Y-165323D01*
X4153Y-164324D01*
X1154D01*
M02*
