G04*
G04 #@! TF.GenerationSoftware,Altium Limited,Altium Designer,18.1.9 (240)*
G04*
G04 Layer_Color=16711935*
%FSLAX25Y25*%
%MOIN*%
G70*
G01*
G75*
%ADD18C,0.40170*%
%ADD19C,0.61824*%
%ADD20C,0.08674*%
%ADD21C,0.16548*%
%ADD22C,0.12611*%
G04:AMPARAMS|DCode=23|XSize=756.03mil|YSize=1090.68mil|CornerRadius=191.01mil|HoleSize=0mil|Usage=FLASHONLY|Rotation=0.000|XOffset=0mil|YOffset=0mil|HoleType=Round|Shape=RoundedRectangle|*
%AMROUNDEDRECTD23*
21,1,0.75603,0.70866,0,0,0.0*
21,1,0.37402,1.09068,0,0,0.0*
1,1,0.38202,0.18701,-0.35433*
1,1,0.38202,-0.18701,-0.35433*
1,1,0.38202,-0.18701,0.35433*
1,1,0.38202,0.18701,0.35433*
%
%ADD23ROUNDEDRECTD23*%
G04:AMPARAMS|DCode=24|XSize=677.29mil|YSize=1090.68mil|CornerRadius=171.32mil|HoleSize=0mil|Usage=FLASHONLY|Rotation=0.000|XOffset=0mil|YOffset=0mil|HoleType=Round|Shape=RoundedRectangle|*
%AMROUNDEDRECTD24*
21,1,0.67729,0.74803,0,0,0.0*
21,1,0.33465,1.09068,0,0,0.0*
1,1,0.34265,0.16732,-0.37402*
1,1,0.34265,-0.16732,-0.37402*
1,1,0.34265,-0.16732,0.37402*
1,1,0.34265,0.16732,0.37402*
%
%ADD24ROUNDEDRECTD24*%
%ADD25C,0.00800*%
%ADD26C,0.04737*%
D18*
X188976Y539370D02*
D03*
X240158D02*
D03*
X-188976Y539370D02*
D03*
X-240158D02*
D03*
X188976Y-539370D02*
D03*
X240158D02*
D03*
X-240158Y-539370D02*
D03*
X-188976D02*
D03*
D19*
X220472Y0D02*
D03*
X94488D02*
D03*
X-220472D02*
D03*
X-94488D02*
D03*
D20*
X-187480D02*
D03*
X-127480D02*
D03*
X127480D02*
D03*
X187480D02*
D03*
X-258347Y153543D02*
D03*
X-198346D02*
D03*
Y-153543D02*
D03*
X-258347D02*
D03*
D21*
X-150984Y298228D02*
D03*
Y504921D02*
D03*
X-230906D02*
D03*
Y298228D02*
D03*
X150984Y504921D02*
D03*
Y298228D02*
D03*
X230906D02*
D03*
Y504921D02*
D03*
X-103347Y452165D02*
D03*
X103347D02*
D03*
Y532087D02*
D03*
X-103347D02*
D03*
X230906Y-504921D02*
D03*
Y-298228D02*
D03*
X150984D02*
D03*
Y-504921D02*
D03*
X-103347Y-532087D02*
D03*
X103347D02*
D03*
Y-452165D02*
D03*
X-103347D02*
D03*
X-150984Y-298228D02*
D03*
Y-504921D02*
D03*
X-230906D02*
D03*
Y-298228D02*
D03*
D22*
X-44291Y137795D02*
D03*
X44291D02*
D03*
X-44291Y-137795D02*
D03*
X44291D02*
D03*
D23*
X-157480Y-216535D02*
D03*
X55118D02*
D03*
Y216535D02*
D03*
X-157480D02*
D03*
D24*
X-51181Y-216535D02*
D03*
Y216535D02*
D03*
D25*
X134843Y-269685D02*
D03*
Y-246063D02*
D03*
Y-187008D02*
D03*
Y-163386D02*
D03*
Y269685D02*
D03*
Y246063D02*
D03*
Y187008D02*
D03*
Y163386D02*
D03*
D26*
X-51181Y-240158D02*
D03*
Y-255906D02*
D03*
X-47244Y-263779D02*
D03*
X-43307Y-255906D02*
D03*
X-47244Y-248031D02*
D03*
X-43307Y-240158D02*
D03*
X-47244Y-232283D02*
D03*
X-39370D02*
D03*
X-35433Y-240158D02*
D03*
X-39370Y-248031D02*
D03*
X-31496Y-232283D02*
D03*
X-23622D02*
D03*
X-27559Y-240158D02*
D03*
X-31496Y-248031D02*
D03*
X-23622D02*
D03*
X-35433Y-255906D02*
D03*
X-27559D02*
D03*
X-39370Y-263779D02*
D03*
X-35433Y-224409D02*
D03*
X-27559D02*
D03*
X-31496Y-216535D02*
D03*
X-23622D02*
D03*
X-47244Y-169291D02*
D03*
X-43307Y-177165D02*
D03*
X-47244Y-185039D02*
D03*
X-43307Y-192913D02*
D03*
X-47244Y-200787D02*
D03*
X-39370D02*
D03*
X-35433Y-192913D02*
D03*
X-39370Y-185039D02*
D03*
X-31496Y-200787D02*
D03*
X-23622D02*
D03*
X-27559Y-192913D02*
D03*
X-31496Y-185039D02*
D03*
X-23622D02*
D03*
X-35433Y-177165D02*
D03*
X-27559D02*
D03*
X-39370Y-169291D02*
D03*
X-35433Y-208661D02*
D03*
X-27559D02*
D03*
X-51181Y-192913D02*
D03*
X-31496Y-263779D02*
D03*
Y-169291D02*
D03*
X-19685Y-224409D02*
D03*
Y-208661D02*
D03*
Y-192913D02*
D03*
Y-240158D02*
D03*
X-82677Y-192913D02*
D03*
Y-240158D02*
D03*
Y-224409D02*
D03*
Y-208661D02*
D03*
X-70866Y-263779D02*
D03*
Y-169291D02*
D03*
X-74803Y-224409D02*
D03*
X-66929D02*
D03*
X-62992Y-263779D02*
D03*
X-74803Y-255906D02*
D03*
X-66929D02*
D03*
X-78740Y-248031D02*
D03*
X-70866D02*
D03*
X-74803Y-240158D02*
D03*
X-78740Y-232283D02*
D03*
X-70866D02*
D03*
X-62992Y-248031D02*
D03*
X-66929Y-240158D02*
D03*
X-62992Y-232283D02*
D03*
X-55118D02*
D03*
X-59055Y-240158D02*
D03*
X-55118Y-248031D02*
D03*
X-59055Y-255906D02*
D03*
X-55118Y-263779D02*
D03*
X-78740Y-216535D02*
D03*
X-70866D02*
D03*
X-74803Y-208661D02*
D03*
X-66929D02*
D03*
X-62992Y-169291D02*
D03*
X-74803Y-177165D02*
D03*
X-66929D02*
D03*
X-78740Y-185039D02*
D03*
X-70866D02*
D03*
X-74803Y-192913D02*
D03*
X-78740Y-200787D02*
D03*
X-70866D02*
D03*
X-62992Y-185039D02*
D03*
X-66929Y-192913D02*
D03*
X-62992Y-200787D02*
D03*
X-55118D02*
D03*
X-59055Y-192913D02*
D03*
X-55118Y-185039D02*
D03*
X-59055Y-177165D02*
D03*
X-55118Y-169291D02*
D03*
X-51181Y-177165D02*
D03*
X88583Y-240158D02*
D03*
Y-192913D02*
D03*
Y-208661D02*
D03*
Y-224409D02*
D03*
X76772Y-169291D02*
D03*
Y-263779D02*
D03*
X57087Y-192913D02*
D03*
Y-177165D02*
D03*
X80709Y-208661D02*
D03*
X72835D02*
D03*
X68898Y-169291D02*
D03*
X80709Y-177165D02*
D03*
X72835D02*
D03*
X84646Y-185039D02*
D03*
X76772D02*
D03*
X80709Y-192913D02*
D03*
X84646Y-200787D02*
D03*
X76772D02*
D03*
X68898Y-185039D02*
D03*
X72835Y-192913D02*
D03*
X68898Y-200787D02*
D03*
X61024D02*
D03*
X64961Y-192913D02*
D03*
X61024Y-185039D02*
D03*
X64961Y-177165D02*
D03*
X61024Y-169291D02*
D03*
X84646Y-216535D02*
D03*
X76772D02*
D03*
X80709Y-224409D02*
D03*
X72835D02*
D03*
X68898Y-263779D02*
D03*
X80709Y-255906D02*
D03*
X72835D02*
D03*
X84646Y-248031D02*
D03*
X76772D02*
D03*
X80709Y-240158D02*
D03*
X84646Y-232283D02*
D03*
X76772D02*
D03*
X68898Y-248031D02*
D03*
X72835Y-240158D02*
D03*
X68898Y-232283D02*
D03*
X61024D02*
D03*
X64961Y-240158D02*
D03*
X61024Y-248031D02*
D03*
X64961Y-255906D02*
D03*
X61024Y-263779D02*
D03*
X57087Y-255906D02*
D03*
Y-240158D02*
D03*
X29528Y-263779D02*
D03*
Y-169291D02*
D03*
X49213Y-240158D02*
D03*
Y-255906D02*
D03*
X25591Y-224409D02*
D03*
X33465D02*
D03*
X37402Y-263779D02*
D03*
X25591Y-255906D02*
D03*
X33465D02*
D03*
X21654Y-248031D02*
D03*
X29528D02*
D03*
X25591Y-240158D02*
D03*
X21654Y-232283D02*
D03*
X29528D02*
D03*
X37402Y-248031D02*
D03*
X33465Y-240158D02*
D03*
X37402Y-232283D02*
D03*
X45276D02*
D03*
X41339Y-240158D02*
D03*
X45276Y-248031D02*
D03*
X41339Y-255906D02*
D03*
X45276Y-263779D02*
D03*
X21654Y-216535D02*
D03*
X29528D02*
D03*
X25591Y-208661D02*
D03*
X33465D02*
D03*
X37402Y-169291D02*
D03*
X25591Y-177165D02*
D03*
X33465D02*
D03*
X21654Y-185039D02*
D03*
X29528D02*
D03*
X25591Y-192913D02*
D03*
X21654Y-200787D02*
D03*
X29528D02*
D03*
X37402Y-185039D02*
D03*
X33465Y-192913D02*
D03*
X37402Y-200787D02*
D03*
X45276D02*
D03*
X41339Y-192913D02*
D03*
X45276Y-185039D02*
D03*
X41339Y-177165D02*
D03*
X45276Y-169291D02*
D03*
X49213Y-177165D02*
D03*
Y-192913D02*
D03*
X53150Y-232283D02*
D03*
Y-248031D02*
D03*
Y-263779D02*
D03*
Y-200787D02*
D03*
Y-185039D02*
D03*
Y-169291D02*
D03*
X88583Y-177165D02*
D03*
Y-255906D02*
D03*
X-78740Y-263779D02*
D03*
X-23622D02*
D03*
X-78740Y-169291D02*
D03*
X-23622D02*
D03*
X84646Y-263779D02*
D03*
Y-169291D02*
D03*
X-187008Y-263779D02*
D03*
Y-169291D02*
D03*
X-190945Y-177165D02*
D03*
Y-255906D02*
D03*
X-155512Y-263779D02*
D03*
Y-248031D02*
D03*
Y-232283D02*
D03*
Y-169291D02*
D03*
Y-185039D02*
D03*
Y-200787D02*
D03*
X-151575Y-240158D02*
D03*
Y-255906D02*
D03*
X-147638Y-263779D02*
D03*
X-143701Y-255906D02*
D03*
X-147638Y-248031D02*
D03*
X-143701Y-240158D02*
D03*
X-147638Y-232283D02*
D03*
X-139764D02*
D03*
X-135827Y-240158D02*
D03*
X-139764Y-248031D02*
D03*
X-131890Y-232283D02*
D03*
X-124016D02*
D03*
X-127953Y-240158D02*
D03*
X-131890Y-248031D02*
D03*
X-124016D02*
D03*
X-135827Y-255906D02*
D03*
X-127953D02*
D03*
X-139764Y-263779D02*
D03*
X-135827Y-224409D02*
D03*
X-127953D02*
D03*
X-131890Y-216535D02*
D03*
X-124016D02*
D03*
X-147638Y-169291D02*
D03*
X-143701Y-177165D02*
D03*
X-147638Y-185039D02*
D03*
X-143701Y-192913D02*
D03*
X-147638Y-200787D02*
D03*
X-139764D02*
D03*
X-135827Y-192913D02*
D03*
X-139764Y-185039D02*
D03*
X-131890Y-200787D02*
D03*
X-124016D02*
D03*
X-127953Y-192913D02*
D03*
X-131890Y-185039D02*
D03*
X-124016D02*
D03*
X-135827Y-177165D02*
D03*
X-127953D02*
D03*
X-139764Y-169291D02*
D03*
X-135827Y-208661D02*
D03*
X-127953D02*
D03*
X-151575Y-177165D02*
D03*
Y-192913D02*
D03*
X-131890Y-263779D02*
D03*
Y-169291D02*
D03*
X-159449Y-192913D02*
D03*
Y-177165D02*
D03*
X-163386Y-169291D02*
D03*
X-167323Y-177165D02*
D03*
X-163386Y-185039D02*
D03*
X-167323Y-192913D02*
D03*
X-163386Y-200787D02*
D03*
X-171260D02*
D03*
X-175197Y-192913D02*
D03*
X-171260Y-185039D02*
D03*
X-179134Y-200787D02*
D03*
X-187008D02*
D03*
X-183071Y-192913D02*
D03*
X-179134Y-185039D02*
D03*
X-187008D02*
D03*
X-175197Y-177165D02*
D03*
X-183071D02*
D03*
X-171260Y-169291D02*
D03*
X-175197Y-208661D02*
D03*
X-183071D02*
D03*
X-179134Y-216535D02*
D03*
X-187008D02*
D03*
X-163386Y-263779D02*
D03*
X-167323Y-255906D02*
D03*
X-163386Y-248031D02*
D03*
X-167323Y-240158D02*
D03*
X-163386Y-232283D02*
D03*
X-171260D02*
D03*
X-175197Y-240158D02*
D03*
X-171260Y-248031D02*
D03*
X-179134Y-232283D02*
D03*
X-187008D02*
D03*
X-183071Y-240158D02*
D03*
X-179134Y-248031D02*
D03*
X-187008D02*
D03*
X-175197Y-255906D02*
D03*
X-183071D02*
D03*
X-171260Y-263779D02*
D03*
X-175197Y-224409D02*
D03*
X-183071D02*
D03*
X-159449Y-255906D02*
D03*
Y-240158D02*
D03*
X-179134Y-169291D02*
D03*
Y-263779D02*
D03*
X-190945Y-208661D02*
D03*
Y-224409D02*
D03*
Y-240158D02*
D03*
Y-192913D02*
D03*
Y240158D02*
D03*
Y192913D02*
D03*
Y208661D02*
D03*
Y224409D02*
D03*
X-179134Y169291D02*
D03*
Y263779D02*
D03*
X-159449Y192913D02*
D03*
Y177165D02*
D03*
X-183071Y208661D02*
D03*
X-175197D02*
D03*
X-171260Y169291D02*
D03*
X-183071Y177165D02*
D03*
X-175197D02*
D03*
X-187008Y185039D02*
D03*
X-179134D02*
D03*
X-183071Y192913D02*
D03*
X-187008Y200787D02*
D03*
X-179134D02*
D03*
X-171260Y185039D02*
D03*
X-175197Y192913D02*
D03*
X-171260Y200787D02*
D03*
X-163386D02*
D03*
X-167323Y192913D02*
D03*
X-163386Y185039D02*
D03*
X-167323Y177165D02*
D03*
X-163386Y169291D02*
D03*
X-187008Y216535D02*
D03*
X-179134D02*
D03*
X-183071Y224409D02*
D03*
X-175197D02*
D03*
X-171260Y263779D02*
D03*
X-183071Y255906D02*
D03*
X-175197D02*
D03*
X-187008Y248031D02*
D03*
X-179134D02*
D03*
X-183071Y240158D02*
D03*
X-187008Y232283D02*
D03*
X-179134D02*
D03*
X-171260Y248031D02*
D03*
X-175197Y240158D02*
D03*
X-171260Y232283D02*
D03*
X-163386D02*
D03*
X-167323Y240158D02*
D03*
X-163386Y248031D02*
D03*
X-167323Y255906D02*
D03*
X-163386Y263779D02*
D03*
X-159449Y255906D02*
D03*
Y240158D02*
D03*
X-131890Y263779D02*
D03*
Y169291D02*
D03*
X-151575Y240158D02*
D03*
Y255906D02*
D03*
X-127953Y224409D02*
D03*
X-135827D02*
D03*
X-139764Y263779D02*
D03*
X-127953Y255906D02*
D03*
X-135827D02*
D03*
X-124016Y248031D02*
D03*
X-131890D02*
D03*
X-127953Y240158D02*
D03*
X-124016Y232283D02*
D03*
X-131890D02*
D03*
X-139764Y248031D02*
D03*
X-135827Y240158D02*
D03*
X-139764Y232283D02*
D03*
X-147638D02*
D03*
X-143701Y240158D02*
D03*
X-147638Y248031D02*
D03*
X-143701Y255906D02*
D03*
X-147638Y263779D02*
D03*
X-124016Y216535D02*
D03*
X-131890D02*
D03*
X-127953Y208661D02*
D03*
X-135827D02*
D03*
X-139764Y169291D02*
D03*
X-127953Y177165D02*
D03*
X-135827D02*
D03*
X-124016Y185039D02*
D03*
X-131890D02*
D03*
X-127953Y192913D02*
D03*
X-124016Y200787D02*
D03*
X-131890D02*
D03*
X-139764Y185039D02*
D03*
X-135827Y192913D02*
D03*
X-139764Y200787D02*
D03*
X-147638D02*
D03*
X-143701Y192913D02*
D03*
X-147638Y185039D02*
D03*
X-143701Y177165D02*
D03*
X-147638Y169291D02*
D03*
X-151575Y177165D02*
D03*
Y192913D02*
D03*
X-155512Y232283D02*
D03*
Y248031D02*
D03*
Y263779D02*
D03*
Y200787D02*
D03*
Y185039D02*
D03*
Y169291D02*
D03*
X-190945Y177165D02*
D03*
Y255906D02*
D03*
X-187008Y263779D02*
D03*
Y169291D02*
D03*
X84646Y263779D02*
D03*
Y169291D02*
D03*
X-23622Y263779D02*
D03*
X-78740D02*
D03*
X-23622Y169291D02*
D03*
X-78740D02*
D03*
X88583Y177165D02*
D03*
Y255906D02*
D03*
X53150Y263779D02*
D03*
Y248031D02*
D03*
Y232283D02*
D03*
Y169291D02*
D03*
Y185039D02*
D03*
Y200787D02*
D03*
X49213Y240158D02*
D03*
Y255906D02*
D03*
X45276Y263779D02*
D03*
X41339Y255906D02*
D03*
X45276Y248031D02*
D03*
X41339Y240158D02*
D03*
X45276Y232283D02*
D03*
X37402D02*
D03*
X33465Y240158D02*
D03*
X37402Y248031D02*
D03*
X29528Y232283D02*
D03*
X21654D02*
D03*
X25591Y240158D02*
D03*
X29528Y248031D02*
D03*
X21654D02*
D03*
X33465Y255906D02*
D03*
X25591D02*
D03*
X37402Y263779D02*
D03*
X33465Y224409D02*
D03*
X25591D02*
D03*
X29528Y216535D02*
D03*
X21654D02*
D03*
X45276Y169291D02*
D03*
X41339Y177165D02*
D03*
X45276Y185039D02*
D03*
X41339Y192913D02*
D03*
X45276Y200787D02*
D03*
X37402D02*
D03*
X33465Y192913D02*
D03*
X37402Y185039D02*
D03*
X29528Y200787D02*
D03*
X21654D02*
D03*
X25591Y192913D02*
D03*
X29528Y185039D02*
D03*
X21654D02*
D03*
X33465Y177165D02*
D03*
X25591D02*
D03*
X37402Y169291D02*
D03*
X33465Y208661D02*
D03*
X25591D02*
D03*
X49213Y177165D02*
D03*
Y192913D02*
D03*
X29528Y263779D02*
D03*
Y169291D02*
D03*
X57087Y192913D02*
D03*
Y177165D02*
D03*
X61024Y169291D02*
D03*
X64961Y177165D02*
D03*
X61024Y185039D02*
D03*
X64961Y192913D02*
D03*
X61024Y200787D02*
D03*
X68898D02*
D03*
X72835Y192913D02*
D03*
X68898Y185039D02*
D03*
X76772Y200787D02*
D03*
X84646D02*
D03*
X80709Y192913D02*
D03*
X76772Y185039D02*
D03*
X84646D02*
D03*
X72835Y177165D02*
D03*
X80709D02*
D03*
X68898Y169291D02*
D03*
X72835Y208661D02*
D03*
X80709D02*
D03*
X76772Y216535D02*
D03*
X84646D02*
D03*
X61024Y263779D02*
D03*
X64961Y255906D02*
D03*
X61024Y248031D02*
D03*
X64961Y240158D02*
D03*
X61024Y232283D02*
D03*
X68898D02*
D03*
X72835Y240158D02*
D03*
X68898Y248031D02*
D03*
X76772Y232283D02*
D03*
X84646D02*
D03*
X80709Y240158D02*
D03*
X76772Y248031D02*
D03*
X84646D02*
D03*
X72835Y255906D02*
D03*
X80709D02*
D03*
X68898Y263779D02*
D03*
X72835Y224409D02*
D03*
X80709D02*
D03*
X57087Y255906D02*
D03*
Y240158D02*
D03*
X76772Y169291D02*
D03*
Y263779D02*
D03*
X88583Y208661D02*
D03*
Y224409D02*
D03*
Y240158D02*
D03*
Y192913D02*
D03*
X-51181Y255906D02*
D03*
X-55118Y263779D02*
D03*
X-59055Y255906D02*
D03*
X-55118Y248031D02*
D03*
X-59055Y240158D02*
D03*
X-55118Y232283D02*
D03*
X-62992D02*
D03*
X-66929Y240158D02*
D03*
X-62992Y248031D02*
D03*
X-70866Y232283D02*
D03*
X-78740D02*
D03*
X-74803Y240158D02*
D03*
X-70866Y248031D02*
D03*
X-78740D02*
D03*
X-66929Y255906D02*
D03*
X-74803D02*
D03*
X-62992Y263779D02*
D03*
X-66929Y224409D02*
D03*
X-74803D02*
D03*
X-70866Y216535D02*
D03*
X-78740D02*
D03*
X-55118Y169291D02*
D03*
X-59055Y177165D02*
D03*
X-55118Y185039D02*
D03*
X-59055Y192913D02*
D03*
X-55118Y200787D02*
D03*
X-62992D02*
D03*
X-66929Y192913D02*
D03*
X-62992Y185039D02*
D03*
X-70866Y200787D02*
D03*
X-78740D02*
D03*
X-74803Y192913D02*
D03*
X-70866Y185039D02*
D03*
X-78740D02*
D03*
X-66929Y177165D02*
D03*
X-74803D02*
D03*
X-62992Y169291D02*
D03*
X-66929Y208661D02*
D03*
X-74803D02*
D03*
X-70866Y263779D02*
D03*
Y169291D02*
D03*
X-82677Y224409D02*
D03*
Y208661D02*
D03*
Y192913D02*
D03*
Y240158D02*
D03*
X-19685Y192913D02*
D03*
Y240158D02*
D03*
Y224409D02*
D03*
Y208661D02*
D03*
X-31496Y263779D02*
D03*
Y169291D02*
D03*
X-51181Y240158D02*
D03*
X-27559Y224409D02*
D03*
X-35433D02*
D03*
X-39370Y263779D02*
D03*
X-27559Y255906D02*
D03*
X-35433D02*
D03*
X-23622Y248031D02*
D03*
X-31496D02*
D03*
X-27559Y240158D02*
D03*
X-23622Y232283D02*
D03*
X-31496D02*
D03*
X-39370Y248031D02*
D03*
X-35433Y240158D02*
D03*
X-39370Y232283D02*
D03*
X-47244D02*
D03*
X-43307Y240158D02*
D03*
X-47244Y248031D02*
D03*
X-43307Y255906D02*
D03*
X-47244Y263779D02*
D03*
X-23622Y216535D02*
D03*
X-31496D02*
D03*
X-27559Y208661D02*
D03*
X-35433D02*
D03*
X-39370Y169291D02*
D03*
X-27559Y177165D02*
D03*
X-35433D02*
D03*
X-23622Y185039D02*
D03*
X-31496D02*
D03*
X-27559Y192913D02*
D03*
X-23622Y200787D02*
D03*
X-31496D02*
D03*
X-39370Y185039D02*
D03*
X-35433Y192913D02*
D03*
X-39370Y200787D02*
D03*
X-47244D02*
D03*
X-43307Y192913D02*
D03*
X-47244Y185039D02*
D03*
X-43307Y177165D02*
D03*
X-47244Y169291D02*
D03*
X-51181Y177165D02*
D03*
Y192913D02*
D03*
X195866Y551303D02*
D03*
X202756Y539370D02*
D03*
X200910Y546260D02*
D03*
Y532480D02*
D03*
X188976Y525591D02*
D03*
X195866Y527437D02*
D03*
X182087D02*
D03*
X175197Y539370D02*
D03*
X177043Y532480D02*
D03*
X182087Y551303D02*
D03*
X188976Y553150D02*
D03*
X177043Y546260D02*
D03*
X247047Y551303D02*
D03*
X253937Y539370D02*
D03*
X252091Y546260D02*
D03*
Y532480D02*
D03*
X240158Y525591D02*
D03*
X247047Y527437D02*
D03*
X233268D02*
D03*
X226378Y539370D02*
D03*
X228224Y532480D02*
D03*
Y546260D02*
D03*
X240158Y553150D02*
D03*
X233268Y551303D02*
D03*
X-195866Y551304D02*
D03*
X-202756Y539370D02*
D03*
X-200910Y546260D02*
D03*
Y532480D02*
D03*
X-188976Y525591D02*
D03*
X-195866Y527437D02*
D03*
X-182087D02*
D03*
X-175197Y539370D02*
D03*
X-177043Y532480D02*
D03*
X-182087Y551304D02*
D03*
X-188976Y553150D02*
D03*
X-177043Y546260D02*
D03*
X-247047Y551304D02*
D03*
X-253937Y539370D02*
D03*
X-252091Y546260D02*
D03*
Y532480D02*
D03*
X-240158Y525591D02*
D03*
X-247047Y527437D02*
D03*
X-233268D02*
D03*
X-226378Y539370D02*
D03*
X-228224Y532480D02*
D03*
Y546260D02*
D03*
X-240158Y553150D02*
D03*
X-233268Y551304D02*
D03*
X195866Y-551303D02*
D03*
X202756Y-539370D02*
D03*
X200910Y-546260D02*
D03*
Y-532480D02*
D03*
X188976Y-525591D02*
D03*
X195866Y-527437D02*
D03*
X182087D02*
D03*
X175197Y-539370D02*
D03*
X177043Y-532480D02*
D03*
X182087Y-551303D02*
D03*
X188976Y-553150D02*
D03*
X177043Y-546260D02*
D03*
X247047Y-551303D02*
D03*
X253937Y-539370D02*
D03*
X252091Y-546260D02*
D03*
Y-532480D02*
D03*
X240158Y-525591D02*
D03*
X247047Y-527437D02*
D03*
X233268D02*
D03*
X226378Y-539370D02*
D03*
X228224Y-532480D02*
D03*
Y-546260D02*
D03*
X240158Y-553150D02*
D03*
X233268Y-551303D02*
D03*
X-233268Y-551303D02*
D03*
X-240158Y-553150D02*
D03*
X-228224Y-546260D02*
D03*
Y-532480D02*
D03*
X-226378Y-539370D02*
D03*
X-233268Y-527437D02*
D03*
X-247047D02*
D03*
X-240158Y-525591D02*
D03*
X-252091Y-532480D02*
D03*
Y-546260D02*
D03*
X-253937Y-539370D02*
D03*
X-247047Y-551303D02*
D03*
X-177043Y-546260D02*
D03*
X-188976Y-553150D02*
D03*
X-182087Y-551303D02*
D03*
X-177043Y-532480D02*
D03*
X-175197Y-539370D02*
D03*
X-182087Y-527437D02*
D03*
X-195866D02*
D03*
X-188976Y-525591D02*
D03*
X-200910Y-532480D02*
D03*
Y-546260D02*
D03*
X-202756Y-539370D02*
D03*
X-195866Y-551303D02*
D03*
X232283Y-20457D02*
D03*
X228346Y-13638D02*
D03*
X240930Y-11811D02*
D03*
X234111Y-7874D02*
D03*
X244094Y-0D02*
D03*
X236221Y0D02*
D03*
X240930Y11811D02*
D03*
X234111Y7874D02*
D03*
X232283Y20457D02*
D03*
X228346Y13638D02*
D03*
X220473Y23622D02*
D03*
X220472Y15748D02*
D03*
X208661Y20457D02*
D03*
X212598Y13638D02*
D03*
X200015Y11811D02*
D03*
X206834Y7874D02*
D03*
X196850Y0D02*
D03*
X204724Y0D02*
D03*
X200015Y-11811D02*
D03*
X206834Y-7874D02*
D03*
X208661Y-20457D02*
D03*
X212598Y-13638D02*
D03*
X220472Y-23622D02*
D03*
X220472Y-15748D02*
D03*
X106299Y-20457D02*
D03*
X102362Y-13638D02*
D03*
X114945Y-11811D02*
D03*
X108126Y-7874D02*
D03*
X118110Y-0D02*
D03*
X110236Y0D02*
D03*
X114945Y11811D02*
D03*
X108126Y7874D02*
D03*
X106299Y20457D02*
D03*
X102362Y13638D02*
D03*
X94488Y23622D02*
D03*
X94488Y15748D02*
D03*
X82677Y20457D02*
D03*
X86614Y13638D02*
D03*
X74031Y11811D02*
D03*
X80850Y7874D02*
D03*
X70866Y0D02*
D03*
X78740Y0D02*
D03*
X74031Y-11811D02*
D03*
X80850Y-7874D02*
D03*
X82677Y-20457D02*
D03*
X86614Y-13638D02*
D03*
X94488Y-23622D02*
D03*
X94488Y-15748D02*
D03*
X-82677Y-20457D02*
D03*
X-86614Y-13638D02*
D03*
X-74031Y-11811D02*
D03*
X-80850Y-7874D02*
D03*
X-70866Y-0D02*
D03*
X-78740Y0D02*
D03*
X-74031Y11811D02*
D03*
X-80850Y7874D02*
D03*
X-82677Y20457D02*
D03*
X-86614Y13638D02*
D03*
X-94488Y23622D02*
D03*
X-94488Y15748D02*
D03*
X-106299Y20457D02*
D03*
X-102362Y13638D02*
D03*
X-114945Y11811D02*
D03*
X-108126Y7874D02*
D03*
X-118110Y0D02*
D03*
X-110236Y0D02*
D03*
X-114945Y-11811D02*
D03*
X-108126Y-7874D02*
D03*
X-106299Y-20457D02*
D03*
X-102362Y-13638D02*
D03*
X-94488Y-23622D02*
D03*
X-94488Y-15748D02*
D03*
X-220472D02*
D03*
X-220472Y-23622D02*
D03*
X-228346Y-13638D02*
D03*
X-232283Y-20457D02*
D03*
X-234111Y-7874D02*
D03*
X-240930Y-11811D02*
D03*
X-236221Y0D02*
D03*
X-244094Y0D02*
D03*
X-234111Y7874D02*
D03*
X-240930Y11811D02*
D03*
X-228346Y13638D02*
D03*
X-232283Y20457D02*
D03*
X-220472Y15748D02*
D03*
X-220472Y23622D02*
D03*
X-212598Y13638D02*
D03*
X-208661Y20457D02*
D03*
X-206834Y7874D02*
D03*
X-200015Y11811D02*
D03*
X-204724Y0D02*
D03*
X-196850Y-0D02*
D03*
X-206834Y-7874D02*
D03*
X-200015Y-11811D02*
D03*
X-212598Y-13638D02*
D03*
X-208661Y-20457D02*
D03*
M02*
