G04*
G04 #@! TF.GenerationSoftware,Altium Limited,Altium Designer,18.1.9 (240)*
G04*
G04 Layer_Color=2752767*
%FSLAX25Y25*%
%MOIN*%
G70*
G01*
G75*
%ADD38C,0.00200*%
%ADD39C,0.00267*%
D38*
X188176Y538570D02*
Y540170D01*
X189776D01*
Y538570D01*
X188176D01*
X239357D02*
Y540170D01*
X240957D01*
Y538570D01*
X239357D01*
X-189776Y538570D02*
Y540170D01*
X-188176D01*
Y538570D01*
X-189776D01*
X-240957D02*
Y540170D01*
X-239357D01*
Y538570D01*
X-240957D01*
X188176Y-540170D02*
Y-538570D01*
X189776D01*
Y-540170D01*
X188176D01*
X239357D02*
Y-538570D01*
X240957D01*
Y-540170D01*
X239357D01*
X-240957Y-540170D02*
Y-538570D01*
X-239357D01*
Y-540170D01*
X-240957D01*
X-189776D02*
Y-538570D01*
X-188176D01*
Y-540170D01*
X-189776D01*
X219672Y-800D02*
Y800D01*
X221272D01*
Y-800D01*
X219672D01*
X93688D02*
Y800D01*
X95288D01*
Y-800D01*
X93688D01*
X-221272D02*
Y800D01*
X-219672D01*
Y-800D01*
X-221272D01*
X-95288D02*
Y800D01*
X-93688D01*
Y-800D01*
X-95288D01*
X-150984Y297428D02*
X-151784Y299028D01*
X-150184D01*
X-150984Y297428D01*
Y504121D02*
X-151784Y505721D01*
X-150184D01*
X-150984Y504121D01*
X-230906D02*
X-231705Y505721D01*
X-230105D01*
X-230906Y504121D01*
Y297428D02*
X-231705Y299028D01*
X-230105D01*
X-230906Y297428D01*
X150984Y504121D02*
X150184Y505721D01*
X151784D01*
X150984Y504121D01*
Y297428D02*
X150184Y299028D01*
X151784D01*
X150984Y297428D01*
X230906D02*
X230105Y299028D01*
X231705D01*
X230906Y297428D01*
Y504121D02*
X230105Y505721D01*
X231705D01*
X230906Y504121D01*
X-103347Y451365D02*
X-104147Y452965D01*
X-102547D01*
X-103347Y451365D01*
X103347D02*
X102547Y452965D01*
X104147D01*
X103347Y451365D01*
Y531287D02*
X102547Y532887D01*
X104147D01*
X103347Y531287D01*
X-103347D02*
X-104147Y532887D01*
X-102547D01*
X-103347Y531287D01*
X-44291Y136995D02*
X-43891Y137395D01*
X-43491D01*
X-43891Y137795D01*
X-43491Y138195D01*
X-43891D01*
X-44291Y138595D01*
X-44691Y138195D01*
X-45091D01*
X-44691Y137795D01*
X-45091Y137395D01*
X-44691D01*
X-44291Y136995D01*
X44291D02*
X44691Y137395D01*
X45091D01*
X44691Y137795D01*
X45091Y138195D01*
X44691D01*
X44291Y138595D01*
X43891Y138195D01*
X43491D01*
X43891Y137795D01*
X43491Y137395D01*
X43891D01*
X44291Y136995D01*
X230906Y-505721D02*
X230105Y-504121D01*
X231705D01*
X230906Y-505721D01*
Y-299028D02*
X230105Y-297428D01*
X231705D01*
X230906Y-299028D01*
X150984D02*
X150184Y-297428D01*
X151784D01*
X150984Y-299028D01*
Y-505721D02*
X150184Y-504121D01*
X151784D01*
X150984Y-505721D01*
X-103347Y-532887D02*
X-104147Y-531287D01*
X-102547D01*
X-103347Y-532887D01*
X103347D02*
X102547Y-531287D01*
X104147D01*
X103347Y-532887D01*
Y-452965D02*
X102547Y-451365D01*
X104147D01*
X103347Y-452965D01*
X-103347D02*
X-104147Y-451365D01*
X-102547D01*
X-103347Y-452965D01*
X-44291Y-138595D02*
X-43891Y-138195D01*
X-43491D01*
X-43891Y-137795D01*
X-43491Y-137395D01*
X-43891D01*
X-44291Y-136995D01*
X-44691Y-137395D01*
X-45091D01*
X-44691Y-137795D01*
X-45091Y-138195D01*
X-44691D01*
X-44291Y-138595D01*
X44291D02*
X44691Y-138195D01*
X45091D01*
X44691Y-137795D01*
X45091Y-137395D01*
X44691D01*
X44291Y-136995D01*
X43891Y-137395D01*
X43491D01*
X43891Y-137795D01*
X43491Y-138195D01*
X43891D01*
X44291Y-138595D01*
X-156312Y-217335D02*
X-155912Y-216535D01*
X-156312Y-215735D01*
X-155512Y-216135D01*
X-154712Y-215735D01*
X-155112Y-216535D01*
X-154712Y-217335D01*
X-155512Y-216935D01*
X-156312Y-217335D01*
X-51581Y-216935D02*
Y-217335D01*
X-50781D01*
Y-216935D01*
X-50381D01*
Y-216135D01*
X-50781D01*
Y-215735D01*
X-51581D01*
Y-216135D01*
X-51981D01*
Y-216935D01*
X-51581D01*
X52350Y-217335D02*
X52750Y-216535D01*
X52350Y-215735D01*
X53150Y-216135D01*
X53950Y-215735D01*
X53550Y-216535D01*
X53950Y-217335D01*
X53150Y-216935D01*
X52350Y-217335D01*
X134043Y-270485D02*
X134442D01*
X134843Y-270085D01*
X135242Y-270485D01*
X135643D01*
Y-270085D01*
X135242Y-269685D01*
X135643Y-269285D01*
Y-268885D01*
X135242D01*
X134843Y-269285D01*
X134442Y-268885D01*
X134043D01*
Y-269285D01*
X134442Y-269685D01*
X134043Y-270085D01*
Y-270485D01*
Y-246863D02*
X134442D01*
X134843Y-246463D01*
X135242Y-246863D01*
X135643D01*
Y-246463D01*
X135242Y-246063D01*
X135643Y-245663D01*
Y-245263D01*
X135242D01*
X134843Y-245663D01*
X134442Y-245263D01*
X134043D01*
Y-245663D01*
X134442Y-246063D01*
X134043Y-246463D01*
Y-246863D01*
Y-187808D02*
X134442D01*
X134843Y-187408D01*
X135242Y-187808D01*
X135643D01*
Y-187408D01*
X135242Y-187008D01*
X135643Y-186608D01*
Y-186208D01*
X135242D01*
X134843Y-186608D01*
X134442Y-186208D01*
X134043D01*
Y-186608D01*
X134442Y-187008D01*
X134043Y-187408D01*
Y-187808D01*
Y-164186D02*
X134442D01*
X134843Y-163786D01*
X135242Y-164186D01*
X135643D01*
Y-163786D01*
X135242Y-163386D01*
X135643Y-162986D01*
Y-162586D01*
X135242D01*
X134843Y-162986D01*
X134442Y-162586D01*
X134043D01*
Y-162986D01*
X134442Y-163386D01*
X134043Y-163786D01*
Y-164186D01*
X-51981Y-240158D02*
X-51181Y-239357D01*
X-50381Y-240158D01*
X-51181Y-240957D01*
X-51981Y-240158D01*
Y-255906D02*
X-51181Y-255105D01*
X-50381Y-255906D01*
X-51181Y-256705D01*
X-51981Y-255906D01*
X-48044Y-263779D02*
X-47244Y-262980D01*
X-46444Y-263779D01*
X-47244Y-264580D01*
X-48044Y-263779D01*
X-44107Y-255906D02*
X-43307Y-255105D01*
X-42507Y-255906D01*
X-43307Y-256705D01*
X-44107Y-255906D01*
X-48044Y-248031D02*
X-47244Y-247232D01*
X-46444Y-248031D01*
X-47244Y-248832D01*
X-48044Y-248031D01*
X-44107Y-240158D02*
X-43307Y-239357D01*
X-42507Y-240158D01*
X-43307Y-240957D01*
X-44107Y-240158D01*
X-48044Y-232283D02*
X-47244Y-231484D01*
X-46444Y-232283D01*
X-47244Y-233084D01*
X-48044Y-232283D01*
X-40170D02*
X-39370Y-231484D01*
X-38570Y-232283D01*
X-39370Y-233084D01*
X-40170Y-232283D01*
X-36233Y-240158D02*
X-35433Y-239357D01*
X-34633Y-240158D01*
X-35433Y-240957D01*
X-36233Y-240158D01*
X-40170Y-248031D02*
X-39370Y-247232D01*
X-38570Y-248031D01*
X-39370Y-248832D01*
X-40170Y-248031D01*
X-32296Y-232283D02*
X-31496Y-231484D01*
X-30696Y-232283D01*
X-31496Y-233084D01*
X-32296Y-232283D01*
X-24422D02*
X-23622Y-231484D01*
X-22822Y-232283D01*
X-23622Y-233084D01*
X-24422Y-232283D01*
X-28359Y-240158D02*
X-27559Y-239357D01*
X-26759Y-240158D01*
X-27559Y-240957D01*
X-28359Y-240158D01*
X-32296Y-248031D02*
X-31496Y-247232D01*
X-30696Y-248031D01*
X-31496Y-248832D01*
X-32296Y-248031D01*
X-24422D02*
X-23622Y-247232D01*
X-22822Y-248031D01*
X-23622Y-248832D01*
X-24422Y-248031D01*
X-36233Y-255906D02*
X-35433Y-255105D01*
X-34633Y-255906D01*
X-35433Y-256705D01*
X-36233Y-255906D01*
X-28359D02*
X-27559Y-255105D01*
X-26759Y-255906D01*
X-27559Y-256705D01*
X-28359Y-255906D01*
X-40170Y-263779D02*
X-39370Y-262980D01*
X-38570Y-263779D01*
X-39370Y-264580D01*
X-40170Y-263779D01*
X-36233Y-224409D02*
X-35433Y-223609D01*
X-34633Y-224409D01*
X-35433Y-225209D01*
X-36233Y-224409D01*
X-28359D02*
X-27559Y-223609D01*
X-26759Y-224409D01*
X-27559Y-225209D01*
X-28359Y-224409D01*
X-32296Y-216535D02*
X-31496Y-215735D01*
X-30696Y-216535D01*
X-31496Y-217335D01*
X-32296Y-216535D01*
X-24422D02*
X-23622Y-215735D01*
X-22822Y-216535D01*
X-23622Y-217335D01*
X-24422Y-216535D01*
X-48044Y-169291D02*
X-47244Y-168491D01*
X-46444Y-169291D01*
X-47244Y-170091D01*
X-48044Y-169291D01*
X-44107Y-177165D02*
X-43307Y-176365D01*
X-42507Y-177165D01*
X-43307Y-177965D01*
X-44107Y-177165D01*
X-48044Y-185039D02*
X-47244Y-184239D01*
X-46444Y-185039D01*
X-47244Y-185839D01*
X-48044Y-185039D01*
X-44107Y-192913D02*
X-43307Y-192113D01*
X-42507Y-192913D01*
X-43307Y-193713D01*
X-44107Y-192913D01*
X-48044Y-200787D02*
X-47244Y-199987D01*
X-46444Y-200787D01*
X-47244Y-201587D01*
X-48044Y-200787D01*
X-40170D02*
X-39370Y-199987D01*
X-38570Y-200787D01*
X-39370Y-201587D01*
X-40170Y-200787D01*
X-36233Y-192913D02*
X-35433Y-192113D01*
X-34633Y-192913D01*
X-35433Y-193713D01*
X-36233Y-192913D01*
X-40170Y-185039D02*
X-39370Y-184239D01*
X-38570Y-185039D01*
X-39370Y-185839D01*
X-40170Y-185039D01*
X-32296Y-200787D02*
X-31496Y-199987D01*
X-30696Y-200787D01*
X-31496Y-201587D01*
X-32296Y-200787D01*
X-24422D02*
X-23622Y-199987D01*
X-22822Y-200787D01*
X-23622Y-201587D01*
X-24422Y-200787D01*
X-28359Y-192913D02*
X-27559Y-192113D01*
X-26759Y-192913D01*
X-27559Y-193713D01*
X-28359Y-192913D01*
X-32296Y-185039D02*
X-31496Y-184239D01*
X-30696Y-185039D01*
X-31496Y-185839D01*
X-32296Y-185039D01*
X-24422D02*
X-23622Y-184239D01*
X-22822Y-185039D01*
X-23622Y-185839D01*
X-24422Y-185039D01*
X-36233Y-177165D02*
X-35433Y-176365D01*
X-34633Y-177165D01*
X-35433Y-177965D01*
X-36233Y-177165D01*
X-28359D02*
X-27559Y-176365D01*
X-26759Y-177165D01*
X-27559Y-177965D01*
X-28359Y-177165D01*
X-40170Y-169291D02*
X-39370Y-168491D01*
X-38570Y-169291D01*
X-39370Y-170091D01*
X-40170Y-169291D01*
X-36233Y-208661D02*
X-35433Y-207861D01*
X-34633Y-208661D01*
X-35433Y-209461D01*
X-36233Y-208661D01*
X-28359D02*
X-27559Y-207861D01*
X-26759Y-208661D01*
X-27559Y-209461D01*
X-28359Y-208661D01*
X-51981Y-192913D02*
X-51181Y-192113D01*
X-50381Y-192913D01*
X-51181Y-193713D01*
X-51981Y-192913D01*
X-32296Y-263779D02*
X-31496Y-262980D01*
X-30696Y-263779D01*
X-31496Y-264580D01*
X-32296Y-263779D01*
Y-169291D02*
X-31496Y-168491D01*
X-30696Y-169291D01*
X-31496Y-170091D01*
X-32296Y-169291D01*
X-20485Y-224409D02*
X-19685Y-223609D01*
X-18885Y-224409D01*
X-19685Y-225209D01*
X-20485Y-224409D01*
Y-208661D02*
X-19685Y-207861D01*
X-18885Y-208661D01*
X-19685Y-209461D01*
X-20485Y-208661D01*
Y-192913D02*
X-19685Y-192113D01*
X-18885Y-192913D01*
X-19685Y-193713D01*
X-20485Y-192913D01*
Y-240158D02*
X-19685Y-239357D01*
X-18885Y-240158D01*
X-19685Y-240957D01*
X-20485Y-240158D01*
X-83477Y-192913D02*
X-82677Y-192113D01*
X-81877Y-192913D01*
X-82677Y-193713D01*
X-83477Y-192913D01*
Y-240158D02*
X-82677Y-239357D01*
X-81877Y-240158D01*
X-82677Y-240957D01*
X-83477Y-240158D01*
Y-224409D02*
X-82677Y-223609D01*
X-81877Y-224409D01*
X-82677Y-225209D01*
X-83477Y-224409D01*
Y-208661D02*
X-82677Y-207861D01*
X-81877Y-208661D01*
X-82677Y-209461D01*
X-83477Y-208661D01*
X-71666Y-263779D02*
X-70866Y-262980D01*
X-70066Y-263779D01*
X-70866Y-264580D01*
X-71666Y-263779D01*
Y-169291D02*
X-70866Y-168491D01*
X-70066Y-169291D01*
X-70866Y-170091D01*
X-71666Y-169291D01*
X-75603Y-224409D02*
X-74803Y-223609D01*
X-74003Y-224409D01*
X-74803Y-225209D01*
X-75603Y-224409D01*
X-67729D02*
X-66929Y-223609D01*
X-66129Y-224409D01*
X-66929Y-225209D01*
X-67729Y-224409D01*
X-63792Y-263779D02*
X-62992Y-262980D01*
X-62192Y-263779D01*
X-62992Y-264580D01*
X-63792Y-263779D01*
X-75603Y-255906D02*
X-74803Y-255105D01*
X-74003Y-255906D01*
X-74803Y-256705D01*
X-75603Y-255906D01*
X-67729D02*
X-66929Y-255105D01*
X-66129Y-255906D01*
X-66929Y-256705D01*
X-67729Y-255906D01*
X-79540Y-248031D02*
X-78740Y-247232D01*
X-77940Y-248031D01*
X-78740Y-248832D01*
X-79540Y-248031D01*
X-71666D02*
X-70866Y-247232D01*
X-70066Y-248031D01*
X-70866Y-248832D01*
X-71666Y-248031D01*
X-75603Y-240158D02*
X-74803Y-239357D01*
X-74003Y-240158D01*
X-74803Y-240957D01*
X-75603Y-240158D01*
X-79540Y-232283D02*
X-78740Y-231484D01*
X-77940Y-232283D01*
X-78740Y-233084D01*
X-79540Y-232283D01*
X-71666D02*
X-70866Y-231484D01*
X-70066Y-232283D01*
X-70866Y-233084D01*
X-71666Y-232283D01*
X-63792Y-248031D02*
X-62992Y-247232D01*
X-62192Y-248031D01*
X-62992Y-248832D01*
X-63792Y-248031D01*
X-67729Y-240158D02*
X-66929Y-239357D01*
X-66129Y-240158D01*
X-66929Y-240957D01*
X-67729Y-240158D01*
X-63792Y-232283D02*
X-62992Y-231484D01*
X-62192Y-232283D01*
X-62992Y-233084D01*
X-63792Y-232283D01*
X-55918D02*
X-55118Y-231484D01*
X-54318Y-232283D01*
X-55118Y-233084D01*
X-55918Y-232283D01*
X-59855Y-240158D02*
X-59055Y-239357D01*
X-58255Y-240158D01*
X-59055Y-240957D01*
X-59855Y-240158D01*
X-55918Y-248031D02*
X-55118Y-247232D01*
X-54318Y-248031D01*
X-55118Y-248832D01*
X-55918Y-248031D01*
X-59855Y-255906D02*
X-59055Y-255105D01*
X-58255Y-255906D01*
X-59055Y-256705D01*
X-59855Y-255906D01*
X-55918Y-263779D02*
X-55118Y-262980D01*
X-54318Y-263779D01*
X-55118Y-264580D01*
X-55918Y-263779D01*
X-79540Y-216535D02*
X-78740Y-215735D01*
X-77940Y-216535D01*
X-78740Y-217335D01*
X-79540Y-216535D01*
X-71666D02*
X-70866Y-215735D01*
X-70066Y-216535D01*
X-70866Y-217335D01*
X-71666Y-216535D01*
X-75603Y-208661D02*
X-74803Y-207861D01*
X-74003Y-208661D01*
X-74803Y-209461D01*
X-75603Y-208661D01*
X-67729D02*
X-66929Y-207861D01*
X-66129Y-208661D01*
X-66929Y-209461D01*
X-67729Y-208661D01*
X-63792Y-169291D02*
X-62992Y-168491D01*
X-62192Y-169291D01*
X-62992Y-170091D01*
X-63792Y-169291D01*
X-75603Y-177165D02*
X-74803Y-176365D01*
X-74003Y-177165D01*
X-74803Y-177965D01*
X-75603Y-177165D01*
X-67729D02*
X-66929Y-176365D01*
X-66129Y-177165D01*
X-66929Y-177965D01*
X-67729Y-177165D01*
X-79540Y-185039D02*
X-78740Y-184239D01*
X-77940Y-185039D01*
X-78740Y-185839D01*
X-79540Y-185039D01*
X-71666D02*
X-70866Y-184239D01*
X-70066Y-185039D01*
X-70866Y-185839D01*
X-71666Y-185039D01*
X-75603Y-192913D02*
X-74803Y-192113D01*
X-74003Y-192913D01*
X-74803Y-193713D01*
X-75603Y-192913D01*
X-79540Y-200787D02*
X-78740Y-199987D01*
X-77940Y-200787D01*
X-78740Y-201587D01*
X-79540Y-200787D01*
X-71666D02*
X-70866Y-199987D01*
X-70066Y-200787D01*
X-70866Y-201587D01*
X-71666Y-200787D01*
X-63792Y-185039D02*
X-62992Y-184239D01*
X-62192Y-185039D01*
X-62992Y-185839D01*
X-63792Y-185039D01*
X-67729Y-192913D02*
X-66929Y-192113D01*
X-66129Y-192913D01*
X-66929Y-193713D01*
X-67729Y-192913D01*
X-63792Y-200787D02*
X-62992Y-199987D01*
X-62192Y-200787D01*
X-62992Y-201587D01*
X-63792Y-200787D01*
X-55918D02*
X-55118Y-199987D01*
X-54318Y-200787D01*
X-55118Y-201587D01*
X-55918Y-200787D01*
X-59855Y-192913D02*
X-59055Y-192113D01*
X-58255Y-192913D01*
X-59055Y-193713D01*
X-59855Y-192913D01*
X-55918Y-185039D02*
X-55118Y-184239D01*
X-54318Y-185039D01*
X-55118Y-185839D01*
X-55918Y-185039D01*
X-59855Y-177165D02*
X-59055Y-176365D01*
X-58255Y-177165D01*
X-59055Y-177965D01*
X-59855Y-177165D01*
X-55918Y-169291D02*
X-55118Y-168491D01*
X-54318Y-169291D01*
X-55118Y-170091D01*
X-55918Y-169291D01*
X-51981Y-177165D02*
X-51181Y-176365D01*
X-50381Y-177165D01*
X-51181Y-177965D01*
X-51981Y-177165D01*
X87783Y-240158D02*
X88583Y-239357D01*
X89383Y-240158D01*
X88583Y-240957D01*
X87783Y-240158D01*
Y-192913D02*
X88583Y-192113D01*
X89383Y-192913D01*
X88583Y-193713D01*
X87783Y-192913D01*
Y-208661D02*
X88583Y-207861D01*
X89383Y-208661D01*
X88583Y-209461D01*
X87783Y-208661D01*
Y-224409D02*
X88583Y-223609D01*
X89383Y-224409D01*
X88583Y-225209D01*
X87783Y-224409D01*
X75972Y-169291D02*
X76772Y-168491D01*
X77572Y-169291D01*
X76772Y-170091D01*
X75972Y-169291D01*
Y-263779D02*
X76772Y-262980D01*
X77572Y-263779D01*
X76772Y-264580D01*
X75972Y-263779D01*
X56287Y-192913D02*
X57087Y-192113D01*
X57887Y-192913D01*
X57087Y-193713D01*
X56287Y-192913D01*
Y-177165D02*
X57087Y-176365D01*
X57887Y-177165D01*
X57087Y-177965D01*
X56287Y-177165D01*
X79909Y-208661D02*
X80709Y-207861D01*
X81509Y-208661D01*
X80709Y-209461D01*
X79909Y-208661D01*
X72035D02*
X72835Y-207861D01*
X73635Y-208661D01*
X72835Y-209461D01*
X72035Y-208661D01*
X68098Y-169291D02*
X68898Y-168491D01*
X69698Y-169291D01*
X68898Y-170091D01*
X68098Y-169291D01*
X79909Y-177165D02*
X80709Y-176365D01*
X81509Y-177165D01*
X80709Y-177965D01*
X79909Y-177165D01*
X72035D02*
X72835Y-176365D01*
X73635Y-177165D01*
X72835Y-177965D01*
X72035Y-177165D01*
X83846Y-185039D02*
X84646Y-184239D01*
X85446Y-185039D01*
X84646Y-185839D01*
X83846Y-185039D01*
X75972D02*
X76772Y-184239D01*
X77572Y-185039D01*
X76772Y-185839D01*
X75972Y-185039D01*
X79909Y-192913D02*
X80709Y-192113D01*
X81509Y-192913D01*
X80709Y-193713D01*
X79909Y-192913D01*
X83846Y-200787D02*
X84646Y-199987D01*
X85446Y-200787D01*
X84646Y-201587D01*
X83846Y-200787D01*
X75972D02*
X76772Y-199987D01*
X77572Y-200787D01*
X76772Y-201587D01*
X75972Y-200787D01*
X68098Y-185039D02*
X68898Y-184239D01*
X69698Y-185039D01*
X68898Y-185839D01*
X68098Y-185039D01*
X72035Y-192913D02*
X72835Y-192113D01*
X73635Y-192913D01*
X72835Y-193713D01*
X72035Y-192913D01*
X68098Y-200787D02*
X68898Y-199987D01*
X69698Y-200787D01*
X68898Y-201587D01*
X68098Y-200787D01*
X60224D02*
X61024Y-199987D01*
X61824Y-200787D01*
X61024Y-201587D01*
X60224Y-200787D01*
X64161Y-192913D02*
X64961Y-192113D01*
X65761Y-192913D01*
X64961Y-193713D01*
X64161Y-192913D01*
X60224Y-185039D02*
X61024Y-184239D01*
X61824Y-185039D01*
X61024Y-185839D01*
X60224Y-185039D01*
X64161Y-177165D02*
X64961Y-176365D01*
X65761Y-177165D01*
X64961Y-177965D01*
X64161Y-177165D01*
X60224Y-169291D02*
X61024Y-168491D01*
X61824Y-169291D01*
X61024Y-170091D01*
X60224Y-169291D01*
X83846Y-216535D02*
X84646Y-215735D01*
X85446Y-216535D01*
X84646Y-217335D01*
X83846Y-216535D01*
X75972D02*
X76772Y-215735D01*
X77572Y-216535D01*
X76772Y-217335D01*
X75972Y-216535D01*
X79909Y-224409D02*
X80709Y-223609D01*
X81509Y-224409D01*
X80709Y-225209D01*
X79909Y-224409D01*
X72035D02*
X72835Y-223609D01*
X73635Y-224409D01*
X72835Y-225209D01*
X72035Y-224409D01*
X68098Y-263779D02*
X68898Y-262980D01*
X69698Y-263779D01*
X68898Y-264580D01*
X68098Y-263779D01*
X79909Y-255906D02*
X80709Y-255105D01*
X81509Y-255906D01*
X80709Y-256705D01*
X79909Y-255906D01*
X72035D02*
X72835Y-255105D01*
X73635Y-255906D01*
X72835Y-256705D01*
X72035Y-255906D01*
X83846Y-248031D02*
X84646Y-247232D01*
X85446Y-248031D01*
X84646Y-248832D01*
X83846Y-248031D01*
X75972D02*
X76772Y-247232D01*
X77572Y-248031D01*
X76772Y-248832D01*
X75972Y-248031D01*
X79909Y-240158D02*
X80709Y-239357D01*
X81509Y-240158D01*
X80709Y-240957D01*
X79909Y-240158D01*
X83846Y-232283D02*
X84646Y-231484D01*
X85446Y-232283D01*
X84646Y-233084D01*
X83846Y-232283D01*
X75972D02*
X76772Y-231484D01*
X77572Y-232283D01*
X76772Y-233084D01*
X75972Y-232283D01*
X68098Y-248031D02*
X68898Y-247232D01*
X69698Y-248031D01*
X68898Y-248832D01*
X68098Y-248031D01*
X72035Y-240158D02*
X72835Y-239357D01*
X73635Y-240158D01*
X72835Y-240957D01*
X72035Y-240158D01*
X68098Y-232283D02*
X68898Y-231484D01*
X69698Y-232283D01*
X68898Y-233084D01*
X68098Y-232283D01*
X60224D02*
X61024Y-231484D01*
X61824Y-232283D01*
X61024Y-233084D01*
X60224Y-232283D01*
X64161Y-240158D02*
X64961Y-239357D01*
X65761Y-240158D01*
X64961Y-240957D01*
X64161Y-240158D01*
X60224Y-248031D02*
X61024Y-247232D01*
X61824Y-248031D01*
X61024Y-248832D01*
X60224Y-248031D01*
X64161Y-255906D02*
X64961Y-255105D01*
X65761Y-255906D01*
X64961Y-256705D01*
X64161Y-255906D01*
X60224Y-263779D02*
X61024Y-262980D01*
X61824Y-263779D01*
X61024Y-264580D01*
X60224Y-263779D01*
X56287Y-255906D02*
X57087Y-255105D01*
X57887Y-255906D01*
X57087Y-256705D01*
X56287Y-255906D01*
Y-240158D02*
X57087Y-239357D01*
X57887Y-240158D01*
X57087Y-240957D01*
X56287Y-240158D01*
X28727Y-263779D02*
X29528Y-262980D01*
X30327Y-263779D01*
X29528Y-264580D01*
X28727Y-263779D01*
Y-169291D02*
X29528Y-168491D01*
X30327Y-169291D01*
X29528Y-170091D01*
X28727Y-169291D01*
X48413Y-240158D02*
X49213Y-239357D01*
X50013Y-240158D01*
X49213Y-240957D01*
X48413Y-240158D01*
Y-255906D02*
X49213Y-255105D01*
X50013Y-255906D01*
X49213Y-256705D01*
X48413Y-255906D01*
X24791Y-224409D02*
X25591Y-223609D01*
X26390Y-224409D01*
X25591Y-225209D01*
X24791Y-224409D01*
X32665D02*
X33465Y-223609D01*
X34265Y-224409D01*
X33465Y-225209D01*
X32665Y-224409D01*
X36602Y-263779D02*
X37402Y-262980D01*
X38202Y-263779D01*
X37402Y-264580D01*
X36602Y-263779D01*
X24791Y-255906D02*
X25591Y-255105D01*
X26390Y-255906D01*
X25591Y-256705D01*
X24791Y-255906D01*
X32665D02*
X33465Y-255105D01*
X34265Y-255906D01*
X33465Y-256705D01*
X32665Y-255906D01*
X20854Y-248031D02*
X21654Y-247232D01*
X22454Y-248031D01*
X21654Y-248832D01*
X20854Y-248031D01*
X28727D02*
X29528Y-247232D01*
X30327Y-248031D01*
X29528Y-248832D01*
X28727Y-248031D01*
X24791Y-240158D02*
X25591Y-239357D01*
X26390Y-240158D01*
X25591Y-240957D01*
X24791Y-240158D01*
X20854Y-232283D02*
X21654Y-231484D01*
X22454Y-232283D01*
X21654Y-233084D01*
X20854Y-232283D01*
X28727D02*
X29528Y-231484D01*
X30327Y-232283D01*
X29528Y-233084D01*
X28727Y-232283D01*
X36602Y-248031D02*
X37402Y-247232D01*
X38202Y-248031D01*
X37402Y-248832D01*
X36602Y-248031D01*
X32665Y-240158D02*
X33465Y-239357D01*
X34265Y-240158D01*
X33465Y-240957D01*
X32665Y-240158D01*
X36602Y-232283D02*
X37402Y-231484D01*
X38202Y-232283D01*
X37402Y-233084D01*
X36602Y-232283D01*
X44476D02*
X45276Y-231484D01*
X46076Y-232283D01*
X45276Y-233084D01*
X44476Y-232283D01*
X40539Y-240158D02*
X41339Y-239357D01*
X42139Y-240158D01*
X41339Y-240957D01*
X40539Y-240158D01*
X44476Y-248031D02*
X45276Y-247232D01*
X46076Y-248031D01*
X45276Y-248832D01*
X44476Y-248031D01*
X40539Y-255906D02*
X41339Y-255105D01*
X42139Y-255906D01*
X41339Y-256705D01*
X40539Y-255906D01*
X44476Y-263779D02*
X45276Y-262980D01*
X46076Y-263779D01*
X45276Y-264580D01*
X44476Y-263779D01*
X20854Y-216535D02*
X21654Y-215735D01*
X22454Y-216535D01*
X21654Y-217335D01*
X20854Y-216535D01*
X28727D02*
X29528Y-215735D01*
X30327Y-216535D01*
X29528Y-217335D01*
X28727Y-216535D01*
X24791Y-208661D02*
X25591Y-207861D01*
X26390Y-208661D01*
X25591Y-209461D01*
X24791Y-208661D01*
X32665D02*
X33465Y-207861D01*
X34265Y-208661D01*
X33465Y-209461D01*
X32665Y-208661D01*
X36602Y-169291D02*
X37402Y-168491D01*
X38202Y-169291D01*
X37402Y-170091D01*
X36602Y-169291D01*
X24791Y-177165D02*
X25591Y-176365D01*
X26390Y-177165D01*
X25591Y-177965D01*
X24791Y-177165D01*
X32665D02*
X33465Y-176365D01*
X34265Y-177165D01*
X33465Y-177965D01*
X32665Y-177165D01*
X20854Y-185039D02*
X21654Y-184239D01*
X22454Y-185039D01*
X21654Y-185839D01*
X20854Y-185039D01*
X28727D02*
X29528Y-184239D01*
X30327Y-185039D01*
X29528Y-185839D01*
X28727Y-185039D01*
X24791Y-192913D02*
X25591Y-192113D01*
X26390Y-192913D01*
X25591Y-193713D01*
X24791Y-192913D01*
X20854Y-200787D02*
X21654Y-199987D01*
X22454Y-200787D01*
X21654Y-201587D01*
X20854Y-200787D01*
X28727D02*
X29528Y-199987D01*
X30327Y-200787D01*
X29528Y-201587D01*
X28727Y-200787D01*
X36602Y-185039D02*
X37402Y-184239D01*
X38202Y-185039D01*
X37402Y-185839D01*
X36602Y-185039D01*
X32665Y-192913D02*
X33465Y-192113D01*
X34265Y-192913D01*
X33465Y-193713D01*
X32665Y-192913D01*
X36602Y-200787D02*
X37402Y-199987D01*
X38202Y-200787D01*
X37402Y-201587D01*
X36602Y-200787D01*
X44476D02*
X45276Y-199987D01*
X46076Y-200787D01*
X45276Y-201587D01*
X44476Y-200787D01*
X40539Y-192913D02*
X41339Y-192113D01*
X42139Y-192913D01*
X41339Y-193713D01*
X40539Y-192913D01*
X44476Y-185039D02*
X45276Y-184239D01*
X46076Y-185039D01*
X45276Y-185839D01*
X44476Y-185039D01*
X40539Y-177165D02*
X41339Y-176365D01*
X42139Y-177165D01*
X41339Y-177965D01*
X40539Y-177165D01*
X44476Y-169291D02*
X45276Y-168491D01*
X46076Y-169291D01*
X45276Y-170091D01*
X44476Y-169291D01*
X48413Y-177165D02*
X49213Y-176365D01*
X50013Y-177165D01*
X49213Y-177965D01*
X48413Y-177165D01*
Y-192913D02*
X49213Y-192113D01*
X50013Y-192913D01*
X49213Y-193713D01*
X48413Y-192913D01*
X52350Y-232283D02*
X53150Y-231484D01*
X53950Y-232283D01*
X53150Y-233084D01*
X52350Y-232283D01*
Y-248031D02*
X53150Y-247232D01*
X53950Y-248031D01*
X53150Y-248832D01*
X52350Y-248031D01*
Y-263779D02*
X53150Y-262980D01*
X53950Y-263779D01*
X53150Y-264580D01*
X52350Y-263779D01*
Y-200787D02*
X53150Y-199987D01*
X53950Y-200787D01*
X53150Y-201587D01*
X52350Y-200787D01*
Y-185039D02*
X53150Y-184239D01*
X53950Y-185039D01*
X53150Y-185839D01*
X52350Y-185039D01*
Y-169291D02*
X53150Y-168491D01*
X53950Y-169291D01*
X53150Y-170091D01*
X52350Y-169291D01*
X87783Y-177165D02*
X88583Y-176365D01*
X89383Y-177165D01*
X88583Y-177965D01*
X87783Y-177165D01*
Y-255906D02*
X88583Y-255105D01*
X89383Y-255906D01*
X88583Y-256705D01*
X87783Y-255906D01*
X-79540Y-263779D02*
X-78740Y-262980D01*
X-77940Y-263779D01*
X-78740Y-264580D01*
X-79540Y-263779D01*
X-24422D02*
X-23622Y-262980D01*
X-22822Y-263779D01*
X-23622Y-264580D01*
X-24422Y-263779D01*
X-79540Y-169291D02*
X-78740Y-168491D01*
X-77940Y-169291D01*
X-78740Y-170091D01*
X-79540Y-169291D01*
X-24422D02*
X-23622Y-168491D01*
X-22822Y-169291D01*
X-23622Y-170091D01*
X-24422Y-169291D01*
X83846Y-263779D02*
X84646Y-262980D01*
X85446Y-263779D01*
X84646Y-264580D01*
X83846Y-263779D01*
Y-169291D02*
X84646Y-168491D01*
X85446Y-169291D01*
X84646Y-170091D01*
X83846Y-169291D01*
X-187808Y-263779D02*
X-187008Y-262980D01*
X-186208Y-263779D01*
X-187008Y-264580D01*
X-187808Y-263779D01*
Y-169291D02*
X-187008Y-168491D01*
X-186208Y-169291D01*
X-187008Y-170091D01*
X-187808Y-169291D01*
X-191745Y-177165D02*
X-190945Y-176365D01*
X-190145Y-177165D01*
X-190945Y-177965D01*
X-191745Y-177165D01*
Y-255906D02*
X-190945Y-255105D01*
X-190145Y-255906D01*
X-190945Y-256705D01*
X-191745Y-255906D01*
X-156312Y-263779D02*
X-155512Y-262980D01*
X-154712Y-263779D01*
X-155512Y-264580D01*
X-156312Y-263779D01*
Y-248031D02*
X-155512Y-247232D01*
X-154712Y-248031D01*
X-155512Y-248832D01*
X-156312Y-248031D01*
Y-232283D02*
X-155512Y-231484D01*
X-154712Y-232283D01*
X-155512Y-233084D01*
X-156312Y-232283D01*
Y-169291D02*
X-155512Y-168491D01*
X-154712Y-169291D01*
X-155512Y-170091D01*
X-156312Y-169291D01*
Y-185039D02*
X-155512Y-184239D01*
X-154712Y-185039D01*
X-155512Y-185839D01*
X-156312Y-185039D01*
Y-200787D02*
X-155512Y-199987D01*
X-154712Y-200787D01*
X-155512Y-201587D01*
X-156312Y-200787D01*
X-152375Y-240158D02*
X-151575Y-239357D01*
X-150775Y-240158D01*
X-151575Y-240957D01*
X-152375Y-240158D01*
Y-255906D02*
X-151575Y-255105D01*
X-150775Y-255906D01*
X-151575Y-256705D01*
X-152375Y-255906D01*
X-148438Y-263779D02*
X-147638Y-262980D01*
X-146838Y-263779D01*
X-147638Y-264580D01*
X-148438Y-263779D01*
X-144501Y-255906D02*
X-143701Y-255105D01*
X-142901Y-255906D01*
X-143701Y-256705D01*
X-144501Y-255906D01*
X-148438Y-248031D02*
X-147638Y-247232D01*
X-146838Y-248031D01*
X-147638Y-248832D01*
X-148438Y-248031D01*
X-144501Y-240158D02*
X-143701Y-239357D01*
X-142901Y-240158D01*
X-143701Y-240957D01*
X-144501Y-240158D01*
X-148438Y-232283D02*
X-147638Y-231484D01*
X-146838Y-232283D01*
X-147638Y-233084D01*
X-148438Y-232283D01*
X-140564D02*
X-139764Y-231484D01*
X-138964Y-232283D01*
X-139764Y-233084D01*
X-140564Y-232283D01*
X-136627Y-240158D02*
X-135827Y-239357D01*
X-135027Y-240158D01*
X-135827Y-240957D01*
X-136627Y-240158D01*
X-140564Y-248031D02*
X-139764Y-247232D01*
X-138964Y-248031D01*
X-139764Y-248832D01*
X-140564Y-248031D01*
X-132690Y-232283D02*
X-131890Y-231484D01*
X-131090Y-232283D01*
X-131890Y-233084D01*
X-132690Y-232283D01*
X-124816D02*
X-124016Y-231484D01*
X-123216Y-232283D01*
X-124016Y-233084D01*
X-124816Y-232283D01*
X-128753Y-240158D02*
X-127953Y-239357D01*
X-127153Y-240158D01*
X-127953Y-240957D01*
X-128753Y-240158D01*
X-132690Y-248031D02*
X-131890Y-247232D01*
X-131090Y-248031D01*
X-131890Y-248832D01*
X-132690Y-248031D01*
X-124816D02*
X-124016Y-247232D01*
X-123216Y-248031D01*
X-124016Y-248832D01*
X-124816Y-248031D01*
X-136627Y-255906D02*
X-135827Y-255105D01*
X-135027Y-255906D01*
X-135827Y-256705D01*
X-136627Y-255906D01*
X-128753D02*
X-127953Y-255105D01*
X-127153Y-255906D01*
X-127953Y-256705D01*
X-128753Y-255906D01*
X-140564Y-263779D02*
X-139764Y-262980D01*
X-138964Y-263779D01*
X-139764Y-264580D01*
X-140564Y-263779D01*
X-136627Y-224409D02*
X-135827Y-223609D01*
X-135027Y-224409D01*
X-135827Y-225209D01*
X-136627Y-224409D01*
X-128753D02*
X-127953Y-223609D01*
X-127153Y-224409D01*
X-127953Y-225209D01*
X-128753Y-224409D01*
X-132690Y-216535D02*
X-131890Y-215735D01*
X-131090Y-216535D01*
X-131890Y-217335D01*
X-132690Y-216535D01*
X-124816D02*
X-124016Y-215735D01*
X-123216Y-216535D01*
X-124016Y-217335D01*
X-124816Y-216535D01*
X-148438Y-169291D02*
X-147638Y-168491D01*
X-146838Y-169291D01*
X-147638Y-170091D01*
X-148438Y-169291D01*
X-144501Y-177165D02*
X-143701Y-176365D01*
X-142901Y-177165D01*
X-143701Y-177965D01*
X-144501Y-177165D01*
X-148438Y-185039D02*
X-147638Y-184239D01*
X-146838Y-185039D01*
X-147638Y-185839D01*
X-148438Y-185039D01*
X-144501Y-192913D02*
X-143701Y-192113D01*
X-142901Y-192913D01*
X-143701Y-193713D01*
X-144501Y-192913D01*
X-148438Y-200787D02*
X-147638Y-199987D01*
X-146838Y-200787D01*
X-147638Y-201587D01*
X-148438Y-200787D01*
X-140564D02*
X-139764Y-199987D01*
X-138964Y-200787D01*
X-139764Y-201587D01*
X-140564Y-200787D01*
X-136627Y-192913D02*
X-135827Y-192113D01*
X-135027Y-192913D01*
X-135827Y-193713D01*
X-136627Y-192913D01*
X-140564Y-185039D02*
X-139764Y-184239D01*
X-138964Y-185039D01*
X-139764Y-185839D01*
X-140564Y-185039D01*
X-132690Y-200787D02*
X-131890Y-199987D01*
X-131090Y-200787D01*
X-131890Y-201587D01*
X-132690Y-200787D01*
X-124816D02*
X-124016Y-199987D01*
X-123216Y-200787D01*
X-124016Y-201587D01*
X-124816Y-200787D01*
X-128753Y-192913D02*
X-127953Y-192113D01*
X-127153Y-192913D01*
X-127953Y-193713D01*
X-128753Y-192913D01*
X-132690Y-185039D02*
X-131890Y-184239D01*
X-131090Y-185039D01*
X-131890Y-185839D01*
X-132690Y-185039D01*
X-124816D02*
X-124016Y-184239D01*
X-123216Y-185039D01*
X-124016Y-185839D01*
X-124816Y-185039D01*
X-136627Y-177165D02*
X-135827Y-176365D01*
X-135027Y-177165D01*
X-135827Y-177965D01*
X-136627Y-177165D01*
X-128753D02*
X-127953Y-176365D01*
X-127153Y-177165D01*
X-127953Y-177965D01*
X-128753Y-177165D01*
X-140564Y-169291D02*
X-139764Y-168491D01*
X-138964Y-169291D01*
X-139764Y-170091D01*
X-140564Y-169291D01*
X-136627Y-208661D02*
X-135827Y-207861D01*
X-135027Y-208661D01*
X-135827Y-209461D01*
X-136627Y-208661D01*
X-128753D02*
X-127953Y-207861D01*
X-127153Y-208661D01*
X-127953Y-209461D01*
X-128753Y-208661D01*
X-152375Y-177165D02*
X-151575Y-176365D01*
X-150775Y-177165D01*
X-151575Y-177965D01*
X-152375Y-177165D01*
Y-192913D02*
X-151575Y-192113D01*
X-150775Y-192913D01*
X-151575Y-193713D01*
X-152375Y-192913D01*
X-132690Y-263779D02*
X-131890Y-262980D01*
X-131090Y-263779D01*
X-131890Y-264580D01*
X-132690Y-263779D01*
Y-169291D02*
X-131890Y-168491D01*
X-131090Y-169291D01*
X-131890Y-170091D01*
X-132690Y-169291D01*
X-160249Y-192913D02*
X-159449Y-192113D01*
X-158649Y-192913D01*
X-159449Y-193713D01*
X-160249Y-192913D01*
Y-177165D02*
X-159449Y-176365D01*
X-158649Y-177165D01*
X-159449Y-177965D01*
X-160249Y-177165D01*
X-164186Y-169291D02*
X-163386Y-168491D01*
X-162586Y-169291D01*
X-163386Y-170091D01*
X-164186Y-169291D01*
X-168123Y-177165D02*
X-167323Y-176365D01*
X-166523Y-177165D01*
X-167323Y-177965D01*
X-168123Y-177165D01*
X-164186Y-185039D02*
X-163386Y-184239D01*
X-162586Y-185039D01*
X-163386Y-185839D01*
X-164186Y-185039D01*
X-168123Y-192913D02*
X-167323Y-192113D01*
X-166523Y-192913D01*
X-167323Y-193713D01*
X-168123Y-192913D01*
X-164186Y-200787D02*
X-163386Y-199987D01*
X-162586Y-200787D01*
X-163386Y-201587D01*
X-164186Y-200787D01*
X-172060D02*
X-171260Y-199987D01*
X-170460Y-200787D01*
X-171260Y-201587D01*
X-172060Y-200787D01*
X-175997Y-192913D02*
X-175197Y-192113D01*
X-174397Y-192913D01*
X-175197Y-193713D01*
X-175997Y-192913D01*
X-172060Y-185039D02*
X-171260Y-184239D01*
X-170460Y-185039D01*
X-171260Y-185839D01*
X-172060Y-185039D01*
X-179934Y-200787D02*
X-179134Y-199987D01*
X-178334Y-200787D01*
X-179134Y-201587D01*
X-179934Y-200787D01*
X-187808D02*
X-187008Y-199987D01*
X-186208Y-200787D01*
X-187008Y-201587D01*
X-187808Y-200787D01*
X-183871Y-192913D02*
X-183071Y-192113D01*
X-182271Y-192913D01*
X-183071Y-193713D01*
X-183871Y-192913D01*
X-179934Y-185039D02*
X-179134Y-184239D01*
X-178334Y-185039D01*
X-179134Y-185839D01*
X-179934Y-185039D01*
X-187808D02*
X-187008Y-184239D01*
X-186208Y-185039D01*
X-187008Y-185839D01*
X-187808Y-185039D01*
X-175997Y-177165D02*
X-175197Y-176365D01*
X-174397Y-177165D01*
X-175197Y-177965D01*
X-175997Y-177165D01*
X-183871D02*
X-183071Y-176365D01*
X-182271Y-177165D01*
X-183071Y-177965D01*
X-183871Y-177165D01*
X-172060Y-169291D02*
X-171260Y-168491D01*
X-170460Y-169291D01*
X-171260Y-170091D01*
X-172060Y-169291D01*
X-175997Y-208661D02*
X-175197Y-207861D01*
X-174397Y-208661D01*
X-175197Y-209461D01*
X-175997Y-208661D01*
X-183871D02*
X-183071Y-207861D01*
X-182271Y-208661D01*
X-183071Y-209461D01*
X-183871Y-208661D01*
X-179934Y-216535D02*
X-179134Y-215735D01*
X-178334Y-216535D01*
X-179134Y-217335D01*
X-179934Y-216535D01*
X-187808D02*
X-187008Y-215735D01*
X-186208Y-216535D01*
X-187008Y-217335D01*
X-187808Y-216535D01*
X-164186Y-263779D02*
X-163386Y-262980D01*
X-162586Y-263779D01*
X-163386Y-264580D01*
X-164186Y-263779D01*
X-168123Y-255906D02*
X-167323Y-255105D01*
X-166523Y-255906D01*
X-167323Y-256705D01*
X-168123Y-255906D01*
X-164186Y-248031D02*
X-163386Y-247232D01*
X-162586Y-248031D01*
X-163386Y-248832D01*
X-164186Y-248031D01*
X-168123Y-240158D02*
X-167323Y-239357D01*
X-166523Y-240158D01*
X-167323Y-240957D01*
X-168123Y-240158D01*
X-164186Y-232283D02*
X-163386Y-231484D01*
X-162586Y-232283D01*
X-163386Y-233084D01*
X-164186Y-232283D01*
X-172060D02*
X-171260Y-231484D01*
X-170460Y-232283D01*
X-171260Y-233084D01*
X-172060Y-232283D01*
X-175997Y-240158D02*
X-175197Y-239357D01*
X-174397Y-240158D01*
X-175197Y-240957D01*
X-175997Y-240158D01*
X-172060Y-248031D02*
X-171260Y-247232D01*
X-170460Y-248031D01*
X-171260Y-248832D01*
X-172060Y-248031D01*
X-179934Y-232283D02*
X-179134Y-231484D01*
X-178334Y-232283D01*
X-179134Y-233084D01*
X-179934Y-232283D01*
X-187808D02*
X-187008Y-231484D01*
X-186208Y-232283D01*
X-187008Y-233084D01*
X-187808Y-232283D01*
X-183871Y-240158D02*
X-183071Y-239357D01*
X-182271Y-240158D01*
X-183071Y-240957D01*
X-183871Y-240158D01*
X-179934Y-248031D02*
X-179134Y-247232D01*
X-178334Y-248031D01*
X-179134Y-248832D01*
X-179934Y-248031D01*
X-187808D02*
X-187008Y-247232D01*
X-186208Y-248031D01*
X-187008Y-248832D01*
X-187808Y-248031D01*
X-175997Y-255906D02*
X-175197Y-255105D01*
X-174397Y-255906D01*
X-175197Y-256705D01*
X-175997Y-255906D01*
X-183871D02*
X-183071Y-255105D01*
X-182271Y-255906D01*
X-183071Y-256705D01*
X-183871Y-255906D01*
X-172060Y-263779D02*
X-171260Y-262980D01*
X-170460Y-263779D01*
X-171260Y-264580D01*
X-172060Y-263779D01*
X-175997Y-224409D02*
X-175197Y-223609D01*
X-174397Y-224409D01*
X-175197Y-225209D01*
X-175997Y-224409D01*
X-183871D02*
X-183071Y-223609D01*
X-182271Y-224409D01*
X-183071Y-225209D01*
X-183871Y-224409D01*
X-160249Y-255906D02*
X-159449Y-255105D01*
X-158649Y-255906D01*
X-159449Y-256705D01*
X-160249Y-255906D01*
Y-240158D02*
X-159449Y-239357D01*
X-158649Y-240158D01*
X-159449Y-240957D01*
X-160249Y-240158D01*
X-179934Y-169291D02*
X-179134Y-168491D01*
X-178334Y-169291D01*
X-179134Y-170091D01*
X-179934Y-169291D01*
Y-263779D02*
X-179134Y-262980D01*
X-178334Y-263779D01*
X-179134Y-264580D01*
X-179934Y-263779D01*
X-191745Y-208661D02*
X-190945Y-207861D01*
X-190145Y-208661D01*
X-190945Y-209461D01*
X-191745Y-208661D01*
Y-224409D02*
X-190945Y-223609D01*
X-190145Y-224409D01*
X-190945Y-225209D01*
X-191745Y-224409D01*
Y-240158D02*
X-190945Y-239357D01*
X-190145Y-240158D01*
X-190945Y-240957D01*
X-191745Y-240158D01*
Y-192913D02*
X-190945Y-192113D01*
X-190145Y-192913D01*
X-190945Y-193713D01*
X-191745Y-192913D01*
Y240158D02*
X-190945Y240957D01*
X-190145Y240158D01*
X-190945Y239357D01*
X-191745Y240158D01*
Y192913D02*
X-190945Y193713D01*
X-190145Y192913D01*
X-190945Y192113D01*
X-191745Y192913D01*
Y208661D02*
X-190945Y209461D01*
X-190145Y208661D01*
X-190945Y207861D01*
X-191745Y208661D01*
Y224409D02*
X-190945Y225209D01*
X-190145Y224409D01*
X-190945Y223609D01*
X-191745Y224409D01*
X-179934Y169291D02*
X-179134Y170091D01*
X-178334Y169291D01*
X-179134Y168491D01*
X-179934Y169291D01*
Y263779D02*
X-179134Y264580D01*
X-178334Y263779D01*
X-179134Y262980D01*
X-179934Y263779D01*
X-160249Y192913D02*
X-159449Y193713D01*
X-158649Y192913D01*
X-159449Y192113D01*
X-160249Y192913D01*
Y177165D02*
X-159449Y177965D01*
X-158649Y177165D01*
X-159449Y176365D01*
X-160249Y177165D01*
X-183871Y208661D02*
X-183071Y209461D01*
X-182271Y208661D01*
X-183071Y207861D01*
X-183871Y208661D01*
X-175997D02*
X-175197Y209461D01*
X-174397Y208661D01*
X-175197Y207861D01*
X-175997Y208661D01*
X-172060Y169291D02*
X-171260Y170091D01*
X-170460Y169291D01*
X-171260Y168491D01*
X-172060Y169291D01*
X-183871Y177165D02*
X-183071Y177965D01*
X-182271Y177165D01*
X-183071Y176365D01*
X-183871Y177165D01*
X-175997D02*
X-175197Y177965D01*
X-174397Y177165D01*
X-175197Y176365D01*
X-175997Y177165D01*
X-187808Y185039D02*
X-187008Y185839D01*
X-186208Y185039D01*
X-187008Y184239D01*
X-187808Y185039D01*
X-179934D02*
X-179134Y185839D01*
X-178334Y185039D01*
X-179134Y184239D01*
X-179934Y185039D01*
X-183871Y192913D02*
X-183071Y193713D01*
X-182271Y192913D01*
X-183071Y192113D01*
X-183871Y192913D01*
X-187808Y200787D02*
X-187008Y201587D01*
X-186208Y200787D01*
X-187008Y199987D01*
X-187808Y200787D01*
X-179934D02*
X-179134Y201587D01*
X-178334Y200787D01*
X-179134Y199987D01*
X-179934Y200787D01*
X-172060Y185039D02*
X-171260Y185839D01*
X-170460Y185039D01*
X-171260Y184239D01*
X-172060Y185039D01*
X-175997Y192913D02*
X-175197Y193713D01*
X-174397Y192913D01*
X-175197Y192113D01*
X-175997Y192913D01*
X-172060Y200787D02*
X-171260Y201587D01*
X-170460Y200787D01*
X-171260Y199987D01*
X-172060Y200787D01*
X-164186D02*
X-163386Y201587D01*
X-162586Y200787D01*
X-163386Y199987D01*
X-164186Y200787D01*
X-168123Y192913D02*
X-167323Y193713D01*
X-166523Y192913D01*
X-167323Y192113D01*
X-168123Y192913D01*
X-164186Y185039D02*
X-163386Y185839D01*
X-162586Y185039D01*
X-163386Y184239D01*
X-164186Y185039D01*
X-168123Y177165D02*
X-167323Y177965D01*
X-166523Y177165D01*
X-167323Y176365D01*
X-168123Y177165D01*
X-164186Y169291D02*
X-163386Y170091D01*
X-162586Y169291D01*
X-163386Y168491D01*
X-164186Y169291D01*
X-187808Y216535D02*
X-187008Y217335D01*
X-186208Y216535D01*
X-187008Y215735D01*
X-187808Y216535D01*
X-179934D02*
X-179134Y217335D01*
X-178334Y216535D01*
X-179134Y215735D01*
X-179934Y216535D01*
X-183871Y224409D02*
X-183071Y225209D01*
X-182271Y224409D01*
X-183071Y223609D01*
X-183871Y224409D01*
X-175997D02*
X-175197Y225209D01*
X-174397Y224409D01*
X-175197Y223609D01*
X-175997Y224409D01*
X-172060Y263779D02*
X-171260Y264580D01*
X-170460Y263779D01*
X-171260Y262980D01*
X-172060Y263779D01*
X-183871Y255906D02*
X-183071Y256705D01*
X-182271Y255906D01*
X-183071Y255105D01*
X-183871Y255906D01*
X-175997D02*
X-175197Y256705D01*
X-174397Y255906D01*
X-175197Y255105D01*
X-175997Y255906D01*
X-187808Y248031D02*
X-187008Y248832D01*
X-186208Y248031D01*
X-187008Y247232D01*
X-187808Y248031D01*
X-179934D02*
X-179134Y248832D01*
X-178334Y248031D01*
X-179134Y247232D01*
X-179934Y248031D01*
X-183871Y240158D02*
X-183071Y240957D01*
X-182271Y240158D01*
X-183071Y239357D01*
X-183871Y240158D01*
X-187808Y232283D02*
X-187008Y233084D01*
X-186208Y232283D01*
X-187008Y231484D01*
X-187808Y232283D01*
X-179934D02*
X-179134Y233084D01*
X-178334Y232283D01*
X-179134Y231484D01*
X-179934Y232283D01*
X-172060Y248031D02*
X-171260Y248832D01*
X-170460Y248031D01*
X-171260Y247232D01*
X-172060Y248031D01*
X-175997Y240158D02*
X-175197Y240957D01*
X-174397Y240158D01*
X-175197Y239357D01*
X-175997Y240158D01*
X-172060Y232283D02*
X-171260Y233084D01*
X-170460Y232283D01*
X-171260Y231484D01*
X-172060Y232283D01*
X-164186D02*
X-163386Y233084D01*
X-162586Y232283D01*
X-163386Y231484D01*
X-164186Y232283D01*
X-168123Y240158D02*
X-167323Y240957D01*
X-166523Y240158D01*
X-167323Y239357D01*
X-168123Y240158D01*
X-164186Y248031D02*
X-163386Y248832D01*
X-162586Y248031D01*
X-163386Y247232D01*
X-164186Y248031D01*
X-168123Y255906D02*
X-167323Y256705D01*
X-166523Y255906D01*
X-167323Y255105D01*
X-168123Y255906D01*
X-164186Y263779D02*
X-163386Y264580D01*
X-162586Y263779D01*
X-163386Y262980D01*
X-164186Y263779D01*
X-160249Y255906D02*
X-159449Y256705D01*
X-158649Y255906D01*
X-159449Y255105D01*
X-160249Y255906D01*
Y240158D02*
X-159449Y240957D01*
X-158649Y240158D01*
X-159449Y239357D01*
X-160249Y240158D01*
X-132690Y263779D02*
X-131890Y264580D01*
X-131090Y263779D01*
X-131890Y262980D01*
X-132690Y263779D01*
Y169291D02*
X-131890Y170091D01*
X-131090Y169291D01*
X-131890Y168491D01*
X-132690Y169291D01*
X-152375Y240158D02*
X-151575Y240957D01*
X-150775Y240158D01*
X-151575Y239357D01*
X-152375Y240158D01*
Y255906D02*
X-151575Y256705D01*
X-150775Y255906D01*
X-151575Y255105D01*
X-152375Y255906D01*
X-128753Y224409D02*
X-127953Y225209D01*
X-127153Y224409D01*
X-127953Y223609D01*
X-128753Y224409D01*
X-136627D02*
X-135827Y225209D01*
X-135027Y224409D01*
X-135827Y223609D01*
X-136627Y224409D01*
X-140564Y263779D02*
X-139764Y264580D01*
X-138964Y263779D01*
X-139764Y262980D01*
X-140564Y263779D01*
X-128753Y255906D02*
X-127953Y256705D01*
X-127153Y255906D01*
X-127953Y255105D01*
X-128753Y255906D01*
X-136627D02*
X-135827Y256705D01*
X-135027Y255906D01*
X-135827Y255105D01*
X-136627Y255906D01*
X-124816Y248031D02*
X-124016Y248832D01*
X-123216Y248031D01*
X-124016Y247232D01*
X-124816Y248031D01*
X-132690D02*
X-131890Y248832D01*
X-131090Y248031D01*
X-131890Y247232D01*
X-132690Y248031D01*
X-128753Y240158D02*
X-127953Y240957D01*
X-127153Y240158D01*
X-127953Y239357D01*
X-128753Y240158D01*
X-124816Y232283D02*
X-124016Y233084D01*
X-123216Y232283D01*
X-124016Y231484D01*
X-124816Y232283D01*
X-132690D02*
X-131890Y233084D01*
X-131090Y232283D01*
X-131890Y231484D01*
X-132690Y232283D01*
X-140564Y248031D02*
X-139764Y248832D01*
X-138964Y248031D01*
X-139764Y247232D01*
X-140564Y248031D01*
X-136627Y240158D02*
X-135827Y240957D01*
X-135027Y240158D01*
X-135827Y239357D01*
X-136627Y240158D01*
X-140564Y232283D02*
X-139764Y233084D01*
X-138964Y232283D01*
X-139764Y231484D01*
X-140564Y232283D01*
X-148438D02*
X-147638Y233084D01*
X-146838Y232283D01*
X-147638Y231484D01*
X-148438Y232283D01*
X-144501Y240158D02*
X-143701Y240957D01*
X-142901Y240158D01*
X-143701Y239357D01*
X-144501Y240158D01*
X-148438Y248031D02*
X-147638Y248832D01*
X-146838Y248031D01*
X-147638Y247232D01*
X-148438Y248031D01*
X-144501Y255906D02*
X-143701Y256705D01*
X-142901Y255906D01*
X-143701Y255105D01*
X-144501Y255906D01*
X-148438Y263779D02*
X-147638Y264580D01*
X-146838Y263779D01*
X-147638Y262980D01*
X-148438Y263779D01*
X-124816Y216535D02*
X-124016Y217335D01*
X-123216Y216535D01*
X-124016Y215735D01*
X-124816Y216535D01*
X-132690D02*
X-131890Y217335D01*
X-131090Y216535D01*
X-131890Y215735D01*
X-132690Y216535D01*
X-128753Y208661D02*
X-127953Y209461D01*
X-127153Y208661D01*
X-127953Y207861D01*
X-128753Y208661D01*
X-136627D02*
X-135827Y209461D01*
X-135027Y208661D01*
X-135827Y207861D01*
X-136627Y208661D01*
X-140564Y169291D02*
X-139764Y170091D01*
X-138964Y169291D01*
X-139764Y168491D01*
X-140564Y169291D01*
X-128753Y177165D02*
X-127953Y177965D01*
X-127153Y177165D01*
X-127953Y176365D01*
X-128753Y177165D01*
X-136627D02*
X-135827Y177965D01*
X-135027Y177165D01*
X-135827Y176365D01*
X-136627Y177165D01*
X-124816Y185039D02*
X-124016Y185839D01*
X-123216Y185039D01*
X-124016Y184239D01*
X-124816Y185039D01*
X-132690D02*
X-131890Y185839D01*
X-131090Y185039D01*
X-131890Y184239D01*
X-132690Y185039D01*
X-128753Y192913D02*
X-127953Y193713D01*
X-127153Y192913D01*
X-127953Y192113D01*
X-128753Y192913D01*
X-124816Y200787D02*
X-124016Y201587D01*
X-123216Y200787D01*
X-124016Y199987D01*
X-124816Y200787D01*
X-132690D02*
X-131890Y201587D01*
X-131090Y200787D01*
X-131890Y199987D01*
X-132690Y200787D01*
X-140564Y185039D02*
X-139764Y185839D01*
X-138964Y185039D01*
X-139764Y184239D01*
X-140564Y185039D01*
X-136627Y192913D02*
X-135827Y193713D01*
X-135027Y192913D01*
X-135827Y192113D01*
X-136627Y192913D01*
X-140564Y200787D02*
X-139764Y201587D01*
X-138964Y200787D01*
X-139764Y199987D01*
X-140564Y200787D01*
X-148438D02*
X-147638Y201587D01*
X-146838Y200787D01*
X-147638Y199987D01*
X-148438Y200787D01*
X-144501Y192913D02*
X-143701Y193713D01*
X-142901Y192913D01*
X-143701Y192113D01*
X-144501Y192913D01*
X-148438Y185039D02*
X-147638Y185839D01*
X-146838Y185039D01*
X-147638Y184239D01*
X-148438Y185039D01*
X-144501Y177165D02*
X-143701Y177965D01*
X-142901Y177165D01*
X-143701Y176365D01*
X-144501Y177165D01*
X-148438Y169291D02*
X-147638Y170091D01*
X-146838Y169291D01*
X-147638Y168491D01*
X-148438Y169291D01*
X-152375Y177165D02*
X-151575Y177965D01*
X-150775Y177165D01*
X-151575Y176365D01*
X-152375Y177165D01*
Y192913D02*
X-151575Y193713D01*
X-150775Y192913D01*
X-151575Y192113D01*
X-152375Y192913D01*
X-156312Y232283D02*
X-155512Y233084D01*
X-154712Y232283D01*
X-155512Y231484D01*
X-156312Y232283D01*
Y248031D02*
X-155512Y248832D01*
X-154712Y248031D01*
X-155512Y247232D01*
X-156312Y248031D01*
Y263779D02*
X-155512Y264580D01*
X-154712Y263779D01*
X-155512Y262980D01*
X-156312Y263779D01*
Y200787D02*
X-155512Y201587D01*
X-154712Y200787D01*
X-155512Y199987D01*
X-156312Y200787D01*
Y185039D02*
X-155512Y185839D01*
X-154712Y185039D01*
X-155512Y184239D01*
X-156312Y185039D01*
Y169291D02*
X-155512Y170091D01*
X-154712Y169291D01*
X-155512Y168491D01*
X-156312Y169291D01*
X-191745Y177165D02*
X-190945Y177965D01*
X-190145Y177165D01*
X-190945Y176365D01*
X-191745Y177165D01*
Y255906D02*
X-190945Y256705D01*
X-190145Y255906D01*
X-190945Y255105D01*
X-191745Y255906D01*
X-187808Y263779D02*
X-187008Y264580D01*
X-186208Y263779D01*
X-187008Y262980D01*
X-187808Y263779D01*
Y169291D02*
X-187008Y170091D01*
X-186208Y169291D01*
X-187008Y168491D01*
X-187808Y169291D01*
X83846Y263779D02*
X84646Y264580D01*
X85446Y263779D01*
X84646Y262980D01*
X83846Y263779D01*
Y169291D02*
X84646Y170091D01*
X85446Y169291D01*
X84646Y168491D01*
X83846Y169291D01*
X-24422Y263779D02*
X-23622Y264580D01*
X-22822Y263779D01*
X-23622Y262980D01*
X-24422Y263779D01*
X-79540D02*
X-78740Y264580D01*
X-77940Y263779D01*
X-78740Y262980D01*
X-79540Y263779D01*
X-24422Y169291D02*
X-23622Y170091D01*
X-22822Y169291D01*
X-23622Y168491D01*
X-24422Y169291D01*
X-79540D02*
X-78740Y170091D01*
X-77940Y169291D01*
X-78740Y168491D01*
X-79540Y169291D01*
X87783Y177165D02*
X88583Y177965D01*
X89383Y177165D01*
X88583Y176365D01*
X87783Y177165D01*
Y255906D02*
X88583Y256705D01*
X89383Y255906D01*
X88583Y255105D01*
X87783Y255906D01*
X52350Y263779D02*
X53150Y264580D01*
X53950Y263779D01*
X53150Y262980D01*
X52350Y263779D01*
Y248031D02*
X53150Y248832D01*
X53950Y248031D01*
X53150Y247232D01*
X52350Y248031D01*
Y232283D02*
X53150Y233084D01*
X53950Y232283D01*
X53150Y231484D01*
X52350Y232283D01*
Y169291D02*
X53150Y170091D01*
X53950Y169291D01*
X53150Y168491D01*
X52350Y169291D01*
Y185039D02*
X53150Y185839D01*
X53950Y185039D01*
X53150Y184239D01*
X52350Y185039D01*
Y200787D02*
X53150Y201587D01*
X53950Y200787D01*
X53150Y199987D01*
X52350Y200787D01*
X48413Y240158D02*
X49213Y240957D01*
X50013Y240158D01*
X49213Y239357D01*
X48413Y240158D01*
Y255906D02*
X49213Y256705D01*
X50013Y255906D01*
X49213Y255105D01*
X48413Y255906D01*
X44476Y263779D02*
X45276Y264580D01*
X46076Y263779D01*
X45276Y262980D01*
X44476Y263779D01*
X40539Y255906D02*
X41339Y256705D01*
X42139Y255906D01*
X41339Y255105D01*
X40539Y255906D01*
X44476Y248031D02*
X45276Y248832D01*
X46076Y248031D01*
X45276Y247232D01*
X44476Y248031D01*
X40539Y240158D02*
X41339Y240957D01*
X42139Y240158D01*
X41339Y239357D01*
X40539Y240158D01*
X44476Y232283D02*
X45276Y233084D01*
X46076Y232283D01*
X45276Y231484D01*
X44476Y232283D01*
X36602D02*
X37402Y233084D01*
X38202Y232283D01*
X37402Y231484D01*
X36602Y232283D01*
X32665Y240158D02*
X33465Y240957D01*
X34265Y240158D01*
X33465Y239357D01*
X32665Y240158D01*
X36602Y248031D02*
X37402Y248832D01*
X38202Y248031D01*
X37402Y247232D01*
X36602Y248031D01*
X28727Y232283D02*
X29528Y233084D01*
X30327Y232283D01*
X29528Y231484D01*
X28727Y232283D01*
X20854D02*
X21654Y233084D01*
X22454Y232283D01*
X21654Y231484D01*
X20854Y232283D01*
X24791Y240158D02*
X25591Y240957D01*
X26390Y240158D01*
X25591Y239357D01*
X24791Y240158D01*
X28727Y248031D02*
X29528Y248832D01*
X30327Y248031D01*
X29528Y247232D01*
X28727Y248031D01*
X20854D02*
X21654Y248832D01*
X22454Y248031D01*
X21654Y247232D01*
X20854Y248031D01*
X32665Y255906D02*
X33465Y256705D01*
X34265Y255906D01*
X33465Y255105D01*
X32665Y255906D01*
X24791D02*
X25591Y256705D01*
X26390Y255906D01*
X25591Y255105D01*
X24791Y255906D01*
X36602Y263779D02*
X37402Y264580D01*
X38202Y263779D01*
X37402Y262980D01*
X36602Y263779D01*
X32665Y224409D02*
X33465Y225209D01*
X34265Y224409D01*
X33465Y223609D01*
X32665Y224409D01*
X24791D02*
X25591Y225209D01*
X26390Y224409D01*
X25591Y223609D01*
X24791Y224409D01*
X28727Y216535D02*
X29528Y217335D01*
X30327Y216535D01*
X29528Y215735D01*
X28727Y216535D01*
X20854D02*
X21654Y217335D01*
X22454Y216535D01*
X21654Y215735D01*
X20854Y216535D01*
X44476Y169291D02*
X45276Y170091D01*
X46076Y169291D01*
X45276Y168491D01*
X44476Y169291D01*
X40539Y177165D02*
X41339Y177965D01*
X42139Y177165D01*
X41339Y176365D01*
X40539Y177165D01*
X44476Y185039D02*
X45276Y185839D01*
X46076Y185039D01*
X45276Y184239D01*
X44476Y185039D01*
X40539Y192913D02*
X41339Y193713D01*
X42139Y192913D01*
X41339Y192113D01*
X40539Y192913D01*
X44476Y200787D02*
X45276Y201587D01*
X46076Y200787D01*
X45276Y199987D01*
X44476Y200787D01*
X36602D02*
X37402Y201587D01*
X38202Y200787D01*
X37402Y199987D01*
X36602Y200787D01*
X32665Y192913D02*
X33465Y193713D01*
X34265Y192913D01*
X33465Y192113D01*
X32665Y192913D01*
X36602Y185039D02*
X37402Y185839D01*
X38202Y185039D01*
X37402Y184239D01*
X36602Y185039D01*
X28727Y200787D02*
X29528Y201587D01*
X30327Y200787D01*
X29528Y199987D01*
X28727Y200787D01*
X20854D02*
X21654Y201587D01*
X22454Y200787D01*
X21654Y199987D01*
X20854Y200787D01*
X24791Y192913D02*
X25591Y193713D01*
X26390Y192913D01*
X25591Y192113D01*
X24791Y192913D01*
X28727Y185039D02*
X29528Y185839D01*
X30327Y185039D01*
X29528Y184239D01*
X28727Y185039D01*
X20854D02*
X21654Y185839D01*
X22454Y185039D01*
X21654Y184239D01*
X20854Y185039D01*
X32665Y177165D02*
X33465Y177965D01*
X34265Y177165D01*
X33465Y176365D01*
X32665Y177165D01*
X24791D02*
X25591Y177965D01*
X26390Y177165D01*
X25591Y176365D01*
X24791Y177165D01*
X36602Y169291D02*
X37402Y170091D01*
X38202Y169291D01*
X37402Y168491D01*
X36602Y169291D01*
X32665Y208661D02*
X33465Y209461D01*
X34265Y208661D01*
X33465Y207861D01*
X32665Y208661D01*
X24791D02*
X25591Y209461D01*
X26390Y208661D01*
X25591Y207861D01*
X24791Y208661D01*
X48413Y177165D02*
X49213Y177965D01*
X50013Y177165D01*
X49213Y176365D01*
X48413Y177165D01*
Y192913D02*
X49213Y193713D01*
X50013Y192913D01*
X49213Y192113D01*
X48413Y192913D01*
X28727Y263779D02*
X29528Y264580D01*
X30327Y263779D01*
X29528Y262980D01*
X28727Y263779D01*
Y169291D02*
X29528Y170091D01*
X30327Y169291D01*
X29528Y168491D01*
X28727Y169291D01*
X56287Y192913D02*
X57087Y193713D01*
X57887Y192913D01*
X57087Y192113D01*
X56287Y192913D01*
Y177165D02*
X57087Y177965D01*
X57887Y177165D01*
X57087Y176365D01*
X56287Y177165D01*
X60224Y169291D02*
X61024Y170091D01*
X61824Y169291D01*
X61024Y168491D01*
X60224Y169291D01*
X64161Y177165D02*
X64961Y177965D01*
X65761Y177165D01*
X64961Y176365D01*
X64161Y177165D01*
X60224Y185039D02*
X61024Y185839D01*
X61824Y185039D01*
X61024Y184239D01*
X60224Y185039D01*
X64161Y192913D02*
X64961Y193713D01*
X65761Y192913D01*
X64961Y192113D01*
X64161Y192913D01*
X60224Y200787D02*
X61024Y201587D01*
X61824Y200787D01*
X61024Y199987D01*
X60224Y200787D01*
X68098D02*
X68898Y201587D01*
X69698Y200787D01*
X68898Y199987D01*
X68098Y200787D01*
X72035Y192913D02*
X72835Y193713D01*
X73635Y192913D01*
X72835Y192113D01*
X72035Y192913D01*
X68098Y185039D02*
X68898Y185839D01*
X69698Y185039D01*
X68898Y184239D01*
X68098Y185039D01*
X75972Y200787D02*
X76772Y201587D01*
X77572Y200787D01*
X76772Y199987D01*
X75972Y200787D01*
X83846D02*
X84646Y201587D01*
X85446Y200787D01*
X84646Y199987D01*
X83846Y200787D01*
X79909Y192913D02*
X80709Y193713D01*
X81509Y192913D01*
X80709Y192113D01*
X79909Y192913D01*
X75972Y185039D02*
X76772Y185839D01*
X77572Y185039D01*
X76772Y184239D01*
X75972Y185039D01*
X83846D02*
X84646Y185839D01*
X85446Y185039D01*
X84646Y184239D01*
X83846Y185039D01*
X72035Y177165D02*
X72835Y177965D01*
X73635Y177165D01*
X72835Y176365D01*
X72035Y177165D01*
X79909D02*
X80709Y177965D01*
X81509Y177165D01*
X80709Y176365D01*
X79909Y177165D01*
X68098Y169291D02*
X68898Y170091D01*
X69698Y169291D01*
X68898Y168491D01*
X68098Y169291D01*
X72035Y208661D02*
X72835Y209461D01*
X73635Y208661D01*
X72835Y207861D01*
X72035Y208661D01*
X79909D02*
X80709Y209461D01*
X81509Y208661D01*
X80709Y207861D01*
X79909Y208661D01*
X75972Y216535D02*
X76772Y217335D01*
X77572Y216535D01*
X76772Y215735D01*
X75972Y216535D01*
X83846D02*
X84646Y217335D01*
X85446Y216535D01*
X84646Y215735D01*
X83846Y216535D01*
X60224Y263779D02*
X61024Y264580D01*
X61824Y263779D01*
X61024Y262980D01*
X60224Y263779D01*
X64161Y255906D02*
X64961Y256705D01*
X65761Y255906D01*
X64961Y255105D01*
X64161Y255906D01*
X60224Y248031D02*
X61024Y248832D01*
X61824Y248031D01*
X61024Y247232D01*
X60224Y248031D01*
X64161Y240158D02*
X64961Y240957D01*
X65761Y240158D01*
X64961Y239357D01*
X64161Y240158D01*
X60224Y232283D02*
X61024Y233084D01*
X61824Y232283D01*
X61024Y231484D01*
X60224Y232283D01*
X68098D02*
X68898Y233084D01*
X69698Y232283D01*
X68898Y231484D01*
X68098Y232283D01*
X72035Y240158D02*
X72835Y240957D01*
X73635Y240158D01*
X72835Y239357D01*
X72035Y240158D01*
X68098Y248031D02*
X68898Y248832D01*
X69698Y248031D01*
X68898Y247232D01*
X68098Y248031D01*
X75972Y232283D02*
X76772Y233084D01*
X77572Y232283D01*
X76772Y231484D01*
X75972Y232283D01*
X83846D02*
X84646Y233084D01*
X85446Y232283D01*
X84646Y231484D01*
X83846Y232283D01*
X79909Y240158D02*
X80709Y240957D01*
X81509Y240158D01*
X80709Y239357D01*
X79909Y240158D01*
X75972Y248031D02*
X76772Y248832D01*
X77572Y248031D01*
X76772Y247232D01*
X75972Y248031D01*
X83846D02*
X84646Y248832D01*
X85446Y248031D01*
X84646Y247232D01*
X83846Y248031D01*
X72035Y255906D02*
X72835Y256705D01*
X73635Y255906D01*
X72835Y255105D01*
X72035Y255906D01*
X79909D02*
X80709Y256705D01*
X81509Y255906D01*
X80709Y255105D01*
X79909Y255906D01*
X68098Y263779D02*
X68898Y264580D01*
X69698Y263779D01*
X68898Y262980D01*
X68098Y263779D01*
X72035Y224409D02*
X72835Y225209D01*
X73635Y224409D01*
X72835Y223609D01*
X72035Y224409D01*
X79909D02*
X80709Y225209D01*
X81509Y224409D01*
X80709Y223609D01*
X79909Y224409D01*
X56287Y255906D02*
X57087Y256705D01*
X57887Y255906D01*
X57087Y255105D01*
X56287Y255906D01*
Y240158D02*
X57087Y240957D01*
X57887Y240158D01*
X57087Y239357D01*
X56287Y240158D01*
X75972Y169291D02*
X76772Y170091D01*
X77572Y169291D01*
X76772Y168491D01*
X75972Y169291D01*
Y263779D02*
X76772Y264580D01*
X77572Y263779D01*
X76772Y262980D01*
X75972Y263779D01*
X87783Y208661D02*
X88583Y209461D01*
X89383Y208661D01*
X88583Y207861D01*
X87783Y208661D01*
Y224409D02*
X88583Y225209D01*
X89383Y224409D01*
X88583Y223609D01*
X87783Y224409D01*
Y240158D02*
X88583Y240957D01*
X89383Y240158D01*
X88583Y239357D01*
X87783Y240158D01*
Y192913D02*
X88583Y193713D01*
X89383Y192913D01*
X88583Y192113D01*
X87783Y192913D01*
X-51981Y255906D02*
X-51181Y256705D01*
X-50381Y255906D01*
X-51181Y255105D01*
X-51981Y255906D01*
X-55918Y263779D02*
X-55118Y264580D01*
X-54318Y263779D01*
X-55118Y262980D01*
X-55918Y263779D01*
X-59855Y255906D02*
X-59055Y256705D01*
X-58255Y255906D01*
X-59055Y255105D01*
X-59855Y255906D01*
X-55918Y248031D02*
X-55118Y248832D01*
X-54318Y248031D01*
X-55118Y247232D01*
X-55918Y248031D01*
X-59855Y240158D02*
X-59055Y240957D01*
X-58255Y240158D01*
X-59055Y239357D01*
X-59855Y240158D01*
X-55918Y232283D02*
X-55118Y233084D01*
X-54318Y232283D01*
X-55118Y231484D01*
X-55918Y232283D01*
X-63792D02*
X-62992Y233084D01*
X-62192Y232283D01*
X-62992Y231484D01*
X-63792Y232283D01*
X-67729Y240158D02*
X-66929Y240957D01*
X-66129Y240158D01*
X-66929Y239357D01*
X-67729Y240158D01*
X-63792Y248031D02*
X-62992Y248832D01*
X-62192Y248031D01*
X-62992Y247232D01*
X-63792Y248031D01*
X-71666Y232283D02*
X-70866Y233084D01*
X-70066Y232283D01*
X-70866Y231484D01*
X-71666Y232283D01*
X-79540D02*
X-78740Y233084D01*
X-77940Y232283D01*
X-78740Y231484D01*
X-79540Y232283D01*
X-75603Y240158D02*
X-74803Y240957D01*
X-74003Y240158D01*
X-74803Y239357D01*
X-75603Y240158D01*
X-71666Y248031D02*
X-70866Y248832D01*
X-70066Y248031D01*
X-70866Y247232D01*
X-71666Y248031D01*
X-79540D02*
X-78740Y248832D01*
X-77940Y248031D01*
X-78740Y247232D01*
X-79540Y248031D01*
X-67729Y255906D02*
X-66929Y256705D01*
X-66129Y255906D01*
X-66929Y255105D01*
X-67729Y255906D01*
X-75603D02*
X-74803Y256705D01*
X-74003Y255906D01*
X-74803Y255105D01*
X-75603Y255906D01*
X-63792Y263779D02*
X-62992Y264580D01*
X-62192Y263779D01*
X-62992Y262980D01*
X-63792Y263779D01*
X-67729Y224409D02*
X-66929Y225209D01*
X-66129Y224409D01*
X-66929Y223609D01*
X-67729Y224409D01*
X-75603D02*
X-74803Y225209D01*
X-74003Y224409D01*
X-74803Y223609D01*
X-75603Y224409D01*
X-71666Y216535D02*
X-70866Y217335D01*
X-70066Y216535D01*
X-70866Y215735D01*
X-71666Y216535D01*
X-79540D02*
X-78740Y217335D01*
X-77940Y216535D01*
X-78740Y215735D01*
X-79540Y216535D01*
X-55918Y169291D02*
X-55118Y170091D01*
X-54318Y169291D01*
X-55118Y168491D01*
X-55918Y169291D01*
X-59855Y177165D02*
X-59055Y177965D01*
X-58255Y177165D01*
X-59055Y176365D01*
X-59855Y177165D01*
X-55918Y185039D02*
X-55118Y185839D01*
X-54318Y185039D01*
X-55118Y184239D01*
X-55918Y185039D01*
X-59855Y192913D02*
X-59055Y193713D01*
X-58255Y192913D01*
X-59055Y192113D01*
X-59855Y192913D01*
X-55918Y200787D02*
X-55118Y201587D01*
X-54318Y200787D01*
X-55118Y199987D01*
X-55918Y200787D01*
X-63792D02*
X-62992Y201587D01*
X-62192Y200787D01*
X-62992Y199987D01*
X-63792Y200787D01*
X-67729Y192913D02*
X-66929Y193713D01*
X-66129Y192913D01*
X-66929Y192113D01*
X-67729Y192913D01*
X-63792Y185039D02*
X-62992Y185839D01*
X-62192Y185039D01*
X-62992Y184239D01*
X-63792Y185039D01*
X-71666Y200787D02*
X-70866Y201587D01*
X-70066Y200787D01*
X-70866Y199987D01*
X-71666Y200787D01*
X-79540D02*
X-78740Y201587D01*
X-77940Y200787D01*
X-78740Y199987D01*
X-79540Y200787D01*
X-75603Y192913D02*
X-74803Y193713D01*
X-74003Y192913D01*
X-74803Y192113D01*
X-75603Y192913D01*
X-71666Y185039D02*
X-70866Y185839D01*
X-70066Y185039D01*
X-70866Y184239D01*
X-71666Y185039D01*
X-79540D02*
X-78740Y185839D01*
X-77940Y185039D01*
X-78740Y184239D01*
X-79540Y185039D01*
X-67729Y177165D02*
X-66929Y177965D01*
X-66129Y177165D01*
X-66929Y176365D01*
X-67729Y177165D01*
X-75603D02*
X-74803Y177965D01*
X-74003Y177165D01*
X-74803Y176365D01*
X-75603Y177165D01*
X-63792Y169291D02*
X-62992Y170091D01*
X-62192Y169291D01*
X-62992Y168491D01*
X-63792Y169291D01*
X-67729Y208661D02*
X-66929Y209461D01*
X-66129Y208661D01*
X-66929Y207861D01*
X-67729Y208661D01*
X-75603D02*
X-74803Y209461D01*
X-74003Y208661D01*
X-74803Y207861D01*
X-75603Y208661D01*
X-71666Y263779D02*
X-70866Y264580D01*
X-70066Y263779D01*
X-70866Y262980D01*
X-71666Y263779D01*
Y169291D02*
X-70866Y170091D01*
X-70066Y169291D01*
X-70866Y168491D01*
X-71666Y169291D01*
X-83477Y224409D02*
X-82677Y225209D01*
X-81877Y224409D01*
X-82677Y223609D01*
X-83477Y224409D01*
Y208661D02*
X-82677Y209461D01*
X-81877Y208661D01*
X-82677Y207861D01*
X-83477Y208661D01*
Y192913D02*
X-82677Y193713D01*
X-81877Y192913D01*
X-82677Y192113D01*
X-83477Y192913D01*
Y240158D02*
X-82677Y240957D01*
X-81877Y240158D01*
X-82677Y239357D01*
X-83477Y240158D01*
X-20485Y192913D02*
X-19685Y193713D01*
X-18885Y192913D01*
X-19685Y192113D01*
X-20485Y192913D01*
Y240158D02*
X-19685Y240957D01*
X-18885Y240158D01*
X-19685Y239357D01*
X-20485Y240158D01*
Y224409D02*
X-19685Y225209D01*
X-18885Y224409D01*
X-19685Y223609D01*
X-20485Y224409D01*
Y208661D02*
X-19685Y209461D01*
X-18885Y208661D01*
X-19685Y207861D01*
X-20485Y208661D01*
X-32296Y263779D02*
X-31496Y264580D01*
X-30696Y263779D01*
X-31496Y262980D01*
X-32296Y263779D01*
Y169291D02*
X-31496Y170091D01*
X-30696Y169291D01*
X-31496Y168491D01*
X-32296Y169291D01*
X-51981Y240158D02*
X-51181Y240957D01*
X-50381Y240158D01*
X-51181Y239357D01*
X-51981Y240158D01*
X-28359Y224409D02*
X-27559Y225209D01*
X-26759Y224409D01*
X-27559Y223609D01*
X-28359Y224409D01*
X-36233D02*
X-35433Y225209D01*
X-34633Y224409D01*
X-35433Y223609D01*
X-36233Y224409D01*
X-40170Y263779D02*
X-39370Y264580D01*
X-38570Y263779D01*
X-39370Y262980D01*
X-40170Y263779D01*
X-28359Y255906D02*
X-27559Y256705D01*
X-26759Y255906D01*
X-27559Y255105D01*
X-28359Y255906D01*
X-36233D02*
X-35433Y256705D01*
X-34633Y255906D01*
X-35433Y255105D01*
X-36233Y255906D01*
X-24422Y248031D02*
X-23622Y248832D01*
X-22822Y248031D01*
X-23622Y247232D01*
X-24422Y248031D01*
X-32296D02*
X-31496Y248832D01*
X-30696Y248031D01*
X-31496Y247232D01*
X-32296Y248031D01*
X-28359Y240158D02*
X-27559Y240957D01*
X-26759Y240158D01*
X-27559Y239357D01*
X-28359Y240158D01*
X-24422Y232283D02*
X-23622Y233084D01*
X-22822Y232283D01*
X-23622Y231484D01*
X-24422Y232283D01*
X-32296D02*
X-31496Y233084D01*
X-30696Y232283D01*
X-31496Y231484D01*
X-32296Y232283D01*
X-40170Y248031D02*
X-39370Y248832D01*
X-38570Y248031D01*
X-39370Y247232D01*
X-40170Y248031D01*
X-36233Y240158D02*
X-35433Y240957D01*
X-34633Y240158D01*
X-35433Y239357D01*
X-36233Y240158D01*
X-40170Y232283D02*
X-39370Y233084D01*
X-38570Y232283D01*
X-39370Y231484D01*
X-40170Y232283D01*
X-48044D02*
X-47244Y233084D01*
X-46444Y232283D01*
X-47244Y231484D01*
X-48044Y232283D01*
X-44107Y240158D02*
X-43307Y240957D01*
X-42507Y240158D01*
X-43307Y239357D01*
X-44107Y240158D01*
X-48044Y248031D02*
X-47244Y248832D01*
X-46444Y248031D01*
X-47244Y247232D01*
X-48044Y248031D01*
X-44107Y255906D02*
X-43307Y256705D01*
X-42507Y255906D01*
X-43307Y255105D01*
X-44107Y255906D01*
X-48044Y263779D02*
X-47244Y264580D01*
X-46444Y263779D01*
X-47244Y262980D01*
X-48044Y263779D01*
X-24422Y216535D02*
X-23622Y217335D01*
X-22822Y216535D01*
X-23622Y215735D01*
X-24422Y216535D01*
X-32296D02*
X-31496Y217335D01*
X-30696Y216535D01*
X-31496Y215735D01*
X-32296Y216535D01*
X-28359Y208661D02*
X-27559Y209461D01*
X-26759Y208661D01*
X-27559Y207861D01*
X-28359Y208661D01*
X-36233D02*
X-35433Y209461D01*
X-34633Y208661D01*
X-35433Y207861D01*
X-36233Y208661D01*
X-40170Y169291D02*
X-39370Y170091D01*
X-38570Y169291D01*
X-39370Y168491D01*
X-40170Y169291D01*
X-28359Y177165D02*
X-27559Y177965D01*
X-26759Y177165D01*
X-27559Y176365D01*
X-28359Y177165D01*
X-36233D02*
X-35433Y177965D01*
X-34633Y177165D01*
X-35433Y176365D01*
X-36233Y177165D01*
X-24422Y185039D02*
X-23622Y185839D01*
X-22822Y185039D01*
X-23622Y184239D01*
X-24422Y185039D01*
X-32296D02*
X-31496Y185839D01*
X-30696Y185039D01*
X-31496Y184239D01*
X-32296Y185039D01*
X-28359Y192913D02*
X-27559Y193713D01*
X-26759Y192913D01*
X-27559Y192113D01*
X-28359Y192913D01*
X-24422Y200787D02*
X-23622Y201587D01*
X-22822Y200787D01*
X-23622Y199987D01*
X-24422Y200787D01*
X-32296D02*
X-31496Y201587D01*
X-30696Y200787D01*
X-31496Y199987D01*
X-32296Y200787D01*
X-40170Y185039D02*
X-39370Y185839D01*
X-38570Y185039D01*
X-39370Y184239D01*
X-40170Y185039D01*
X-36233Y192913D02*
X-35433Y193713D01*
X-34633Y192913D01*
X-35433Y192113D01*
X-36233Y192913D01*
X-40170Y200787D02*
X-39370Y201587D01*
X-38570Y200787D01*
X-39370Y199987D01*
X-40170Y200787D01*
X-48044D02*
X-47244Y201587D01*
X-46444Y200787D01*
X-47244Y199987D01*
X-48044Y200787D01*
X-44107Y192913D02*
X-43307Y193713D01*
X-42507Y192913D01*
X-43307Y192113D01*
X-44107Y192913D01*
X-48044Y185039D02*
X-47244Y185839D01*
X-46444Y185039D01*
X-47244Y184239D01*
X-48044Y185039D01*
X-44107Y177165D02*
X-43307Y177965D01*
X-42507Y177165D01*
X-43307Y176365D01*
X-44107Y177165D01*
X-48044Y169291D02*
X-47244Y170091D01*
X-46444Y169291D01*
X-47244Y168491D01*
X-48044Y169291D01*
X-51981Y177165D02*
X-51181Y177965D01*
X-50381Y177165D01*
X-51181Y176365D01*
X-51981Y177165D01*
Y192913D02*
X-51181Y193713D01*
X-50381Y192913D01*
X-51181Y192113D01*
X-51981Y192913D01*
X134043Y268885D02*
X134442D01*
X134843Y269285D01*
X135242Y268885D01*
X135643D01*
Y269285D01*
X135242Y269685D01*
X135643Y270085D01*
Y270485D01*
X135242D01*
X134843Y270085D01*
X134442Y270485D01*
X134043D01*
Y270085D01*
X134442Y269685D01*
X134043Y269285D01*
Y268885D01*
Y245263D02*
X134442D01*
X134843Y245663D01*
X135242Y245263D01*
X135643D01*
Y245663D01*
X135242Y246063D01*
X135643Y246463D01*
Y246863D01*
X135242D01*
X134843Y246463D01*
X134442Y246863D01*
X134043D01*
Y246463D01*
X134442Y246063D01*
X134043Y245663D01*
Y245263D01*
Y186208D02*
X134442D01*
X134843Y186608D01*
X135242Y186208D01*
X135643D01*
Y186608D01*
X135242Y187008D01*
X135643Y187408D01*
Y187808D01*
X135242D01*
X134843Y187408D01*
X134442Y187808D01*
X134043D01*
Y187408D01*
X134442Y187008D01*
X134043Y186608D01*
Y186208D01*
Y162586D02*
X134442D01*
X134843Y162986D01*
X135242Y162586D01*
X135643D01*
Y162986D01*
X135242Y163386D01*
X135643Y163786D01*
Y164186D01*
X135242D01*
X134843Y163786D01*
X134442Y164186D01*
X134043D01*
Y163786D01*
X134442Y163386D01*
X134043Y162986D01*
Y162586D01*
X52350Y215735D02*
X52750Y216535D01*
X52350Y217335D01*
X53150Y216935D01*
X53950Y217335D01*
X53550Y216535D01*
X53950Y215735D01*
X53150Y216135D01*
X52350Y215735D01*
X-51581Y216135D02*
Y215735D01*
X-50781D01*
Y216135D01*
X-50381D01*
Y216935D01*
X-50781D01*
Y217335D01*
X-51581D01*
Y216935D01*
X-51981D01*
Y216135D01*
X-51581D01*
X-156312Y215735D02*
X-155912Y216535D01*
X-156312Y217335D01*
X-155512Y216935D01*
X-154712Y217335D01*
X-155112Y216535D01*
X-154712Y215735D01*
X-155512Y216135D01*
X-156312Y215735D01*
X-150984Y-299028D02*
X-151784Y-297428D01*
X-150184D01*
X-150984Y-299028D01*
Y-505721D02*
X-151784Y-504121D01*
X-150184D01*
X-150984Y-505721D01*
X-230906D02*
X-231705Y-504121D01*
X-230105D01*
X-230906Y-505721D01*
Y-299028D02*
X-231705Y-297428D01*
X-230105D01*
X-230906Y-299028D01*
X195066Y551303D02*
X195866Y552104D01*
X196666Y551303D01*
X195866Y550503D01*
X195066Y551303D01*
X201956Y539370D02*
X202756Y540170D01*
X203556Y539370D01*
X202756Y538570D01*
X201956Y539370D01*
X200110Y546260D02*
X200910Y547060D01*
X201710Y546260D01*
X200910Y545460D01*
X200110Y546260D01*
Y532480D02*
X200910Y533280D01*
X201710Y532480D01*
X200910Y531680D01*
X200110Y532480D01*
X188176Y525591D02*
X188976Y526391D01*
X189776Y525591D01*
X188976Y524790D01*
X188176Y525591D01*
X195066Y527437D02*
X195866Y528237D01*
X196666Y527437D01*
X195866Y526637D01*
X195066Y527437D01*
X181287D02*
X182087Y528237D01*
X182887Y527437D01*
X182087Y526637D01*
X181287Y527437D01*
X174397Y539370D02*
X175197Y540170D01*
X175997Y539370D01*
X175197Y538570D01*
X174397Y539370D01*
X176243Y532480D02*
X177043Y533280D01*
X177843Y532480D01*
X177043Y531680D01*
X176243Y532480D01*
X181287Y551303D02*
X182087Y552104D01*
X182887Y551303D01*
X182087Y550503D01*
X181287Y551303D01*
X188176Y553150D02*
X188976Y553950D01*
X189776Y553150D01*
X188976Y552350D01*
X188176Y553150D01*
X176243Y546260D02*
X177043Y547060D01*
X177843Y546260D01*
X177043Y545460D01*
X176243Y546260D01*
X246247Y551303D02*
X247047Y552104D01*
X247847Y551303D01*
X247047Y550503D01*
X246247Y551303D01*
X253137Y539370D02*
X253937Y540170D01*
X254737Y539370D01*
X253937Y538570D01*
X253137Y539370D01*
X251291Y546260D02*
X252091Y547060D01*
X252891Y546260D01*
X252091Y545460D01*
X251291Y546260D01*
Y532480D02*
X252091Y533280D01*
X252891Y532480D01*
X252091Y531680D01*
X251291Y532480D01*
X239357Y525591D02*
X240158Y526391D01*
X240957Y525591D01*
X240158Y524790D01*
X239357Y525591D01*
X246247Y527437D02*
X247047Y528237D01*
X247847Y527437D01*
X247047Y526637D01*
X246247Y527437D01*
X232468D02*
X233268Y528237D01*
X234068Y527437D01*
X233268Y526637D01*
X232468Y527437D01*
X225578Y539370D02*
X226378Y540170D01*
X227178Y539370D01*
X226378Y538570D01*
X225578Y539370D01*
X227424Y532480D02*
X228224Y533280D01*
X229024Y532480D01*
X228224Y531680D01*
X227424Y532480D01*
Y546260D02*
X228224Y547060D01*
X229024Y546260D01*
X228224Y545460D01*
X227424Y546260D01*
X239357Y553150D02*
X240158Y553950D01*
X240957Y553150D01*
X240158Y552350D01*
X239357Y553150D01*
X232468Y551303D02*
X233268Y552104D01*
X234068Y551303D01*
X233268Y550503D01*
X232468Y551303D01*
X-196666Y551304D02*
X-195866Y552104D01*
X-195066Y551304D01*
X-195866Y550504D01*
X-196666Y551304D01*
X-203556Y539370D02*
X-202756Y540170D01*
X-201956Y539370D01*
X-202756Y538570D01*
X-203556Y539370D01*
X-201710Y546260D02*
X-200910Y547060D01*
X-200110Y546260D01*
X-200910Y545460D01*
X-201710Y546260D01*
Y532480D02*
X-200910Y533281D01*
X-200110Y532480D01*
X-200910Y531680D01*
X-201710Y532480D01*
X-189776Y525591D02*
X-188976Y526391D01*
X-188176Y525591D01*
X-188976Y524791D01*
X-189776Y525591D01*
X-196666Y527437D02*
X-195866Y528237D01*
X-195066Y527437D01*
X-195866Y526637D01*
X-196666Y527437D01*
X-182887D02*
X-182087Y528237D01*
X-181287Y527437D01*
X-182087Y526637D01*
X-182887Y527437D01*
X-175997Y539370D02*
X-175197Y540170D01*
X-174397Y539370D01*
X-175197Y538570D01*
X-175997Y539370D01*
X-177843Y532480D02*
X-177043Y533281D01*
X-176243Y532480D01*
X-177043Y531680D01*
X-177843Y532480D01*
X-182887Y551304D02*
X-182087Y552104D01*
X-181287Y551304D01*
X-182087Y550504D01*
X-182887Y551304D01*
X-189776Y553150D02*
X-188976Y553950D01*
X-188176Y553150D01*
X-188976Y552350D01*
X-189776Y553150D01*
X-177843Y546260D02*
X-177043Y547060D01*
X-176243Y546260D01*
X-177043Y545460D01*
X-177843Y546260D01*
X-247847Y551304D02*
X-247047Y552104D01*
X-246247Y551304D01*
X-247047Y550504D01*
X-247847Y551304D01*
X-254737Y539370D02*
X-253937Y540170D01*
X-253137Y539370D01*
X-253937Y538570D01*
X-254737Y539370D01*
X-252891Y546260D02*
X-252091Y547060D01*
X-251291Y546260D01*
X-252091Y545460D01*
X-252891Y546260D01*
Y532480D02*
X-252091Y533281D01*
X-251291Y532480D01*
X-252091Y531680D01*
X-252891Y532480D01*
X-240957Y525591D02*
X-240158Y526391D01*
X-239357Y525591D01*
X-240158Y524791D01*
X-240957Y525591D01*
X-247847Y527437D02*
X-247047Y528237D01*
X-246247Y527437D01*
X-247047Y526637D01*
X-247847Y527437D01*
X-234068D02*
X-233268Y528237D01*
X-232468Y527437D01*
X-233268Y526637D01*
X-234068Y527437D01*
X-227178Y539370D02*
X-226378Y540170D01*
X-225578Y539370D01*
X-226378Y538570D01*
X-227178Y539370D01*
X-229024Y532480D02*
X-228224Y533281D01*
X-227424Y532480D01*
X-228224Y531680D01*
X-229024Y532480D01*
Y546260D02*
X-228224Y547060D01*
X-227424Y546260D01*
X-228224Y545460D01*
X-229024Y546260D01*
X-240957Y553150D02*
X-240158Y553950D01*
X-239357Y553150D01*
X-240158Y552350D01*
X-240957Y553150D01*
X-234068Y551304D02*
X-233268Y552104D01*
X-232468Y551304D01*
X-233268Y550504D01*
X-234068Y551304D01*
X195066Y-551303D02*
X195866Y-550503D01*
X196666Y-551303D01*
X195866Y-552104D01*
X195066Y-551303D01*
X201956Y-539370D02*
X202756Y-538570D01*
X203556Y-539370D01*
X202756Y-540170D01*
X201956Y-539370D01*
X200110Y-546260D02*
X200910Y-545460D01*
X201710Y-546260D01*
X200910Y-547060D01*
X200110Y-546260D01*
Y-532480D02*
X200910Y-531680D01*
X201710Y-532480D01*
X200910Y-533280D01*
X200110Y-532480D01*
X188176Y-525591D02*
X188976Y-524791D01*
X189776Y-525591D01*
X188976Y-526391D01*
X188176Y-525591D01*
X195066Y-527437D02*
X195866Y-526637D01*
X196666Y-527437D01*
X195866Y-528237D01*
X195066Y-527437D01*
X181287D02*
X182087Y-526637D01*
X182887Y-527437D01*
X182087Y-528237D01*
X181287Y-527437D01*
X174397Y-539370D02*
X175197Y-538570D01*
X175997Y-539370D01*
X175197Y-540170D01*
X174397Y-539370D01*
X176243Y-532480D02*
X177043Y-531680D01*
X177843Y-532480D01*
X177043Y-533280D01*
X176243Y-532480D01*
X181287Y-551303D02*
X182087Y-550503D01*
X182887Y-551303D01*
X182087Y-552104D01*
X181287Y-551303D01*
X188176Y-553150D02*
X188976Y-552350D01*
X189776Y-553150D01*
X188976Y-553950D01*
X188176Y-553150D01*
X176243Y-546260D02*
X177043Y-545460D01*
X177843Y-546260D01*
X177043Y-547060D01*
X176243Y-546260D01*
X246247Y-551303D02*
X247047Y-550503D01*
X247847Y-551303D01*
X247047Y-552104D01*
X246247Y-551303D01*
X253137Y-539370D02*
X253937Y-538570D01*
X254737Y-539370D01*
X253937Y-540170D01*
X253137Y-539370D01*
X251291Y-546260D02*
X252091Y-545460D01*
X252891Y-546260D01*
X252091Y-547060D01*
X251291Y-546260D01*
Y-532480D02*
X252091Y-531680D01*
X252891Y-532480D01*
X252091Y-533280D01*
X251291Y-532480D01*
X239357Y-525591D02*
X240158Y-524791D01*
X240957Y-525591D01*
X240158Y-526391D01*
X239357Y-525591D01*
X246247Y-527437D02*
X247047Y-526637D01*
X247847Y-527437D01*
X247047Y-528237D01*
X246247Y-527437D01*
X232468D02*
X233268Y-526637D01*
X234068Y-527437D01*
X233268Y-528237D01*
X232468Y-527437D01*
X225578Y-539370D02*
X226378Y-538570D01*
X227178Y-539370D01*
X226378Y-540170D01*
X225578Y-539370D01*
X227424Y-532480D02*
X228224Y-531680D01*
X229024Y-532480D01*
X228224Y-533280D01*
X227424Y-532480D01*
Y-546260D02*
X228224Y-545460D01*
X229024Y-546260D01*
X228224Y-547060D01*
X227424Y-546260D01*
X239357Y-553150D02*
X240158Y-552350D01*
X240957Y-553150D01*
X240158Y-553950D01*
X239357Y-553150D01*
X232468Y-551303D02*
X233268Y-550503D01*
X234068Y-551303D01*
X233268Y-552104D01*
X232468Y-551303D01*
X-234068Y-551303D02*
X-233268Y-550503D01*
X-232468Y-551303D01*
X-233268Y-552104D01*
X-234068Y-551303D01*
X-240957Y-553150D02*
X-240158Y-552350D01*
X-239357Y-553150D01*
X-240158Y-553950D01*
X-240957Y-553150D01*
X-229024Y-546260D02*
X-228224Y-545460D01*
X-227424Y-546260D01*
X-228224Y-547060D01*
X-229024Y-546260D01*
Y-532480D02*
X-228224Y-531680D01*
X-227424Y-532480D01*
X-228224Y-533280D01*
X-229024Y-532480D01*
X-227178Y-539370D02*
X-226378Y-538570D01*
X-225578Y-539370D01*
X-226378Y-540170D01*
X-227178Y-539370D01*
X-234068Y-527437D02*
X-233268Y-526637D01*
X-232468Y-527437D01*
X-233268Y-528237D01*
X-234068Y-527437D01*
X-247847D02*
X-247047Y-526637D01*
X-246247Y-527437D01*
X-247047Y-528237D01*
X-247847Y-527437D01*
X-240957Y-525591D02*
X-240158Y-524790D01*
X-239357Y-525591D01*
X-240158Y-526391D01*
X-240957Y-525591D01*
X-252891Y-532480D02*
X-252091Y-531680D01*
X-251291Y-532480D01*
X-252091Y-533280D01*
X-252891Y-532480D01*
Y-546260D02*
X-252091Y-545460D01*
X-251291Y-546260D01*
X-252091Y-547060D01*
X-252891Y-546260D01*
X-254737Y-539370D02*
X-253937Y-538570D01*
X-253137Y-539370D01*
X-253937Y-540170D01*
X-254737Y-539370D01*
X-247847Y-551303D02*
X-247047Y-550503D01*
X-246247Y-551303D01*
X-247047Y-552104D01*
X-247847Y-551303D01*
X-177843Y-546260D02*
X-177043Y-545460D01*
X-176243Y-546260D01*
X-177043Y-547060D01*
X-177843Y-546260D01*
X-189776Y-553150D02*
X-188976Y-552350D01*
X-188176Y-553150D01*
X-188976Y-553950D01*
X-189776Y-553150D01*
X-182887Y-551303D02*
X-182087Y-550503D01*
X-181287Y-551303D01*
X-182087Y-552104D01*
X-182887Y-551303D01*
X-177843Y-532480D02*
X-177043Y-531680D01*
X-176243Y-532480D01*
X-177043Y-533280D01*
X-177843Y-532480D01*
X-175997Y-539370D02*
X-175197Y-538570D01*
X-174397Y-539370D01*
X-175197Y-540170D01*
X-175997Y-539370D01*
X-182887Y-527437D02*
X-182087Y-526637D01*
X-181287Y-527437D01*
X-182087Y-528237D01*
X-182887Y-527437D01*
X-196666D02*
X-195866Y-526637D01*
X-195066Y-527437D01*
X-195866Y-528237D01*
X-196666Y-527437D01*
X-189776Y-525591D02*
X-188976Y-524790D01*
X-188176Y-525591D01*
X-188976Y-526391D01*
X-189776Y-525591D01*
X-201710Y-532480D02*
X-200910Y-531680D01*
X-200110Y-532480D01*
X-200910Y-533280D01*
X-201710Y-532480D01*
Y-546260D02*
X-200910Y-545460D01*
X-200110Y-546260D01*
X-200910Y-547060D01*
X-201710Y-546260D01*
X-203556Y-539370D02*
X-202756Y-538570D01*
X-201956Y-539370D01*
X-202756Y-540170D01*
X-203556Y-539370D01*
X-196666Y-551303D02*
X-195866Y-550503D01*
X-195066Y-551303D01*
X-195866Y-552104D01*
X-196666Y-551303D01*
X231484Y-20457D02*
X232283Y-19657D01*
X233084Y-20457D01*
X232283Y-21257D01*
X231484Y-20457D01*
X227547Y-13638D02*
X228346Y-12838D01*
X229147Y-13638D01*
X228346Y-14438D01*
X227547Y-13638D01*
X240130Y-11811D02*
X240930Y-11011D01*
X241730Y-11811D01*
X240930Y-12611D01*
X240130Y-11811D01*
X233311Y-7874D02*
X234111Y-7074D01*
X234911Y-7874D01*
X234111Y-8674D01*
X233311Y-7874D01*
X243295Y-0D02*
X244094Y800D01*
X244895Y-0D01*
X244094Y-800D01*
X243295Y-0D01*
X235420Y0D02*
X236221Y800D01*
X237020Y0D01*
X236221Y-800D01*
X235420Y0D01*
X240130Y11811D02*
X240930Y12611D01*
X241730Y11811D01*
X240930Y11011D01*
X240130Y11811D01*
X233311Y7874D02*
X234111Y8674D01*
X234911Y7874D01*
X234111Y7074D01*
X233311Y7874D01*
X231484Y20457D02*
X232283Y21257D01*
X233084Y20457D01*
X232283Y19657D01*
X231484Y20457D01*
X227547Y13638D02*
X228346Y14438D01*
X229147Y13638D01*
X228346Y12838D01*
X227547Y13638D01*
X219672Y23622D02*
X220473Y24422D01*
X221272Y23622D01*
X220473Y22822D01*
X219672Y23622D01*
X219672Y15748D02*
X220472Y16548D01*
X221272Y15748D01*
X220472Y14948D01*
X219672Y15748D01*
X207861Y20457D02*
X208661Y21257D01*
X209461Y20457D01*
X208661Y19657D01*
X207861Y20457D01*
X211798Y13638D02*
X212598Y14438D01*
X213398Y13638D01*
X212598Y12838D01*
X211798Y13638D01*
X199215Y11811D02*
X200015Y12611D01*
X200815Y11811D01*
X200015Y11011D01*
X199215Y11811D01*
X206034Y7874D02*
X206834Y8674D01*
X207634Y7874D01*
X206834Y7074D01*
X206034Y7874D01*
X196050Y0D02*
X196850Y800D01*
X197650Y0D01*
X196850Y-800D01*
X196050Y0D01*
X203924Y0D02*
X204724Y800D01*
X205524Y0D01*
X204724Y-800D01*
X203924Y0D01*
X199215Y-11811D02*
X200015Y-11011D01*
X200815Y-11811D01*
X200015Y-12611D01*
X199215Y-11811D01*
X206034Y-7874D02*
X206834Y-7074D01*
X207634Y-7874D01*
X206834Y-8674D01*
X206034Y-7874D01*
X207861Y-20457D02*
X208661Y-19657D01*
X209461Y-20457D01*
X208661Y-21257D01*
X207861Y-20457D01*
X211798Y-13638D02*
X212598Y-12838D01*
X213398Y-13638D01*
X212598Y-14438D01*
X211798Y-13638D01*
X219672Y-23622D02*
X220472Y-22822D01*
X221272Y-23622D01*
X220472Y-24422D01*
X219672Y-23622D01*
X219672Y-15748D02*
X220472Y-14948D01*
X221272Y-15748D01*
X220472Y-16548D01*
X219672Y-15748D01*
X105499Y-20457D02*
X106299Y-19657D01*
X107099Y-20457D01*
X106299Y-21257D01*
X105499Y-20457D01*
X101562Y-13638D02*
X102362Y-12838D01*
X103162Y-13638D01*
X102362Y-14438D01*
X101562Y-13638D01*
X114146Y-11811D02*
X114945Y-11011D01*
X115745Y-11811D01*
X114945Y-12611D01*
X114146Y-11811D01*
X107326Y-7874D02*
X108126Y-7074D01*
X108926Y-7874D01*
X108126Y-8674D01*
X107326Y-7874D01*
X117310Y-0D02*
X118110Y800D01*
X118910Y-0D01*
X118110Y-800D01*
X117310Y-0D01*
X109436Y0D02*
X110236Y800D01*
X111036Y0D01*
X110236Y-800D01*
X109436Y0D01*
X114146Y11811D02*
X114945Y12611D01*
X115745Y11811D01*
X114945Y11011D01*
X114146Y11811D01*
X107326Y7874D02*
X108126Y8674D01*
X108926Y7874D01*
X108126Y7074D01*
X107326Y7874D01*
X105499Y20457D02*
X106299Y21257D01*
X107099Y20457D01*
X106299Y19657D01*
X105499Y20457D01*
X101562Y13638D02*
X102362Y14438D01*
X103162Y13638D01*
X102362Y12838D01*
X101562Y13638D01*
X93688Y23622D02*
X94488Y24422D01*
X95288Y23622D01*
X94488Y22822D01*
X93688Y23622D01*
X93688Y15748D02*
X94488Y16548D01*
X95288Y15748D01*
X94488Y14948D01*
X93688Y15748D01*
X81877Y20457D02*
X82677Y21257D01*
X83477Y20457D01*
X82677Y19657D01*
X81877Y20457D01*
X85814Y13638D02*
X86614Y14438D01*
X87414Y13638D01*
X86614Y12838D01*
X85814Y13638D01*
X73231Y11811D02*
X74031Y12611D01*
X74831Y11811D01*
X74031Y11011D01*
X73231Y11811D01*
X80050Y7874D02*
X80850Y8674D01*
X81650Y7874D01*
X80850Y7074D01*
X80050Y7874D01*
X70066Y0D02*
X70866Y800D01*
X71666Y0D01*
X70866Y-800D01*
X70066Y0D01*
X77940Y0D02*
X78740Y800D01*
X79540Y0D01*
X78740Y-800D01*
X77940Y0D01*
X73231Y-11811D02*
X74031Y-11011D01*
X74831Y-11811D01*
X74031Y-12611D01*
X73231Y-11811D01*
X80050Y-7874D02*
X80850Y-7074D01*
X81650Y-7874D01*
X80850Y-8674D01*
X80050Y-7874D01*
X81877Y-20457D02*
X82677Y-19657D01*
X83477Y-20457D01*
X82677Y-21257D01*
X81877Y-20457D01*
X85814Y-13638D02*
X86614Y-12838D01*
X87414Y-13638D01*
X86614Y-14438D01*
X85814Y-13638D01*
X93688Y-23622D02*
X94488Y-22822D01*
X95288Y-23622D01*
X94488Y-24422D01*
X93688Y-23622D01*
X93688Y-15748D02*
X94488Y-14948D01*
X95288Y-15748D01*
X94488Y-16548D01*
X93688Y-15748D01*
X-83477Y-20457D02*
X-82677Y-19657D01*
X-81877Y-20457D01*
X-82677Y-21257D01*
X-83477Y-20457D01*
X-87414Y-13638D02*
X-86614Y-12838D01*
X-85814Y-13638D01*
X-86614Y-14438D01*
X-87414Y-13638D01*
X-74831Y-11811D02*
X-74031Y-11011D01*
X-73231Y-11811D01*
X-74031Y-12611D01*
X-74831Y-11811D01*
X-81650Y-7874D02*
X-80850Y-7074D01*
X-80050Y-7874D01*
X-80850Y-8674D01*
X-81650Y-7874D01*
X-71666Y-0D02*
X-70866Y800D01*
X-70066Y-0D01*
X-70866Y-800D01*
X-71666Y-0D01*
X-79540Y0D02*
X-78740Y800D01*
X-77940Y0D01*
X-78740Y-800D01*
X-79540Y0D01*
X-74831Y11811D02*
X-74031Y12611D01*
X-73231Y11811D01*
X-74031Y11011D01*
X-74831Y11811D01*
X-81650Y7874D02*
X-80850Y8674D01*
X-80050Y7874D01*
X-80850Y7074D01*
X-81650Y7874D01*
X-83477Y20457D02*
X-82677Y21257D01*
X-81877Y20457D01*
X-82677Y19657D01*
X-83477Y20457D01*
X-87414Y13638D02*
X-86614Y14438D01*
X-85814Y13638D01*
X-86614Y12838D01*
X-87414Y13638D01*
X-95288Y23622D02*
X-94488Y24422D01*
X-93688Y23622D01*
X-94488Y22822D01*
X-95288Y23622D01*
X-95288Y15748D02*
X-94488Y16548D01*
X-93688Y15748D01*
X-94488Y14948D01*
X-95288Y15748D01*
X-107099Y20457D02*
X-106299Y21257D01*
X-105499Y20457D01*
X-106299Y19657D01*
X-107099Y20457D01*
X-103162Y13638D02*
X-102362Y14438D01*
X-101562Y13638D01*
X-102362Y12838D01*
X-103162Y13638D01*
X-115745Y11811D02*
X-114945Y12611D01*
X-114146Y11811D01*
X-114945Y11011D01*
X-115745Y11811D01*
X-108926Y7874D02*
X-108126Y8674D01*
X-107326Y7874D01*
X-108126Y7074D01*
X-108926Y7874D01*
X-118910Y0D02*
X-118110Y800D01*
X-117310Y0D01*
X-118110Y-800D01*
X-118910Y0D01*
X-111036Y0D02*
X-110236Y800D01*
X-109436Y0D01*
X-110236Y-800D01*
X-111036Y0D01*
X-115745Y-11811D02*
X-114945Y-11011D01*
X-114146Y-11811D01*
X-114945Y-12611D01*
X-115745Y-11811D01*
X-108926Y-7874D02*
X-108126Y-7074D01*
X-107326Y-7874D01*
X-108126Y-8674D01*
X-108926Y-7874D01*
X-107099Y-20457D02*
X-106299Y-19657D01*
X-105499Y-20457D01*
X-106299Y-21257D01*
X-107099Y-20457D01*
X-103162Y-13638D02*
X-102362Y-12838D01*
X-101562Y-13638D01*
X-102362Y-14438D01*
X-103162Y-13638D01*
X-95288Y-23622D02*
X-94488Y-22822D01*
X-93688Y-23622D01*
X-94488Y-24422D01*
X-95288Y-23622D01*
X-95288Y-15748D02*
X-94488Y-14948D01*
X-93688Y-15748D01*
X-94488Y-16548D01*
X-95288Y-15748D01*
X-221272D02*
X-220472Y-14948D01*
X-219672Y-15748D01*
X-220472Y-16548D01*
X-221272Y-15748D01*
X-221272Y-23622D02*
X-220472Y-22822D01*
X-219672Y-23622D01*
X-220472Y-24422D01*
X-221272Y-23622D01*
X-229147Y-13638D02*
X-228346Y-12838D01*
X-227547Y-13638D01*
X-228346Y-14438D01*
X-229147Y-13638D01*
X-233084Y-20457D02*
X-232283Y-19657D01*
X-231484Y-20457D01*
X-232283Y-21257D01*
X-233084Y-20457D01*
X-234911Y-7874D02*
X-234111Y-7074D01*
X-233311Y-7874D01*
X-234111Y-8674D01*
X-234911Y-7874D01*
X-241730Y-11811D02*
X-240930Y-11011D01*
X-240130Y-11811D01*
X-240930Y-12611D01*
X-241730Y-11811D01*
X-237020Y0D02*
X-236221Y800D01*
X-235420Y0D01*
X-236221Y-800D01*
X-237020Y0D01*
X-244895Y0D02*
X-244094Y800D01*
X-243295Y0D01*
X-244094Y-800D01*
X-244895Y0D01*
X-234911Y7874D02*
X-234111Y8674D01*
X-233311Y7874D01*
X-234111Y7074D01*
X-234911Y7874D01*
X-241730Y11811D02*
X-240930Y12611D01*
X-240130Y11811D01*
X-240930Y11011D01*
X-241730Y11811D01*
X-229147Y13638D02*
X-228346Y14438D01*
X-227547Y13638D01*
X-228346Y12838D01*
X-229147Y13638D01*
X-233084Y20457D02*
X-232283Y21257D01*
X-231484Y20457D01*
X-232283Y19657D01*
X-233084Y20457D01*
X-221272Y15748D02*
X-220472Y16548D01*
X-219672Y15748D01*
X-220472Y14948D01*
X-221272Y15748D01*
X-221272Y23622D02*
X-220472Y24422D01*
X-219672Y23622D01*
X-220472Y22822D01*
X-221272Y23622D01*
X-213398Y13638D02*
X-212598Y14438D01*
X-211798Y13638D01*
X-212598Y12838D01*
X-213398Y13638D01*
X-209461Y20457D02*
X-208661Y21257D01*
X-207861Y20457D01*
X-208661Y19657D01*
X-209461Y20457D01*
X-207634Y7874D02*
X-206834Y8674D01*
X-206034Y7874D01*
X-206834Y7074D01*
X-207634Y7874D01*
X-200815Y11811D02*
X-200015Y12611D01*
X-199215Y11811D01*
X-200015Y11011D01*
X-200815Y11811D01*
X-205524Y0D02*
X-204724Y800D01*
X-203924Y0D01*
X-204724Y-800D01*
X-205524Y0D01*
X-197650Y-0D02*
X-196850Y800D01*
X-196050Y-0D01*
X-196850Y-800D01*
X-197650Y-0D01*
X-207634Y-7874D02*
X-206834Y-7074D01*
X-206034Y-7874D01*
X-206834Y-8674D01*
X-207634Y-7874D01*
X-200815Y-11811D02*
X-200015Y-11011D01*
X-199215Y-11811D01*
X-200015Y-12611D01*
X-200815Y-11811D01*
X-213398Y-13638D02*
X-212598Y-12838D01*
X-211798Y-13638D01*
X-212598Y-14438D01*
X-213398Y-13638D01*
X-209461Y-20457D02*
X-208661Y-19657D01*
X-207861Y-20457D01*
X-208661Y-21257D01*
X-209461Y-20457D01*
D39*
X-186680Y0D02*
X-187233Y761D01*
X-188128Y470D01*
Y-470D01*
X-187233Y-761D01*
X-186680Y0D01*
X-126680D02*
X-127233Y761D01*
X-128128Y470D01*
Y-470D01*
X-127233Y-761D01*
X-126680Y0D01*
X128280D02*
X127727Y761D01*
X126833Y470D01*
Y-470D01*
X127727Y-761D01*
X128280Y0D01*
X188280D02*
X187727Y761D01*
X186833Y470D01*
Y-470D01*
X187727Y-761D01*
X188280Y0D01*
X-257546Y153543D02*
X-258099Y154304D01*
X-258994Y154014D01*
Y153073D01*
X-258099Y152782D01*
X-257546Y153543D01*
X-197547D02*
X-198099Y154304D01*
X-198994Y154014D01*
Y153073D01*
X-198099Y152782D01*
X-197547Y153543D01*
Y-153543D02*
X-198099Y-152782D01*
X-198994Y-153073D01*
Y-154014D01*
X-198099Y-154304D01*
X-197547Y-153543D01*
X-257546D02*
X-258099Y-152782D01*
X-258994Y-153073D01*
Y-154014D01*
X-258099Y-154304D01*
X-257546Y-153543D01*
M02*
