M48
;Layer_Color=9474304
;FILE_FORMAT=2:5
INCH,TZ
;TYPE=PLATED
T1F00S00C0.01968
T2F00S00C0.03937
T3F00S00C0.04724
T4F00S00C0.05906
T5F00S00C0.20472
T6F00S00C0.24803
;TYPE=NON_PLATED
%
T01
X-252091Y-546260
X-253937Y-539370
X-252091Y-532480
X-247047Y-527437
X-240158Y-525591
X-233268Y-527437
X-228224Y-532480
X-226378Y-539370
X-228224Y-546260
X-233268Y-551303
X-240158Y-553150
X-247047Y-551303
X-200910Y-546260
X-202756Y-539370
X-200910Y-532480
X-195866Y-527437
X-188976Y-525591
X-182087Y-527437
X-177043Y-532480
X-175197Y-539370
X-177043Y-546260
X-182087Y-551303
X-188976Y-553150
X-195866Y-551303
X177043Y-546260
X175197Y-539370
X177043Y-532480
X182087Y-527437
X188976Y-525591
X195866Y-527437
Y-551303
X188976Y-553150
X182087Y-551303
X200910Y-546260
X202756Y-539370
X200910Y-532480
X228224
X226378Y-539370
X228224Y-546260
X233268Y-551303
X240158Y-553150
X247047Y-551303
X252091Y-546260
X253937Y-539370
X252091Y-532480
X247047Y-527437
X240158Y-525591
X233268Y-527437
X-131890Y-263779
X-139764
X-147638
X-155512
X-163386
X-171260
X-179134
X-187008
X-190945Y-255906
X-183071
X-175197
X-167323
X-159449
X-151575
X-143701
X-135827
X-127953
X-131890Y-248031
X-139764
X-147638
X-155512
X-163386
X-171260
X-179134
X-187008
X-183071Y-240158
X-175197
X-167323
X-159449
X-151575
X-143701
X-135827
X-127953
X-131890Y-232283
X-139764
X-147638
X-155512
X-163386
X-171260
X-179134
X-187008
X-183071Y-224409
X-175197
X-179134Y-216535
X-187008
X-190945Y-224409
Y-208661
X-183071
X-175197
X-171260Y-200787
X-163386
X-155512
X-147638
X-139764
X-131890
X-124016
X-127953Y-192913
X-135827
X-143701
X-151575
X-159449
X-167323
X-175197
X-183071
X-190945
X-187008Y-200787
X-179134
Y-185039
X-171260
X-163386
X-155512
X-147638
X-139764
X-131890
X-124016
X-127953Y-177165
X-135827
X-143701
X-151575
X-159449
X-167323
X-175197
X-183071
X-190945
X-187008Y-185039
Y-169291
X-179134
X-171260
X-163386
X-155512
X-147638
X-139764
X-131890
X-135827Y-208661
X-127953
X-131890Y-216535
X-124016
X-127953Y-224409
X-135827
X-124016Y-232283
Y-248031
X-190945Y-240158
X-82677
X-74803
X-66929
X-59055
X-51181
X-43307
X-35433
X-27559
X-19685
X-23622Y-232283
X-31496
X-39370
X-47244
X-55118
X-62992
X-70866
X-78740
X-82677Y-224409
X-74803
X-66929
X-70866Y-216535
X-78740
X-82677Y-208661
X-74803
X-66929
X-70866Y-200787
X-78740
X-82677Y-192913
X-74803
X-66929
X-59055
X-51181
X-43307
X-35433
X-27559
X-19685
X-23622Y-200787
X-31496
X-39370
X-47244
X-55118
X-62992
Y-185039
X-70866
X-78740
X-74803Y-177165
X-66929
X-59055
X-51181
X-43307
X-35433
X-27559
X-31496Y-185039
X-39370
X-47244
X-55118
Y-169291
X-47244
X-39370
X-31496
X-23622
Y-185039
X-27559Y-208661
X-35433
X-31496Y-216535
X-23622
X-19685Y-208661
Y-224409
X-27559
X-35433
X-39370Y-248031
X-47244
X-55118
X-62992
X-70866
X-78740
X-74803Y-255906
X-66929
X-59055
X-51181
X-43307
X-35433
X-27559
X-31496Y-248031
X-23622
Y-263779
X-31496
X-39370
X-47244
X-55118
X-62992
X-70866
X-78740
Y-169291
X-70866
X-62992
X29528
X37402
X33465Y-177165
X25591
X21654Y-185039
X29528
X37402
X41339Y-177165
Y-192913
X33465
X25591
X21654Y-200787
X29528
X37402
X33465Y-208661
X25591
X21654Y-216535
X29528
X25591Y-224409
X33465
X29528Y-232283
X21654
X25591Y-240158
X33465
X41339
X37402Y-248031
X29528
X21654
X25591Y-255906
X33465
X41339
X37402Y-263779
X29528
X37402Y-232283
X45276
X53150
X61024
X68898
X76772
X84646
X88583Y-240158
X80709
X72835
X64961
X57087
X49213
X45276Y-248031
X53150
X61024
X68898
X76772
X84646
X80709Y-255906
X72835
X64961
X57087
X49213
X45276Y-263779
X53150
X61024
X68898
X76772
X84646
X88583Y-255906
Y-224409
X80709
X72835
X76772Y-216535
X84646
X88583Y-208661
X80709
X72835
X76772Y-200787
X84646
X88583Y-192913
X80709
X72835
X64961
X57087
X49213
X45276Y-200787
X53150
X61024
X68898
Y-185039
X76772
X84646
X80709Y-177165
X72835
X64961
X57087
X49213
X45276Y-185039
X53150
X61024
Y-169291
X68898
X76772
X84646
X88583Y-177165
X53150Y-169291
X45276
X200015Y-11811
X206834Y-7874
X204724Y0
X206834Y7874
X200015Y11811
X212598Y13638
X220472Y15748
X228346Y13638
X234111Y7874
X236221Y0
X244094Y-0
X240930Y-11811
X234111Y-7874
X228346Y-13638
X220472Y-15748
X220472Y-23622
X232283Y-20457
X208661Y-20457
X212598Y-13638
X240930Y11811
X196850Y0
X118110Y-0
X110236Y0
X108126Y-7874
X114945Y-11811
X102362Y-13638
X94488Y-15748
X94488Y-23622
X106299Y-20457
X82677Y-20457
X86614Y-13638
X80850Y-7874
X78740Y0
X70866Y0
X74031Y11811
X80850Y7874
X86614Y13638
X94488Y15748
X102362Y13638
X108126Y7874
X114945Y11811
X74031Y-11811
X-74031Y-11811
X-80850Y-7874
X-78740Y0
X-70866Y-0
X-74031Y11811
X-80850Y7874
X-86614Y13638
X-94488Y15748
X-102362Y13638
X-108126Y7874
X-110236Y0
X-108126Y-7874
X-102362Y-13638
X-94488Y-15748
X-94488Y-23622
X-82677Y-20457
X-86614Y-13638
X-106299Y-20457
X-114945Y-11811
X-118110Y0
X-114945Y11811
X-200015Y11811
X-206834Y7874
X-204724Y0
X-196850Y-0
X-200015Y-11811
X-206834Y-7874
X-212598Y-13638
X-220472Y-15748
X-220472Y-23622
X-232283Y-20457
X-228346Y-13638
X-234111Y-7874
X-236221Y0
X-244094Y0
X-240930Y-11811
X-240930Y11811
X-234111Y7874
X-228346Y13638
X-220472Y15748
X-212598Y13638
X-208661Y-20457
X-208661Y20457
X-220472Y23622
X-232283Y20457
X-187008Y169291
X-179134
X-171260
X-163386
X-155512
X-147638
X-139764
X-131890
X-78740
X-70866
X-62992
X-55118
X-47244
X-39370
X-31496
X-23622
X29528
X37402
X-82677Y20457
X-94488Y23622
X-106299Y20457
X82677
X94488Y23622
X106299Y20457
X84646Y169291
X76772
X68898
X61024
X53150
X45276
X208661Y20457
X220473Y23622
X232283Y20457
X88583Y177165
X80709
X72835
X64961
X57087
X49213
X53150Y185039
X45276
X49213Y192913
X57087
X64961
X72835
X80709
X88583
X84646Y200787
X76772
X68898
X61024
X53150
X45276
Y232283
X53150
X61024
X68898
X76772
X84646
X80709Y240158
X72835
X64961
X57087
X49213
X53150Y248031
X45276
X49213Y255906
X57087
X64961
X72835
X80709
X88583
X84646Y248031
X76772
X68898
X61024
Y263779
X53150
X45276
X68898
X76772
X84646
X88583Y240158
Y224409
X80709
X72835
X76772Y216535
X84646
X80709Y208661
X72835
X88583
X84646Y185039
X76772
X68898
X61024
X37402
X29528
X21654
X25591Y177165
X33465
X41339
Y192913
X33465
X25591
X29528Y200787
X37402
X33465Y208661
X25591
X29528Y216535
X21654
X25591Y224409
X33465
X37402Y232283
X29528
X21654
X25591Y240158
X33465
X41339
X37402Y248031
X29528
X21654
X25591Y255906
X33465
X41339
X37402Y263779
X29528
X-23622
X-31496
X-39370
X-47244
X-55118
X-62992
X-70866
X-78740
X-74803Y255906
X-66929
X-59055
X-51181
X-43307
X-35433
X-27559
X-23622Y248031
X-31496
X-39370
X-47244
X-55118
X-62992
X-70866
X-78740
X-74803Y240158
X-66929
X-59055
X-51181
X-43307
X-35433
X-27559
X-19685
X-23622Y232283
X-31496
X-39370
X-47244
X-55118
X-62992
X-70866
X-78740
X-74803Y224409
X-66929
X-70866Y216535
X-78740
X-74803Y208661
X-66929
X-62992Y200787
X-55118
X-47244
X-39370
X-31496
X-23622
X-19685Y192913
X-27559
X-35433
X-43307
X-51181
X-59055
X-66929
X-74803
X-82677
X-78740Y200787
X-70866
Y185039
X-62992
X-55118
X-47244
X-39370
X-31496
X-23622
X-27559Y177165
X-35433
X-43307
X-51181
X-59055
X-66929
X-74803
X-78740Y185039
X-82677Y208661
Y224409
Y240158
X-35433Y224409
X-27559
X-19685
X-23622Y216535
X-31496
X-27559Y208661
X-19685
X-35433
X21654Y200787
X-124016
X-131890
X-139764
X-147638
X-155512
X-163386
X-171260
X-179134
X-187008
X-190945Y192913
X-183071
X-175197
X-167323
X-159449
X-151575
X-143701
X-135827
X-127953
X-124016Y185039
X-131890
X-139764
X-147638
X-155512
X-163386
X-171260
X-179134
X-187008
X-183071Y177165
X-175197
X-167323
X-159449
X-151575
X-143701
X-135827
X-127953
Y208661
X-135827
X-131890Y216535
X-124016
X-127953Y224409
X-135827
X-131890Y232283
X-124016
X-127953Y240158
X-135827
X-143701
X-151575
X-159449
X-167323
X-175197
X-183071
X-190945
X-187008Y248031
X-179134
X-171260
X-163386
X-155512
X-147638
X-139764
X-131890
X-124016
X-127953Y255906
X-135827
X-143701
X-151575
X-159449
X-167323
X-175197
X-183071
X-190945
X-187008Y263779
X-179134
X-171260
X-163386
X-155512
X-147638
X-139764
X-131890
X-139764Y232283
X-147638
X-155512
X-163386
X-171260
X-179134
X-187008
X-190945Y224409
X-183071
X-175197
X-179134Y216535
X-187008
X-190945Y208661
X-183071
X-175197
X-190945Y177165
X200910Y532480
X202756Y539370
X200910Y546260
X228224
X226378Y539370
X228224Y532480
X233268Y527437
X240158Y525591
X247047Y527437
X252091Y532480
X253937Y539370
X252091Y546260
X247047Y551303
X240158Y553150
X233268Y551303
X195866
X188976Y553150
X182087Y551303
X177043Y546260
X175197Y539370
X177043Y532480
X182087Y527437
X188976Y525591
X195866Y527437
X-182087Y527437
X-188976Y525591
X-195866Y527437
X-200910Y532480
X-202756Y539370
X-200910Y546260
X-195866Y551304
X-188976Y553150
X-182087Y551304
X-177043Y546260
X-175197Y539370
X-177043Y532480
X-228224
X-226378Y539370
X-228224Y546260
X-233268Y551304
X-240158Y553150
X-247047Y551304
X-252091Y546260
X-253937Y539370
X-252091Y532480
X-247047Y527437
X-240158Y525591
X-233268Y527437
T02
X44291Y-137795
X-44291
Y137795
X44291
T03
X-258347Y-153543
X-198346
X127480Y0
X187480
X-127480
X-187480
X-198346Y153543
X-258347
T04
X-230906Y-504921
X-150984
X-103347Y-532087
Y-452165
X103347
Y-532087
X150984Y-504921
X230906
Y-298228
X150984
X-150984
X-230906
X230906Y298228
X150984
X-150984
X-230906
X-103347Y452165
X103347
X230906Y504921
X150984
X103347Y532087
X-103347
X-150984Y504921
X-230906
T05
X-240158Y-539370
X-188976
X188976Y-539370
X240158
X220472Y0
X94488
X-94488
X-220472
X240158Y539370
X188976
X-188976Y539370
X-240158
T06
X-51181Y-216535
Y216535
M30
