G04*
G04 #@! TF.GenerationSoftware,Altium Limited,Altium Designer,18.1.9 (240)*
G04*
G04 Layer_Physical_Order=1*
G04 Layer_Color=255*
%FSLAX25Y25*%
%MOIN*%
G70*
G01*
G75*
%ADD10C,0.01968*%
%ADD14R,0.07087X0.14173*%
%ADD15R,0.06496X0.27953*%
%ADD27C,0.02657*%
%ADD28C,0.03937*%
%ADD29R,0.11811X0.66929*%
%ADD30C,0.39370*%
%ADD31C,0.61024*%
%ADD32C,0.07874*%
%ADD33C,0.15748*%
%ADD34C,0.11811*%
G04:AMPARAMS|DCode=35|XSize=748.03mil|YSize=1082.68mil|CornerRadius=187.01mil|HoleSize=0mil|Usage=FLASHONLY|Rotation=0.000|XOffset=0mil|YOffset=0mil|HoleType=Round|Shape=RoundedRectangle|*
%AMROUNDEDRECTD35*
21,1,0.74803,0.70866,0,0,0.0*
21,1,0.37402,1.08268,0,0,0.0*
1,1,0.37402,0.18701,-0.35433*
1,1,0.37402,-0.18701,-0.35433*
1,1,0.37402,-0.18701,0.35433*
1,1,0.37402,0.18701,0.35433*
%
%ADD35ROUNDEDRECTD35*%
G04:AMPARAMS|DCode=36|XSize=669.29mil|YSize=1082.68mil|CornerRadius=167.32mil|HoleSize=0mil|Usage=FLASHONLY|Rotation=0.000|XOffset=0mil|YOffset=0mil|HoleType=Round|Shape=RoundedRectangle|*
%AMROUNDEDRECTD36*
21,1,0.66929,0.74803,0,0,0.0*
21,1,0.33465,1.08268,0,0,0.0*
1,1,0.33465,0.16732,-0.37402*
1,1,0.33465,-0.16732,-0.37402*
1,1,0.33465,-0.16732,0.37402*
1,1,0.33465,0.16732,0.37402*
%
%ADD36ROUNDEDRECTD36*%
%ADD37C,0.03937*%
G36*
X262776Y-561989D02*
X214607D01*
Y-523622D01*
X204886Y-513900D01*
X191846D01*
X188976Y-513739D01*
X186107Y-513900D01*
X173067D01*
X163346Y-523622D01*
Y-561989D01*
X-214527D01*
Y-523622D01*
X-222124Y-516025D01*
X-222104Y-515525D01*
X-221132Y-514695D01*
X-219723Y-513046D01*
X-218590Y-511196D01*
X-217760Y-509193D01*
X-217253Y-507084D01*
X-217083Y-504921D01*
X-217253Y-502759D01*
X-217760Y-500650D01*
X-218590Y-498646D01*
X-219723Y-496797D01*
X-221132Y-495148D01*
X-222781Y-493739D01*
X-224630Y-492606D01*
X-226634Y-491776D01*
X-228743Y-491269D01*
X-230906Y-491099D01*
X-233068Y-491269D01*
X-235177Y-491776D01*
X-237181Y-492606D01*
X-239030Y-493739D01*
X-240679Y-495148D01*
X-242088Y-496797D01*
X-243221Y-498646D01*
X-244051Y-500650D01*
X-244557Y-502759D01*
X-244728Y-504921D01*
X-244557Y-507084D01*
X-244051Y-509193D01*
X-243221Y-511196D01*
X-242088Y-513046D01*
X-241800Y-513383D01*
X-241997Y-513842D01*
X-243027Y-513900D01*
X-262776Y-513900D01*
X-262776Y-162822D01*
X-262347Y-162565D01*
X-262131Y-162681D01*
X-260276Y-163243D01*
X-258347Y-163433D01*
X-256417Y-163243D01*
X-254562Y-162681D01*
X-252852Y-161767D01*
X-251353Y-160537D01*
X-250123Y-159038D01*
X-249209Y-157328D01*
X-248646Y-155473D01*
X-248456Y-153543D01*
X-248646Y-151614D01*
X-249209Y-149759D01*
X-250123Y-148049D01*
X-251077Y-146886D01*
X-251077Y146886D01*
X-250123Y148049D01*
X-249209Y149759D01*
X-248646Y151614D01*
X-248456Y153543D01*
X-248646Y155473D01*
X-249209Y157328D01*
X-250123Y159038D01*
X-251353Y160537D01*
X-252852Y161767D01*
X-254562Y162681D01*
X-256417Y163243D01*
X-258347Y163433D01*
X-260276Y163243D01*
X-262131Y162681D01*
X-262347Y162565D01*
X-262776Y162822D01*
X-262776Y513900D01*
X-243022Y513900D01*
X-241996Y513843D01*
X-241800Y513383D01*
X-242088Y513046D01*
X-243221Y511196D01*
X-244051Y509193D01*
X-244557Y507084D01*
X-244728Y504921D01*
X-244557Y502759D01*
X-244051Y500650D01*
X-243221Y498646D01*
X-242088Y496797D01*
X-240679Y495148D01*
X-239030Y493739D01*
X-237181Y492606D01*
X-235177Y491776D01*
X-233068Y491269D01*
X-230906Y491099D01*
X-228743Y491269D01*
X-226634Y491776D01*
X-224630Y492606D01*
X-222781Y493739D01*
X-221132Y495148D01*
X-219723Y496797D01*
X-218590Y498646D01*
X-217760Y500650D01*
X-217253Y502759D01*
X-217083Y504921D01*
X-217253Y507084D01*
X-217760Y509193D01*
X-218590Y511196D01*
X-219723Y513046D01*
X-221132Y514695D01*
X-222104Y515525D01*
X-222124Y516025D01*
X-214527Y523622D01*
Y561989D01*
X163346D01*
Y523622D01*
X173067Y513900D01*
X186107D01*
X188976Y513739D01*
X191846Y513900D01*
X204886D01*
X214607Y523622D01*
Y561989D01*
X262776D01*
X262776Y-561989D01*
D02*
G37*
%LPC*%
G36*
X103347Y545909D02*
X101184Y545739D01*
X99075Y545232D01*
X97071Y544402D01*
X95222Y543269D01*
X93573Y541860D01*
X92164Y540211D01*
X91031Y538362D01*
X90201Y536358D01*
X89694Y534249D01*
X89524Y532087D01*
X89694Y529924D01*
X90201Y527815D01*
X91031Y525811D01*
X92164Y523962D01*
X93573Y522313D01*
X95222Y520904D01*
X97071Y519771D01*
X99075Y518941D01*
X101184Y518435D01*
X103347Y518264D01*
X105509Y518435D01*
X107618Y518941D01*
X109622Y519771D01*
X111471Y520904D01*
X113120Y522313D01*
X114529Y523962D01*
X115662Y525811D01*
X116492Y527815D01*
X116998Y529924D01*
X117169Y532087D01*
X116998Y534249D01*
X116492Y536358D01*
X115662Y538362D01*
X114529Y540211D01*
X113120Y541860D01*
X111471Y543269D01*
X109622Y544402D01*
X107618Y545232D01*
X105509Y545739D01*
X103347Y545909D01*
D02*
G37*
G36*
X-150984Y518743D02*
X-153147Y518573D01*
X-155255Y518067D01*
X-157259Y517237D01*
X-159109Y516104D01*
X-160758Y514695D01*
X-162167Y513046D01*
X-163300Y511196D01*
X-164130Y509193D01*
X-164636Y507084D01*
X-164806Y504921D01*
X-164636Y502759D01*
X-164130Y500650D01*
X-163300Y498646D01*
X-162167Y496797D01*
X-160758Y495148D01*
X-159109Y493739D01*
X-157259Y492606D01*
X-155255Y491776D01*
X-153147Y491269D01*
X-150984Y491099D01*
X-148822Y491269D01*
X-146713Y491776D01*
X-144709Y492606D01*
X-142860Y493739D01*
X-141210Y495148D01*
X-139802Y496797D01*
X-138669Y498646D01*
X-137839Y500650D01*
X-137332Y502759D01*
X-137162Y504921D01*
X-137332Y507084D01*
X-137839Y509193D01*
X-138669Y511196D01*
X-139802Y513046D01*
X-141210Y514695D01*
X-142860Y516104D01*
X-144709Y517237D01*
X-146713Y518067D01*
X-148822Y518573D01*
X-150984Y518743D01*
D02*
G37*
G36*
X103347Y465987D02*
X101184Y465817D01*
X99075Y465311D01*
X97071Y464481D01*
X95222Y463348D01*
X93573Y461939D01*
X92164Y460290D01*
X91031Y458440D01*
X90201Y456437D01*
X89694Y454328D01*
X89524Y452165D01*
X89694Y450003D01*
X90201Y447894D01*
X91031Y445890D01*
X92164Y444041D01*
X93573Y442392D01*
X95222Y440983D01*
X97071Y439850D01*
X99075Y439020D01*
X101184Y438513D01*
X103347Y438343D01*
X105509Y438513D01*
X107618Y439020D01*
X109622Y439850D01*
X111471Y440983D01*
X113120Y442392D01*
X114529Y444041D01*
X115662Y445890D01*
X116492Y447894D01*
X116998Y450003D01*
X117169Y452165D01*
X116998Y454328D01*
X116492Y456437D01*
X115662Y458440D01*
X114529Y460290D01*
X113120Y461939D01*
X111471Y463348D01*
X109622Y464481D01*
X107618Y465311D01*
X105509Y465817D01*
X103347Y465987D01*
D02*
G37*
G36*
X230906Y312051D02*
X228743Y311880D01*
X226634Y311374D01*
X224630Y310544D01*
X222781Y309411D01*
X221132Y308002D01*
X219723Y306353D01*
X218590Y304503D01*
X217760Y302500D01*
X217253Y300391D01*
X217083Y298228D01*
X217253Y296066D01*
X217760Y293957D01*
X218590Y291953D01*
X219723Y290104D01*
X221132Y288455D01*
X222781Y287046D01*
X224630Y285913D01*
X226634Y285083D01*
X228743Y284576D01*
X230906Y284406D01*
X233068Y284576D01*
X235177Y285083D01*
X237181Y285913D01*
X239030Y287046D01*
X240679Y288455D01*
X242088Y290104D01*
X243221Y291953D01*
X244051Y293957D01*
X244557Y296066D01*
X244728Y298228D01*
X244557Y300391D01*
X244051Y302500D01*
X243221Y304503D01*
X242088Y306353D01*
X240679Y308002D01*
X239030Y309411D01*
X237181Y310544D01*
X235177Y311374D01*
X233068Y311880D01*
X230906Y312051D01*
D02*
G37*
G36*
X150984D02*
X148822Y311880D01*
X146713Y311374D01*
X144709Y310544D01*
X142860Y309411D01*
X141210Y308002D01*
X139802Y306353D01*
X138669Y304503D01*
X137839Y302500D01*
X137332Y300391D01*
X137162Y298228D01*
X137332Y296066D01*
X137839Y293957D01*
X138669Y291953D01*
X139802Y290104D01*
X141210Y288455D01*
X142860Y287046D01*
X144709Y285913D01*
X146713Y285083D01*
X148822Y284576D01*
X150984Y284406D01*
X153147Y284576D01*
X155255Y285083D01*
X157259Y285913D01*
X159109Y287046D01*
X160758Y288455D01*
X162167Y290104D01*
X163300Y291953D01*
X164130Y293957D01*
X164636Y296066D01*
X164806Y298228D01*
X164636Y300391D01*
X164130Y302500D01*
X163300Y304503D01*
X162167Y306353D01*
X160758Y308002D01*
X159109Y309411D01*
X157259Y310544D01*
X155255Y311374D01*
X153147Y311880D01*
X150984Y312051D01*
D02*
G37*
G36*
X141732Y283507D02*
X127953D01*
X125791Y283337D01*
X123681Y282831D01*
X121678Y282001D01*
X119828Y280867D01*
X118179Y279459D01*
X116770Y277810D01*
X115637Y275960D01*
X114807Y273956D01*
X114301Y271847D01*
X114131Y269685D01*
X114301Y267523D01*
X114807Y265414D01*
X115637Y263410D01*
X116770Y261561D01*
X118179Y259911D01*
X119828Y258503D01*
X120446Y258124D01*
Y257624D01*
X119828Y257245D01*
X118179Y255837D01*
X116770Y254187D01*
X115637Y252338D01*
X114807Y250334D01*
X114301Y248225D01*
X114131Y246063D01*
X114301Y243901D01*
X114807Y241792D01*
X115637Y239788D01*
X116770Y237938D01*
X118179Y236289D01*
X119828Y234881D01*
X121678Y233747D01*
X123681Y232917D01*
X125791Y232411D01*
X127953Y232241D01*
X141732D01*
X143895Y232411D01*
X146003Y232917D01*
X148007Y233747D01*
X149857Y234881D01*
X151506Y236289D01*
X152915Y237938D01*
X154048Y239788D01*
X154878Y241792D01*
X155384Y243901D01*
X155554Y246063D01*
X155384Y248225D01*
X154878Y250334D01*
X154048Y252338D01*
X152915Y254187D01*
X151506Y255837D01*
X149857Y257245D01*
X149239Y257624D01*
Y258124D01*
X149857Y258503D01*
X151506Y259911D01*
X152915Y261561D01*
X154048Y263410D01*
X154878Y265414D01*
X155384Y267523D01*
X155554Y269685D01*
X155384Y271847D01*
X154878Y273956D01*
X154048Y275960D01*
X152915Y277810D01*
X151506Y279459D01*
X149857Y280867D01*
X148007Y282001D01*
X146003Y282831D01*
X143895Y283337D01*
X141732Y283507D01*
D02*
G37*
G36*
X73819Y276614D02*
X36417D01*
X33658Y276459D01*
X30933Y275996D01*
X28278Y275231D01*
X25724Y274173D01*
X23305Y272836D01*
X21051Y271237D01*
X18991Y269395D01*
X17149Y267335D01*
X15550Y265080D01*
X14213Y262662D01*
X13155Y260108D01*
X12390Y257453D01*
X12132Y255934D01*
X7874D01*
X6716Y255820D01*
X5603Y255482D01*
X4922Y255118D01*
X2559D01*
Y252584D01*
X2392Y252271D01*
X2054Y251158D01*
X1940Y250000D01*
Y183071D01*
X2054Y181913D01*
X2392Y180800D01*
X2559Y180487D01*
Y177953D01*
X4922D01*
X5603Y177588D01*
X6716Y177251D01*
X7874Y177137D01*
X12132D01*
X12390Y175618D01*
X13155Y172963D01*
X14213Y170409D01*
X15550Y167990D01*
X17149Y165736D01*
X18991Y163676D01*
X21051Y161834D01*
X23305Y160235D01*
X25724Y158898D01*
X28278Y157840D01*
X30933Y157075D01*
X33658Y156612D01*
X36417Y156457D01*
X73819D01*
X76578Y156612D01*
X79303Y157075D01*
X81959Y157840D01*
X84512Y158898D01*
X86931Y160235D01*
X89185Y161834D01*
X91246Y163676D01*
X93087Y165736D01*
X94687Y167990D01*
X96023Y170409D01*
X97081Y172963D01*
X97846Y175618D01*
X98309Y178343D01*
X98464Y181102D01*
Y251969D01*
X98309Y254728D01*
X97846Y257453D01*
X97081Y260108D01*
X96023Y262662D01*
X94687Y265080D01*
X93087Y267335D01*
X91246Y269395D01*
X89185Y271237D01*
X86931Y272836D01*
X84512Y274173D01*
X81959Y275231D01*
X79303Y275996D01*
X76578Y276459D01*
X73819Y276614D01*
D02*
G37*
G36*
X-138779D02*
X-176181D01*
X-178940Y276459D01*
X-181665Y275996D01*
X-184321Y275231D01*
X-186874Y274173D01*
X-189293Y272836D01*
X-191547Y271237D01*
X-193608Y269395D01*
X-195449Y267335D01*
X-197049Y265080D01*
X-198386Y262662D01*
X-199443Y260108D01*
X-200208Y257453D01*
X-200671Y254728D01*
X-200826Y251969D01*
Y181102D01*
X-200671Y178343D01*
X-200208Y175618D01*
X-199443Y172963D01*
X-198386Y170409D01*
X-197921Y169568D01*
X-198508Y168981D01*
X-199492Y167782D01*
X-200223Y166414D01*
X-200674Y164929D01*
X-200826Y163386D01*
Y163077D01*
X-202131Y162681D01*
X-203841Y161767D01*
X-205340Y160537D01*
X-206570Y159038D01*
X-207484Y157328D01*
X-208047Y155473D01*
X-208237Y153543D01*
X-208047Y151614D01*
X-207484Y149759D01*
X-206570Y148049D01*
X-205340Y146550D01*
X-203841Y145320D01*
X-202131Y144406D01*
X-200276Y143843D01*
X-198346Y143653D01*
X-196417Y143843D01*
X-194562Y144406D01*
X-192852Y145320D01*
X-191353Y146550D01*
X-190123Y148049D01*
X-189209Y149759D01*
X-188646Y151614D01*
X-188598Y152102D01*
X-187319Y153382D01*
X-186335Y154581D01*
X-185603Y155948D01*
X-185153Y157433D01*
X-185123Y157738D01*
X-184694Y157995D01*
X-184321Y157840D01*
X-181665Y157075D01*
X-178940Y156612D01*
X-176181Y156457D01*
X-138779D01*
X-136020Y156612D01*
X-133296Y157075D01*
X-130640Y157840D01*
X-128086Y158898D01*
X-125668Y160235D01*
X-123414Y161834D01*
X-121353Y163676D01*
X-119511Y165736D01*
X-117912Y167990D01*
X-116575Y170409D01*
X-115517Y172963D01*
X-114752Y175618D01*
X-114289Y178343D01*
X-114135Y181102D01*
Y251969D01*
X-114289Y254728D01*
X-114752Y257453D01*
X-115517Y260108D01*
X-116575Y262662D01*
X-117912Y265080D01*
X-119511Y267335D01*
X-121353Y269395D01*
X-123414Y271237D01*
X-125668Y272836D01*
X-128086Y274173D01*
X-130640Y275231D01*
X-133296Y275996D01*
X-136020Y276459D01*
X-138779Y276614D01*
D02*
G37*
G36*
X141732Y200830D02*
X127953D01*
X125791Y200660D01*
X123681Y200153D01*
X121678Y199323D01*
X119828Y198190D01*
X118179Y196782D01*
X116770Y195132D01*
X115637Y193283D01*
X114807Y191279D01*
X114301Y189170D01*
X114131Y187008D01*
X114301Y184846D01*
X114807Y182737D01*
X115637Y180733D01*
X116770Y178883D01*
X118179Y177234D01*
X119828Y175826D01*
X120446Y175447D01*
Y174947D01*
X119828Y174568D01*
X118179Y173160D01*
X116770Y171510D01*
X115637Y169661D01*
X114807Y167657D01*
X114301Y165548D01*
X114131Y163386D01*
X114301Y161224D01*
X114807Y159115D01*
X115637Y157111D01*
X116770Y155261D01*
X118179Y153612D01*
X119828Y152204D01*
X121678Y151070D01*
X123681Y150240D01*
X125791Y149734D01*
X127953Y149564D01*
X141732D01*
X143895Y149734D01*
X146003Y150240D01*
X148007Y151070D01*
X149857Y152204D01*
X151506Y153612D01*
X152915Y155261D01*
X154048Y157111D01*
X154878Y159115D01*
X155384Y161224D01*
X155554Y163386D01*
X155384Y165548D01*
X154878Y167657D01*
X154048Y169661D01*
X152915Y171510D01*
X151506Y173160D01*
X149857Y174568D01*
X149239Y174947D01*
Y175447D01*
X149857Y175826D01*
X151506Y177234D01*
X152915Y178883D01*
X154048Y180733D01*
X154878Y182737D01*
X155384Y184846D01*
X155554Y187008D01*
X155384Y189170D01*
X154878Y191279D01*
X154048Y193283D01*
X152915Y195132D01*
X151506Y196782D01*
X149857Y198190D01*
X148007Y199323D01*
X146003Y200153D01*
X143895Y200660D01*
X141732Y200830D01*
D02*
G37*
G36*
X44291Y149643D02*
X42438Y149497D01*
X40630Y149063D01*
X38913Y148352D01*
X37328Y147380D01*
X35914Y146173D01*
X34707Y144759D01*
X33735Y143174D01*
X33024Y141456D01*
X32590Y139649D01*
X32444Y137795D01*
X32590Y135942D01*
X33024Y134134D01*
X33735Y132417D01*
X34707Y130832D01*
X35914Y129418D01*
X37328Y128210D01*
X38913Y127239D01*
X40630Y126528D01*
X42438Y126094D01*
X44291Y125948D01*
X46145Y126094D01*
X47952Y126528D01*
X49670Y127239D01*
X51255Y128210D01*
X52669Y129418D01*
X53876Y130832D01*
X54848Y132417D01*
X55559Y134134D01*
X55993Y135942D01*
X56139Y137795D01*
X55993Y139649D01*
X55559Y141456D01*
X54848Y143174D01*
X53876Y144759D01*
X52669Y146173D01*
X51255Y147380D01*
X49670Y148352D01*
X47952Y149063D01*
X46145Y149497D01*
X44291Y149643D01*
D02*
G37*
G36*
X220472Y36461D02*
X216899Y36286D01*
X213359Y35761D01*
X209888Y34891D01*
X206519Y33686D01*
X203285Y32156D01*
X200216Y30316D01*
X197342Y28185D01*
X194691Y25782D01*
X192288Y23131D01*
X190156Y20257D01*
X188317Y17188D01*
X186787Y13953D01*
X185581Y10584D01*
X185344Y9637D01*
X183695Y9137D01*
X181986Y8223D01*
X180487Y6993D01*
X179257Y5495D01*
X178343Y3785D01*
X177780Y1929D01*
X177590Y0D01*
X177780Y-1929D01*
X178343Y-3785D01*
X179257Y-5495D01*
X180487Y-6993D01*
X181986Y-8223D01*
X183695Y-9137D01*
X185344Y-9637D01*
X185581Y-10584D01*
X186787Y-13953D01*
X188317Y-17188D01*
X190156Y-20257D01*
X192288Y-23131D01*
X194691Y-25782D01*
X197342Y-28185D01*
X200216Y-30316D01*
X203285Y-32156D01*
X206519Y-33686D01*
X209888Y-34891D01*
X213359Y-35761D01*
X216899Y-36286D01*
X220472Y-36461D01*
X224046Y-36286D01*
X227586Y-35761D01*
X231057Y-34891D01*
X234426Y-33686D01*
X237660Y-32156D01*
X240729Y-30316D01*
X243603Y-28185D01*
X246254Y-25782D01*
X248657Y-23131D01*
X250789Y-20257D01*
X252628Y-17188D01*
X254158Y-13953D01*
X255364Y-10584D01*
X256233Y-7113D01*
X256758Y-3574D01*
X256934Y0D01*
X256758Y3574D01*
X256233Y7113D01*
X255364Y10584D01*
X254158Y13953D01*
X252628Y17188D01*
X250789Y20257D01*
X248657Y23131D01*
X246254Y25782D01*
X243603Y28185D01*
X240729Y30316D01*
X237660Y32156D01*
X234426Y33686D01*
X231057Y34891D01*
X227586Y35761D01*
X224046Y36286D01*
X220472Y36461D01*
D02*
G37*
G36*
X94488D02*
X90914Y36286D01*
X87375Y35761D01*
X83904Y34891D01*
X80535Y33686D01*
X77301Y32156D01*
X74231Y30316D01*
X71357Y28185D01*
X68706Y25782D01*
X66303Y23131D01*
X64172Y20257D01*
X62332Y17188D01*
X60802Y13953D01*
X59597Y10584D01*
X58728Y7113D01*
X58202Y3574D01*
X58027Y0D01*
X58202Y-3574D01*
X58728Y-7113D01*
X59597Y-10584D01*
X60802Y-13953D01*
X62332Y-17188D01*
X64172Y-20257D01*
X66303Y-23131D01*
X68706Y-25782D01*
X71357Y-28185D01*
X74231Y-30316D01*
X77301Y-32156D01*
X80535Y-33686D01*
X83904Y-34891D01*
X87375Y-35761D01*
X90914Y-36286D01*
X94488Y-36461D01*
X98062Y-36286D01*
X101601Y-35761D01*
X105072Y-34891D01*
X108441Y-33686D01*
X111676Y-32156D01*
X114745Y-30316D01*
X117619Y-28185D01*
X120270Y-25782D01*
X122673Y-23131D01*
X124805Y-20257D01*
X126644Y-17188D01*
X128174Y-13953D01*
X129379Y-10584D01*
X129617Y-9637D01*
X131265Y-9137D01*
X132975Y-8223D01*
X134474Y-6993D01*
X135704Y-5495D01*
X136618Y-3785D01*
X137180Y-1929D01*
X137371Y0D01*
X137180Y1929D01*
X136618Y3785D01*
X135704Y5495D01*
X134474Y6993D01*
X132975Y8223D01*
X131265Y9137D01*
X129617Y9637D01*
X129379Y10584D01*
X128174Y13953D01*
X126644Y17188D01*
X124805Y20257D01*
X122673Y23131D01*
X120270Y25782D01*
X117619Y28185D01*
X114745Y30316D01*
X111676Y32156D01*
X108441Y33686D01*
X105072Y34891D01*
X101601Y35761D01*
X98062Y36286D01*
X94488Y36461D01*
D02*
G37*
G36*
X-94488D02*
X-98062Y36286D01*
X-101601Y35761D01*
X-105072Y34891D01*
X-108441Y33686D01*
X-111676Y32156D01*
X-114745Y30316D01*
X-117619Y28185D01*
X-120270Y25782D01*
X-122673Y23131D01*
X-124805Y20257D01*
X-126644Y17188D01*
X-128174Y13953D01*
X-129379Y10584D01*
X-129617Y9637D01*
X-131265Y9137D01*
X-132975Y8223D01*
X-134474Y6993D01*
X-135704Y5495D01*
X-136618Y3785D01*
X-137180Y1929D01*
X-137370Y0D01*
X-137180Y-1929D01*
X-136618Y-3785D01*
X-135704Y-5495D01*
X-134474Y-6993D01*
X-132975Y-8223D01*
X-131265Y-9137D01*
X-129617Y-9637D01*
X-129379Y-10584D01*
X-128174Y-13953D01*
X-126644Y-17188D01*
X-124805Y-20257D01*
X-122673Y-23131D01*
X-120270Y-25782D01*
X-117619Y-28185D01*
X-114745Y-30316D01*
X-111676Y-32156D01*
X-108441Y-33686D01*
X-105072Y-34891D01*
X-101601Y-35761D01*
X-98062Y-36286D01*
X-94488Y-36461D01*
X-90914Y-36286D01*
X-87375Y-35761D01*
X-83904Y-34891D01*
X-80535Y-33686D01*
X-77301Y-32156D01*
X-74231Y-30316D01*
X-71357Y-28185D01*
X-68706Y-25782D01*
X-66303Y-23131D01*
X-64172Y-20257D01*
X-62332Y-17188D01*
X-60802Y-13953D01*
X-59597Y-10584D01*
X-58728Y-7113D01*
X-58202Y-3574D01*
X-58027Y0D01*
X-58202Y3574D01*
X-58728Y7113D01*
X-59597Y10584D01*
X-60802Y13953D01*
X-62332Y17188D01*
X-64172Y20257D01*
X-66303Y23131D01*
X-68706Y25782D01*
X-71357Y28185D01*
X-74231Y30316D01*
X-77301Y32156D01*
X-80535Y33686D01*
X-83904Y34891D01*
X-87375Y35761D01*
X-90914Y36286D01*
X-94488Y36461D01*
D02*
G37*
G36*
X44291Y-125948D02*
X42438Y-126094D01*
X40630Y-126528D01*
X38913Y-127239D01*
X37328Y-128210D01*
X35914Y-129418D01*
X34707Y-130832D01*
X33735Y-132417D01*
X33024Y-134134D01*
X32590Y-135942D01*
X32444Y-137795D01*
X32590Y-139649D01*
X33024Y-141456D01*
X33735Y-143174D01*
X34707Y-144759D01*
X35914Y-146173D01*
X37328Y-147380D01*
X38913Y-148352D01*
X40630Y-149063D01*
X42438Y-149497D01*
X44291Y-149643D01*
X46145Y-149497D01*
X47952Y-149063D01*
X49670Y-148352D01*
X51255Y-147380D01*
X52669Y-146173D01*
X53876Y-144759D01*
X54848Y-143174D01*
X55559Y-141456D01*
X55993Y-139649D01*
X56139Y-137795D01*
X55993Y-135942D01*
X55559Y-134134D01*
X54848Y-132417D01*
X53876Y-130832D01*
X52669Y-129418D01*
X51255Y-128210D01*
X49670Y-127239D01*
X47952Y-126528D01*
X46145Y-126094D01*
X44291Y-125948D01*
D02*
G37*
G36*
X141732Y-149564D02*
X127953D01*
X125791Y-149734D01*
X123681Y-150240D01*
X121678Y-151070D01*
X119828Y-152204D01*
X118179Y-153612D01*
X116770Y-155261D01*
X115637Y-157111D01*
X114807Y-159115D01*
X114301Y-161224D01*
X114131Y-163386D01*
X114301Y-165548D01*
X114807Y-167657D01*
X115637Y-169661D01*
X116770Y-171510D01*
X118179Y-173160D01*
X119828Y-174568D01*
X120446Y-174947D01*
Y-175447D01*
X119828Y-175826D01*
X118179Y-177234D01*
X116770Y-178883D01*
X115637Y-180733D01*
X114807Y-182737D01*
X114301Y-184846D01*
X114131Y-187008D01*
X114301Y-189170D01*
X114807Y-191279D01*
X115637Y-193283D01*
X116770Y-195132D01*
X118179Y-196782D01*
X119828Y-198190D01*
X121678Y-199323D01*
X123681Y-200153D01*
X125791Y-200660D01*
X127953Y-200830D01*
X141732D01*
X143895Y-200660D01*
X146003Y-200153D01*
X148007Y-199323D01*
X149857Y-198190D01*
X151506Y-196782D01*
X152915Y-195132D01*
X154048Y-193283D01*
X154878Y-191279D01*
X155384Y-189170D01*
X155554Y-187008D01*
X155384Y-184846D01*
X154878Y-182737D01*
X154048Y-180733D01*
X152915Y-178883D01*
X151506Y-177234D01*
X149857Y-175826D01*
X149239Y-175447D01*
Y-174947D01*
X149857Y-174568D01*
X151506Y-173160D01*
X152915Y-171510D01*
X154048Y-169661D01*
X154878Y-167657D01*
X155384Y-165548D01*
X155554Y-163386D01*
X155384Y-161224D01*
X154878Y-159115D01*
X154048Y-157111D01*
X152915Y-155261D01*
X151506Y-153612D01*
X149857Y-152204D01*
X148007Y-151070D01*
X146003Y-150240D01*
X143895Y-149734D01*
X141732Y-149564D01*
D02*
G37*
G36*
X73819Y-156457D02*
X36417D01*
X33658Y-156612D01*
X30933Y-157075D01*
X28278Y-157840D01*
X25724Y-158898D01*
X23305Y-160235D01*
X21051Y-161834D01*
X18991Y-163676D01*
X17149Y-165736D01*
X15550Y-167990D01*
X14213Y-170409D01*
X13155Y-172963D01*
X12390Y-175618D01*
X12132Y-177137D01*
X7874D01*
X6716Y-177251D01*
X5603Y-177588D01*
X4922Y-177953D01*
X2559D01*
Y-180487D01*
X2392Y-180800D01*
X2054Y-181913D01*
X1940Y-183071D01*
Y-250000D01*
X2054Y-251158D01*
X2392Y-252271D01*
X2559Y-252584D01*
Y-255118D01*
X4922D01*
X5603Y-255482D01*
X6716Y-255820D01*
X7874Y-255934D01*
X12132D01*
X12390Y-257453D01*
X13155Y-260108D01*
X14213Y-262662D01*
X15550Y-265080D01*
X17149Y-267335D01*
X18991Y-269395D01*
X21051Y-271237D01*
X23305Y-272836D01*
X25724Y-274173D01*
X28278Y-275231D01*
X30933Y-275996D01*
X33658Y-276459D01*
X36417Y-276614D01*
X73819D01*
X76578Y-276459D01*
X79303Y-275996D01*
X81959Y-275231D01*
X84512Y-274173D01*
X86931Y-272836D01*
X89185Y-271237D01*
X91246Y-269395D01*
X93087Y-267335D01*
X94687Y-265080D01*
X96023Y-262662D01*
X97081Y-260108D01*
X97846Y-257453D01*
X98309Y-254728D01*
X98464Y-251969D01*
Y-181102D01*
X98309Y-178343D01*
X97846Y-175618D01*
X97081Y-172963D01*
X96023Y-170409D01*
X94687Y-167990D01*
X93087Y-165736D01*
X91246Y-163676D01*
X89185Y-161834D01*
X86931Y-160235D01*
X84512Y-158898D01*
X81959Y-157840D01*
X79303Y-157075D01*
X76578Y-156612D01*
X73819Y-156457D01*
D02*
G37*
G36*
X-198346Y-143653D02*
X-200276Y-143843D01*
X-202131Y-144406D01*
X-203841Y-145320D01*
X-205340Y-146550D01*
X-206570Y-148049D01*
X-207484Y-149759D01*
X-208047Y-151614D01*
X-208237Y-153543D01*
X-208047Y-155473D01*
X-207484Y-157328D01*
X-206570Y-159038D01*
X-205340Y-160537D01*
X-203841Y-161767D01*
X-202131Y-162681D01*
X-200826Y-163077D01*
Y-163386D01*
X-200674Y-164929D01*
X-200223Y-166414D01*
X-199492Y-167782D01*
X-198508Y-168981D01*
X-197921Y-169568D01*
X-198386Y-170409D01*
X-199443Y-172963D01*
X-200208Y-175618D01*
X-200671Y-178343D01*
X-200826Y-181102D01*
Y-251969D01*
X-200671Y-254728D01*
X-200208Y-257453D01*
X-199443Y-260108D01*
X-198386Y-262662D01*
X-197049Y-265080D01*
X-195449Y-267335D01*
X-193608Y-269395D01*
X-191547Y-271237D01*
X-189293Y-272836D01*
X-186874Y-274173D01*
X-184321Y-275231D01*
X-181665Y-275996D01*
X-178940Y-276459D01*
X-176181Y-276614D01*
X-138779D01*
X-136020Y-276459D01*
X-133296Y-275996D01*
X-130640Y-275231D01*
X-128086Y-274173D01*
X-125668Y-272836D01*
X-123414Y-271237D01*
X-121353Y-269395D01*
X-119511Y-267335D01*
X-117912Y-265080D01*
X-116575Y-262662D01*
X-115517Y-260108D01*
X-114752Y-257453D01*
X-114289Y-254728D01*
X-114135Y-251969D01*
Y-181102D01*
X-114289Y-178343D01*
X-114752Y-175618D01*
X-115517Y-172963D01*
X-116575Y-170409D01*
X-117912Y-167990D01*
X-119511Y-165736D01*
X-121353Y-163676D01*
X-123414Y-161834D01*
X-125668Y-160235D01*
X-128086Y-158898D01*
X-130640Y-157840D01*
X-133296Y-157075D01*
X-136020Y-156612D01*
X-138779Y-156457D01*
X-176181D01*
X-178940Y-156612D01*
X-181665Y-157075D01*
X-184321Y-157840D01*
X-184694Y-157995D01*
X-185123Y-157738D01*
X-185153Y-157433D01*
X-185603Y-155948D01*
X-186335Y-154581D01*
X-187319Y-153382D01*
X-188598Y-152102D01*
X-188646Y-151614D01*
X-189209Y-149759D01*
X-190123Y-148049D01*
X-191353Y-146550D01*
X-192852Y-145320D01*
X-194562Y-144406D01*
X-196417Y-143843D01*
X-198346Y-143653D01*
D02*
G37*
G36*
X141732Y-232241D02*
X127953D01*
X125791Y-232411D01*
X123681Y-232917D01*
X121678Y-233747D01*
X119828Y-234881D01*
X118179Y-236289D01*
X116770Y-237938D01*
X115637Y-239788D01*
X114807Y-241792D01*
X114301Y-243901D01*
X114131Y-246063D01*
X114301Y-248225D01*
X114807Y-250334D01*
X115637Y-252338D01*
X116770Y-254187D01*
X118179Y-255837D01*
X119828Y-257245D01*
X120446Y-257624D01*
Y-258124D01*
X119828Y-258503D01*
X118179Y-259911D01*
X116770Y-261561D01*
X115637Y-263410D01*
X114807Y-265414D01*
X114301Y-267523D01*
X114131Y-269685D01*
X114301Y-271847D01*
X114807Y-273956D01*
X115637Y-275960D01*
X116770Y-277810D01*
X118179Y-279459D01*
X119828Y-280867D01*
X121678Y-282001D01*
X123681Y-282831D01*
X125791Y-283337D01*
X127953Y-283507D01*
X141732D01*
X143895Y-283337D01*
X146003Y-282831D01*
X148007Y-282001D01*
X149857Y-280867D01*
X151506Y-279459D01*
X152915Y-277810D01*
X154048Y-275960D01*
X154878Y-273956D01*
X155384Y-271847D01*
X155554Y-269685D01*
X155384Y-267523D01*
X154878Y-265414D01*
X154048Y-263410D01*
X152915Y-261561D01*
X151506Y-259911D01*
X149857Y-258503D01*
X149239Y-258124D01*
Y-257624D01*
X149857Y-257245D01*
X151506Y-255837D01*
X152915Y-254187D01*
X154048Y-252338D01*
X154878Y-250334D01*
X155384Y-248225D01*
X155554Y-246063D01*
X155384Y-243901D01*
X154878Y-241792D01*
X154048Y-239788D01*
X152915Y-237938D01*
X151506Y-236289D01*
X149857Y-234881D01*
X148007Y-233747D01*
X146003Y-232917D01*
X143895Y-232411D01*
X141732Y-232241D01*
D02*
G37*
G36*
X230906Y-284406D02*
X228743Y-284576D01*
X226634Y-285083D01*
X224630Y-285913D01*
X222781Y-287046D01*
X221132Y-288455D01*
X219723Y-290104D01*
X218590Y-291953D01*
X217760Y-293957D01*
X217253Y-296066D01*
X217083Y-298228D01*
X217253Y-300391D01*
X217760Y-302500D01*
X218590Y-304503D01*
X219723Y-306353D01*
X221132Y-308002D01*
X222781Y-309411D01*
X224630Y-310544D01*
X226634Y-311374D01*
X228743Y-311880D01*
X230906Y-312051D01*
X233068Y-311880D01*
X235177Y-311374D01*
X237181Y-310544D01*
X239030Y-309411D01*
X240679Y-308002D01*
X242088Y-306353D01*
X243221Y-304503D01*
X244051Y-302500D01*
X244557Y-300391D01*
X244728Y-298228D01*
X244557Y-296066D01*
X244051Y-293957D01*
X243221Y-291953D01*
X242088Y-290104D01*
X240679Y-288455D01*
X239030Y-287046D01*
X237181Y-285913D01*
X235177Y-285083D01*
X233068Y-284576D01*
X230906Y-284406D01*
D02*
G37*
G36*
X150984D02*
X148822Y-284576D01*
X146713Y-285083D01*
X144709Y-285913D01*
X142860Y-287046D01*
X141210Y-288455D01*
X139802Y-290104D01*
X138669Y-291953D01*
X137839Y-293957D01*
X137332Y-296066D01*
X137162Y-298228D01*
X137332Y-300391D01*
X137839Y-302500D01*
X138669Y-304503D01*
X139802Y-306353D01*
X141210Y-308002D01*
X142860Y-309411D01*
X144709Y-310544D01*
X146713Y-311374D01*
X148822Y-311880D01*
X150984Y-312051D01*
X153147Y-311880D01*
X155255Y-311374D01*
X157259Y-310544D01*
X159109Y-309411D01*
X160758Y-308002D01*
X162167Y-306353D01*
X163300Y-304503D01*
X164130Y-302500D01*
X164636Y-300391D01*
X164806Y-298228D01*
X164636Y-296066D01*
X164130Y-293957D01*
X163300Y-291953D01*
X162167Y-290104D01*
X160758Y-288455D01*
X159109Y-287046D01*
X157259Y-285913D01*
X155255Y-285083D01*
X153147Y-284576D01*
X150984Y-284406D01*
D02*
G37*
G36*
X103347Y-438343D02*
X101184Y-438513D01*
X99075Y-439020D01*
X97071Y-439850D01*
X95222Y-440983D01*
X93573Y-442392D01*
X92164Y-444041D01*
X91031Y-445890D01*
X90201Y-447894D01*
X89694Y-450003D01*
X89524Y-452165D01*
X89694Y-454328D01*
X90201Y-456437D01*
X91031Y-458440D01*
X92164Y-460290D01*
X93573Y-461939D01*
X95222Y-463348D01*
X97071Y-464481D01*
X99075Y-465311D01*
X101184Y-465817D01*
X103347Y-465987D01*
X105509Y-465817D01*
X107618Y-465311D01*
X109622Y-464481D01*
X111471Y-463348D01*
X113120Y-461939D01*
X114529Y-460290D01*
X115662Y-458440D01*
X116492Y-456437D01*
X116998Y-454328D01*
X117169Y-452165D01*
X116998Y-450003D01*
X116492Y-447894D01*
X115662Y-445890D01*
X114529Y-444041D01*
X113120Y-442392D01*
X111471Y-440983D01*
X109622Y-439850D01*
X107618Y-439020D01*
X105509Y-438513D01*
X103347Y-438343D01*
D02*
G37*
G36*
X-150984Y-491099D02*
X-153147Y-491269D01*
X-155255Y-491776D01*
X-157259Y-492606D01*
X-159109Y-493739D01*
X-160758Y-495148D01*
X-162167Y-496797D01*
X-163300Y-498646D01*
X-164130Y-500650D01*
X-164636Y-502759D01*
X-164806Y-504921D01*
X-164636Y-507084D01*
X-164130Y-509193D01*
X-163300Y-511196D01*
X-162167Y-513046D01*
X-160758Y-514695D01*
X-159109Y-516104D01*
X-157259Y-517237D01*
X-155255Y-518067D01*
X-153147Y-518573D01*
X-150984Y-518743D01*
X-148822Y-518573D01*
X-146713Y-518067D01*
X-144709Y-517237D01*
X-142860Y-516104D01*
X-141210Y-514695D01*
X-139802Y-513046D01*
X-138669Y-511196D01*
X-137839Y-509193D01*
X-137332Y-507084D01*
X-137162Y-504921D01*
X-137332Y-502759D01*
X-137839Y-500650D01*
X-138669Y-498646D01*
X-139802Y-496797D01*
X-141210Y-495148D01*
X-142860Y-493739D01*
X-144709Y-492606D01*
X-146713Y-491776D01*
X-148822Y-491269D01*
X-150984Y-491099D01*
D02*
G37*
G36*
X103347Y-518264D02*
X101184Y-518435D01*
X99075Y-518941D01*
X97071Y-519771D01*
X95222Y-520904D01*
X93573Y-522313D01*
X92164Y-523962D01*
X91031Y-525811D01*
X90201Y-527815D01*
X89694Y-529924D01*
X89524Y-532087D01*
X89694Y-534249D01*
X90201Y-536358D01*
X91031Y-538362D01*
X92164Y-540211D01*
X93573Y-541860D01*
X95222Y-543269D01*
X97071Y-544402D01*
X99075Y-545232D01*
X101184Y-545739D01*
X103347Y-545909D01*
X105509Y-545739D01*
X107618Y-545232D01*
X109622Y-544402D01*
X111471Y-543269D01*
X113120Y-541860D01*
X114529Y-540211D01*
X115662Y-538362D01*
X116492Y-536358D01*
X116998Y-534249D01*
X117169Y-532087D01*
X116998Y-529924D01*
X116492Y-527815D01*
X115662Y-525811D01*
X114529Y-523962D01*
X113120Y-522313D01*
X111471Y-520904D01*
X109622Y-519771D01*
X107618Y-518941D01*
X105509Y-518435D01*
X103347Y-518264D01*
D02*
G37*
%LPD*%
D10*
X-258347Y-153543D02*
X-258347Y-153543D01*
D14*
X-4134Y242126D02*
D03*
X12008D02*
D03*
X-4134Y190945D02*
D03*
X12008D02*
D03*
X-4134Y-242126D02*
D03*
X12008D02*
D03*
X-4134Y-190945D02*
D03*
X12008D02*
D03*
D15*
X12697Y216535D02*
D03*
X-4823D02*
D03*
X12697Y-216535D02*
D03*
X-4823D02*
D03*
D27*
X-258347Y153543D02*
X-258347Y-153543D01*
D28*
X-192913Y163386D02*
X-187008Y169291D01*
X-192913Y158976D02*
Y163386D01*
X-198346Y153543D02*
X-192913Y158976D01*
X-198346Y-153543D02*
X-192913Y-158976D01*
Y-163386D02*
Y-158976D01*
Y-163386D02*
X-187008Y-169291D01*
D29*
X13780Y216535D02*
D03*
Y-216535D02*
D03*
D30*
X188976Y539370D02*
D03*
X240158D02*
D03*
X-188976Y539370D02*
D03*
X-240158D02*
D03*
X188976Y-539370D02*
D03*
X240158D02*
D03*
X-240158Y-539370D02*
D03*
X-188976D02*
D03*
D31*
X220472Y0D02*
D03*
X94488D02*
D03*
X-220472D02*
D03*
X-94488D02*
D03*
D32*
X-187480D02*
D03*
X-127480D02*
D03*
X127480D02*
D03*
X187480D02*
D03*
X-258347Y153543D02*
D03*
X-198346D02*
D03*
Y-153543D02*
D03*
X-258347D02*
D03*
D33*
X-150984Y298228D02*
D03*
Y504921D02*
D03*
X-230906D02*
D03*
Y298228D02*
D03*
X150984Y504921D02*
D03*
Y298228D02*
D03*
X230906D02*
D03*
Y504921D02*
D03*
X-103347Y452165D02*
D03*
X103347D02*
D03*
Y532087D02*
D03*
X-103347D02*
D03*
X230906Y-504921D02*
D03*
Y-298228D02*
D03*
X150984D02*
D03*
Y-504921D02*
D03*
X-103347Y-532087D02*
D03*
X103347D02*
D03*
Y-452165D02*
D03*
X-103347D02*
D03*
X-150984Y-298228D02*
D03*
Y-504921D02*
D03*
X-230906D02*
D03*
Y-298228D02*
D03*
D34*
X-44291Y137795D02*
D03*
X44291D02*
D03*
X-44291Y-137795D02*
D03*
X44291D02*
D03*
D35*
X-157480Y-216535D02*
D03*
X55118D02*
D03*
Y216535D02*
D03*
X-157480D02*
D03*
D36*
X-51181Y-216535D02*
D03*
Y216535D02*
D03*
D37*
Y-240158D02*
D03*
Y-255906D02*
D03*
X-47244Y-263779D02*
D03*
X-43307Y-255906D02*
D03*
X-47244Y-248031D02*
D03*
X-43307Y-240158D02*
D03*
X-47244Y-232283D02*
D03*
X-39370D02*
D03*
X-35433Y-240158D02*
D03*
X-39370Y-248031D02*
D03*
X-31496Y-232283D02*
D03*
X-23622D02*
D03*
X-27559Y-240158D02*
D03*
X-31496Y-248031D02*
D03*
X-23622D02*
D03*
X-35433Y-255906D02*
D03*
X-27559D02*
D03*
X-39370Y-263779D02*
D03*
X-35433Y-224409D02*
D03*
X-27559D02*
D03*
X-31496Y-216535D02*
D03*
X-23622D02*
D03*
X-47244Y-169291D02*
D03*
X-43307Y-177165D02*
D03*
X-47244Y-185039D02*
D03*
X-43307Y-192913D02*
D03*
X-47244Y-200787D02*
D03*
X-39370D02*
D03*
X-35433Y-192913D02*
D03*
X-39370Y-185039D02*
D03*
X-31496Y-200787D02*
D03*
X-23622D02*
D03*
X-27559Y-192913D02*
D03*
X-31496Y-185039D02*
D03*
X-23622D02*
D03*
X-35433Y-177165D02*
D03*
X-27559D02*
D03*
X-39370Y-169291D02*
D03*
X-35433Y-208661D02*
D03*
X-27559D02*
D03*
X-51181Y-192913D02*
D03*
X-31496Y-263779D02*
D03*
Y-169291D02*
D03*
X-19685Y-224409D02*
D03*
Y-208661D02*
D03*
Y-192913D02*
D03*
Y-240158D02*
D03*
X-82677Y-192913D02*
D03*
Y-240158D02*
D03*
Y-224409D02*
D03*
Y-208661D02*
D03*
X-70866Y-263779D02*
D03*
Y-169291D02*
D03*
X-74803Y-224409D02*
D03*
X-66929D02*
D03*
X-62992Y-263779D02*
D03*
X-74803Y-255906D02*
D03*
X-66929D02*
D03*
X-78740Y-248031D02*
D03*
X-70866D02*
D03*
X-74803Y-240158D02*
D03*
X-78740Y-232283D02*
D03*
X-70866D02*
D03*
X-62992Y-248031D02*
D03*
X-66929Y-240158D02*
D03*
X-62992Y-232283D02*
D03*
X-55118D02*
D03*
X-59055Y-240158D02*
D03*
X-55118Y-248031D02*
D03*
X-59055Y-255906D02*
D03*
X-55118Y-263779D02*
D03*
X-78740Y-216535D02*
D03*
X-70866D02*
D03*
X-74803Y-208661D02*
D03*
X-66929D02*
D03*
X-62992Y-169291D02*
D03*
X-74803Y-177165D02*
D03*
X-66929D02*
D03*
X-78740Y-185039D02*
D03*
X-70866D02*
D03*
X-74803Y-192913D02*
D03*
X-78740Y-200787D02*
D03*
X-70866D02*
D03*
X-62992Y-185039D02*
D03*
X-66929Y-192913D02*
D03*
X-62992Y-200787D02*
D03*
X-55118D02*
D03*
X-59055Y-192913D02*
D03*
X-55118Y-185039D02*
D03*
X-59055Y-177165D02*
D03*
X-55118Y-169291D02*
D03*
X-51181Y-177165D02*
D03*
X88583Y-240158D02*
D03*
Y-192913D02*
D03*
Y-208661D02*
D03*
Y-224409D02*
D03*
X76772Y-169291D02*
D03*
Y-263779D02*
D03*
X57087Y-192913D02*
D03*
Y-177165D02*
D03*
X80709Y-208661D02*
D03*
X72835D02*
D03*
X68898Y-169291D02*
D03*
X80709Y-177165D02*
D03*
X72835D02*
D03*
X84646Y-185039D02*
D03*
X76772D02*
D03*
X80709Y-192913D02*
D03*
X84646Y-200787D02*
D03*
X76772D02*
D03*
X68898Y-185039D02*
D03*
X72835Y-192913D02*
D03*
X68898Y-200787D02*
D03*
X61024D02*
D03*
X64961Y-192913D02*
D03*
X61024Y-185039D02*
D03*
X64961Y-177165D02*
D03*
X61024Y-169291D02*
D03*
X84646Y-216535D02*
D03*
X76772D02*
D03*
X80709Y-224409D02*
D03*
X72835D02*
D03*
X68898Y-263779D02*
D03*
X80709Y-255906D02*
D03*
X72835D02*
D03*
X84646Y-248031D02*
D03*
X76772D02*
D03*
X80709Y-240158D02*
D03*
X84646Y-232283D02*
D03*
X76772D02*
D03*
X68898Y-248031D02*
D03*
X72835Y-240158D02*
D03*
X68898Y-232283D02*
D03*
X61024D02*
D03*
X64961Y-240158D02*
D03*
X61024Y-248031D02*
D03*
X64961Y-255906D02*
D03*
X61024Y-263779D02*
D03*
X57087Y-255906D02*
D03*
Y-240158D02*
D03*
X29528Y-263779D02*
D03*
Y-169291D02*
D03*
X49213Y-240158D02*
D03*
Y-255906D02*
D03*
X25591Y-224409D02*
D03*
X33465D02*
D03*
X37402Y-263779D02*
D03*
X25591Y-255906D02*
D03*
X33465D02*
D03*
X21654Y-248031D02*
D03*
X29528D02*
D03*
X25591Y-240158D02*
D03*
X21654Y-232283D02*
D03*
X29528D02*
D03*
X37402Y-248031D02*
D03*
X33465Y-240158D02*
D03*
X37402Y-232283D02*
D03*
X45276D02*
D03*
X41339Y-240158D02*
D03*
X45276Y-248031D02*
D03*
X41339Y-255906D02*
D03*
X45276Y-263779D02*
D03*
X21654Y-216535D02*
D03*
X29528D02*
D03*
X25591Y-208661D02*
D03*
X33465D02*
D03*
X37402Y-169291D02*
D03*
X25591Y-177165D02*
D03*
X33465D02*
D03*
X21654Y-185039D02*
D03*
X29528D02*
D03*
X25591Y-192913D02*
D03*
X21654Y-200787D02*
D03*
X29528D02*
D03*
X37402Y-185039D02*
D03*
X33465Y-192913D02*
D03*
X37402Y-200787D02*
D03*
X45276D02*
D03*
X41339Y-192913D02*
D03*
X45276Y-185039D02*
D03*
X41339Y-177165D02*
D03*
X45276Y-169291D02*
D03*
X49213Y-177165D02*
D03*
Y-192913D02*
D03*
X53150Y-232283D02*
D03*
Y-248031D02*
D03*
Y-263779D02*
D03*
Y-200787D02*
D03*
Y-185039D02*
D03*
Y-169291D02*
D03*
X88583Y-177165D02*
D03*
Y-255906D02*
D03*
X-78740Y-263779D02*
D03*
X-23622D02*
D03*
X-78740Y-169291D02*
D03*
X-23622D02*
D03*
X84646Y-263779D02*
D03*
Y-169291D02*
D03*
X-187008Y-263779D02*
D03*
Y-169291D02*
D03*
X-190945Y-177165D02*
D03*
Y-255906D02*
D03*
X-155512Y-263779D02*
D03*
Y-248031D02*
D03*
Y-232283D02*
D03*
Y-169291D02*
D03*
Y-185039D02*
D03*
Y-200787D02*
D03*
X-151575Y-240158D02*
D03*
Y-255906D02*
D03*
X-147638Y-263779D02*
D03*
X-143701Y-255906D02*
D03*
X-147638Y-248031D02*
D03*
X-143701Y-240158D02*
D03*
X-147638Y-232283D02*
D03*
X-139764D02*
D03*
X-135827Y-240158D02*
D03*
X-139764Y-248031D02*
D03*
X-131890Y-232283D02*
D03*
X-124016D02*
D03*
X-127953Y-240158D02*
D03*
X-131890Y-248031D02*
D03*
X-124016D02*
D03*
X-135827Y-255906D02*
D03*
X-127953D02*
D03*
X-139764Y-263779D02*
D03*
X-135827Y-224409D02*
D03*
X-127953D02*
D03*
X-131890Y-216535D02*
D03*
X-124016D02*
D03*
X-147638Y-169291D02*
D03*
X-143701Y-177165D02*
D03*
X-147638Y-185039D02*
D03*
X-143701Y-192913D02*
D03*
X-147638Y-200787D02*
D03*
X-139764D02*
D03*
X-135827Y-192913D02*
D03*
X-139764Y-185039D02*
D03*
X-131890Y-200787D02*
D03*
X-124016D02*
D03*
X-127953Y-192913D02*
D03*
X-131890Y-185039D02*
D03*
X-124016D02*
D03*
X-135827Y-177165D02*
D03*
X-127953D02*
D03*
X-139764Y-169291D02*
D03*
X-135827Y-208661D02*
D03*
X-127953D02*
D03*
X-151575Y-177165D02*
D03*
Y-192913D02*
D03*
X-131890Y-263779D02*
D03*
Y-169291D02*
D03*
X-159449Y-192913D02*
D03*
Y-177165D02*
D03*
X-163386Y-169291D02*
D03*
X-167323Y-177165D02*
D03*
X-163386Y-185039D02*
D03*
X-167323Y-192913D02*
D03*
X-163386Y-200787D02*
D03*
X-171260D02*
D03*
X-175197Y-192913D02*
D03*
X-171260Y-185039D02*
D03*
X-179134Y-200787D02*
D03*
X-187008D02*
D03*
X-183071Y-192913D02*
D03*
X-179134Y-185039D02*
D03*
X-187008D02*
D03*
X-175197Y-177165D02*
D03*
X-183071D02*
D03*
X-171260Y-169291D02*
D03*
X-175197Y-208661D02*
D03*
X-183071D02*
D03*
X-179134Y-216535D02*
D03*
X-187008D02*
D03*
X-163386Y-263779D02*
D03*
X-167323Y-255906D02*
D03*
X-163386Y-248031D02*
D03*
X-167323Y-240158D02*
D03*
X-163386Y-232283D02*
D03*
X-171260D02*
D03*
X-175197Y-240158D02*
D03*
X-171260Y-248031D02*
D03*
X-179134Y-232283D02*
D03*
X-187008D02*
D03*
X-183071Y-240158D02*
D03*
X-179134Y-248031D02*
D03*
X-187008D02*
D03*
X-175197Y-255906D02*
D03*
X-183071D02*
D03*
X-171260Y-263779D02*
D03*
X-175197Y-224409D02*
D03*
X-183071D02*
D03*
X-159449Y-255906D02*
D03*
Y-240158D02*
D03*
X-179134Y-169291D02*
D03*
Y-263779D02*
D03*
X-190945Y-208661D02*
D03*
Y-224409D02*
D03*
Y-240158D02*
D03*
Y-192913D02*
D03*
Y240158D02*
D03*
Y192913D02*
D03*
Y208661D02*
D03*
Y224409D02*
D03*
X-179134Y169291D02*
D03*
Y263779D02*
D03*
X-159449Y192913D02*
D03*
Y177165D02*
D03*
X-183071Y208661D02*
D03*
X-175197D02*
D03*
X-171260Y169291D02*
D03*
X-183071Y177165D02*
D03*
X-175197D02*
D03*
X-187008Y185039D02*
D03*
X-179134D02*
D03*
X-183071Y192913D02*
D03*
X-187008Y200787D02*
D03*
X-179134D02*
D03*
X-171260Y185039D02*
D03*
X-175197Y192913D02*
D03*
X-171260Y200787D02*
D03*
X-163386D02*
D03*
X-167323Y192913D02*
D03*
X-163386Y185039D02*
D03*
X-167323Y177165D02*
D03*
X-163386Y169291D02*
D03*
X-187008Y216535D02*
D03*
X-179134D02*
D03*
X-183071Y224409D02*
D03*
X-175197D02*
D03*
X-171260Y263779D02*
D03*
X-183071Y255906D02*
D03*
X-175197D02*
D03*
X-187008Y248031D02*
D03*
X-179134D02*
D03*
X-183071Y240158D02*
D03*
X-187008Y232283D02*
D03*
X-179134D02*
D03*
X-171260Y248031D02*
D03*
X-175197Y240158D02*
D03*
X-171260Y232283D02*
D03*
X-163386D02*
D03*
X-167323Y240158D02*
D03*
X-163386Y248031D02*
D03*
X-167323Y255906D02*
D03*
X-163386Y263779D02*
D03*
X-159449Y255906D02*
D03*
Y240158D02*
D03*
X-131890Y263779D02*
D03*
Y169291D02*
D03*
X-151575Y240158D02*
D03*
Y255906D02*
D03*
X-127953Y224409D02*
D03*
X-135827D02*
D03*
X-139764Y263779D02*
D03*
X-127953Y255906D02*
D03*
X-135827D02*
D03*
X-124016Y248031D02*
D03*
X-131890D02*
D03*
X-127953Y240158D02*
D03*
X-124016Y232283D02*
D03*
X-131890D02*
D03*
X-139764Y248031D02*
D03*
X-135827Y240158D02*
D03*
X-139764Y232283D02*
D03*
X-147638D02*
D03*
X-143701Y240158D02*
D03*
X-147638Y248031D02*
D03*
X-143701Y255906D02*
D03*
X-147638Y263779D02*
D03*
X-124016Y216535D02*
D03*
X-131890D02*
D03*
X-127953Y208661D02*
D03*
X-135827D02*
D03*
X-139764Y169291D02*
D03*
X-127953Y177165D02*
D03*
X-135827D02*
D03*
X-124016Y185039D02*
D03*
X-131890D02*
D03*
X-127953Y192913D02*
D03*
X-124016Y200787D02*
D03*
X-131890D02*
D03*
X-139764Y185039D02*
D03*
X-135827Y192913D02*
D03*
X-139764Y200787D02*
D03*
X-147638D02*
D03*
X-143701Y192913D02*
D03*
X-147638Y185039D02*
D03*
X-143701Y177165D02*
D03*
X-147638Y169291D02*
D03*
X-151575Y177165D02*
D03*
Y192913D02*
D03*
X-155512Y232283D02*
D03*
Y248031D02*
D03*
Y263779D02*
D03*
Y200787D02*
D03*
Y185039D02*
D03*
Y169291D02*
D03*
X-190945Y177165D02*
D03*
Y255906D02*
D03*
X-187008Y263779D02*
D03*
Y169291D02*
D03*
X84646Y263779D02*
D03*
Y169291D02*
D03*
X-23622Y263779D02*
D03*
X-78740D02*
D03*
X-23622Y169291D02*
D03*
X-78740D02*
D03*
X88583Y177165D02*
D03*
Y255906D02*
D03*
X53150Y263779D02*
D03*
Y248031D02*
D03*
Y232283D02*
D03*
Y169291D02*
D03*
Y185039D02*
D03*
Y200787D02*
D03*
X49213Y240158D02*
D03*
Y255906D02*
D03*
X45276Y263779D02*
D03*
X41339Y255906D02*
D03*
X45276Y248031D02*
D03*
X41339Y240158D02*
D03*
X45276Y232283D02*
D03*
X37402D02*
D03*
X33465Y240158D02*
D03*
X37402Y248031D02*
D03*
X29528Y232283D02*
D03*
X21654D02*
D03*
X25591Y240158D02*
D03*
X29528Y248031D02*
D03*
X21654D02*
D03*
X33465Y255906D02*
D03*
X25591D02*
D03*
X37402Y263779D02*
D03*
X33465Y224409D02*
D03*
X25591D02*
D03*
X29528Y216535D02*
D03*
X21654D02*
D03*
X45276Y169291D02*
D03*
X41339Y177165D02*
D03*
X45276Y185039D02*
D03*
X41339Y192913D02*
D03*
X45276Y200787D02*
D03*
X37402D02*
D03*
X33465Y192913D02*
D03*
X37402Y185039D02*
D03*
X29528Y200787D02*
D03*
X21654D02*
D03*
X25591Y192913D02*
D03*
X29528Y185039D02*
D03*
X21654D02*
D03*
X33465Y177165D02*
D03*
X25591D02*
D03*
X37402Y169291D02*
D03*
X33465Y208661D02*
D03*
X25591D02*
D03*
X49213Y177165D02*
D03*
Y192913D02*
D03*
X29528Y263779D02*
D03*
Y169291D02*
D03*
X57087Y192913D02*
D03*
Y177165D02*
D03*
X61024Y169291D02*
D03*
X64961Y177165D02*
D03*
X61024Y185039D02*
D03*
X64961Y192913D02*
D03*
X61024Y200787D02*
D03*
X68898D02*
D03*
X72835Y192913D02*
D03*
X68898Y185039D02*
D03*
X76772Y200787D02*
D03*
X84646D02*
D03*
X80709Y192913D02*
D03*
X76772Y185039D02*
D03*
X84646D02*
D03*
X72835Y177165D02*
D03*
X80709D02*
D03*
X68898Y169291D02*
D03*
X72835Y208661D02*
D03*
X80709D02*
D03*
X76772Y216535D02*
D03*
X84646D02*
D03*
X61024Y263779D02*
D03*
X64961Y255906D02*
D03*
X61024Y248031D02*
D03*
X64961Y240158D02*
D03*
X61024Y232283D02*
D03*
X68898D02*
D03*
X72835Y240158D02*
D03*
X68898Y248031D02*
D03*
X76772Y232283D02*
D03*
X84646D02*
D03*
X80709Y240158D02*
D03*
X76772Y248031D02*
D03*
X84646D02*
D03*
X72835Y255906D02*
D03*
X80709D02*
D03*
X68898Y263779D02*
D03*
X72835Y224409D02*
D03*
X80709D02*
D03*
X57087Y255906D02*
D03*
Y240158D02*
D03*
X76772Y169291D02*
D03*
Y263779D02*
D03*
X88583Y208661D02*
D03*
Y224409D02*
D03*
Y240158D02*
D03*
Y192913D02*
D03*
X-51181Y255906D02*
D03*
X-55118Y263779D02*
D03*
X-59055Y255906D02*
D03*
X-55118Y248031D02*
D03*
X-59055Y240158D02*
D03*
X-55118Y232283D02*
D03*
X-62992D02*
D03*
X-66929Y240158D02*
D03*
X-62992Y248031D02*
D03*
X-70866Y232283D02*
D03*
X-78740D02*
D03*
X-74803Y240158D02*
D03*
X-70866Y248031D02*
D03*
X-78740D02*
D03*
X-66929Y255906D02*
D03*
X-74803D02*
D03*
X-62992Y263779D02*
D03*
X-66929Y224409D02*
D03*
X-74803D02*
D03*
X-70866Y216535D02*
D03*
X-78740D02*
D03*
X-55118Y169291D02*
D03*
X-59055Y177165D02*
D03*
X-55118Y185039D02*
D03*
X-59055Y192913D02*
D03*
X-55118Y200787D02*
D03*
X-62992D02*
D03*
X-66929Y192913D02*
D03*
X-62992Y185039D02*
D03*
X-70866Y200787D02*
D03*
X-78740D02*
D03*
X-74803Y192913D02*
D03*
X-70866Y185039D02*
D03*
X-78740D02*
D03*
X-66929Y177165D02*
D03*
X-74803D02*
D03*
X-62992Y169291D02*
D03*
X-66929Y208661D02*
D03*
X-74803D02*
D03*
X-70866Y263779D02*
D03*
Y169291D02*
D03*
X-82677Y224409D02*
D03*
Y208661D02*
D03*
Y192913D02*
D03*
Y240158D02*
D03*
X-19685Y192913D02*
D03*
Y240158D02*
D03*
Y224409D02*
D03*
Y208661D02*
D03*
X-31496Y263779D02*
D03*
Y169291D02*
D03*
X-51181Y240158D02*
D03*
X-27559Y224409D02*
D03*
X-35433D02*
D03*
X-39370Y263779D02*
D03*
X-27559Y255906D02*
D03*
X-35433D02*
D03*
X-23622Y248031D02*
D03*
X-31496D02*
D03*
X-27559Y240158D02*
D03*
X-23622Y232283D02*
D03*
X-31496D02*
D03*
X-39370Y248031D02*
D03*
X-35433Y240158D02*
D03*
X-39370Y232283D02*
D03*
X-47244D02*
D03*
X-43307Y240158D02*
D03*
X-47244Y248031D02*
D03*
X-43307Y255906D02*
D03*
X-47244Y263779D02*
D03*
X-23622Y216535D02*
D03*
X-31496D02*
D03*
X-27559Y208661D02*
D03*
X-35433D02*
D03*
X-39370Y169291D02*
D03*
X-27559Y177165D02*
D03*
X-35433D02*
D03*
X-23622Y185039D02*
D03*
X-31496D02*
D03*
X-27559Y192913D02*
D03*
X-23622Y200787D02*
D03*
X-31496D02*
D03*
X-39370Y185039D02*
D03*
X-35433Y192913D02*
D03*
X-39370Y200787D02*
D03*
X-47244D02*
D03*
X-43307Y192913D02*
D03*
X-47244Y185039D02*
D03*
X-43307Y177165D02*
D03*
X-47244Y169291D02*
D03*
X-51181Y177165D02*
D03*
Y192913D02*
D03*
X195866Y551303D02*
D03*
X202756Y539370D02*
D03*
X200910Y546260D02*
D03*
Y532480D02*
D03*
X188976Y525591D02*
D03*
X195866Y527437D02*
D03*
X182087D02*
D03*
X175197Y539370D02*
D03*
X177043Y532480D02*
D03*
X182087Y551303D02*
D03*
X188976Y553150D02*
D03*
X177043Y546260D02*
D03*
X247047Y551303D02*
D03*
X253937Y539370D02*
D03*
X252091Y546260D02*
D03*
Y532480D02*
D03*
X240158Y525591D02*
D03*
X247047Y527437D02*
D03*
X233268D02*
D03*
X226378Y539370D02*
D03*
X228224Y532480D02*
D03*
Y546260D02*
D03*
X240158Y553150D02*
D03*
X233268Y551303D02*
D03*
X-195866Y551304D02*
D03*
X-202756Y539370D02*
D03*
X-200910Y546260D02*
D03*
Y532480D02*
D03*
X-188976Y525591D02*
D03*
X-195866Y527437D02*
D03*
X-182087D02*
D03*
X-175197Y539370D02*
D03*
X-177043Y532480D02*
D03*
X-182087Y551304D02*
D03*
X-188976Y553150D02*
D03*
X-177043Y546260D02*
D03*
X-247047Y551304D02*
D03*
X-253937Y539370D02*
D03*
X-252091Y546260D02*
D03*
Y532480D02*
D03*
X-240158Y525591D02*
D03*
X-247047Y527437D02*
D03*
X-233268D02*
D03*
X-226378Y539370D02*
D03*
X-228224Y532480D02*
D03*
Y546260D02*
D03*
X-240158Y553150D02*
D03*
X-233268Y551304D02*
D03*
X195866Y-551303D02*
D03*
X202756Y-539370D02*
D03*
X200910Y-546260D02*
D03*
Y-532480D02*
D03*
X188976Y-525591D02*
D03*
X195866Y-527437D02*
D03*
X182087D02*
D03*
X175197Y-539370D02*
D03*
X177043Y-532480D02*
D03*
X182087Y-551303D02*
D03*
X188976Y-553150D02*
D03*
X177043Y-546260D02*
D03*
X247047Y-551303D02*
D03*
X253937Y-539370D02*
D03*
X252091Y-546260D02*
D03*
Y-532480D02*
D03*
X240158Y-525591D02*
D03*
X247047Y-527437D02*
D03*
X233268D02*
D03*
X226378Y-539370D02*
D03*
X228224Y-532480D02*
D03*
Y-546260D02*
D03*
X240158Y-553150D02*
D03*
X233268Y-551303D02*
D03*
X-233268Y-551303D02*
D03*
X-240158Y-553150D02*
D03*
X-228224Y-546260D02*
D03*
Y-532480D02*
D03*
X-226378Y-539370D02*
D03*
X-233268Y-527437D02*
D03*
X-247047D02*
D03*
X-240158Y-525591D02*
D03*
X-252091Y-532480D02*
D03*
Y-546260D02*
D03*
X-253937Y-539370D02*
D03*
X-247047Y-551303D02*
D03*
X-177043Y-546260D02*
D03*
X-188976Y-553150D02*
D03*
X-182087Y-551303D02*
D03*
X-177043Y-532480D02*
D03*
X-175197Y-539370D02*
D03*
X-182087Y-527437D02*
D03*
X-195866D02*
D03*
X-188976Y-525591D02*
D03*
X-200910Y-532480D02*
D03*
Y-546260D02*
D03*
X-202756Y-539370D02*
D03*
X-195866Y-551303D02*
D03*
X232283Y-20457D02*
D03*
X228346Y-13638D02*
D03*
X240930Y-11811D02*
D03*
X234111Y-7874D02*
D03*
X244094Y-0D02*
D03*
X236221Y0D02*
D03*
X240930Y11811D02*
D03*
X234111Y7874D02*
D03*
X232283Y20457D02*
D03*
X228346Y13638D02*
D03*
X220473Y23622D02*
D03*
X220472Y15748D02*
D03*
X208661Y20457D02*
D03*
X212598Y13638D02*
D03*
X200015Y11811D02*
D03*
X206834Y7874D02*
D03*
X196850Y0D02*
D03*
X204724Y0D02*
D03*
X200015Y-11811D02*
D03*
X206834Y-7874D02*
D03*
X208661Y-20457D02*
D03*
X212598Y-13638D02*
D03*
X220472Y-23622D02*
D03*
X220472Y-15748D02*
D03*
X106299Y-20457D02*
D03*
X102362Y-13638D02*
D03*
X114945Y-11811D02*
D03*
X108126Y-7874D02*
D03*
X118110Y-0D02*
D03*
X110236Y0D02*
D03*
X114945Y11811D02*
D03*
X108126Y7874D02*
D03*
X106299Y20457D02*
D03*
X102362Y13638D02*
D03*
X94488Y23622D02*
D03*
X94488Y15748D02*
D03*
X82677Y20457D02*
D03*
X86614Y13638D02*
D03*
X74031Y11811D02*
D03*
X80850Y7874D02*
D03*
X70866Y0D02*
D03*
X78740Y0D02*
D03*
X74031Y-11811D02*
D03*
X80850Y-7874D02*
D03*
X82677Y-20457D02*
D03*
X86614Y-13638D02*
D03*
X94488Y-23622D02*
D03*
X94488Y-15748D02*
D03*
X-82677Y-20457D02*
D03*
X-86614Y-13638D02*
D03*
X-74031Y-11811D02*
D03*
X-80850Y-7874D02*
D03*
X-70866Y-0D02*
D03*
X-78740Y0D02*
D03*
X-74031Y11811D02*
D03*
X-80850Y7874D02*
D03*
X-82677Y20457D02*
D03*
X-86614Y13638D02*
D03*
X-94488Y23622D02*
D03*
X-94488Y15748D02*
D03*
X-106299Y20457D02*
D03*
X-102362Y13638D02*
D03*
X-114945Y11811D02*
D03*
X-108126Y7874D02*
D03*
X-118110Y0D02*
D03*
X-110236Y0D02*
D03*
X-114945Y-11811D02*
D03*
X-108126Y-7874D02*
D03*
X-106299Y-20457D02*
D03*
X-102362Y-13638D02*
D03*
X-94488Y-23622D02*
D03*
X-94488Y-15748D02*
D03*
X-220472D02*
D03*
X-220472Y-23622D02*
D03*
X-228346Y-13638D02*
D03*
X-232283Y-20457D02*
D03*
X-234111Y-7874D02*
D03*
X-240930Y-11811D02*
D03*
X-236221Y0D02*
D03*
X-244094Y0D02*
D03*
X-234111Y7874D02*
D03*
X-240930Y11811D02*
D03*
X-228346Y13638D02*
D03*
X-232283Y20457D02*
D03*
X-220472Y15748D02*
D03*
X-220472Y23622D02*
D03*
X-212598Y13638D02*
D03*
X-208661Y20457D02*
D03*
X-206834Y7874D02*
D03*
X-200015Y11811D02*
D03*
X-204724Y0D02*
D03*
X-196850Y-0D02*
D03*
X-206834Y-7874D02*
D03*
X-200015Y-11811D02*
D03*
X-212598Y-13638D02*
D03*
X-208661Y-20457D02*
D03*
M02*
