G04*
G04 #@! TF.GenerationSoftware,Altium Limited,Altium Designer,18.1.9 (240)*
G04*
G04 Layer_Color=128*
%FSLAX25Y25*%
%MOIN*%
G70*
G01*
G75*
%ADD38C,0.00200*%
D38*
X178740Y539370D02*
X199213D01*
X188976Y529134D02*
Y549606D01*
X229921Y539370D02*
X250394D01*
X240158Y529134D02*
Y549606D01*
X-199213Y539370D02*
X-178740D01*
X-188976Y529134D02*
Y549607D01*
X-250394Y539370D02*
X-229921D01*
X-240158Y529134D02*
Y549607D01*
X178740Y-539370D02*
X199213D01*
X188976Y-549606D02*
Y-529134D01*
X229921Y-539370D02*
X250394D01*
X240158Y-549606D02*
Y-529134D01*
X-250394Y-539370D02*
X-229921D01*
X-240158Y-549606D02*
Y-529134D01*
X-199213Y-539370D02*
X-178740D01*
X-188976Y-549606D02*
Y-529134D01*
X210236Y0D02*
X230709D01*
X220472Y-10236D02*
Y10236D01*
X84252Y0D02*
X104724D01*
X94488Y-10236D02*
Y10236D01*
X-230709Y0D02*
X-210236D01*
X-220472Y-10236D02*
Y10236D01*
X-104724Y0D02*
X-84252D01*
X-94488Y-10236D02*
Y10236D01*
X-189842Y0D02*
X-185118D01*
X-187480Y-2362D02*
Y2362D01*
X-129842Y0D02*
X-125118D01*
X-127480Y-2362D02*
Y2362D01*
X125118Y0D02*
X129842D01*
X127480Y-2362D02*
Y2362D01*
X185118Y0D02*
X189842D01*
X187480Y-2362D02*
Y2362D01*
X-260709Y153543D02*
X-255984D01*
X-258347Y151181D02*
Y155905D01*
X-200709Y153543D02*
X-195984D01*
X-198346Y151181D02*
Y155905D01*
X-200709Y-153543D02*
X-195984D01*
X-198346Y-155905D02*
Y-151181D01*
X-260709Y-153543D02*
X-255984D01*
X-258347Y-155905D02*
Y-151181D01*
X-153937Y298228D02*
X-148031D01*
X-150984Y295276D02*
Y301181D01*
X-153937Y504921D02*
X-148031D01*
X-150984Y501968D02*
Y507874D01*
X-233858Y504921D02*
X-227953D01*
X-230906Y501968D02*
Y507874D01*
X-233858Y298228D02*
X-227953D01*
X-230906Y295276D02*
Y301181D01*
X148031Y504921D02*
X153937D01*
X150984Y501968D02*
Y507874D01*
X148031Y298228D02*
X153937D01*
X150984Y295276D02*
Y301181D01*
X227953Y298228D02*
X233858D01*
X230906Y295276D02*
Y301181D01*
X227953Y504921D02*
X233858D01*
X230906Y501968D02*
Y507874D01*
X-106299Y452165D02*
X-100394D01*
X-103347Y449213D02*
Y455118D01*
X100394Y452165D02*
X106299D01*
X103347Y449213D02*
Y455118D01*
X100394Y532087D02*
X106299D01*
X103347Y529134D02*
Y535039D01*
X-106299Y532087D02*
X-100394D01*
X-103347Y529134D02*
Y535039D01*
X-46260Y137795D02*
X-42323D01*
X-44291Y135827D02*
Y139764D01*
X42323Y137795D02*
X46260D01*
X44291Y135827D02*
Y139764D01*
X227953Y-504921D02*
X233858D01*
X230906Y-507874D02*
Y-501968D01*
X227953Y-298228D02*
X233858D01*
X230906Y-301181D02*
Y-295276D01*
X148031Y-298228D02*
X153937D01*
X150984Y-301181D02*
Y-295276D01*
X148031Y-504921D02*
X153937D01*
X150984Y-507874D02*
Y-501968D01*
X-106299Y-532087D02*
X-100394D01*
X-103347Y-535039D02*
Y-529134D01*
X100394Y-532087D02*
X106299D01*
X103347Y-535039D02*
Y-529134D01*
X100394Y-452165D02*
X106299D01*
X103347Y-455118D02*
Y-449213D01*
X-106299Y-452165D02*
X-100394D01*
X-103347Y-455118D02*
Y-449213D01*
X-46260Y-137795D02*
X-42323D01*
X-44291Y-139764D02*
Y-135827D01*
X42323Y-137795D02*
X46260D01*
X44291Y-139764D02*
Y-135827D01*
X-167913Y-216535D02*
X-143110D01*
X-155512Y-228937D02*
Y-204134D01*
X-63583Y-216535D02*
X-38780D01*
X-51181Y-228937D02*
Y-204134D01*
X40748Y-216535D02*
X65551D01*
X53150Y-228937D02*
Y-204134D01*
X126969Y-269685D02*
X142717D01*
X134843Y-277559D02*
Y-261811D01*
X126969Y-246063D02*
X142717D01*
X134843Y-253937D02*
Y-238189D01*
X126969Y-187008D02*
X142717D01*
X134843Y-194882D02*
Y-179134D01*
X126969Y-163386D02*
X142717D01*
X134843Y-171260D02*
Y-155512D01*
X-52165Y-240158D02*
X-50197D01*
X-51181Y-241142D02*
Y-239173D01*
X-52165Y-255906D02*
X-50197D01*
X-51181Y-256890D02*
Y-254921D01*
X-48228Y-263779D02*
X-46260D01*
X-47244Y-264764D02*
Y-262795D01*
X-44291Y-255906D02*
X-42323D01*
X-43307Y-256890D02*
Y-254921D01*
X-48228Y-248031D02*
X-46260D01*
X-47244Y-249016D02*
Y-247047D01*
X-44291Y-240158D02*
X-42323D01*
X-43307Y-241142D02*
Y-239173D01*
X-48228Y-232283D02*
X-46260D01*
X-47244Y-233268D02*
Y-231299D01*
X-40354Y-232283D02*
X-38386D01*
X-39370Y-233268D02*
Y-231299D01*
X-36417Y-240158D02*
X-34449D01*
X-35433Y-241142D02*
Y-239173D01*
X-40354Y-248031D02*
X-38386D01*
X-39370Y-249016D02*
Y-247047D01*
X-32480Y-232283D02*
X-30512D01*
X-31496Y-233268D02*
Y-231299D01*
X-24606Y-232283D02*
X-22638D01*
X-23622Y-233268D02*
Y-231299D01*
X-28543Y-240158D02*
X-26575D01*
X-27559Y-241142D02*
Y-239173D01*
X-32480Y-248031D02*
X-30512D01*
X-31496Y-249016D02*
Y-247047D01*
X-24606Y-248031D02*
X-22638D01*
X-23622Y-249016D02*
Y-247047D01*
X-36417Y-255906D02*
X-34449D01*
X-35433Y-256890D02*
Y-254921D01*
X-28543Y-255906D02*
X-26575D01*
X-27559Y-256890D02*
Y-254921D01*
X-40354Y-263779D02*
X-38386D01*
X-39370Y-264764D02*
Y-262795D01*
X-36417Y-224409D02*
X-34449D01*
X-35433Y-225394D02*
Y-223425D01*
X-28543Y-224409D02*
X-26575D01*
X-27559Y-225394D02*
Y-223425D01*
X-32480Y-216535D02*
X-30512D01*
X-31496Y-217520D02*
Y-215551D01*
X-24606Y-216535D02*
X-22638D01*
X-23622Y-217520D02*
Y-215551D01*
X-48228Y-169291D02*
X-46260D01*
X-47244Y-170276D02*
Y-168307D01*
X-44291Y-177165D02*
X-42323D01*
X-43307Y-178150D02*
Y-176181D01*
X-48228Y-185039D02*
X-46260D01*
X-47244Y-186024D02*
Y-184055D01*
X-44291Y-192913D02*
X-42323D01*
X-43307Y-193898D02*
Y-191929D01*
X-48228Y-200787D02*
X-46260D01*
X-47244Y-201772D02*
Y-199803D01*
X-40354Y-200787D02*
X-38386D01*
X-39370Y-201772D02*
Y-199803D01*
X-36417Y-192913D02*
X-34449D01*
X-35433Y-193898D02*
Y-191929D01*
X-40354Y-185039D02*
X-38386D01*
X-39370Y-186024D02*
Y-184055D01*
X-32480Y-200787D02*
X-30512D01*
X-31496Y-201772D02*
Y-199803D01*
X-24606Y-200787D02*
X-22638D01*
X-23622Y-201772D02*
Y-199803D01*
X-28543Y-192913D02*
X-26575D01*
X-27559Y-193898D02*
Y-191929D01*
X-32480Y-185039D02*
X-30512D01*
X-31496Y-186024D02*
Y-184055D01*
X-24606Y-185039D02*
X-22638D01*
X-23622Y-186024D02*
Y-184055D01*
X-36417Y-177165D02*
X-34449D01*
X-35433Y-178150D02*
Y-176181D01*
X-28543Y-177165D02*
X-26575D01*
X-27559Y-178150D02*
Y-176181D01*
X-40354Y-169291D02*
X-38386D01*
X-39370Y-170276D02*
Y-168307D01*
X-36417Y-208661D02*
X-34449D01*
X-35433Y-209646D02*
Y-207677D01*
X-28543Y-208661D02*
X-26575D01*
X-27559Y-209646D02*
Y-207677D01*
X-52165Y-192913D02*
X-50197D01*
X-51181Y-193898D02*
Y-191929D01*
X-32480Y-263779D02*
X-30512D01*
X-31496Y-264764D02*
Y-262795D01*
X-32480Y-169291D02*
X-30512D01*
X-31496Y-170276D02*
Y-168307D01*
X-20669Y-224409D02*
X-18701D01*
X-19685Y-225394D02*
Y-223425D01*
X-20669Y-208661D02*
X-18701D01*
X-19685Y-209646D02*
Y-207677D01*
X-20669Y-192913D02*
X-18701D01*
X-19685Y-193898D02*
Y-191929D01*
X-20669Y-240158D02*
X-18701D01*
X-19685Y-241142D02*
Y-239173D01*
X-83661Y-192913D02*
X-81693D01*
X-82677Y-193898D02*
Y-191929D01*
X-83661Y-240158D02*
X-81693D01*
X-82677Y-241142D02*
Y-239173D01*
X-83661Y-224409D02*
X-81693D01*
X-82677Y-225394D02*
Y-223425D01*
X-83661Y-208661D02*
X-81693D01*
X-82677Y-209646D02*
Y-207677D01*
X-71850Y-263779D02*
X-69882D01*
X-70866Y-264764D02*
Y-262795D01*
X-71850Y-169291D02*
X-69882D01*
X-70866Y-170276D02*
Y-168307D01*
X-75787Y-224409D02*
X-73819D01*
X-74803Y-225394D02*
Y-223425D01*
X-67913Y-224409D02*
X-65945D01*
X-66929Y-225394D02*
Y-223425D01*
X-63976Y-263779D02*
X-62008D01*
X-62992Y-264764D02*
Y-262795D01*
X-75787Y-255906D02*
X-73819D01*
X-74803Y-256890D02*
Y-254921D01*
X-67913Y-255906D02*
X-65945D01*
X-66929Y-256890D02*
Y-254921D01*
X-79724Y-248031D02*
X-77756D01*
X-78740Y-249016D02*
Y-247047D01*
X-71850Y-248031D02*
X-69882D01*
X-70866Y-249016D02*
Y-247047D01*
X-75787Y-240158D02*
X-73819D01*
X-74803Y-241142D02*
Y-239173D01*
X-79724Y-232283D02*
X-77756D01*
X-78740Y-233268D02*
Y-231299D01*
X-71850Y-232283D02*
X-69882D01*
X-70866Y-233268D02*
Y-231299D01*
X-63976Y-248031D02*
X-62008D01*
X-62992Y-249016D02*
Y-247047D01*
X-67913Y-240158D02*
X-65945D01*
X-66929Y-241142D02*
Y-239173D01*
X-63976Y-232283D02*
X-62008D01*
X-62992Y-233268D02*
Y-231299D01*
X-56102Y-232283D02*
X-54134D01*
X-55118Y-233268D02*
Y-231299D01*
X-60039Y-240158D02*
X-58071D01*
X-59055Y-241142D02*
Y-239173D01*
X-56102Y-248031D02*
X-54134D01*
X-55118Y-249016D02*
Y-247047D01*
X-60039Y-255906D02*
X-58071D01*
X-59055Y-256890D02*
Y-254921D01*
X-56102Y-263779D02*
X-54134D01*
X-55118Y-264764D02*
Y-262795D01*
X-79724Y-216535D02*
X-77756D01*
X-78740Y-217520D02*
Y-215551D01*
X-71850Y-216535D02*
X-69882D01*
X-70866Y-217520D02*
Y-215551D01*
X-75787Y-208661D02*
X-73819D01*
X-74803Y-209646D02*
Y-207677D01*
X-67913Y-208661D02*
X-65945D01*
X-66929Y-209646D02*
Y-207677D01*
X-63976Y-169291D02*
X-62008D01*
X-62992Y-170276D02*
Y-168307D01*
X-75787Y-177165D02*
X-73819D01*
X-74803Y-178150D02*
Y-176181D01*
X-67913Y-177165D02*
X-65945D01*
X-66929Y-178150D02*
Y-176181D01*
X-79724Y-185039D02*
X-77756D01*
X-78740Y-186024D02*
Y-184055D01*
X-71850Y-185039D02*
X-69882D01*
X-70866Y-186024D02*
Y-184055D01*
X-75787Y-192913D02*
X-73819D01*
X-74803Y-193898D02*
Y-191929D01*
X-79724Y-200787D02*
X-77756D01*
X-78740Y-201772D02*
Y-199803D01*
X-71850Y-200787D02*
X-69882D01*
X-70866Y-201772D02*
Y-199803D01*
X-63976Y-185039D02*
X-62008D01*
X-62992Y-186024D02*
Y-184055D01*
X-67913Y-192913D02*
X-65945D01*
X-66929Y-193898D02*
Y-191929D01*
X-63976Y-200787D02*
X-62008D01*
X-62992Y-201772D02*
Y-199803D01*
X-56102Y-200787D02*
X-54134D01*
X-55118Y-201772D02*
Y-199803D01*
X-60039Y-192913D02*
X-58071D01*
X-59055Y-193898D02*
Y-191929D01*
X-56102Y-185039D02*
X-54134D01*
X-55118Y-186024D02*
Y-184055D01*
X-60039Y-177165D02*
X-58071D01*
X-59055Y-178150D02*
Y-176181D01*
X-56102Y-169291D02*
X-54134D01*
X-55118Y-170276D02*
Y-168307D01*
X-52165Y-177165D02*
X-50197D01*
X-51181Y-178150D02*
Y-176181D01*
X87598Y-240158D02*
X89567D01*
X88583Y-241142D02*
Y-239173D01*
X87598Y-192913D02*
X89567D01*
X88583Y-193898D02*
Y-191929D01*
X87598Y-208661D02*
X89567D01*
X88583Y-209646D02*
Y-207677D01*
X87598Y-224409D02*
X89567D01*
X88583Y-225394D02*
Y-223425D01*
X75787Y-169291D02*
X77756D01*
X76772Y-170276D02*
Y-168307D01*
X75787Y-263779D02*
X77756D01*
X76772Y-264764D02*
Y-262795D01*
X56102Y-192913D02*
X58071D01*
X57087Y-193898D02*
Y-191929D01*
X56102Y-177165D02*
X58071D01*
X57087Y-178150D02*
Y-176181D01*
X79724Y-208661D02*
X81693D01*
X80709Y-209646D02*
Y-207677D01*
X71850Y-208661D02*
X73819D01*
X72835Y-209646D02*
Y-207677D01*
X67913Y-169291D02*
X69882D01*
X68898Y-170276D02*
Y-168307D01*
X79724Y-177165D02*
X81693D01*
X80709Y-178150D02*
Y-176181D01*
X71850Y-177165D02*
X73819D01*
X72835Y-178150D02*
Y-176181D01*
X83661Y-185039D02*
X85630D01*
X84646Y-186024D02*
Y-184055D01*
X75787Y-185039D02*
X77756D01*
X76772Y-186024D02*
Y-184055D01*
X79724Y-192913D02*
X81693D01*
X80709Y-193898D02*
Y-191929D01*
X83661Y-200787D02*
X85630D01*
X84646Y-201772D02*
Y-199803D01*
X75787Y-200787D02*
X77756D01*
X76772Y-201772D02*
Y-199803D01*
X67913Y-185039D02*
X69882D01*
X68898Y-186024D02*
Y-184055D01*
X71850Y-192913D02*
X73819D01*
X72835Y-193898D02*
Y-191929D01*
X67913Y-200787D02*
X69882D01*
X68898Y-201772D02*
Y-199803D01*
X60039Y-200787D02*
X62008D01*
X61024Y-201772D02*
Y-199803D01*
X63976Y-192913D02*
X65945D01*
X64961Y-193898D02*
Y-191929D01*
X60039Y-185039D02*
X62008D01*
X61024Y-186024D02*
Y-184055D01*
X63976Y-177165D02*
X65945D01*
X64961Y-178150D02*
Y-176181D01*
X60039Y-169291D02*
X62008D01*
X61024Y-170276D02*
Y-168307D01*
X83661Y-216535D02*
X85630D01*
X84646Y-217520D02*
Y-215551D01*
X75787Y-216535D02*
X77756D01*
X76772Y-217520D02*
Y-215551D01*
X79724Y-224409D02*
X81693D01*
X80709Y-225394D02*
Y-223425D01*
X71850Y-224409D02*
X73819D01*
X72835Y-225394D02*
Y-223425D01*
X67913Y-263779D02*
X69882D01*
X68898Y-264764D02*
Y-262795D01*
X79724Y-255906D02*
X81693D01*
X80709Y-256890D02*
Y-254921D01*
X71850Y-255906D02*
X73819D01*
X72835Y-256890D02*
Y-254921D01*
X83661Y-248031D02*
X85630D01*
X84646Y-249016D02*
Y-247047D01*
X75787Y-248031D02*
X77756D01*
X76772Y-249016D02*
Y-247047D01*
X79724Y-240158D02*
X81693D01*
X80709Y-241142D02*
Y-239173D01*
X83661Y-232283D02*
X85630D01*
X84646Y-233268D02*
Y-231299D01*
X75787Y-232283D02*
X77756D01*
X76772Y-233268D02*
Y-231299D01*
X67913Y-248031D02*
X69882D01*
X68898Y-249016D02*
Y-247047D01*
X71850Y-240158D02*
X73819D01*
X72835Y-241142D02*
Y-239173D01*
X67913Y-232283D02*
X69882D01*
X68898Y-233268D02*
Y-231299D01*
X60039Y-232283D02*
X62008D01*
X61024Y-233268D02*
Y-231299D01*
X63976Y-240158D02*
X65945D01*
X64961Y-241142D02*
Y-239173D01*
X60039Y-248031D02*
X62008D01*
X61024Y-249016D02*
Y-247047D01*
X63976Y-255906D02*
X65945D01*
X64961Y-256890D02*
Y-254921D01*
X60039Y-263779D02*
X62008D01*
X61024Y-264764D02*
Y-262795D01*
X56102Y-255906D02*
X58071D01*
X57087Y-256890D02*
Y-254921D01*
X56102Y-240158D02*
X58071D01*
X57087Y-241142D02*
Y-239173D01*
X28543Y-263779D02*
X30512D01*
X29528Y-264764D02*
Y-262795D01*
X28543Y-169291D02*
X30512D01*
X29528Y-170276D02*
Y-168307D01*
X48228Y-240158D02*
X50197D01*
X49213Y-241142D02*
Y-239173D01*
X48228Y-255906D02*
X50197D01*
X49213Y-256890D02*
Y-254921D01*
X24606Y-224409D02*
X26575D01*
X25591Y-225394D02*
Y-223425D01*
X32480Y-224409D02*
X34449D01*
X33465Y-225394D02*
Y-223425D01*
X36417Y-263779D02*
X38386D01*
X37402Y-264764D02*
Y-262795D01*
X24606Y-255906D02*
X26575D01*
X25591Y-256890D02*
Y-254921D01*
X32480Y-255906D02*
X34449D01*
X33465Y-256890D02*
Y-254921D01*
X20669Y-248031D02*
X22638D01*
X21654Y-249016D02*
Y-247047D01*
X28543Y-248031D02*
X30512D01*
X29528Y-249016D02*
Y-247047D01*
X24606Y-240158D02*
X26575D01*
X25591Y-241142D02*
Y-239173D01*
X20669Y-232283D02*
X22638D01*
X21654Y-233268D02*
Y-231299D01*
X28543Y-232283D02*
X30512D01*
X29528Y-233268D02*
Y-231299D01*
X36417Y-248031D02*
X38386D01*
X37402Y-249016D02*
Y-247047D01*
X32480Y-240158D02*
X34449D01*
X33465Y-241142D02*
Y-239173D01*
X36417Y-232283D02*
X38386D01*
X37402Y-233268D02*
Y-231299D01*
X44291Y-232283D02*
X46260D01*
X45276Y-233268D02*
Y-231299D01*
X40354Y-240158D02*
X42323D01*
X41339Y-241142D02*
Y-239173D01*
X44291Y-248031D02*
X46260D01*
X45276Y-249016D02*
Y-247047D01*
X40354Y-255906D02*
X42323D01*
X41339Y-256890D02*
Y-254921D01*
X44291Y-263779D02*
X46260D01*
X45276Y-264764D02*
Y-262795D01*
X20669Y-216535D02*
X22638D01*
X21654Y-217520D02*
Y-215551D01*
X28543Y-216535D02*
X30512D01*
X29528Y-217520D02*
Y-215551D01*
X24606Y-208661D02*
X26575D01*
X25591Y-209646D02*
Y-207677D01*
X32480Y-208661D02*
X34449D01*
X33465Y-209646D02*
Y-207677D01*
X36417Y-169291D02*
X38386D01*
X37402Y-170276D02*
Y-168307D01*
X24606Y-177165D02*
X26575D01*
X25591Y-178150D02*
Y-176181D01*
X32480Y-177165D02*
X34449D01*
X33465Y-178150D02*
Y-176181D01*
X20669Y-185039D02*
X22638D01*
X21654Y-186024D02*
Y-184055D01*
X28543Y-185039D02*
X30512D01*
X29528Y-186024D02*
Y-184055D01*
X24606Y-192913D02*
X26575D01*
X25591Y-193898D02*
Y-191929D01*
X20669Y-200787D02*
X22638D01*
X21654Y-201772D02*
Y-199803D01*
X28543Y-200787D02*
X30512D01*
X29528Y-201772D02*
Y-199803D01*
X36417Y-185039D02*
X38386D01*
X37402Y-186024D02*
Y-184055D01*
X32480Y-192913D02*
X34449D01*
X33465Y-193898D02*
Y-191929D01*
X36417Y-200787D02*
X38386D01*
X37402Y-201772D02*
Y-199803D01*
X44291Y-200787D02*
X46260D01*
X45276Y-201772D02*
Y-199803D01*
X40354Y-192913D02*
X42323D01*
X41339Y-193898D02*
Y-191929D01*
X44291Y-185039D02*
X46260D01*
X45276Y-186024D02*
Y-184055D01*
X40354Y-177165D02*
X42323D01*
X41339Y-178150D02*
Y-176181D01*
X44291Y-169291D02*
X46260D01*
X45276Y-170276D02*
Y-168307D01*
X48228Y-177165D02*
X50197D01*
X49213Y-178150D02*
Y-176181D01*
X48228Y-192913D02*
X50197D01*
X49213Y-193898D02*
Y-191929D01*
X52165Y-232283D02*
X54134D01*
X53150Y-233268D02*
Y-231299D01*
X52165Y-248031D02*
X54134D01*
X53150Y-249016D02*
Y-247047D01*
X52165Y-263779D02*
X54134D01*
X53150Y-264764D02*
Y-262795D01*
X52165Y-200787D02*
X54134D01*
X53150Y-201772D02*
Y-199803D01*
X52165Y-185039D02*
X54134D01*
X53150Y-186024D02*
Y-184055D01*
X52165Y-169291D02*
X54134D01*
X53150Y-170276D02*
Y-168307D01*
X87598Y-177165D02*
X89567D01*
X88583Y-178150D02*
Y-176181D01*
X87598Y-255906D02*
X89567D01*
X88583Y-256890D02*
Y-254921D01*
X-79724Y-263779D02*
X-77756D01*
X-78740Y-264764D02*
Y-262795D01*
X-24606Y-263779D02*
X-22638D01*
X-23622Y-264764D02*
Y-262795D01*
X-79724Y-169291D02*
X-77756D01*
X-78740Y-170276D02*
Y-168307D01*
X-24606Y-169291D02*
X-22638D01*
X-23622Y-170276D02*
Y-168307D01*
X83661Y-263779D02*
X85630D01*
X84646Y-264764D02*
Y-262795D01*
X83661Y-169291D02*
X85630D01*
X84646Y-170276D02*
Y-168307D01*
X-187992Y-263779D02*
X-186024D01*
X-187008Y-264764D02*
Y-262795D01*
X-187992Y-169291D02*
X-186024D01*
X-187008Y-170276D02*
Y-168307D01*
X-191929Y-177165D02*
X-189961D01*
X-190945Y-178150D02*
Y-176181D01*
X-191929Y-255906D02*
X-189961D01*
X-190945Y-256890D02*
Y-254921D01*
X-156496Y-263779D02*
X-154528D01*
X-155512Y-264764D02*
Y-262795D01*
X-156496Y-248031D02*
X-154528D01*
X-155512Y-249016D02*
Y-247047D01*
X-156496Y-232283D02*
X-154528D01*
X-155512Y-233268D02*
Y-231299D01*
X-156496Y-169291D02*
X-154528D01*
X-155512Y-170276D02*
Y-168307D01*
X-156496Y-185039D02*
X-154528D01*
X-155512Y-186024D02*
Y-184055D01*
X-156496Y-200787D02*
X-154528D01*
X-155512Y-201772D02*
Y-199803D01*
X-152559Y-240158D02*
X-150591D01*
X-151575Y-241142D02*
Y-239173D01*
X-152559Y-255906D02*
X-150591D01*
X-151575Y-256890D02*
Y-254921D01*
X-148622Y-263779D02*
X-146653D01*
X-147638Y-264764D02*
Y-262795D01*
X-144685Y-255906D02*
X-142717D01*
X-143701Y-256890D02*
Y-254921D01*
X-148622Y-248031D02*
X-146653D01*
X-147638Y-249016D02*
Y-247047D01*
X-144685Y-240158D02*
X-142717D01*
X-143701Y-241142D02*
Y-239173D01*
X-148622Y-232283D02*
X-146653D01*
X-147638Y-233268D02*
Y-231299D01*
X-140748Y-232283D02*
X-138779D01*
X-139764Y-233268D02*
Y-231299D01*
X-136811Y-240158D02*
X-134843D01*
X-135827Y-241142D02*
Y-239173D01*
X-140748Y-248031D02*
X-138779D01*
X-139764Y-249016D02*
Y-247047D01*
X-132874Y-232283D02*
X-130905D01*
X-131890Y-233268D02*
Y-231299D01*
X-125000Y-232283D02*
X-123031D01*
X-124016Y-233268D02*
Y-231299D01*
X-128937Y-240158D02*
X-126969D01*
X-127953Y-241142D02*
Y-239173D01*
X-132874Y-248031D02*
X-130905D01*
X-131890Y-249016D02*
Y-247047D01*
X-125000Y-248031D02*
X-123031D01*
X-124016Y-249016D02*
Y-247047D01*
X-136811Y-255906D02*
X-134843D01*
X-135827Y-256890D02*
Y-254921D01*
X-128937Y-255906D02*
X-126969D01*
X-127953Y-256890D02*
Y-254921D01*
X-140748Y-263779D02*
X-138779D01*
X-139764Y-264764D02*
Y-262795D01*
X-136811Y-224409D02*
X-134843D01*
X-135827Y-225394D02*
Y-223425D01*
X-128937Y-224409D02*
X-126969D01*
X-127953Y-225394D02*
Y-223425D01*
X-132874Y-216535D02*
X-130905D01*
X-131890Y-217520D02*
Y-215551D01*
X-125000Y-216535D02*
X-123031D01*
X-124016Y-217520D02*
Y-215551D01*
X-148622Y-169291D02*
X-146653D01*
X-147638Y-170276D02*
Y-168307D01*
X-144685Y-177165D02*
X-142717D01*
X-143701Y-178150D02*
Y-176181D01*
X-148622Y-185039D02*
X-146653D01*
X-147638Y-186024D02*
Y-184055D01*
X-144685Y-192913D02*
X-142717D01*
X-143701Y-193898D02*
Y-191929D01*
X-148622Y-200787D02*
X-146653D01*
X-147638Y-201772D02*
Y-199803D01*
X-140748Y-200787D02*
X-138779D01*
X-139764Y-201772D02*
Y-199803D01*
X-136811Y-192913D02*
X-134843D01*
X-135827Y-193898D02*
Y-191929D01*
X-140748Y-185039D02*
X-138779D01*
X-139764Y-186024D02*
Y-184055D01*
X-132874Y-200787D02*
X-130905D01*
X-131890Y-201772D02*
Y-199803D01*
X-125000Y-200787D02*
X-123031D01*
X-124016Y-201772D02*
Y-199803D01*
X-128937Y-192913D02*
X-126969D01*
X-127953Y-193898D02*
Y-191929D01*
X-132874Y-185039D02*
X-130905D01*
X-131890Y-186024D02*
Y-184055D01*
X-125000Y-185039D02*
X-123031D01*
X-124016Y-186024D02*
Y-184055D01*
X-136811Y-177165D02*
X-134843D01*
X-135827Y-178150D02*
Y-176181D01*
X-128937Y-177165D02*
X-126969D01*
X-127953Y-178150D02*
Y-176181D01*
X-140748Y-169291D02*
X-138779D01*
X-139764Y-170276D02*
Y-168307D01*
X-136811Y-208661D02*
X-134843D01*
X-135827Y-209646D02*
Y-207677D01*
X-128937Y-208661D02*
X-126969D01*
X-127953Y-209646D02*
Y-207677D01*
X-152559Y-177165D02*
X-150591D01*
X-151575Y-178150D02*
Y-176181D01*
X-152559Y-192913D02*
X-150591D01*
X-151575Y-193898D02*
Y-191929D01*
X-132874Y-263779D02*
X-130905D01*
X-131890Y-264764D02*
Y-262795D01*
X-132874Y-169291D02*
X-130905D01*
X-131890Y-170276D02*
Y-168307D01*
X-160433Y-192913D02*
X-158465D01*
X-159449Y-193898D02*
Y-191929D01*
X-160433Y-177165D02*
X-158465D01*
X-159449Y-178150D02*
Y-176181D01*
X-164370Y-169291D02*
X-162402D01*
X-163386Y-170276D02*
Y-168307D01*
X-168307Y-177165D02*
X-166339D01*
X-167323Y-178150D02*
Y-176181D01*
X-164370Y-185039D02*
X-162402D01*
X-163386Y-186024D02*
Y-184055D01*
X-168307Y-192913D02*
X-166339D01*
X-167323Y-193898D02*
Y-191929D01*
X-164370Y-200787D02*
X-162402D01*
X-163386Y-201772D02*
Y-199803D01*
X-172244Y-200787D02*
X-170276D01*
X-171260Y-201772D02*
Y-199803D01*
X-176181Y-192913D02*
X-174213D01*
X-175197Y-193898D02*
Y-191929D01*
X-172244Y-185039D02*
X-170276D01*
X-171260Y-186024D02*
Y-184055D01*
X-180118Y-200787D02*
X-178150D01*
X-179134Y-201772D02*
Y-199803D01*
X-187992Y-200787D02*
X-186024D01*
X-187008Y-201772D02*
Y-199803D01*
X-184055Y-192913D02*
X-182087D01*
X-183071Y-193898D02*
Y-191929D01*
X-180118Y-185039D02*
X-178150D01*
X-179134Y-186024D02*
Y-184055D01*
X-187992Y-185039D02*
X-186024D01*
X-187008Y-186024D02*
Y-184055D01*
X-176181Y-177165D02*
X-174213D01*
X-175197Y-178150D02*
Y-176181D01*
X-184055Y-177165D02*
X-182087D01*
X-183071Y-178150D02*
Y-176181D01*
X-172244Y-169291D02*
X-170276D01*
X-171260Y-170276D02*
Y-168307D01*
X-176181Y-208661D02*
X-174213D01*
X-175197Y-209646D02*
Y-207677D01*
X-184055Y-208661D02*
X-182087D01*
X-183071Y-209646D02*
Y-207677D01*
X-180118Y-216535D02*
X-178150D01*
X-179134Y-217520D02*
Y-215551D01*
X-187992Y-216535D02*
X-186024D01*
X-187008Y-217520D02*
Y-215551D01*
X-164370Y-263779D02*
X-162402D01*
X-163386Y-264764D02*
Y-262795D01*
X-168307Y-255906D02*
X-166339D01*
X-167323Y-256890D02*
Y-254921D01*
X-164370Y-248031D02*
X-162402D01*
X-163386Y-249016D02*
Y-247047D01*
X-168307Y-240158D02*
X-166339D01*
X-167323Y-241142D02*
Y-239173D01*
X-164370Y-232283D02*
X-162402D01*
X-163386Y-233268D02*
Y-231299D01*
X-172244Y-232283D02*
X-170276D01*
X-171260Y-233268D02*
Y-231299D01*
X-176181Y-240158D02*
X-174213D01*
X-175197Y-241142D02*
Y-239173D01*
X-172244Y-248031D02*
X-170276D01*
X-171260Y-249016D02*
Y-247047D01*
X-180118Y-232283D02*
X-178150D01*
X-179134Y-233268D02*
Y-231299D01*
X-187992Y-232283D02*
X-186024D01*
X-187008Y-233268D02*
Y-231299D01*
X-184055Y-240158D02*
X-182087D01*
X-183071Y-241142D02*
Y-239173D01*
X-180118Y-248031D02*
X-178150D01*
X-179134Y-249016D02*
Y-247047D01*
X-187992Y-248031D02*
X-186024D01*
X-187008Y-249016D02*
Y-247047D01*
X-176181Y-255906D02*
X-174213D01*
X-175197Y-256890D02*
Y-254921D01*
X-184055Y-255906D02*
X-182087D01*
X-183071Y-256890D02*
Y-254921D01*
X-172244Y-263779D02*
X-170276D01*
X-171260Y-264764D02*
Y-262795D01*
X-176181Y-224409D02*
X-174213D01*
X-175197Y-225394D02*
Y-223425D01*
X-184055Y-224409D02*
X-182087D01*
X-183071Y-225394D02*
Y-223425D01*
X-160433Y-255906D02*
X-158465D01*
X-159449Y-256890D02*
Y-254921D01*
X-160433Y-240158D02*
X-158465D01*
X-159449Y-241142D02*
Y-239173D01*
X-180118Y-169291D02*
X-178150D01*
X-179134Y-170276D02*
Y-168307D01*
X-180118Y-263779D02*
X-178150D01*
X-179134Y-264764D02*
Y-262795D01*
X-191929Y-208661D02*
X-189961D01*
X-190945Y-209646D02*
Y-207677D01*
X-191929Y-224409D02*
X-189961D01*
X-190945Y-225394D02*
Y-223425D01*
X-191929Y-240158D02*
X-189961D01*
X-190945Y-241142D02*
Y-239173D01*
X-191929Y-192913D02*
X-189961D01*
X-190945Y-193898D02*
Y-191929D01*
X-191929Y240158D02*
X-189961D01*
X-190945Y239173D02*
Y241142D01*
X-191929Y192913D02*
X-189961D01*
X-190945Y191929D02*
Y193898D01*
X-191929Y208661D02*
X-189961D01*
X-190945Y207677D02*
Y209646D01*
X-191929Y224409D02*
X-189961D01*
X-190945Y223425D02*
Y225394D01*
X-180118Y169291D02*
X-178150D01*
X-179134Y168307D02*
Y170276D01*
X-180118Y263779D02*
X-178150D01*
X-179134Y262795D02*
Y264764D01*
X-160433Y192913D02*
X-158465D01*
X-159449Y191929D02*
Y193898D01*
X-160433Y177165D02*
X-158465D01*
X-159449Y176181D02*
Y178150D01*
X-184055Y208661D02*
X-182087D01*
X-183071Y207677D02*
Y209646D01*
X-176181Y208661D02*
X-174213D01*
X-175197Y207677D02*
Y209646D01*
X-172244Y169291D02*
X-170276D01*
X-171260Y168307D02*
Y170276D01*
X-184055Y177165D02*
X-182087D01*
X-183071Y176181D02*
Y178150D01*
X-176181Y177165D02*
X-174213D01*
X-175197Y176181D02*
Y178150D01*
X-187992Y185039D02*
X-186024D01*
X-187008Y184055D02*
Y186024D01*
X-180118Y185039D02*
X-178150D01*
X-179134Y184055D02*
Y186024D01*
X-184055Y192913D02*
X-182087D01*
X-183071Y191929D02*
Y193898D01*
X-187992Y200787D02*
X-186024D01*
X-187008Y199803D02*
Y201772D01*
X-180118Y200787D02*
X-178150D01*
X-179134Y199803D02*
Y201772D01*
X-172244Y185039D02*
X-170276D01*
X-171260Y184055D02*
Y186024D01*
X-176181Y192913D02*
X-174213D01*
X-175197Y191929D02*
Y193898D01*
X-172244Y200787D02*
X-170276D01*
X-171260Y199803D02*
Y201772D01*
X-164370Y200787D02*
X-162402D01*
X-163386Y199803D02*
Y201772D01*
X-168307Y192913D02*
X-166339D01*
X-167323Y191929D02*
Y193898D01*
X-164370Y185039D02*
X-162402D01*
X-163386Y184055D02*
Y186024D01*
X-168307Y177165D02*
X-166339D01*
X-167323Y176181D02*
Y178150D01*
X-164370Y169291D02*
X-162402D01*
X-163386Y168307D02*
Y170276D01*
X-187992Y216535D02*
X-186024D01*
X-187008Y215551D02*
Y217520D01*
X-180118Y216535D02*
X-178150D01*
X-179134Y215551D02*
Y217520D01*
X-184055Y224409D02*
X-182087D01*
X-183071Y223425D02*
Y225394D01*
X-176181Y224409D02*
X-174213D01*
X-175197Y223425D02*
Y225394D01*
X-172244Y263779D02*
X-170276D01*
X-171260Y262795D02*
Y264764D01*
X-184055Y255906D02*
X-182087D01*
X-183071Y254921D02*
Y256890D01*
X-176181Y255906D02*
X-174213D01*
X-175197Y254921D02*
Y256890D01*
X-187992Y248031D02*
X-186024D01*
X-187008Y247047D02*
Y249016D01*
X-180118Y248031D02*
X-178150D01*
X-179134Y247047D02*
Y249016D01*
X-184055Y240158D02*
X-182087D01*
X-183071Y239173D02*
Y241142D01*
X-187992Y232283D02*
X-186024D01*
X-187008Y231299D02*
Y233268D01*
X-180118Y232283D02*
X-178150D01*
X-179134Y231299D02*
Y233268D01*
X-172244Y248031D02*
X-170276D01*
X-171260Y247047D02*
Y249016D01*
X-176181Y240158D02*
X-174213D01*
X-175197Y239173D02*
Y241142D01*
X-172244Y232283D02*
X-170276D01*
X-171260Y231299D02*
Y233268D01*
X-164370Y232283D02*
X-162402D01*
X-163386Y231299D02*
Y233268D01*
X-168307Y240158D02*
X-166339D01*
X-167323Y239173D02*
Y241142D01*
X-164370Y248031D02*
X-162402D01*
X-163386Y247047D02*
Y249016D01*
X-168307Y255906D02*
X-166339D01*
X-167323Y254921D02*
Y256890D01*
X-164370Y263779D02*
X-162402D01*
X-163386Y262795D02*
Y264764D01*
X-160433Y255906D02*
X-158465D01*
X-159449Y254921D02*
Y256890D01*
X-160433Y240158D02*
X-158465D01*
X-159449Y239173D02*
Y241142D01*
X-132874Y263779D02*
X-130905D01*
X-131890Y262795D02*
Y264764D01*
X-132874Y169291D02*
X-130905D01*
X-131890Y168307D02*
Y170276D01*
X-152559Y240158D02*
X-150591D01*
X-151575Y239173D02*
Y241142D01*
X-152559Y255906D02*
X-150591D01*
X-151575Y254921D02*
Y256890D01*
X-128937Y224409D02*
X-126969D01*
X-127953Y223425D02*
Y225394D01*
X-136811Y224409D02*
X-134843D01*
X-135827Y223425D02*
Y225394D01*
X-140748Y263779D02*
X-138779D01*
X-139764Y262795D02*
Y264764D01*
X-128937Y255906D02*
X-126969D01*
X-127953Y254921D02*
Y256890D01*
X-136811Y255906D02*
X-134843D01*
X-135827Y254921D02*
Y256890D01*
X-125000Y248031D02*
X-123031D01*
X-124016Y247047D02*
Y249016D01*
X-132874Y248031D02*
X-130905D01*
X-131890Y247047D02*
Y249016D01*
X-128937Y240158D02*
X-126969D01*
X-127953Y239173D02*
Y241142D01*
X-125000Y232283D02*
X-123031D01*
X-124016Y231299D02*
Y233268D01*
X-132874Y232283D02*
X-130905D01*
X-131890Y231299D02*
Y233268D01*
X-140748Y248031D02*
X-138779D01*
X-139764Y247047D02*
Y249016D01*
X-136811Y240158D02*
X-134843D01*
X-135827Y239173D02*
Y241142D01*
X-140748Y232283D02*
X-138779D01*
X-139764Y231299D02*
Y233268D01*
X-148622Y232283D02*
X-146653D01*
X-147638Y231299D02*
Y233268D01*
X-144685Y240158D02*
X-142717D01*
X-143701Y239173D02*
Y241142D01*
X-148622Y248031D02*
X-146653D01*
X-147638Y247047D02*
Y249016D01*
X-144685Y255906D02*
X-142717D01*
X-143701Y254921D02*
Y256890D01*
X-148622Y263779D02*
X-146653D01*
X-147638Y262795D02*
Y264764D01*
X-125000Y216535D02*
X-123031D01*
X-124016Y215551D02*
Y217520D01*
X-132874Y216535D02*
X-130905D01*
X-131890Y215551D02*
Y217520D01*
X-128937Y208661D02*
X-126969D01*
X-127953Y207677D02*
Y209646D01*
X-136811Y208661D02*
X-134843D01*
X-135827Y207677D02*
Y209646D01*
X-140748Y169291D02*
X-138779D01*
X-139764Y168307D02*
Y170276D01*
X-128937Y177165D02*
X-126969D01*
X-127953Y176181D02*
Y178150D01*
X-136811Y177165D02*
X-134843D01*
X-135827Y176181D02*
Y178150D01*
X-125000Y185039D02*
X-123031D01*
X-124016Y184055D02*
Y186024D01*
X-132874Y185039D02*
X-130905D01*
X-131890Y184055D02*
Y186024D01*
X-128937Y192913D02*
X-126969D01*
X-127953Y191929D02*
Y193898D01*
X-125000Y200787D02*
X-123031D01*
X-124016Y199803D02*
Y201772D01*
X-132874Y200787D02*
X-130905D01*
X-131890Y199803D02*
Y201772D01*
X-140748Y185039D02*
X-138779D01*
X-139764Y184055D02*
Y186024D01*
X-136811Y192913D02*
X-134843D01*
X-135827Y191929D02*
Y193898D01*
X-140748Y200787D02*
X-138779D01*
X-139764Y199803D02*
Y201772D01*
X-148622Y200787D02*
X-146653D01*
X-147638Y199803D02*
Y201772D01*
X-144685Y192913D02*
X-142717D01*
X-143701Y191929D02*
Y193898D01*
X-148622Y185039D02*
X-146653D01*
X-147638Y184055D02*
Y186024D01*
X-144685Y177165D02*
X-142717D01*
X-143701Y176181D02*
Y178150D01*
X-148622Y169291D02*
X-146653D01*
X-147638Y168307D02*
Y170276D01*
X-152559Y177165D02*
X-150591D01*
X-151575Y176181D02*
Y178150D01*
X-152559Y192913D02*
X-150591D01*
X-151575Y191929D02*
Y193898D01*
X-156496Y232283D02*
X-154528D01*
X-155512Y231299D02*
Y233268D01*
X-156496Y248031D02*
X-154528D01*
X-155512Y247047D02*
Y249016D01*
X-156496Y263779D02*
X-154528D01*
X-155512Y262795D02*
Y264764D01*
X-156496Y200787D02*
X-154528D01*
X-155512Y199803D02*
Y201772D01*
X-156496Y185039D02*
X-154528D01*
X-155512Y184055D02*
Y186024D01*
X-156496Y169291D02*
X-154528D01*
X-155512Y168307D02*
Y170276D01*
X-191929Y177165D02*
X-189961D01*
X-190945Y176181D02*
Y178150D01*
X-191929Y255906D02*
X-189961D01*
X-190945Y254921D02*
Y256890D01*
X-187992Y263779D02*
X-186024D01*
X-187008Y262795D02*
Y264764D01*
X-187992Y169291D02*
X-186024D01*
X-187008Y168307D02*
Y170276D01*
X83661Y263779D02*
X85630D01*
X84646Y262795D02*
Y264764D01*
X83661Y169291D02*
X85630D01*
X84646Y168307D02*
Y170276D01*
X-24606Y263779D02*
X-22638D01*
X-23622Y262795D02*
Y264764D01*
X-79724Y263779D02*
X-77756D01*
X-78740Y262795D02*
Y264764D01*
X-24606Y169291D02*
X-22638D01*
X-23622Y168307D02*
Y170276D01*
X-79724Y169291D02*
X-77756D01*
X-78740Y168307D02*
Y170276D01*
X87598Y177165D02*
X89567D01*
X88583Y176181D02*
Y178150D01*
X87598Y255906D02*
X89567D01*
X88583Y254921D02*
Y256890D01*
X52165Y263779D02*
X54134D01*
X53150Y262795D02*
Y264764D01*
X52165Y248031D02*
X54134D01*
X53150Y247047D02*
Y249016D01*
X52165Y232283D02*
X54134D01*
X53150Y231299D02*
Y233268D01*
X52165Y169291D02*
X54134D01*
X53150Y168307D02*
Y170276D01*
X52165Y185039D02*
X54134D01*
X53150Y184055D02*
Y186024D01*
X52165Y200787D02*
X54134D01*
X53150Y199803D02*
Y201772D01*
X48228Y240158D02*
X50197D01*
X49213Y239173D02*
Y241142D01*
X48228Y255906D02*
X50197D01*
X49213Y254921D02*
Y256890D01*
X44291Y263779D02*
X46260D01*
X45276Y262795D02*
Y264764D01*
X40354Y255906D02*
X42323D01*
X41339Y254921D02*
Y256890D01*
X44291Y248031D02*
X46260D01*
X45276Y247047D02*
Y249016D01*
X40354Y240158D02*
X42323D01*
X41339Y239173D02*
Y241142D01*
X44291Y232283D02*
X46260D01*
X45276Y231299D02*
Y233268D01*
X36417Y232283D02*
X38386D01*
X37402Y231299D02*
Y233268D01*
X32480Y240158D02*
X34449D01*
X33465Y239173D02*
Y241142D01*
X36417Y248031D02*
X38386D01*
X37402Y247047D02*
Y249016D01*
X28543Y232283D02*
X30512D01*
X29528Y231299D02*
Y233268D01*
X20669Y232283D02*
X22638D01*
X21654Y231299D02*
Y233268D01*
X24606Y240158D02*
X26575D01*
X25591Y239173D02*
Y241142D01*
X28543Y248031D02*
X30512D01*
X29528Y247047D02*
Y249016D01*
X20669Y248031D02*
X22638D01*
X21654Y247047D02*
Y249016D01*
X32480Y255906D02*
X34449D01*
X33465Y254921D02*
Y256890D01*
X24606Y255906D02*
X26575D01*
X25591Y254921D02*
Y256890D01*
X36417Y263779D02*
X38386D01*
X37402Y262795D02*
Y264764D01*
X32480Y224409D02*
X34449D01*
X33465Y223425D02*
Y225394D01*
X24606Y224409D02*
X26575D01*
X25591Y223425D02*
Y225394D01*
X28543Y216535D02*
X30512D01*
X29528Y215551D02*
Y217520D01*
X20669Y216535D02*
X22638D01*
X21654Y215551D02*
Y217520D01*
X44291Y169291D02*
X46260D01*
X45276Y168307D02*
Y170276D01*
X40354Y177165D02*
X42323D01*
X41339Y176181D02*
Y178150D01*
X44291Y185039D02*
X46260D01*
X45276Y184055D02*
Y186024D01*
X40354Y192913D02*
X42323D01*
X41339Y191929D02*
Y193898D01*
X44291Y200787D02*
X46260D01*
X45276Y199803D02*
Y201772D01*
X36417Y200787D02*
X38386D01*
X37402Y199803D02*
Y201772D01*
X32480Y192913D02*
X34449D01*
X33465Y191929D02*
Y193898D01*
X36417Y185039D02*
X38386D01*
X37402Y184055D02*
Y186024D01*
X28543Y200787D02*
X30512D01*
X29528Y199803D02*
Y201772D01*
X20669Y200787D02*
X22638D01*
X21654Y199803D02*
Y201772D01*
X24606Y192913D02*
X26575D01*
X25591Y191929D02*
Y193898D01*
X28543Y185039D02*
X30512D01*
X29528Y184055D02*
Y186024D01*
X20669Y185039D02*
X22638D01*
X21654Y184055D02*
Y186024D01*
X32480Y177165D02*
X34449D01*
X33465Y176181D02*
Y178150D01*
X24606Y177165D02*
X26575D01*
X25591Y176181D02*
Y178150D01*
X36417Y169291D02*
X38386D01*
X37402Y168307D02*
Y170276D01*
X32480Y208661D02*
X34449D01*
X33465Y207677D02*
Y209646D01*
X24606Y208661D02*
X26575D01*
X25591Y207677D02*
Y209646D01*
X48228Y177165D02*
X50197D01*
X49213Y176181D02*
Y178150D01*
X48228Y192913D02*
X50197D01*
X49213Y191929D02*
Y193898D01*
X28543Y263779D02*
X30512D01*
X29528Y262795D02*
Y264764D01*
X28543Y169291D02*
X30512D01*
X29528Y168307D02*
Y170276D01*
X56102Y192913D02*
X58071D01*
X57087Y191929D02*
Y193898D01*
X56102Y177165D02*
X58071D01*
X57087Y176181D02*
Y178150D01*
X60039Y169291D02*
X62008D01*
X61024Y168307D02*
Y170276D01*
X63976Y177165D02*
X65945D01*
X64961Y176181D02*
Y178150D01*
X60039Y185039D02*
X62008D01*
X61024Y184055D02*
Y186024D01*
X63976Y192913D02*
X65945D01*
X64961Y191929D02*
Y193898D01*
X60039Y200787D02*
X62008D01*
X61024Y199803D02*
Y201772D01*
X67913Y200787D02*
X69882D01*
X68898Y199803D02*
Y201772D01*
X71850Y192913D02*
X73819D01*
X72835Y191929D02*
Y193898D01*
X67913Y185039D02*
X69882D01*
X68898Y184055D02*
Y186024D01*
X75787Y200787D02*
X77756D01*
X76772Y199803D02*
Y201772D01*
X83661Y200787D02*
X85630D01*
X84646Y199803D02*
Y201772D01*
X79724Y192913D02*
X81693D01*
X80709Y191929D02*
Y193898D01*
X75787Y185039D02*
X77756D01*
X76772Y184055D02*
Y186024D01*
X83661Y185039D02*
X85630D01*
X84646Y184055D02*
Y186024D01*
X71850Y177165D02*
X73819D01*
X72835Y176181D02*
Y178150D01*
X79724Y177165D02*
X81693D01*
X80709Y176181D02*
Y178150D01*
X67913Y169291D02*
X69882D01*
X68898Y168307D02*
Y170276D01*
X71850Y208661D02*
X73819D01*
X72835Y207677D02*
Y209646D01*
X79724Y208661D02*
X81693D01*
X80709Y207677D02*
Y209646D01*
X75787Y216535D02*
X77756D01*
X76772Y215551D02*
Y217520D01*
X83661Y216535D02*
X85630D01*
X84646Y215551D02*
Y217520D01*
X60039Y263779D02*
X62008D01*
X61024Y262795D02*
Y264764D01*
X63976Y255906D02*
X65945D01*
X64961Y254921D02*
Y256890D01*
X60039Y248031D02*
X62008D01*
X61024Y247047D02*
Y249016D01*
X63976Y240158D02*
X65945D01*
X64961Y239173D02*
Y241142D01*
X60039Y232283D02*
X62008D01*
X61024Y231299D02*
Y233268D01*
X67913Y232283D02*
X69882D01*
X68898Y231299D02*
Y233268D01*
X71850Y240158D02*
X73819D01*
X72835Y239173D02*
Y241142D01*
X67913Y248031D02*
X69882D01*
X68898Y247047D02*
Y249016D01*
X75787Y232283D02*
X77756D01*
X76772Y231299D02*
Y233268D01*
X83661Y232283D02*
X85630D01*
X84646Y231299D02*
Y233268D01*
X79724Y240158D02*
X81693D01*
X80709Y239173D02*
Y241142D01*
X75787Y248031D02*
X77756D01*
X76772Y247047D02*
Y249016D01*
X83661Y248031D02*
X85630D01*
X84646Y247047D02*
Y249016D01*
X71850Y255906D02*
X73819D01*
X72835Y254921D02*
Y256890D01*
X79724Y255906D02*
X81693D01*
X80709Y254921D02*
Y256890D01*
X67913Y263779D02*
X69882D01*
X68898Y262795D02*
Y264764D01*
X71850Y224409D02*
X73819D01*
X72835Y223425D02*
Y225394D01*
X79724Y224409D02*
X81693D01*
X80709Y223425D02*
Y225394D01*
X56102Y255906D02*
X58071D01*
X57087Y254921D02*
Y256890D01*
X56102Y240158D02*
X58071D01*
X57087Y239173D02*
Y241142D01*
X75787Y169291D02*
X77756D01*
X76772Y168307D02*
Y170276D01*
X75787Y263779D02*
X77756D01*
X76772Y262795D02*
Y264764D01*
X87598Y208661D02*
X89567D01*
X88583Y207677D02*
Y209646D01*
X87598Y224409D02*
X89567D01*
X88583Y223425D02*
Y225394D01*
X87598Y240158D02*
X89567D01*
X88583Y239173D02*
Y241142D01*
X87598Y192913D02*
X89567D01*
X88583Y191929D02*
Y193898D01*
X-52165Y255906D02*
X-50197D01*
X-51181Y254921D02*
Y256890D01*
X-56102Y263779D02*
X-54134D01*
X-55118Y262795D02*
Y264764D01*
X-60039Y255906D02*
X-58071D01*
X-59055Y254921D02*
Y256890D01*
X-56102Y248031D02*
X-54134D01*
X-55118Y247047D02*
Y249016D01*
X-60039Y240158D02*
X-58071D01*
X-59055Y239173D02*
Y241142D01*
X-56102Y232283D02*
X-54134D01*
X-55118Y231299D02*
Y233268D01*
X-63976Y232283D02*
X-62008D01*
X-62992Y231299D02*
Y233268D01*
X-67913Y240158D02*
X-65945D01*
X-66929Y239173D02*
Y241142D01*
X-63976Y248031D02*
X-62008D01*
X-62992Y247047D02*
Y249016D01*
X-71850Y232283D02*
X-69882D01*
X-70866Y231299D02*
Y233268D01*
X-79724Y232283D02*
X-77756D01*
X-78740Y231299D02*
Y233268D01*
X-75787Y240158D02*
X-73819D01*
X-74803Y239173D02*
Y241142D01*
X-71850Y248031D02*
X-69882D01*
X-70866Y247047D02*
Y249016D01*
X-79724Y248031D02*
X-77756D01*
X-78740Y247047D02*
Y249016D01*
X-67913Y255906D02*
X-65945D01*
X-66929Y254921D02*
Y256890D01*
X-75787Y255906D02*
X-73819D01*
X-74803Y254921D02*
Y256890D01*
X-63976Y263779D02*
X-62008D01*
X-62992Y262795D02*
Y264764D01*
X-67913Y224409D02*
X-65945D01*
X-66929Y223425D02*
Y225394D01*
X-75787Y224409D02*
X-73819D01*
X-74803Y223425D02*
Y225394D01*
X-71850Y216535D02*
X-69882D01*
X-70866Y215551D02*
Y217520D01*
X-79724Y216535D02*
X-77756D01*
X-78740Y215551D02*
Y217520D01*
X-56102Y169291D02*
X-54134D01*
X-55118Y168307D02*
Y170276D01*
X-60039Y177165D02*
X-58071D01*
X-59055Y176181D02*
Y178150D01*
X-56102Y185039D02*
X-54134D01*
X-55118Y184055D02*
Y186024D01*
X-60039Y192913D02*
X-58071D01*
X-59055Y191929D02*
Y193898D01*
X-56102Y200787D02*
X-54134D01*
X-55118Y199803D02*
Y201772D01*
X-63976Y200787D02*
X-62008D01*
X-62992Y199803D02*
Y201772D01*
X-67913Y192913D02*
X-65945D01*
X-66929Y191929D02*
Y193898D01*
X-63976Y185039D02*
X-62008D01*
X-62992Y184055D02*
Y186024D01*
X-71850Y200787D02*
X-69882D01*
X-70866Y199803D02*
Y201772D01*
X-79724Y200787D02*
X-77756D01*
X-78740Y199803D02*
Y201772D01*
X-75787Y192913D02*
X-73819D01*
X-74803Y191929D02*
Y193898D01*
X-71850Y185039D02*
X-69882D01*
X-70866Y184055D02*
Y186024D01*
X-79724Y185039D02*
X-77756D01*
X-78740Y184055D02*
Y186024D01*
X-67913Y177165D02*
X-65945D01*
X-66929Y176181D02*
Y178150D01*
X-75787Y177165D02*
X-73819D01*
X-74803Y176181D02*
Y178150D01*
X-63976Y169291D02*
X-62008D01*
X-62992Y168307D02*
Y170276D01*
X-67913Y208661D02*
X-65945D01*
X-66929Y207677D02*
Y209646D01*
X-75787Y208661D02*
X-73819D01*
X-74803Y207677D02*
Y209646D01*
X-71850Y263779D02*
X-69882D01*
X-70866Y262795D02*
Y264764D01*
X-71850Y169291D02*
X-69882D01*
X-70866Y168307D02*
Y170276D01*
X-83661Y224409D02*
X-81693D01*
X-82677Y223425D02*
Y225394D01*
X-83661Y208661D02*
X-81693D01*
X-82677Y207677D02*
Y209646D01*
X-83661Y192913D02*
X-81693D01*
X-82677Y191929D02*
Y193898D01*
X-83661Y240158D02*
X-81693D01*
X-82677Y239173D02*
Y241142D01*
X-20669Y192913D02*
X-18701D01*
X-19685Y191929D02*
Y193898D01*
X-20669Y240158D02*
X-18701D01*
X-19685Y239173D02*
Y241142D01*
X-20669Y224409D02*
X-18701D01*
X-19685Y223425D02*
Y225394D01*
X-20669Y208661D02*
X-18701D01*
X-19685Y207677D02*
Y209646D01*
X-32480Y263779D02*
X-30512D01*
X-31496Y262795D02*
Y264764D01*
X-32480Y169291D02*
X-30512D01*
X-31496Y168307D02*
Y170276D01*
X-52165Y240158D02*
X-50197D01*
X-51181Y239173D02*
Y241142D01*
X-28543Y224409D02*
X-26575D01*
X-27559Y223425D02*
Y225394D01*
X-36417Y224409D02*
X-34449D01*
X-35433Y223425D02*
Y225394D01*
X-40354Y263779D02*
X-38386D01*
X-39370Y262795D02*
Y264764D01*
X-28543Y255906D02*
X-26575D01*
X-27559Y254921D02*
Y256890D01*
X-36417Y255906D02*
X-34449D01*
X-35433Y254921D02*
Y256890D01*
X-24606Y248031D02*
X-22638D01*
X-23622Y247047D02*
Y249016D01*
X-32480Y248031D02*
X-30512D01*
X-31496Y247047D02*
Y249016D01*
X-28543Y240158D02*
X-26575D01*
X-27559Y239173D02*
Y241142D01*
X-24606Y232283D02*
X-22638D01*
X-23622Y231299D02*
Y233268D01*
X-32480Y232283D02*
X-30512D01*
X-31496Y231299D02*
Y233268D01*
X-40354Y248031D02*
X-38386D01*
X-39370Y247047D02*
Y249016D01*
X-36417Y240158D02*
X-34449D01*
X-35433Y239173D02*
Y241142D01*
X-40354Y232283D02*
X-38386D01*
X-39370Y231299D02*
Y233268D01*
X-48228Y232283D02*
X-46260D01*
X-47244Y231299D02*
Y233268D01*
X-44291Y240158D02*
X-42323D01*
X-43307Y239173D02*
Y241142D01*
X-48228Y248031D02*
X-46260D01*
X-47244Y247047D02*
Y249016D01*
X-44291Y255906D02*
X-42323D01*
X-43307Y254921D02*
Y256890D01*
X-48228Y263779D02*
X-46260D01*
X-47244Y262795D02*
Y264764D01*
X-24606Y216535D02*
X-22638D01*
X-23622Y215551D02*
Y217520D01*
X-32480Y216535D02*
X-30512D01*
X-31496Y215551D02*
Y217520D01*
X-28543Y208661D02*
X-26575D01*
X-27559Y207677D02*
Y209646D01*
X-36417Y208661D02*
X-34449D01*
X-35433Y207677D02*
Y209646D01*
X-40354Y169291D02*
X-38386D01*
X-39370Y168307D02*
Y170276D01*
X-28543Y177165D02*
X-26575D01*
X-27559Y176181D02*
Y178150D01*
X-36417Y177165D02*
X-34449D01*
X-35433Y176181D02*
Y178150D01*
X-24606Y185039D02*
X-22638D01*
X-23622Y184055D02*
Y186024D01*
X-32480Y185039D02*
X-30512D01*
X-31496Y184055D02*
Y186024D01*
X-28543Y192913D02*
X-26575D01*
X-27559Y191929D02*
Y193898D01*
X-24606Y200787D02*
X-22638D01*
X-23622Y199803D02*
Y201772D01*
X-32480Y200787D02*
X-30512D01*
X-31496Y199803D02*
Y201772D01*
X-40354Y185039D02*
X-38386D01*
X-39370Y184055D02*
Y186024D01*
X-36417Y192913D02*
X-34449D01*
X-35433Y191929D02*
Y193898D01*
X-40354Y200787D02*
X-38386D01*
X-39370Y199803D02*
Y201772D01*
X-48228Y200787D02*
X-46260D01*
X-47244Y199803D02*
Y201772D01*
X-44291Y192913D02*
X-42323D01*
X-43307Y191929D02*
Y193898D01*
X-48228Y185039D02*
X-46260D01*
X-47244Y184055D02*
Y186024D01*
X-44291Y177165D02*
X-42323D01*
X-43307Y176181D02*
Y178150D01*
X-48228Y169291D02*
X-46260D01*
X-47244Y168307D02*
Y170276D01*
X-52165Y177165D02*
X-50197D01*
X-51181Y176181D02*
Y178150D01*
X-52165Y192913D02*
X-50197D01*
X-51181Y191929D02*
Y193898D01*
X126969Y269685D02*
X142717D01*
X134843Y261811D02*
Y277559D01*
X126969Y246063D02*
X142717D01*
X134843Y238189D02*
Y253937D01*
X126969Y187008D02*
X142717D01*
X134843Y179134D02*
Y194882D01*
X126969Y163386D02*
X142717D01*
X134843Y155512D02*
Y171260D01*
X40748Y216535D02*
X65551D01*
X53150Y204134D02*
Y228937D01*
X-63583Y216535D02*
X-38780D01*
X-51181Y204134D02*
Y228937D01*
X-167913Y216535D02*
X-143110D01*
X-155512Y204134D02*
Y228937D01*
X-153937Y-298228D02*
X-148031D01*
X-150984Y-301181D02*
Y-295276D01*
X-153937Y-504921D02*
X-148031D01*
X-150984Y-507874D02*
Y-501968D01*
X-233858Y-504921D02*
X-227953D01*
X-230906Y-507874D02*
Y-501968D01*
X-233858Y-298228D02*
X-227953D01*
X-230906Y-301181D02*
Y-295276D01*
X194882Y551303D02*
X196850D01*
X195866Y550319D02*
Y552288D01*
X201772Y539370D02*
X203740D01*
X202756Y538386D02*
Y540354D01*
X199925Y546260D02*
X201894D01*
X200910Y545276D02*
Y547244D01*
X199925Y532480D02*
X201894D01*
X200910Y531496D02*
Y533465D01*
X187992Y525591D02*
X189961D01*
X188976Y524606D02*
Y526575D01*
X194882Y527437D02*
X196850D01*
X195866Y526452D02*
Y528421D01*
X181102Y527437D02*
X183071D01*
X182087Y526452D02*
Y528421D01*
X174213Y539370D02*
X176181D01*
X175197Y538386D02*
Y540354D01*
X176059Y532480D02*
X178027D01*
X177043Y531496D02*
Y533465D01*
X181102Y551303D02*
X183071D01*
X182087Y550319D02*
Y552288D01*
X187992Y553150D02*
X189961D01*
X188976Y552165D02*
Y554134D01*
X176059Y546260D02*
X178027D01*
X177043Y545276D02*
Y547244D01*
X246063Y551303D02*
X248031D01*
X247047Y550319D02*
Y552288D01*
X252953Y539370D02*
X254921D01*
X253937Y538386D02*
Y540354D01*
X251107Y546260D02*
X253075D01*
X252091Y545276D02*
Y547244D01*
X251107Y532480D02*
X253075D01*
X252091Y531496D02*
Y533465D01*
X239173Y525591D02*
X241142D01*
X240158Y524606D02*
Y526575D01*
X246063Y527437D02*
X248031D01*
X247047Y526452D02*
Y528421D01*
X232283Y527437D02*
X234252D01*
X233268Y526452D02*
Y528421D01*
X225394Y539370D02*
X227362D01*
X226378Y538386D02*
Y540354D01*
X227240Y532480D02*
X229208D01*
X228224Y531496D02*
Y533465D01*
X227240Y546260D02*
X229208D01*
X228224Y545276D02*
Y547244D01*
X239173Y553150D02*
X241142D01*
X240158Y552165D02*
Y554134D01*
X232283Y551303D02*
X234252D01*
X233268Y550319D02*
Y552288D01*
X-196851Y551304D02*
X-194882D01*
X-195866Y550319D02*
Y552288D01*
X-203740Y539370D02*
X-201772D01*
X-202756Y538386D02*
Y540354D01*
X-201894Y546260D02*
X-199926D01*
X-200910Y545276D02*
Y547244D01*
X-201894Y532480D02*
X-199926D01*
X-200910Y531496D02*
Y533465D01*
X-189961Y525591D02*
X-187992D01*
X-188976Y524607D02*
Y526575D01*
X-196851Y527437D02*
X-194882D01*
X-195866Y526453D02*
Y528421D01*
X-183071Y527437D02*
X-181102D01*
X-182087Y526453D02*
Y528421D01*
X-176181Y539370D02*
X-174213D01*
X-175197Y538386D02*
Y540354D01*
X-178027Y532480D02*
X-176059D01*
X-177043Y531496D02*
Y533465D01*
X-183071Y551304D02*
X-181102D01*
X-182087Y550319D02*
Y552288D01*
X-189961Y553150D02*
X-187992D01*
X-188976Y552166D02*
Y554134D01*
X-178027Y546260D02*
X-176059D01*
X-177043Y545276D02*
Y547244D01*
X-248032Y551304D02*
X-246063D01*
X-247047Y550319D02*
Y552288D01*
X-254921Y539370D02*
X-252953D01*
X-253937Y538386D02*
Y540354D01*
X-253075Y546260D02*
X-251107D01*
X-252091Y545276D02*
Y547244D01*
X-253075Y532480D02*
X-251107D01*
X-252091Y531496D02*
Y533465D01*
X-241142Y525591D02*
X-239173D01*
X-240158Y524607D02*
Y526575D01*
X-248032Y527437D02*
X-246063D01*
X-247047Y526453D02*
Y528421D01*
X-234252Y527437D02*
X-232283D01*
X-233268Y526453D02*
Y528421D01*
X-227362Y539370D02*
X-225394D01*
X-226378Y538386D02*
Y540354D01*
X-229208Y532480D02*
X-227240D01*
X-228224Y531496D02*
Y533465D01*
X-229208Y546260D02*
X-227240D01*
X-228224Y545276D02*
Y547244D01*
X-241142Y553150D02*
X-239173D01*
X-240158Y552166D02*
Y554134D01*
X-234252Y551304D02*
X-232283D01*
X-233268Y550319D02*
Y552288D01*
X194882Y-551303D02*
X196850D01*
X195866Y-552288D02*
Y-550319D01*
X201772Y-539370D02*
X203740D01*
X202756Y-540354D02*
Y-538386D01*
X199925Y-546260D02*
X201894D01*
X200910Y-547244D02*
Y-545276D01*
X199925Y-532480D02*
X201894D01*
X200910Y-533465D02*
Y-531496D01*
X187992Y-525591D02*
X189961D01*
X188976Y-526575D02*
Y-524606D01*
X194882Y-527437D02*
X196850D01*
X195866Y-528421D02*
Y-526452D01*
X181102Y-527437D02*
X183071D01*
X182087Y-528421D02*
Y-526452D01*
X174213Y-539370D02*
X176181D01*
X175197Y-540354D02*
Y-538386D01*
X176059Y-532480D02*
X178027D01*
X177043Y-533465D02*
Y-531496D01*
X181102Y-551303D02*
X183071D01*
X182087Y-552288D02*
Y-550319D01*
X187992Y-553150D02*
X189961D01*
X188976Y-554134D02*
Y-552165D01*
X176059Y-546260D02*
X178027D01*
X177043Y-547244D02*
Y-545276D01*
X246063Y-551303D02*
X248031D01*
X247047Y-552288D02*
Y-550319D01*
X252953Y-539370D02*
X254921D01*
X253937Y-540354D02*
Y-538386D01*
X251107Y-546260D02*
X253075D01*
X252091Y-547244D02*
Y-545276D01*
X251107Y-532480D02*
X253075D01*
X252091Y-533465D02*
Y-531496D01*
X239173Y-525591D02*
X241142D01*
X240158Y-526575D02*
Y-524606D01*
X246063Y-527437D02*
X248031D01*
X247047Y-528421D02*
Y-526452D01*
X232283Y-527437D02*
X234252D01*
X233268Y-528421D02*
Y-526452D01*
X225394Y-539370D02*
X227362D01*
X226378Y-540354D02*
Y-538386D01*
X227240Y-532480D02*
X229208D01*
X228224Y-533465D02*
Y-531496D01*
X227240Y-546260D02*
X229208D01*
X228224Y-547244D02*
Y-545276D01*
X239173Y-553150D02*
X241142D01*
X240158Y-554134D02*
Y-552165D01*
X232283Y-551303D02*
X234252D01*
X233268Y-552288D02*
Y-550319D01*
X-234252Y-551303D02*
X-232283D01*
X-233268Y-552288D02*
Y-550319D01*
X-241142Y-553150D02*
X-239173D01*
X-240158Y-554134D02*
Y-552165D01*
X-229208Y-546260D02*
X-227240D01*
X-228224Y-547244D02*
Y-545276D01*
X-229208Y-532480D02*
X-227240D01*
X-228224Y-533465D02*
Y-531496D01*
X-227362Y-539370D02*
X-225394D01*
X-226378Y-540354D02*
Y-538386D01*
X-234252Y-527437D02*
X-232283D01*
X-233268Y-528421D02*
Y-526452D01*
X-248031Y-527437D02*
X-246063D01*
X-247047Y-528421D02*
Y-526452D01*
X-241142Y-525591D02*
X-239173D01*
X-240158Y-526575D02*
Y-524606D01*
X-253075Y-532480D02*
X-251107D01*
X-252091Y-533465D02*
Y-531496D01*
X-253075Y-546260D02*
X-251107D01*
X-252091Y-547244D02*
Y-545276D01*
X-254921Y-539370D02*
X-252953D01*
X-253937Y-540354D02*
Y-538386D01*
X-248031Y-551303D02*
X-246063D01*
X-247047Y-552288D02*
Y-550319D01*
X-178027Y-546260D02*
X-176059D01*
X-177043Y-547244D02*
Y-545276D01*
X-189961Y-553150D02*
X-187992D01*
X-188976Y-554134D02*
Y-552165D01*
X-183071Y-551303D02*
X-181102D01*
X-182087Y-552288D02*
Y-550319D01*
X-178027Y-532480D02*
X-176059D01*
X-177043Y-533465D02*
Y-531496D01*
X-176181Y-539370D02*
X-174213D01*
X-175197Y-540354D02*
Y-538386D01*
X-183071Y-527437D02*
X-181102D01*
X-182087Y-528421D02*
Y-526452D01*
X-196850Y-527437D02*
X-194882D01*
X-195866Y-528421D02*
Y-526452D01*
X-189961Y-525591D02*
X-187992D01*
X-188976Y-526575D02*
Y-524606D01*
X-201894Y-532480D02*
X-199925D01*
X-200910Y-533465D02*
Y-531496D01*
X-201894Y-546260D02*
X-199925D01*
X-200910Y-547244D02*
Y-545276D01*
X-203740Y-539370D02*
X-201772D01*
X-202756Y-540354D02*
Y-538386D01*
X-196850Y-551303D02*
X-194882D01*
X-195866Y-552288D02*
Y-550319D01*
X231299Y-20457D02*
X233268D01*
X232283Y-21442D02*
Y-19473D01*
X227362Y-13638D02*
X229331D01*
X228346Y-14622D02*
Y-12654D01*
X239946Y-11811D02*
X241914D01*
X240930Y-12795D02*
Y-10827D01*
X233126Y-7874D02*
X235095D01*
X234111Y-8858D02*
Y-6890D01*
X243110Y-0D02*
X245079D01*
X244094Y-984D02*
Y984D01*
X235236Y0D02*
X237205D01*
X236221Y-984D02*
Y984D01*
X239946Y11811D02*
X241914D01*
X240930Y10827D02*
Y12795D01*
X233126Y7874D02*
X235095D01*
X234111Y6890D02*
Y8858D01*
X231299Y20457D02*
X233268D01*
X232283Y19473D02*
Y21441D01*
X227362Y13638D02*
X229331D01*
X228346Y12654D02*
Y14622D01*
X219488Y23622D02*
X221457D01*
X220473Y22638D02*
Y24606D01*
X219488Y15748D02*
X221457D01*
X220472Y14764D02*
Y16732D01*
X207677Y20457D02*
X209646D01*
X208661Y19473D02*
Y21442D01*
X211614Y13638D02*
X213583D01*
X212598Y12654D02*
Y14622D01*
X199031Y11811D02*
X200999D01*
X200015Y10827D02*
Y12795D01*
X205850Y7874D02*
X207819D01*
X206834Y6890D02*
Y8858D01*
X195866Y0D02*
X197835D01*
X196850Y-984D02*
Y984D01*
X203740Y0D02*
X205709D01*
X204724Y-984D02*
Y984D01*
X199031Y-11811D02*
X200999D01*
X200015Y-12795D02*
Y-10827D01*
X205850Y-7874D02*
X207819D01*
X206834Y-8858D02*
Y-6890D01*
X207677Y-20457D02*
X209646D01*
X208661Y-21441D02*
Y-19473D01*
X211614Y-13638D02*
X213583D01*
X212598Y-14622D02*
Y-12654D01*
X219488Y-23622D02*
X221457D01*
X220472Y-24606D02*
Y-22638D01*
X219488Y-15748D02*
X221457D01*
X220472Y-16732D02*
Y-14764D01*
X105315Y-20457D02*
X107283D01*
X106299Y-21442D02*
Y-19473D01*
X101378Y-13638D02*
X103347D01*
X102362Y-14622D02*
Y-12654D01*
X113961Y-11811D02*
X115930D01*
X114945Y-12795D02*
Y-10827D01*
X107142Y-7874D02*
X109111D01*
X108126Y-8858D02*
Y-6890D01*
X117126Y-0D02*
X119095D01*
X118110Y-984D02*
Y984D01*
X109252Y0D02*
X111221D01*
X110236Y-984D02*
Y984D01*
X113961Y11811D02*
X115930D01*
X114945Y10827D02*
Y12795D01*
X107142Y7874D02*
X109111D01*
X108126Y6890D02*
Y8858D01*
X105315Y20457D02*
X107283D01*
X106299Y19473D02*
Y21441D01*
X101378Y13638D02*
X103347D01*
X102362Y12654D02*
Y14622D01*
X93504Y23622D02*
X95473D01*
X94488Y22638D02*
Y24606D01*
X93504Y15748D02*
X95472D01*
X94488Y14764D02*
Y16732D01*
X81693Y20457D02*
X83661D01*
X82677Y19473D02*
Y21442D01*
X85630Y13638D02*
X87598D01*
X86614Y12654D02*
Y14622D01*
X73047Y11811D02*
X75015D01*
X74031Y10827D02*
Y12795D01*
X79866Y7874D02*
X81834D01*
X80850Y6890D02*
Y8858D01*
X69882Y0D02*
X71850D01*
X70866Y-984D02*
Y984D01*
X77756Y0D02*
X79724D01*
X78740Y-984D02*
Y984D01*
X73047Y-11811D02*
X75015D01*
X74031Y-12795D02*
Y-10827D01*
X79866Y-7874D02*
X81834D01*
X80850Y-8858D02*
Y-6890D01*
X81693Y-20457D02*
X83661D01*
X82677Y-21441D02*
Y-19473D01*
X85630Y-13638D02*
X87598D01*
X86614Y-14622D02*
Y-12654D01*
X93504Y-23622D02*
X95472D01*
X94488Y-24606D02*
Y-22638D01*
X93504Y-15748D02*
X95472D01*
X94488Y-16732D02*
Y-14764D01*
X-83661Y-20457D02*
X-81693D01*
X-82677Y-21442D02*
Y-19473D01*
X-87598Y-13638D02*
X-85630D01*
X-86614Y-14622D02*
Y-12654D01*
X-75015Y-11811D02*
X-73047D01*
X-74031Y-12795D02*
Y-10827D01*
X-81834Y-7874D02*
X-79866D01*
X-80850Y-8858D02*
Y-6890D01*
X-71850Y-0D02*
X-69882D01*
X-70866Y-984D02*
Y984D01*
X-79724Y0D02*
X-77756D01*
X-78740Y-984D02*
Y984D01*
X-75015Y11811D02*
X-73047D01*
X-74031Y10827D02*
Y12795D01*
X-81834Y7874D02*
X-79866D01*
X-80850Y6890D02*
Y8858D01*
X-83661Y20457D02*
X-81693D01*
X-82677Y19473D02*
Y21441D01*
X-87598Y13638D02*
X-85630D01*
X-86614Y12654D02*
Y14622D01*
X-95472Y23622D02*
X-93504D01*
X-94488Y22638D02*
Y24606D01*
X-95472Y15748D02*
X-93504D01*
X-94488Y14764D02*
Y16732D01*
X-107283Y20457D02*
X-105315D01*
X-106299Y19473D02*
Y21442D01*
X-103346Y13638D02*
X-101378D01*
X-102362Y12654D02*
Y14622D01*
X-115930Y11811D02*
X-113961D01*
X-114945Y10827D02*
Y12795D01*
X-109111Y7874D02*
X-107142D01*
X-108126Y6890D02*
Y8858D01*
X-119095Y0D02*
X-117126D01*
X-118110Y-984D02*
Y984D01*
X-111221Y0D02*
X-109252D01*
X-110236Y-984D02*
Y984D01*
X-115930Y-11811D02*
X-113961D01*
X-114945Y-12795D02*
Y-10827D01*
X-109111Y-7874D02*
X-107142D01*
X-108126Y-8858D02*
Y-6890D01*
X-107283Y-20457D02*
X-105315D01*
X-106299Y-21441D02*
Y-19473D01*
X-103346Y-13638D02*
X-101378D01*
X-102362Y-14622D02*
Y-12654D01*
X-95472Y-23622D02*
X-93504D01*
X-94488Y-24606D02*
Y-22638D01*
X-95472Y-15748D02*
X-93504D01*
X-94488Y-16732D02*
Y-14764D01*
X-221457Y-15748D02*
X-219488D01*
X-220472Y-16732D02*
Y-14764D01*
X-221457Y-23622D02*
X-219488D01*
X-220472Y-24606D02*
Y-22638D01*
X-229331Y-13638D02*
X-227362D01*
X-228346Y-14622D02*
Y-12654D01*
X-233268Y-20457D02*
X-231299D01*
X-232283Y-21441D02*
Y-19473D01*
X-235095Y-7874D02*
X-233126D01*
X-234111Y-8858D02*
Y-6890D01*
X-241914Y-11811D02*
X-239946D01*
X-240930Y-12795D02*
Y-10827D01*
X-237205Y0D02*
X-235236D01*
X-236221Y-984D02*
Y984D01*
X-245079Y0D02*
X-243110D01*
X-244094Y-984D02*
Y984D01*
X-235095Y7874D02*
X-233126D01*
X-234111Y6890D02*
Y8858D01*
X-241914Y11811D02*
X-239946D01*
X-240930Y10827D02*
Y12795D01*
X-229331Y13638D02*
X-227362D01*
X-228346Y12654D02*
Y14622D01*
X-233268Y20457D02*
X-231299D01*
X-232283Y19473D02*
Y21442D01*
X-221457Y15748D02*
X-219488D01*
X-220472Y14764D02*
Y16732D01*
X-221457Y23622D02*
X-219488D01*
X-220472Y22638D02*
Y24606D01*
X-213583Y13638D02*
X-211614D01*
X-212598Y12654D02*
Y14622D01*
X-209646Y20457D02*
X-207677D01*
X-208661Y19473D02*
Y21441D01*
X-207819Y7874D02*
X-205850D01*
X-206834Y6890D02*
Y8858D01*
X-200999Y11811D02*
X-199031D01*
X-200015Y10827D02*
Y12795D01*
X-205709Y0D02*
X-203740D01*
X-204724Y-984D02*
Y984D01*
X-197835Y-0D02*
X-195866D01*
X-196850Y-984D02*
Y984D01*
X-207819Y-7874D02*
X-205850D01*
X-206834Y-8858D02*
Y-6890D01*
X-200999Y-11811D02*
X-199031D01*
X-200015Y-12795D02*
Y-10827D01*
X-213583Y-13638D02*
X-211614D01*
X-212598Y-14622D02*
Y-12654D01*
X-209646Y-20457D02*
X-207677D01*
X-208661Y-21442D02*
Y-19473D01*
M02*
