G04*
G04 #@! TF.GenerationSoftware,Altium Limited,Altium Designer,18.1.9 (240)*
G04*
G04 Layer_Color=32896*
%FSLAX25Y25*%
%MOIN*%
G70*
G01*
G75*
%ADD10C,0.01968*%
%ADD11C,0.00984*%
%ADD13C,0.01000*%
D10*
X144488Y-122047D02*
X144448Y-121046D01*
X144329Y-120052D01*
X144131Y-119070D01*
X143856Y-118106D01*
X143505Y-117168D01*
X143081Y-116261D01*
X142586Y-115390D01*
X142023Y-114561D01*
X141396Y-113780D01*
X140709Y-113051D01*
X139966Y-112378D01*
X139173Y-111767D01*
X138333Y-111221D01*
X137452Y-110743D01*
X136537Y-110337D01*
X135592Y-110005D01*
X134623Y-109749D01*
X133638Y-109571D01*
X132641Y-109471D01*
X131639Y-109451D01*
X130639Y-109511D01*
X129647Y-109650D01*
X128669Y-109867D01*
X127712Y-110162D01*
X126781Y-110531D01*
X125882Y-110974D01*
X125021Y-111486D01*
X124204Y-112065D01*
X123435Y-112707D01*
X122720Y-113408D01*
X122062Y-114164D01*
X121467Y-114970D01*
X120938Y-115821D01*
X120478Y-116710D01*
X120090Y-117634D01*
X119776Y-118585D01*
X119540Y-119559D01*
X119381Y-120548D01*
X119301Y-121546D01*
Y-122548D01*
X119381Y-123547D01*
X119540Y-124536D01*
X119776Y-125509D01*
X120090Y-126461D01*
X120478Y-127384D01*
X120938Y-128274D01*
X121467Y-129124D01*
X122062Y-129930D01*
X122720Y-130686D01*
X123435Y-131387D01*
X124204Y-132029D01*
X125021Y-132609D01*
X125882Y-133121D01*
X126781Y-133563D01*
X127712Y-133933D01*
X128669Y-134227D01*
X129647Y-134444D01*
X130639Y-134583D01*
X131639Y-134643D01*
X132641Y-134623D01*
X133638Y-134524D01*
X134623Y-134345D01*
X135592Y-134090D01*
X136537Y-133757D01*
X137452Y-133351D01*
X138333Y-132873D01*
X139173Y-132327D01*
X139967Y-131716D01*
X140709Y-131044D01*
X141396Y-130315D01*
X142023Y-129533D01*
X142586Y-128705D01*
X143081Y-127834D01*
X143505Y-126926D01*
X143856Y-125988D01*
X144131Y-125025D01*
X144329Y-124043D01*
X144448Y-123048D01*
X144488Y-122047D01*
Y-311024D02*
X144448Y-310023D01*
X144329Y-309028D01*
X144131Y-308046D01*
X143856Y-307083D01*
X143505Y-306145D01*
X143081Y-305237D01*
X142586Y-304366D01*
X142023Y-303538D01*
X141396Y-302756D01*
X140709Y-302027D01*
X139966Y-301355D01*
X139173Y-300744D01*
X138333Y-300198D01*
X137452Y-299720D01*
X136537Y-299314D01*
X135592Y-298981D01*
X134623Y-298725D01*
X133638Y-298547D01*
X132641Y-298448D01*
X131639Y-298428D01*
X130639Y-298487D01*
X129647Y-298626D01*
X128669Y-298844D01*
X127712Y-299138D01*
X126781Y-299508D01*
X125882Y-299950D01*
X125021Y-300462D01*
X124204Y-301041D01*
X123435Y-301683D01*
X122720Y-302385D01*
X122062Y-303141D01*
X121467Y-303946D01*
X120938Y-304797D01*
X120478Y-305687D01*
X120090Y-306610D01*
X119776Y-307562D01*
X119540Y-308535D01*
X119381Y-309524D01*
X119301Y-310523D01*
Y-311525D01*
X119381Y-312523D01*
X119540Y-313512D01*
X119776Y-314486D01*
X120090Y-315437D01*
X120478Y-316361D01*
X120938Y-317250D01*
X121467Y-318101D01*
X122062Y-318907D01*
X122720Y-319662D01*
X123435Y-320364D01*
X124204Y-321006D01*
X125021Y-321585D01*
X125882Y-322097D01*
X126781Y-322540D01*
X127712Y-322909D01*
X128669Y-323203D01*
X129647Y-323421D01*
X130639Y-323560D01*
X131639Y-323620D01*
X132641Y-323600D01*
X133638Y-323500D01*
X134623Y-323322D01*
X135592Y-323066D01*
X136537Y-322734D01*
X137452Y-322327D01*
X138333Y-321850D01*
X139173Y-321304D01*
X139967Y-320692D01*
X140709Y-320020D01*
X141396Y-319291D01*
X142023Y-318510D01*
X142586Y-317681D01*
X143081Y-316810D01*
X143505Y-315903D01*
X143856Y-314964D01*
X144131Y-314001D01*
X144329Y-313019D01*
X144448Y-312024D01*
X144488Y-311024D01*
X-221654Y-122047D02*
X-221693Y-121046D01*
X-221813Y-120052D01*
X-222010Y-119070D01*
X-222286Y-118106D01*
X-222637Y-117168D01*
X-223061Y-116261D01*
X-223556Y-115390D01*
X-224119Y-114561D01*
X-224746Y-113780D01*
X-225432Y-113051D01*
X-226175Y-112378D01*
X-226969Y-111767D01*
X-227809Y-111221D01*
X-228689Y-110743D01*
X-229605Y-110337D01*
X-230550Y-110005D01*
X-231518Y-109749D01*
X-232504Y-109571D01*
X-233501Y-109471D01*
X-234503Y-109451D01*
X-235502Y-109511D01*
X-236494Y-109650D01*
X-237472Y-109867D01*
X-238430Y-110162D01*
X-239361Y-110531D01*
X-240260Y-110974D01*
X-241121Y-111486D01*
X-241938Y-112065D01*
X-242707Y-112707D01*
X-243422Y-113408D01*
X-244079Y-114164D01*
X-244675Y-114970D01*
X-245204Y-115821D01*
X-245664Y-116710D01*
X-246052Y-117634D01*
X-246365Y-118585D01*
X-246602Y-119559D01*
X-246761Y-120548D01*
X-246841Y-121546D01*
Y-122548D01*
X-246761Y-123547D01*
X-246602Y-124536D01*
X-246365Y-125509D01*
X-246052Y-126461D01*
X-245664Y-127384D01*
X-245204Y-128274D01*
X-244675Y-129124D01*
X-244079Y-129930D01*
X-243422Y-130686D01*
X-242707Y-131387D01*
X-241938Y-132029D01*
X-241121Y-132609D01*
X-240260Y-133121D01*
X-239361Y-133563D01*
X-238430Y-133933D01*
X-237472Y-134227D01*
X-236494Y-134444D01*
X-235502Y-134583D01*
X-234503Y-134643D01*
X-233501Y-134623D01*
X-232504Y-134524D01*
X-231518Y-134345D01*
X-230550Y-134090D01*
X-229605Y-133757D01*
X-228689Y-133351D01*
X-227809Y-132873D01*
X-226969Y-132327D01*
X-226175Y-131716D01*
X-225432Y-131044D01*
X-224746Y-130315D01*
X-224119Y-129533D01*
X-223556Y-128705D01*
X-223061Y-127834D01*
X-222637Y-126926D01*
X-222286Y-125988D01*
X-222010Y-125025D01*
X-221813Y-124043D01*
X-221693Y-123048D01*
X-221654Y-122047D01*
Y-311024D02*
X-221693Y-310023D01*
X-221813Y-309028D01*
X-222010Y-308046D01*
X-222286Y-307083D01*
X-222637Y-306145D01*
X-223061Y-305237D01*
X-223556Y-304366D01*
X-224119Y-303538D01*
X-224746Y-302756D01*
X-225432Y-302027D01*
X-226175Y-301355D01*
X-226969Y-300744D01*
X-227809Y-300198D01*
X-228689Y-299720D01*
X-229605Y-299314D01*
X-230550Y-298981D01*
X-231518Y-298725D01*
X-232504Y-298547D01*
X-233501Y-298448D01*
X-234503Y-298428D01*
X-235502Y-298487D01*
X-236494Y-298626D01*
X-237472Y-298844D01*
X-238430Y-299138D01*
X-239361Y-299508D01*
X-240260Y-299950D01*
X-241121Y-300462D01*
X-241938Y-301041D01*
X-242707Y-301683D01*
X-243422Y-302385D01*
X-244079Y-303141D01*
X-244675Y-303946D01*
X-245204Y-304797D01*
X-245664Y-305687D01*
X-246052Y-306610D01*
X-246365Y-307562D01*
X-246602Y-308535D01*
X-246761Y-309524D01*
X-246841Y-310523D01*
Y-311525D01*
X-246761Y-312523D01*
X-246602Y-313512D01*
X-246365Y-314486D01*
X-246052Y-315437D01*
X-245664Y-316361D01*
X-245204Y-317250D01*
X-244675Y-318101D01*
X-244079Y-318907D01*
X-243422Y-319662D01*
X-242707Y-320364D01*
X-241938Y-321006D01*
X-241121Y-321585D01*
X-240260Y-322097D01*
X-239361Y-322540D01*
X-238430Y-322909D01*
X-237472Y-323203D01*
X-236494Y-323421D01*
X-235502Y-323560D01*
X-234503Y-323620D01*
X-233501Y-323600D01*
X-232504Y-323500D01*
X-231518Y-323322D01*
X-230550Y-323066D01*
X-229605Y-322734D01*
X-228689Y-322327D01*
X-227809Y-321850D01*
X-226969Y-321304D01*
X-226175Y-320692D01*
X-225432Y-320020D01*
X-224746Y-319291D01*
X-224119Y-318510D01*
X-223556Y-317681D01*
X-223061Y-316810D01*
X-222637Y-315903D01*
X-222286Y-314964D01*
X-222010Y-314001D01*
X-221813Y-313019D01*
X-221693Y-312024D01*
X-221654Y-311024D01*
X-221457Y-338583D02*
X-221496Y-337579D01*
X-221614Y-336581D01*
X-221810Y-335596D01*
X-222083Y-334629D01*
X-222431Y-333686D01*
X-222851Y-332774D01*
X-223342Y-331897D01*
X-223900Y-331062D01*
X-224522Y-330273D01*
X-225204Y-329535D01*
X-225942Y-328853D01*
X-226731Y-328231D01*
X-227567Y-327673D01*
X-228443Y-327182D01*
X-229355Y-326761D01*
X-230298Y-326414D01*
X-231265Y-326141D01*
X-232250Y-325945D01*
X-233248Y-325827D01*
X-234252Y-325787D01*
X-235256Y-325827D01*
X-236254Y-325945D01*
X-237239Y-326141D01*
X-238206Y-326414D01*
X-239148Y-326761D01*
X-240061Y-327182D01*
X-240937Y-327673D01*
X-241773Y-328231D01*
X-242562Y-328853D01*
X-243300Y-329535D01*
X-243982Y-330273D01*
X-244604Y-331062D01*
X-245162Y-331897D01*
X-245653Y-332774D01*
X-246073Y-333686D01*
X-246421Y-334629D01*
X-246694Y-335596D01*
X-246890Y-336581D01*
X-247008Y-337579D01*
X-247047Y-338583D01*
X-247008Y-339587D01*
X-246890Y-340584D01*
X-246694Y-341570D01*
X-246421Y-342537D01*
X-246073Y-343479D01*
X-245653Y-344392D01*
X-245162Y-345268D01*
X-244604Y-346104D01*
X-243982Y-346892D01*
X-243300Y-347630D01*
X-242562Y-348312D01*
X-241773Y-348934D01*
X-240937Y-349492D01*
X-240061Y-349983D01*
X-239148Y-350404D01*
X-238206Y-350752D01*
X-237239Y-351024D01*
X-236254Y-351220D01*
X-235256Y-351339D01*
X-234252Y-351378D01*
X-233248Y-351339D01*
X-232250Y-351220D01*
X-231265Y-351024D01*
X-230298Y-350752D01*
X-229355Y-350404D01*
X-228443Y-349983D01*
X-227567Y-349492D01*
X-226731Y-348934D01*
X-225942Y-348312D01*
X-225204Y-347630D01*
X-224522Y-346892D01*
X-223900Y-346104D01*
X-223342Y-345268D01*
X-222851Y-344392D01*
X-222431Y-343479D01*
X-222083Y-342537D01*
X-221810Y-341570D01*
X-221614Y-340584D01*
X-221496Y-339587D01*
X-221457Y-338583D01*
Y-94488D02*
X-221496Y-93484D01*
X-221614Y-92487D01*
X-221810Y-91501D01*
X-222083Y-90534D01*
X-222431Y-89592D01*
X-222851Y-88679D01*
X-223342Y-87803D01*
X-223900Y-86967D01*
X-224522Y-86178D01*
X-225204Y-85441D01*
X-225942Y-84759D01*
X-226731Y-84137D01*
X-227567Y-83578D01*
X-228443Y-83087D01*
X-229355Y-82667D01*
X-230298Y-82319D01*
X-231265Y-82046D01*
X-232250Y-81850D01*
X-233248Y-81732D01*
X-234252Y-81693D01*
X-235256Y-81732D01*
X-236254Y-81850D01*
X-237239Y-82046D01*
X-238206Y-82319D01*
X-239148Y-82667D01*
X-240061Y-83087D01*
X-240937Y-83578D01*
X-241773Y-84137D01*
X-242562Y-84759D01*
X-243300Y-85441D01*
X-243982Y-86178D01*
X-244604Y-86967D01*
X-245162Y-87803D01*
X-245653Y-88679D01*
X-246073Y-89592D01*
X-246421Y-90534D01*
X-246694Y-91501D01*
X-246890Y-92487D01*
X-247008Y-93484D01*
X-247047Y-94488D01*
X-247008Y-95492D01*
X-246890Y-96490D01*
X-246694Y-97475D01*
X-246421Y-98442D01*
X-246073Y-99385D01*
X-245653Y-100297D01*
X-245162Y-101174D01*
X-244604Y-102009D01*
X-243982Y-102798D01*
X-243300Y-103536D01*
X-242562Y-104218D01*
X-241773Y-104840D01*
X-240937Y-105398D01*
X-240061Y-105889D01*
X-239148Y-106309D01*
X-238206Y-106657D01*
X-237239Y-106930D01*
X-236254Y-107126D01*
X-235256Y-107244D01*
X-234252Y-107283D01*
X-233248Y-107244D01*
X-232250Y-107126D01*
X-231265Y-106930D01*
X-230298Y-106657D01*
X-229355Y-106309D01*
X-228443Y-105889D01*
X-227567Y-105398D01*
X-226731Y-104840D01*
X-225942Y-104218D01*
X-225204Y-103536D01*
X-224522Y-102798D01*
X-223900Y-102009D01*
X-223342Y-101174D01*
X-222851Y-100297D01*
X-222431Y-99385D01*
X-222083Y-98442D01*
X-221810Y-97475D01*
X-221614Y-96490D01*
X-221496Y-95492D01*
X-221457Y-94488D01*
X144685Y-338583D02*
X144646Y-337579D01*
X144527Y-336581D01*
X144332Y-335596D01*
X144059Y-334629D01*
X143711Y-333686D01*
X143290Y-332774D01*
X142799Y-331897D01*
X142241Y-331062D01*
X141619Y-330273D01*
X140937Y-329535D01*
X140200Y-328853D01*
X139411Y-328231D01*
X138575Y-327673D01*
X137699Y-327182D01*
X136786Y-326761D01*
X135844Y-326414D01*
X134877Y-326141D01*
X133891Y-325945D01*
X132894Y-325827D01*
X131890Y-325787D01*
X130886Y-325827D01*
X129888Y-325945D01*
X128903Y-326141D01*
X127936Y-326414D01*
X126993Y-326761D01*
X126081Y-327182D01*
X125204Y-327673D01*
X124369Y-328231D01*
X123580Y-328853D01*
X122842Y-329535D01*
X122160Y-330273D01*
X121538Y-331062D01*
X120980Y-331897D01*
X120489Y-332774D01*
X120069Y-333686D01*
X119721Y-334629D01*
X119448Y-335596D01*
X119252Y-336581D01*
X119134Y-337579D01*
X119095Y-338583D01*
X119134Y-339587D01*
X119252Y-340584D01*
X119448Y-341570D01*
X119721Y-342537D01*
X120069Y-343479D01*
X120489Y-344392D01*
X120980Y-345268D01*
X121538Y-346104D01*
X122160Y-346892D01*
X122842Y-347630D01*
X123580Y-348312D01*
X124369Y-348934D01*
X125204Y-349492D01*
X126081Y-349983D01*
X126993Y-350404D01*
X127936Y-350752D01*
X128903Y-351024D01*
X129888Y-351220D01*
X130886Y-351339D01*
X131890Y-351378D01*
X132894Y-351339D01*
X133891Y-351220D01*
X134877Y-351024D01*
X135844Y-350752D01*
X136786Y-350404D01*
X137699Y-349983D01*
X138575Y-349492D01*
X139411Y-348934D01*
X140200Y-348312D01*
X140937Y-347630D01*
X141619Y-346892D01*
X142241Y-346104D01*
X142799Y-345268D01*
X143290Y-344392D01*
X143711Y-343479D01*
X144059Y-342537D01*
X144332Y-341570D01*
X144527Y-340584D01*
X144646Y-339587D01*
X144685Y-338583D01*
Y-94488D02*
X144646Y-93484D01*
X144527Y-92487D01*
X144332Y-91501D01*
X144059Y-90534D01*
X143711Y-89592D01*
X143290Y-88679D01*
X142799Y-87803D01*
X142241Y-86967D01*
X141619Y-86178D01*
X140937Y-85441D01*
X140200Y-84759D01*
X139411Y-84137D01*
X138575Y-83578D01*
X137699Y-83087D01*
X136786Y-82667D01*
X135844Y-82319D01*
X134877Y-82046D01*
X133891Y-81850D01*
X132894Y-81732D01*
X131890Y-81693D01*
X130886Y-81732D01*
X129888Y-81850D01*
X128903Y-82046D01*
X127936Y-82319D01*
X126993Y-82667D01*
X126081Y-83087D01*
X125204Y-83578D01*
X124369Y-84137D01*
X123580Y-84759D01*
X122842Y-85441D01*
X122160Y-86178D01*
X121538Y-86967D01*
X120980Y-87803D01*
X120489Y-88679D01*
X120069Y-89592D01*
X119721Y-90534D01*
X119448Y-91501D01*
X119252Y-92487D01*
X119134Y-93484D01*
X119095Y-94488D01*
X119134Y-95492D01*
X119252Y-96490D01*
X119448Y-97475D01*
X119721Y-98442D01*
X120069Y-99385D01*
X120489Y-100297D01*
X120980Y-101174D01*
X121538Y-102009D01*
X122160Y-102798D01*
X122842Y-103536D01*
X123580Y-104218D01*
X124369Y-104840D01*
X125204Y-105398D01*
X126081Y-105889D01*
X126993Y-106309D01*
X127936Y-106657D01*
X128903Y-106930D01*
X129888Y-107126D01*
X130886Y-107244D01*
X131890Y-107283D01*
X132894Y-107244D01*
X133891Y-107126D01*
X134877Y-106930D01*
X135844Y-106657D01*
X136786Y-106309D01*
X137699Y-105889D01*
X138575Y-105398D01*
X139411Y-104840D01*
X140200Y-104218D01*
X140937Y-103536D01*
X141619Y-102798D01*
X142241Y-102009D01*
X142799Y-101174D01*
X143290Y-100297D01*
X143711Y-99385D01*
X144059Y-98442D01*
X144332Y-97475D01*
X144527Y-96490D01*
X144646Y-95492D01*
X144685Y-94488D01*
Y338583D02*
X144646Y339587D01*
X144527Y340584D01*
X144332Y341570D01*
X144059Y342537D01*
X143711Y343479D01*
X143290Y344392D01*
X142799Y345268D01*
X142241Y346104D01*
X141619Y346892D01*
X140937Y347630D01*
X140200Y348312D01*
X139411Y348934D01*
X138575Y349492D01*
X137699Y349983D01*
X136786Y350404D01*
X135844Y350752D01*
X134877Y351024D01*
X133891Y351220D01*
X132894Y351339D01*
X131890Y351378D01*
X130886Y351339D01*
X129888Y351220D01*
X128903Y351024D01*
X127936Y350752D01*
X126993Y350404D01*
X126081Y349983D01*
X125204Y349492D01*
X124369Y348934D01*
X123580Y348312D01*
X122842Y347630D01*
X122160Y346892D01*
X121538Y346104D01*
X120980Y345268D01*
X120489Y344392D01*
X120069Y343479D01*
X119721Y342537D01*
X119448Y341570D01*
X119252Y340584D01*
X119134Y339587D01*
X119095Y338583D01*
X119134Y337579D01*
X119252Y336581D01*
X119448Y335596D01*
X119721Y334629D01*
X120069Y333686D01*
X120489Y332774D01*
X120980Y331897D01*
X121538Y331062D01*
X122160Y330273D01*
X122842Y329535D01*
X123580Y328853D01*
X124369Y328231D01*
X125204Y327673D01*
X126081Y327182D01*
X126993Y326761D01*
X127936Y326414D01*
X128903Y326141D01*
X129888Y325945D01*
X130886Y325827D01*
X131890Y325787D01*
X132894Y325827D01*
X133891Y325945D01*
X134877Y326141D01*
X135844Y326414D01*
X136786Y326761D01*
X137699Y327182D01*
X138575Y327673D01*
X139411Y328231D01*
X140200Y328853D01*
X140937Y329535D01*
X141619Y330273D01*
X142241Y331062D01*
X142799Y331897D01*
X143290Y332774D01*
X143711Y333686D01*
X144059Y334629D01*
X144332Y335596D01*
X144527Y336581D01*
X144646Y337579D01*
X144685Y338583D01*
Y94488D02*
X144646Y95492D01*
X144527Y96490D01*
X144332Y97475D01*
X144059Y98442D01*
X143711Y99385D01*
X143290Y100297D01*
X142799Y101174D01*
X142241Y102009D01*
X141619Y102798D01*
X140937Y103536D01*
X140200Y104218D01*
X139411Y104840D01*
X138575Y105398D01*
X137699Y105889D01*
X136786Y106309D01*
X135844Y106657D01*
X134877Y106930D01*
X133891Y107126D01*
X132894Y107244D01*
X131890Y107283D01*
X130886Y107244D01*
X129888Y107126D01*
X128903Y106930D01*
X127936Y106657D01*
X126993Y106309D01*
X126081Y105889D01*
X125204Y105398D01*
X124369Y104840D01*
X123580Y104218D01*
X122842Y103536D01*
X122160Y102798D01*
X121538Y102009D01*
X120980Y101174D01*
X120489Y100297D01*
X120069Y99385D01*
X119721Y98442D01*
X119448Y97475D01*
X119252Y96490D01*
X119134Y95492D01*
X119095Y94488D01*
X119134Y93484D01*
X119252Y92487D01*
X119448Y91501D01*
X119721Y90534D01*
X120069Y89592D01*
X120489Y88679D01*
X120980Y87803D01*
X121538Y86967D01*
X122160Y86178D01*
X122842Y85441D01*
X123580Y84759D01*
X124369Y84137D01*
X125204Y83578D01*
X126081Y83087D01*
X126993Y82667D01*
X127936Y82319D01*
X128903Y82046D01*
X129888Y81850D01*
X130886Y81732D01*
X131890Y81693D01*
X132894Y81732D01*
X133891Y81850D01*
X134877Y82046D01*
X135844Y82319D01*
X136786Y82667D01*
X137699Y83087D01*
X138575Y83578D01*
X139411Y84137D01*
X140200Y84759D01*
X140937Y85441D01*
X141619Y86178D01*
X142241Y86967D01*
X142799Y87803D01*
X143290Y88679D01*
X143711Y89592D01*
X144059Y90534D01*
X144332Y91501D01*
X144527Y92487D01*
X144646Y93484D01*
X144685Y94488D01*
X-221457Y338583D02*
X-221496Y339587D01*
X-221614Y340584D01*
X-221810Y341570D01*
X-222083Y342537D01*
X-222431Y343479D01*
X-222851Y344392D01*
X-223342Y345268D01*
X-223900Y346104D01*
X-224522Y346892D01*
X-225204Y347630D01*
X-225942Y348312D01*
X-226731Y348934D01*
X-227567Y349492D01*
X-228443Y349983D01*
X-229355Y350404D01*
X-230298Y350752D01*
X-231265Y351024D01*
X-232250Y351220D01*
X-233248Y351339D01*
X-234252Y351378D01*
X-235256Y351339D01*
X-236254Y351220D01*
X-237239Y351024D01*
X-238206Y350752D01*
X-239148Y350404D01*
X-240061Y349983D01*
X-240937Y349492D01*
X-241773Y348934D01*
X-242562Y348312D01*
X-243300Y347630D01*
X-243982Y346892D01*
X-244604Y346104D01*
X-245162Y345268D01*
X-245653Y344392D01*
X-246073Y343479D01*
X-246421Y342537D01*
X-246694Y341570D01*
X-246890Y340584D01*
X-247008Y339587D01*
X-247047Y338583D01*
X-247008Y337579D01*
X-246890Y336581D01*
X-246694Y335596D01*
X-246421Y334629D01*
X-246073Y333686D01*
X-245653Y332774D01*
X-245162Y331897D01*
X-244604Y331062D01*
X-243982Y330273D01*
X-243300Y329535D01*
X-242562Y328853D01*
X-241773Y328231D01*
X-240937Y327673D01*
X-240061Y327182D01*
X-239148Y326761D01*
X-238206Y326414D01*
X-237239Y326141D01*
X-236254Y325945D01*
X-235256Y325827D01*
X-234252Y325787D01*
X-233248Y325827D01*
X-232250Y325945D01*
X-231265Y326141D01*
X-230298Y326414D01*
X-229355Y326761D01*
X-228443Y327182D01*
X-227567Y327673D01*
X-226731Y328231D01*
X-225942Y328853D01*
X-225204Y329535D01*
X-224522Y330273D01*
X-223900Y331062D01*
X-223342Y331897D01*
X-222851Y332774D01*
X-222431Y333686D01*
X-222083Y334629D01*
X-221810Y335596D01*
X-221614Y336581D01*
X-221496Y337579D01*
X-221457Y338583D01*
Y94488D02*
X-221496Y95492D01*
X-221614Y96490D01*
X-221810Y97475D01*
X-222083Y98442D01*
X-222431Y99385D01*
X-222851Y100297D01*
X-223342Y101174D01*
X-223900Y102009D01*
X-224522Y102798D01*
X-225204Y103536D01*
X-225942Y104218D01*
X-226731Y104840D01*
X-227567Y105398D01*
X-228443Y105889D01*
X-229355Y106309D01*
X-230298Y106657D01*
X-231265Y106930D01*
X-232250Y107126D01*
X-233248Y107244D01*
X-234252Y107283D01*
X-235256Y107244D01*
X-236254Y107126D01*
X-237239Y106930D01*
X-238206Y106657D01*
X-239148Y106309D01*
X-240061Y105889D01*
X-240937Y105398D01*
X-241773Y104840D01*
X-242562Y104218D01*
X-243300Y103536D01*
X-243982Y102798D01*
X-244604Y102009D01*
X-245162Y101174D01*
X-245653Y100297D01*
X-246073Y99385D01*
X-246421Y98442D01*
X-246694Y97475D01*
X-246890Y96490D01*
X-247008Y95492D01*
X-247047Y94488D01*
X-247008Y93484D01*
X-246890Y92487D01*
X-246694Y91501D01*
X-246421Y90534D01*
X-246073Y89592D01*
X-245653Y88679D01*
X-245162Y87803D01*
X-244604Y86967D01*
X-243982Y86178D01*
X-243300Y85441D01*
X-242562Y84759D01*
X-241773Y84137D01*
X-240937Y83578D01*
X-240061Y83087D01*
X-239148Y82667D01*
X-238206Y82319D01*
X-237239Y82046D01*
X-236254Y81850D01*
X-235256Y81732D01*
X-234252Y81693D01*
X-233248Y81732D01*
X-232250Y81850D01*
X-231265Y82046D01*
X-230298Y82319D01*
X-229355Y82667D01*
X-228443Y83087D01*
X-227567Y83578D01*
X-226731Y84137D01*
X-225942Y84759D01*
X-225204Y85441D01*
X-224522Y86178D01*
X-223900Y86967D01*
X-223342Y87803D01*
X-222851Y88679D01*
X-222431Y89592D01*
X-222083Y90534D01*
X-221810Y91501D01*
X-221614Y92487D01*
X-221496Y93484D01*
X-221457Y94488D01*
X-221654Y122047D02*
X-221693Y123048D01*
X-221813Y124043D01*
X-222010Y125025D01*
X-222286Y125988D01*
X-222637Y126926D01*
X-223061Y127834D01*
X-223556Y128705D01*
X-224119Y129533D01*
X-224746Y130315D01*
X-225432Y131044D01*
X-226175Y131716D01*
X-226969Y132327D01*
X-227809Y132873D01*
X-228689Y133351D01*
X-229605Y133757D01*
X-230550Y134090D01*
X-231518Y134345D01*
X-232504Y134524D01*
X-233501Y134623D01*
X-234503Y134643D01*
X-235502Y134583D01*
X-236494Y134444D01*
X-237472Y134227D01*
X-238430Y133933D01*
X-239361Y133563D01*
X-240260Y133121D01*
X-241121Y132609D01*
X-241938Y132029D01*
X-242707Y131387D01*
X-243422Y130686D01*
X-244079Y129930D01*
X-244675Y129124D01*
X-245204Y128274D01*
X-245664Y127384D01*
X-246052Y126461D01*
X-246365Y125509D01*
X-246602Y124536D01*
X-246761Y123547D01*
X-246841Y122548D01*
Y121546D01*
X-246761Y120548D01*
X-246602Y119559D01*
X-246365Y118585D01*
X-246052Y117634D01*
X-245664Y116710D01*
X-245204Y115821D01*
X-244675Y114970D01*
X-244079Y114164D01*
X-243422Y113408D01*
X-242707Y112707D01*
X-241938Y112065D01*
X-241121Y111486D01*
X-240260Y110974D01*
X-239361Y110531D01*
X-238430Y110162D01*
X-237472Y109867D01*
X-236494Y109650D01*
X-235502Y109511D01*
X-234503Y109451D01*
X-233501Y109471D01*
X-232504Y109571D01*
X-231518Y109749D01*
X-230550Y110005D01*
X-229605Y110337D01*
X-228689Y110743D01*
X-227809Y111221D01*
X-226969Y111767D01*
X-226175Y112378D01*
X-225432Y113051D01*
X-224746Y113780D01*
X-224119Y114561D01*
X-223556Y115390D01*
X-223061Y116261D01*
X-222637Y117168D01*
X-222286Y118106D01*
X-222010Y119070D01*
X-221813Y120052D01*
X-221693Y121046D01*
X-221654Y122047D01*
Y311024D02*
X-221693Y312025D01*
X-221813Y313019D01*
X-222010Y314001D01*
X-222286Y314964D01*
X-222637Y315903D01*
X-223061Y316810D01*
X-223556Y317681D01*
X-224119Y318510D01*
X-224746Y319291D01*
X-225432Y320020D01*
X-226175Y320692D01*
X-226969Y321304D01*
X-227809Y321850D01*
X-228689Y322327D01*
X-229605Y322734D01*
X-230550Y323066D01*
X-231518Y323322D01*
X-232504Y323500D01*
X-233501Y323600D01*
X-234503Y323620D01*
X-235502Y323560D01*
X-236494Y323421D01*
X-237472Y323203D01*
X-238430Y322909D01*
X-239361Y322540D01*
X-240260Y322097D01*
X-241121Y321585D01*
X-241938Y321006D01*
X-242707Y320364D01*
X-243422Y319662D01*
X-244079Y318907D01*
X-244675Y318101D01*
X-245204Y317250D01*
X-245664Y316361D01*
X-246052Y315437D01*
X-246365Y314486D01*
X-246602Y313512D01*
X-246761Y312523D01*
X-246841Y311525D01*
Y310523D01*
X-246761Y309524D01*
X-246602Y308535D01*
X-246365Y307562D01*
X-246052Y306610D01*
X-245664Y305687D01*
X-245204Y304797D01*
X-244675Y303946D01*
X-244079Y303141D01*
X-243422Y302385D01*
X-242707Y301684D01*
X-241938Y301041D01*
X-241121Y300462D01*
X-240260Y299950D01*
X-239361Y299508D01*
X-238430Y299138D01*
X-237472Y298844D01*
X-236494Y298626D01*
X-235502Y298487D01*
X-234503Y298428D01*
X-233501Y298448D01*
X-232504Y298547D01*
X-231518Y298725D01*
X-230550Y298981D01*
X-229605Y299314D01*
X-228689Y299720D01*
X-227809Y300198D01*
X-226969Y300744D01*
X-226175Y301355D01*
X-225432Y302027D01*
X-224746Y302756D01*
X-224119Y303538D01*
X-223556Y304366D01*
X-223061Y305237D01*
X-222637Y306145D01*
X-222286Y307083D01*
X-222010Y308046D01*
X-221813Y309028D01*
X-221693Y310023D01*
X-221654Y311024D01*
X144488Y122047D02*
X144448Y123048D01*
X144329Y124043D01*
X144131Y125025D01*
X143856Y125988D01*
X143505Y126926D01*
X143081Y127834D01*
X142586Y128705D01*
X142023Y129533D01*
X141396Y130315D01*
X140709Y131044D01*
X139966Y131716D01*
X139173Y132327D01*
X138333Y132873D01*
X137452Y133351D01*
X136537Y133757D01*
X135592Y134090D01*
X134623Y134345D01*
X133638Y134524D01*
X132641Y134623D01*
X131639Y134643D01*
X130639Y134583D01*
X129647Y134444D01*
X128669Y134227D01*
X127712Y133933D01*
X126781Y133563D01*
X125882Y133121D01*
X125021Y132609D01*
X124204Y132029D01*
X123435Y131387D01*
X122720Y130686D01*
X122062Y129930D01*
X121467Y129124D01*
X120938Y128274D01*
X120478Y127384D01*
X120090Y126461D01*
X119776Y125509D01*
X119540Y124536D01*
X119381Y123547D01*
X119301Y122548D01*
Y121546D01*
X119381Y120548D01*
X119540Y119559D01*
X119776Y118585D01*
X120090Y117634D01*
X120478Y116710D01*
X120938Y115821D01*
X121467Y114970D01*
X122062Y114164D01*
X122720Y113408D01*
X123435Y112707D01*
X124204Y112065D01*
X125021Y111486D01*
X125882Y110974D01*
X126781Y110531D01*
X127712Y110162D01*
X128669Y109867D01*
X129647Y109650D01*
X130639Y109511D01*
X131639Y109451D01*
X132641Y109471D01*
X133638Y109571D01*
X134623Y109749D01*
X135592Y110005D01*
X136537Y110337D01*
X137452Y110743D01*
X138333Y111221D01*
X139173Y111767D01*
X139967Y112378D01*
X140709Y113051D01*
X141396Y113780D01*
X142023Y114561D01*
X142586Y115390D01*
X143081Y116261D01*
X143505Y117168D01*
X143856Y118106D01*
X144131Y119070D01*
X144329Y120052D01*
X144448Y121046D01*
X144488Y122047D01*
Y311024D02*
X144448Y312025D01*
X144329Y313019D01*
X144131Y314001D01*
X143856Y314964D01*
X143505Y315903D01*
X143081Y316810D01*
X142586Y317681D01*
X142023Y318510D01*
X141396Y319291D01*
X140709Y320020D01*
X139966Y320692D01*
X139173Y321304D01*
X138333Y321850D01*
X137452Y322327D01*
X136537Y322734D01*
X135592Y323066D01*
X134623Y323322D01*
X133638Y323500D01*
X132641Y323600D01*
X131639Y323620D01*
X130639Y323560D01*
X129647Y323421D01*
X128669Y323203D01*
X127712Y322909D01*
X126781Y322540D01*
X125882Y322097D01*
X125021Y321585D01*
X124204Y321006D01*
X123435Y320364D01*
X122720Y319662D01*
X122062Y318907D01*
X121467Y318101D01*
X120938Y317250D01*
X120478Y316361D01*
X120090Y315437D01*
X119776Y314486D01*
X119540Y313512D01*
X119381Y312523D01*
X119301Y311525D01*
Y310523D01*
X119381Y309524D01*
X119540Y308535D01*
X119776Y307562D01*
X120090Y306610D01*
X120478Y305687D01*
X120938Y304797D01*
X121467Y303946D01*
X122062Y303141D01*
X122720Y302385D01*
X123435Y301684D01*
X124204Y301041D01*
X125021Y300462D01*
X125882Y299950D01*
X126781Y299508D01*
X127712Y299138D01*
X128669Y298844D01*
X129647Y298626D01*
X130639Y298487D01*
X131639Y298428D01*
X132641Y298448D01*
X133638Y298547D01*
X134623Y298725D01*
X135592Y298981D01*
X136537Y299314D01*
X137452Y299720D01*
X138333Y300198D01*
X139173Y300744D01*
X139967Y301355D01*
X140709Y302027D01*
X141396Y302756D01*
X142023Y303538D01*
X142586Y304366D01*
X143081Y305237D01*
X143505Y306145D01*
X143856Y307083D01*
X144131Y308046D01*
X144329Y309028D01*
X144448Y310023D01*
X144488Y311024D01*
X-260630Y-95669D02*
X158268D01*
X-260630Y-337402D02*
X158268D01*
X-260630D02*
Y-95669D01*
X158268Y-337402D02*
Y-95669D01*
X-267717Y-374016D02*
Y-59055D01*
X165354Y-374016D02*
Y-59055D01*
X-267717Y-374016D02*
X165354D01*
X-267717Y-59055D02*
X165354D01*
X-267717Y374016D02*
X165354D01*
X-267717Y59055D02*
X165354D01*
Y374016D01*
X-267717Y59055D02*
Y374016D01*
X158268Y95669D02*
Y337402D01*
X-260630Y95669D02*
Y337402D01*
Y95669D02*
X158268D01*
X-260630Y337402D02*
X158268D01*
D11*
X-124177Y10809D02*
Y16712D01*
X-127129D01*
X-128113Y15728D01*
Y13760D01*
X-127129Y12776D01*
X-124177D01*
X-126145D02*
X-128113Y10809D01*
X-133033D02*
Y16712D01*
X-130081Y13760D01*
X-134017D01*
X190823Y10809D02*
Y16712D01*
X187871D01*
X186887Y15728D01*
Y13760D01*
X187871Y12776D01*
X190823D01*
X188855D02*
X186887Y10809D01*
X184919Y15728D02*
X183935Y16712D01*
X181967D01*
X180983Y15728D01*
Y14744D01*
X181967Y13760D01*
X182951D01*
X181967D01*
X180983Y12776D01*
Y11793D01*
X181967Y10809D01*
X183935D01*
X184919Y11793D01*
X170308Y-370042D02*
X174243D01*
X175227Y-371026D01*
Y-372994D01*
X174243Y-373978D01*
X170308D01*
X169324Y-372994D01*
Y-371026D01*
X171291Y-372010D02*
X169324Y-370042D01*
Y-371026D02*
X170308Y-370042D01*
X169324Y-364139D02*
Y-368074D01*
X173259Y-364139D01*
X174243D01*
X175227Y-365123D01*
Y-367090D01*
X174243Y-368074D01*
X170319Y63003D02*
X174255D01*
X175239Y62019D01*
Y60051D01*
X174255Y59067D01*
X170319D01*
X169335Y60051D01*
Y62019D01*
X171303Y61035D02*
X169335Y63003D01*
Y62019D02*
X170319Y63003D01*
X169335Y64970D02*
Y66938D01*
Y65955D01*
X175239D01*
X174255Y64970D01*
D13*
X-181102Y-5512D02*
X-133858D01*
X-181102D02*
Y5512D01*
X-133858Y-5512D02*
Y5512D01*
X-181102D02*
X-133858D01*
X133858Y-5512D02*
X181102D01*
X133858D02*
Y5512D01*
X181102Y-5512D02*
Y5512D01*
X133858D02*
X181102D01*
M02*
